<svg width="20" height="20" viewBox="0 0 20 20" fill="none" xmlns="http://www.w3.org/2000/svg">
<g clip-path="url(#clip0_17_13910)">
<path d="M9.99629 1C5.19629 1 3.50879 4.63 3.50879 6.925C3.50879 9.37 3.95129 10.2475 9.37379 18.655C9.4424 18.7571 9.53506 18.8407 9.64361 18.8986C9.75217 18.9564 9.87329 18.9867 9.99629 18.9867C10.1193 18.9867 10.2404 18.9564 10.349 18.8986C10.4575 18.8407 10.5502 18.7571 10.6188 18.655C16.0413 10.2475 16.4838 9.3775 16.4838 6.925C16.4913 4.63 14.7963 1 9.99629 1ZM9.99629 9.175C9.55128 9.175 9.11627 9.04304 8.74626 8.79581C8.37625 8.54857 8.08786 8.19717 7.91756 7.78604C7.74726 7.3749 7.70271 6.9225 7.78952 6.48605C7.87634 6.04959 8.09063 5.64868 8.4053 5.33401C8.71997 5.01934 9.12088 4.80505 9.55734 4.71823C9.99379 4.63142 10.4462 4.67597 10.8573 4.84627C11.2685 5.01657 11.6199 5.30496 11.8671 5.67497C12.1143 6.04498 12.2463 6.47999 12.2463 6.925C12.2463 7.52174 12.0092 8.09403 11.5873 8.51599C11.1653 8.93795 10.593 9.175 9.99629 9.175Z" fill="white"/>
</g>
<defs>
<clipPath id="clip0_17_13910">
<rect width="12.9825" height="18" fill="white" transform="translate(3.50879 1)"/>
</clipPath>
</defs>
</svg>
