<svg width="192" height="192" viewBox="0 0 192 192" fill="none" xmlns="http://www.w3.org/2000/svg">
<g clip-path="url(#clip0_17_13668)">
<path d="M96.0001 128C113.673 128 128 113.673 128 96.0002C128 78.3271 113.673 64.0002 96.0001 64.0002C78.3269 64.0002 64.0001 78.3271 64.0001 96.0002C64.0001 113.673 78.3269 128 96.0001 128Z" fill="#22C55E"/>
<path d="M182 86H171.28C169.073 69.4621 161.486 54.1099 149.688 42.3122C137.89 30.5144 122.538 22.9268 106 20.72V10C106 7.34784 104.946 4.8043 103.071 2.92893C101.196 1.05357 98.6522 0 96 0C93.3478 0 90.8043 1.05357 88.9289 2.92893C87.0536 4.8043 86 7.34784 86 10V20.72C69.4621 22.9268 54.1099 30.5144 42.3122 42.3122C30.5144 54.1099 22.9268 69.4621 20.72 86H10C7.34784 86 4.8043 87.0536 2.92893 88.9289C1.05357 90.8043 0 93.3478 0 96C0 98.6522 1.05357 101.196 2.92893 103.071C4.8043 104.946 7.34784 106 10 106H20.72C22.9268 122.538 30.5144 137.89 42.3122 149.688C54.1099 161.486 69.4621 169.073 86 171.28V182C86 184.652 87.0536 187.196 88.9289 189.071C90.8043 190.946 93.3478 192 96 192C98.6522 192 101.196 190.946 103.071 189.071C104.946 187.196 106 184.652 106 182V171.28C122.538 169.073 137.89 161.486 149.688 149.688C161.486 137.89 169.073 122.538 171.28 106H182C184.652 106 187.196 104.946 189.071 103.071C190.946 101.196 192 98.6522 192 96C192 93.3478 190.946 90.8043 189.071 88.9289C187.196 87.0536 184.652 86 182 86ZM96 152C84.9242 152 74.0972 148.716 64.8881 142.562C55.6789 136.409 48.5013 127.663 44.2627 117.43C40.0242 107.198 38.9153 95.9379 41.076 85.0749C43.2368 74.212 48.5703 64.2338 56.402 56.402C64.2338 48.5703 74.212 43.2368 85.0749 41.076C95.9379 38.9153 107.198 40.0242 117.43 44.2627C127.663 48.5013 136.409 55.6789 142.562 64.8881C148.716 74.0972 152 84.9242 152 96C152 110.852 146.1 125.096 135.598 135.598C125.096 146.1 110.852 152 96 152Z" fill="#0077E6"/>
</g>
<defs>
<clipPath id="clip0_17_13668">
<rect width="192" height="192" fill="white"/>
</clipPath>
</defs>
</svg>
