<?xml version="1.0" encoding="UTF-8"?><svg version="1.1" viewBox="0 0 20 20" xmlns="http://www.w3.org/2000/svg" xmlns:xlink="http://www.w3.org/1999/xlink"><g transform="matrix(.0390625 0 0 .0390625 0 0)"><path fill="#0052B4" d="M512 256c0 141.384-114.616 256-256 256 -141.384 0-256-114.616-256-256 0 .061 256-255.972 256-256 141.384 0 256 114.616 256 256Z"></path><path fill="#F0F0F0" d="M256 0c-.016 0-.028 0-.043 0h.043v0Z"></path><path fill="#F0F0F0" d="M255.315 256h.685c0-.23 0-.454 0-.685 -.228.229-.456.457-.685.685Z"></path><path fill="#F0F0F0" d="M256 133.565c0-45.045 0-74.56 0-133.565h-.043c-141.366.024-255.957 114.629-255.957 256h133.565v-75.211l75.211 75.211h46.54c.228-.228.456-.456.685-.685 0-17.247 0-32.636 0-46.537l-75.213-75.213h75.212Z"></path><path fill="#D80027" d="M129.515 33.391c-40.039 22.799-73.326 56.085-96.124 96.124v126.485h66.783v-155.824 -.002h155.826c0-21.063 0-41.129 0-66.783h-126.485Z"></path><path fill="#FFDA44" d="M367.304 256l-69.193 69.193c12.968 25.011 39.076 42.111 69.193 42.111 30.117 0 56.225-17.1 69.193-42.111l-69.193-69.193Z"></path><path fill="#D80027" d="M256 224.519l-90.955-90.953h-31.48v.002l122.433 122.432h.002c0 0 0-21.707 0-31.481Z"></path><path fill="#6DA544" d="M289.391 133.565v122.434 .001 0c.001 59.639 77.913 77.913 77.913 77.913 0 0 77.912-18.274 77.913-77.913v0 -.001 -122.434h-155.826Z"></path><path fill="#496E2D" d="M445.217 256v-.001 .001Z"></path><polygon fill="#496E2D" points="289.391,256 289.391,256 289.391,255.999"></polygon><rect width="33.391" height="89.043" x="350.609" y="189.217" fill="#F0F0F0"></rect><circle cx="367.304" cy="189.217" r="16.696" fill="#A2001D"></circle><rect width="22.261" height="22.261" x="311.652" y="155.826" fill="#FFDA44"></rect><rect width="22.261" height="22.261" x="311.652" y="205.913" fill="#FFDA44"></rect><rect width="22.261" height="22.261" x="311.652" y="256" fill="#FFDA44"></rect><rect width="22.261" height="22.261" x="400.696" y="155.826" fill="#FFDA44"></rect><rect width="22.261" height="22.261" x="400.696" y="205.913" fill="#FFDA44"></rect><rect width="22.261" height="22.261" x="400.696" y="256" fill="#FFDA44"></rect></g></svg>