<?xml version="1.0" encoding="UTF-8"?><svg version="1.1" viewBox="0 0 20 20" xmlns="http://www.w3.org/2000/svg" xmlns:xlink="http://www.w3.org/1999/xlink"><g transform="matrix(.0390625 0 0 .0390625 0 0)"><circle cx="256" cy="256" r="256" fill="#F0F0F0"></circle><path fill="#A2001D" d="M256 0c-105.835 0-196.663 64.226-235.652 155.826h471.305c-38.989-91.6-129.818-155.826-235.653-155.826Z"></path><path fill="#496E2D" d="M256 512c105.835 0 196.664-64.226 235.652-155.826h-471.304c38.989 91.6 129.817 155.826 235.652 155.826Z"></path><path fill="#0052B4" d="M503.181 189.217h-494.362c-5.739 21.293-8.819 43.676-8.819 66.783 0 23.107 3.08 45.49 8.819 66.783h494.363c5.738-21.293 8.818-43.676 8.818-66.783 0-23.107-3.08-45.49-8.819-66.783Z"></path></g></svg>