<?xml version="1.0" encoding="UTF-8"?><svg version="1.1" viewBox="0 0 20 20" xmlns="http://www.w3.org/2000/svg" xmlns:xlink="http://www.w3.org/1999/xlink"><g transform="matrix(.0390625 0 0 .0390625 0 0)"><circle cx="256" cy="256" r="256" fill="#F0F0F0"></circle><path fill="#0052B4" d="M380.196 32.112c-36.784-20.448-79.126-32.112-124.196-32.112 -141.374 0-255.982 114.598-256 255.97l178.087-89.013 202.109-134.845Z"></path><path fill="#0052B4" d="M0 256.03c.018 141.372 114.626 255.97 256 255.97 45.07 0 87.412-11.662 124.196-32.112l-202.109-134.845 -178.087-89.013Z"></path><path fill="#D80027" d="M401.53 45.382c-6.876-4.759-14.001-9.185-21.343-13.266l-380.187 223.854c0 .01 0 .02 0 .03 0 .01 0 .021 0 .03l380.188 223.853c7.342-4.082 14.466-8.507 21.343-13.266l-357.709-210.617 357.708-210.618Z"></path><path fill="#A2001D" d="M445.217 246.453h-30.494c7.929-9.52 7.44-23.683-1.493-32.614 9.462-9.461 9.462-24.802 0-34.265l-.57.572c9.461-9.461 10.032-25.374.57-34.835l-137.056 137.056c9.462 9.463 24.534 9.35 33.995-.112l2.638-2.411 65.628-5.966v28.226h22.261v-30.25l33.391-3.035 11.13-22.366Z"></path><polygon fill="#FFDA44" points="278.269,311.652 256,300.522 278.269,289.391 422.964,289.391 422.964,311.652"></polygon></g></svg>