<?xml version="1.0" encoding="UTF-8"?><svg version="1.1" viewBox="0 0 20 20" xmlns="http://www.w3.org/2000/svg" xmlns:xlink="http://www.w3.org/1999/xlink"><g transform="matrix(.0390625 0 0 .0390625 0 0)"><path fill="#338AF3" d="M512 256c0 141.384-114.616 256-256 256 -141.384 0-256-114.616-256-256 0 .061 256-255.972 256-256 141.384 0 256 114.616 256 256Z"></path><polygon fill="#0052B4" points="256,122.435 256,208.778 166.957,122.435"></polygon><polygon fill="#0052B4" points="133.565,256 208.777,256 133.565,155.826 122.435,233.739"></polygon><path fill="#F0F0F0" d="M256 0c-.016 0-.029 0-.043 0h.043v0Z"></path><path fill="#F0F0F0" d="M255.315 256h.685c0-.23 0-.454 0-.685 -.228.229-.456.457-.685.685Z"></path><path fill="#F0F0F0" d="M256 133.565c0-45.045 0-74.56 0-133.565h-.043c-141.365.024-255.957 114.629-255.957 256h133.565v-75.211l75.212 75.211h46.54c.228-.228.456-.456.685-.685 0-17.247 0-32.636 0-46.537l-75.214-75.213h75.212Z"></path><path fill="#D80027" d="M129.515 33.391c-40.039 22.799-73.325 56.085-96.124 96.124v126.485h66.783v-155.824 -.002h155.826c0-21.063 0-41.129 0-66.783h-126.485Z"></path><path fill="#D80027" d="M256 224.519l-90.953-90.953h-31.481v.002l122.432 122.432h.002c0 0 0-21.707 0-31.481Z"></path><path fill="#F3F3F3" d="M289.391 166.957v89.042c0 59.64 77.913 77.914 77.913 77.914 0 0 77.913-18.274 77.913-77.914v-89.042l-77.913-22.261 -77.913 22.261Z"></path><path fill="#D80027" d="M445.217 166.957v-33.391h-155.826v33.391h66.781v66.784h-66.781v22.259c0 .001 0 .002 0 .002l66.781.001v74.497c6.718 2.376 11.132 3.414 11.132 3.414 0 0 4.412-1.036 11.129-3.414v-74.498h66.784v-.002 -22.26h-66.784v-66.784h66.784Z"></path></g></svg>