<?xml version="1.0" encoding="UTF-8"?><svg version="1.1" viewBox="0 0 20 20" xmlns="http://www.w3.org/2000/svg" xmlns:xlink="http://www.w3.org/1999/xlink"><g transform="matrix(.0390625 0 0 .0390625 0 0)"><circle cx="256" cy="256" r="256" fill="#F0F0F0"></circle><path fill="#A2001D" d="M256 0c-110.071 0-203.906 69.472-240.077 166.957h480.155c-36.172-97.485-130.007-166.957-240.078-166.957Z"></path><path fill="#000" d="M256 512c110.071 0 203.906-69.472 240.077-166.957h-480.154c36.171 97.485 130.006 166.957 240.077 166.957Z"></path><path fill="#496E2D" d="M194.783 239.304c-.14 0-.277.009-.417.011v-.011h-48.937c2.481-9.586 11.179-16.696 21.528-16.696v-33.391c-30.687 0-55.652 24.966-55.652 55.652v27.27 .557h83.061c.188 0 .336 0 .417 0 3.069 0 5.565 2.497 5.565 5.565v11.13h-111.305v33.391h144.696v-44.522c-2.84217e-14-21.48-17.476-38.956-38.956-38.956Z"></path><polygon fill="#496E2D" points="278.261,289.391 278.261,189.217 244.87,189.217 244.87,322.783 300.522,322.783 300.522,289.391"></polygon><polygon fill="#496E2D" points="389.565,289.392 389.565,189.217 356.174,189.217 356.174,289.392 345.043,289.392 345.043,256.001 311.652,256.001 311.652,322.784 411.826,322.784 411.826,289.392"></polygon></g></svg>