<?xml version="1.0" encoding="UTF-8"?><svg version="1.1" viewBox="0 0 20 20" xmlns="http://www.w3.org/2000/svg" xmlns:xlink="http://www.w3.org/1999/xlink"><g transform="matrix(.0390625 0 0 .0390625 0 0)"><path fill="#A2001D" d="M503.181 189.217c-29.376-108.996-128.902-189.217-247.181-189.217 -118.279 0-217.805 80.221-247.181 189.217l247.181 11.131 247.181-11.131Z"></path><path fill="#A2001D" d="M8.819 322.783c29.376 108.995 128.902 189.217 247.181 189.217 118.279 0 217.805-80.221 247.181-189.217l-247.181-11.131 -247.181 11.131Z"></path><path fill="#6DA544" d="M503.181 189.217h-494.362c-5.739 21.293-8.819 43.676-8.819 66.783 0 23.107 3.08 45.49 8.819 66.783h494.363c5.738-21.293 8.818-43.676 8.818-66.783 0-23.107-3.08-45.49-8.819-66.783Z"></path></g></svg>