<?xml version="1.0" encoding="UTF-8"?><svg version="1.1" viewBox="0 0 20 20" xmlns="http://www.w3.org/2000/svg" xmlns:xlink="http://www.w3.org/1999/xlink"><g transform="matrix(.0390625 0 0 .0390625 0 0)"><path fill="#D80027" d="M367.304 25.402c-33.656-16.274-71.414-25.402-111.304-25.402 -39.89 0-77.648 9.128-111.304 25.402l-22.261 230.598 22.261 230.598c33.656 16.274 71.414 25.402 111.304 25.402 39.89 0 77.648-9.128 111.304-25.402l22.261-230.598 -22.261-230.598Z"></path><path fill="#000" d="M144.696 25.411c-85.63 41.407-144.696 129.096-144.696 230.589 0 101.493 59.066 189.182 144.696 230.589v-461.178Z"></path><path fill="#496E2D" d="M367.304 25.411v461.178c85.63-41.407 144.696-129.096 144.696-230.589 0-101.493-59.066-189.182-144.696-230.589Z"></path><path fill="#FFDA44" d="M256 166.957c-49.178 0-89.043 39.866-89.043 89.043 0 49.177 39.866 89.043 89.043 89.043 49.177 0 89.043-39.866 89.043-89.043 0-49.177-39.865-89.043-89.043-89.043Zm0 144.695c-30.736 0-55.652-24.917-55.652-55.652 0-30.735 24.917-55.652 55.652-55.652 30.735 0 55.652 24.917 55.652 55.652 0 30.735-24.916 55.652-55.652 55.652Z"></path><path fill="#FFDA44" d="M256 222.609c-12.295 0-22.261 9.966-22.261 22.261v33.391h44.522v-33.391c-5.68434e-14-12.295-9.966-22.261-22.261-22.261Z"></path></g></svg>