<?xml version="1.0" encoding="UTF-8"?><svg version="1.1" viewBox="0 0 20 20" xmlns="http://www.w3.org/2000/svg" xmlns:xlink="http://www.w3.org/1999/xlink"><g transform="matrix(.0390625 0 0 .0390625 0 0)"><path fill="#0052B4" d="M512 256c0 141.384-114.616 256-256 256 -141.384 0-256-114.616-256-256 0 .061 256-255.972 256-256 141.384 0 256 114.616 256 256Z"></path><path fill="#F0F0F0" d="M256 0c-.016 0-.028 0-.043 0h.043v0Z"></path><path fill="#F0F0F0" d="M255.315 256h.685c0-.23 0-.454 0-.685 -.228.229-.456.457-.685.685Z"></path><path fill="#F0F0F0" d="M256 133.565c0-45.045 0-74.56 0-133.565h-.043c-141.366.024-255.957 114.629-255.957 256h133.565v-75.211l75.211 75.211h46.54c.228-.228.456-.456.685-.685 0-17.247 0-32.636 0-46.537l-75.213-75.213h75.212Z"></path><path fill="#D80027" d="M129.515 33.391c-40.039 22.799-73.326 56.085-96.124 96.124v126.485h66.783v-155.824 -.002h155.826c0-21.063 0-41.129 0-66.783h-126.485Z"></path><path fill="#D80027" d="M256 224.519l-90.955-90.953h-31.48v.002l122.433 122.432h.002c0 0 0-21.707 0-31.481Z"></path><path fill="#496E2D" d="M445.217 256v0 0Z"></path><path fill="#496E2D" d="M289.391 256v0 0Z"></path><path fill="#F3F3F3" d="M432.939 293.474c7.361-10.128 12.278-22.496 12.278-37.474v-111.304c-9.302 6.988-20.862 11.13-33.391 11.13 -18.206 0-34.369-8.743-44.522-22.259 -10.154 13.516-26.317 22.259-44.522 22.259 -12.53 0-24.09-4.143-33.391-11.128v111.302c0 14.978 4.917 27.346 12.278 37.474h131.27Z"></path><path fill="#FF9811" d="M409.785 235.351c3.544-8.646 6.3-21.283 6.3-27.572 0-10.105-13.174-18.296-13.174-18.296 0 0-13.174 8.191-13.174 18.296 0 6.29 2.757 18.927 6.299 27.572l-7.605 17.171c4.47 1.818 9.356 2.828 14.481 2.828 5.125 0 10.01-1.011 14.481-2.828l-7.608-17.171Z"></path><path fill="#FF9811" d="M358.294 179.752c-9.256 1.254-21.579 5.189-27.025 8.333 -8.751 5.053-9.259 20.556-9.259 20.556 0 0 13.682 7.313 22.432 2.261 5.448-3.145 15.012-11.849 20.725-19.241l18.676-2c-.661-4.778-2.233-9.515-4.792-13.952 -2.564-4.437-5.879-8.165-9.689-11.128l-11.068 15.171Z"></path><path fill="#FF9811" d="M335.892 252.146c5.713 7.388 15.28 16.091 20.728 19.237 8.751 5.052 22.432-2.259 22.432-2.259 0 0-.51-15.505-9.259-20.558 -5.449-3.145-17.77-7.076-27.028-8.328l-11.067-15.173c-3.809 2.962-7.125 6.692-9.688 11.125 -2.561 4.439-4.129 9.174-4.793 13.955l18.675 2.001Z"></path><path fill="#338AF3" d="M298.916 289.394c20.788 33.355 68.389 44.52 68.389 44.52 0 0 47.6-11.165 68.389-44.52h-136.778Z"></path></g></svg>