<?xml version="1.0" encoding="UTF-8"?><svg version="1.1" viewBox="0 0 20 20" xmlns="http://www.w3.org/2000/svg" xmlns:xlink="http://www.w3.org/1999/xlink"><g transform="matrix(.0390625 0 0 .0390625 0 0)"><path fill="#0052B4" d="M512 256c0-87.861-44.269-165.374-111.713-211.478l-144.287-11.131 -144.287 11.13c-67.443 46.105-111.713 123.619-111.713 211.479 0 87.863 44.27 165.374 111.713 211.478l144.287 11.131 144.287-11.13c67.444-46.105 111.713-123.616 111.713-211.479Z"></path><path fill="#A2001D" d="M400.287 44.522c-41.085-28.086-90.763-44.522-144.287-44.522 -53.523 0-103.202 16.436-144.287 44.522h288.574Z"></path><path fill="#A2001D" d="M111.713 467.478c41.084 28.086 90.764 44.522 144.287 44.522 53.524 0 103.202-16.436 144.287-44.522h-288.574Z"></path><circle cx="256" cy="256" r="122.435" fill="#F0F0F0"></circle><circle cx="256" cy="256" r="100.174" fill="#6DA544"></circle><circle cx="256" cy="256" r="66.783" fill="#F0F0F0"></circle><polygon fill="#0052B4" points="256,239.304 219.826,256 219.826,283.826 256,306.087 292.174,283.826 292.174,256"></polygon><rect width="72.348" height="33.391" x="219.826" y="222.609" fill="#FFDA44"></rect></g></svg>