<?xml version="1.0" encoding="UTF-8"?><svg version="1.1" viewBox="0 0 20 20" xmlns="http://www.w3.org/2000/svg" xmlns:xlink="http://www.w3.org/1999/xlink"><g transform="matrix(.0390625 0 0 .0390625 0 0)"><path fill="#D80027" d="M512 256c0 141.384-114.616 256-256 256 -141.384 0-256-114.616-256-256 0 .061 256-255.972 256-256 141.384 0 256 114.616 256 256Z"></path><polygon fill="#0052B4" points="256,122.435 256,208.778 166.957,122.435"></polygon><polygon fill="#0052B4" points="133.565,256 208.776,256 133.565,155.826 122.435,233.739"></polygon><path fill="#F0F0F0" d="M256 0c-.016 0-.028 0-.043 0h.043v0Z"></path><path fill="#F0F0F0" d="M255.315 256h.685c0-.23 0-.454 0-.685 -.228.229-.456.457-.685.685Z"></path><path fill="#F0F0F0" d="M256 133.565c0-45.045 0-74.56 0-133.565h-.043c-141.366.024-255.957 114.629-255.957 256h133.565v-75.211l75.211 75.211h46.54c.228-.228.456-.456.685-.685 0-17.247 0-32.636 0-46.537l-75.213-75.213h75.212Z"></path><path fill="#D80027" d="M129.515 33.391c-40.039 22.799-73.326 56.085-96.124 96.124v137.615h66.783v-166.954 -.002h166.956c0-21.063 0-41.129 0-66.783h-137.615Z"></path><path fill="#D80027" d="M266.177 234.694l-101.132-101.129h-31.48v.002l132.609 132.609h.002c.001.001.001-21.706.001-31.482Z"></path><path fill="#F3F3F3" d="M289.391 133.565v122.434c0 59.64 155.826 59.64 155.826 0v-122.434h-155.826Z"></path><path fill="#6DA544" d="M289.391 256v-.001c0 59.64 77.913 77.914 77.913 77.914 0 0 77.913-18.274 77.913-77.914v.001h-155.826Z"></path><polygon fill="#A2001D" points="367.304,207.026 331.13,222.609 331.13,256 367.304,278.261 403.478,256 403.478,222.609"></polygon><rect width="72.348" height="33.391" x="331.13" y="189.217" fill="#338AF3"></rect></g></svg>