<?xml version="1.0" encoding="UTF-8"?><svg version="1.1" viewBox="0 0 20 20" xmlns="http://www.w3.org/2000/svg" xmlns:xlink="http://www.w3.org/1999/xlink"><defs><path d="M111.713 467.478c41.086 28.085 90.763 44.522 144.287 44.522 53.524 0 103.202-16.437 144.287-44.522l-144.287-22.261 -144.287 22.261Z" id="a"></path><path d="M400.287 44.522c-41.085-28.085-90.763-44.522-144.287-44.522 -53.524 0-103.203 16.437-144.287 44.522l144.287 22.261 144.287-22.261Z" id="b"></path></defs><g transform="matrix(.0390625 0 0 .0390625 0 0)"><use fill="#D80027" xlink:href="#a"></use><use fill="#D80027" xlink:href="#b"></use><use fill="#D80027" xlink:href="#a"></use><use fill="#D80027" xlink:href="#b"></use><path fill="#0052B4" d="M511.348 239.304c-6.065-79.01-54.072-155.826-111.061-194.783h-288.574c-63.136 43.161-105.963 113.849-111.175 194.783l255.462 16.696 255.348-16.696Z"></path><path fill="#0052B4" d="M.538 272.696c5.212 80.935 48.038 151.622 111.174 194.783h288.574c63.139-43.16 105.963-113.848 111.175-194.783l-255.461-16.696 -255.462 16.696Z"></path><path fill="#D80027" d="M511.348 239.303h-238.652v-205.912h-33.391v205.912h-238.766c-.355 5.52-.539 11.087-.539 16.697 0 5.609.183 11.175.538 16.695h238.767v205.914h33.391v-205.914h238.767c.354-5.52.537-11.086.537-16.695 0-5.569-.225-11.138-.652-16.697Z"></path><polygon fill="#F0F0F0" points="100.174,256 255.999,158.058 411.826,256 255.999,353.943"></polygon><polygon fill="#6DA544" points="166.957,300.522 367.304,300.522 322.783,233.739 300.522,256 278.261,244.87 256,278.261 211.478,278.261 189.217,256"></polygon><polygon fill="#FFDA44" points="256,189.217 261.526,206.222 279.405,206.222 264.94,216.733 270.466,233.739 256,223.229 241.534,233.739 247.06,216.733 232.595,206.222 250.474,206.222"></polygon><path fill="#D80027" d="M255.999 130.074l-200.347 125.926 200.347 125.926 200.349-125.926 -200.349-125.926Zm-137.599 125.926l137.599-86.487 137.601 86.487 -137.601 86.487 -137.599-86.487Z"></path></g></svg>