<?xml version="1.0" encoding="UTF-8"?><svg version="1.1" viewBox="0 0 20 20" xmlns="http://www.w3.org/2000/svg" xmlns:xlink="http://www.w3.org/1999/xlink"><g transform="matrix(.0390625 0 0 .0390625 0 0)"><path fill="#D80027" d="M0 256c0 44.35 11.283 86.064 31.127 122.435l224.873 22.261 224.873-22.261c19.844-36.371 31.127-78.085 31.127-122.435 0-44.35-11.283-86.064-31.127-122.435l-224.873-22.261 -224.873 22.261c-19.844 36.371-31.127 78.085-31.127 122.435Z"></path><path fill="#0052B4" d="M31.127 133.565h449.745c-43.418-79.576-127.837-133.565-224.872-133.565 -97.035 0-181.454 53.989-224.873 133.565Z"></path><path fill="#0052B4" d="M256 512c97.035 0 181.454-53.989 224.873-133.565h-449.746c43.419 79.576 127.838 133.565 224.873 133.565Z"></path><polygon fill="#F0F0F0" points="345.043,306.087 345.043,272.696 322.783,272.696 322.783,228.174 300.522,205.913 278.261,228.174 278.261,183.652 256,161.391 233.739,183.652 233.739,228.174 211.478,205.913 189.217,228.174 189.217,272.696 166.957,272.696 166.957,306.087 144.696,306.087 144.696,339.478 367.304,339.478 367.304,306.087"></polygon></g></svg>