<?xml version="1.0" encoding="UTF-8"?><svg version="1.1" viewBox="0 0 20 20" xmlns="http://www.w3.org/2000/svg" xmlns:xlink="http://www.w3.org/1999/xlink"><g transform="matrix(.0390625 0 0 .0390625 0 0)"><path fill="#D80027" d="M512 256c0-31.314-5.632-61.311-15.923-89.043l-240.077-11.131 -240.077 11.13c-10.29 27.733-15.923 57.73-15.923 89.044 0 31.314 5.633 61.311 15.923 89.043l240.077 11.131 240.077-11.13c10.291-27.733 15.923-57.73 15.923-89.044Z"></path><path fill="#6DA544" d="M256 512c110.071 0 203.906-69.472 240.077-166.957h-480.154c36.171 97.485 130.006 166.957 240.077 166.957Z"></path><path fill="#338AF3" d="M15.923 166.957h480.155c-36.172-97.485-130.007-166.957-240.078-166.957 -110.071 0-203.906 69.472-240.077 166.957Z"></path><path fill="#F0F0F0" d="M261.565 328.348c-39.956 0-72.348-32.392-72.348-72.348 0-39.956 32.392-72.348 72.348-72.348 12.458 0 24.181 3.15 34.415 8.696 -16.056-15.701-38.012-25.392-62.241-25.392 -49.178 0-89.043 39.866-89.043 89.043 0 49.177 39.866 89.043 89.043 89.043 24.23 0 46.186-9.691 62.241-25.392 -10.234 5.548-21.957 8.698-34.415 8.698Z"></path><polygon fill="#F0F0F0" points="317.217,205.913 326.8,232.864 352.634,220.582 340.353,246.416 367.304,256 340.353,265.584 352.634,291.418 326.8,279.136 317.217,306.087 307.635,279.136 281.8,291.418 294.082,265.584 267.13,256 294.082,246.416 281.8,220.582 307.635,232.864"></polygon></g></svg>