<?xml version="1.0" encoding="UTF-8"?><svg version="1.1" viewBox="0 0 20 20" xmlns="http://www.w3.org/2000/svg" xmlns:xlink="http://www.w3.org/1999/xlink"><g transform="matrix(.0390625 0 0 .0390625 0 0)"><circle cx="256" cy="256" r="256" fill="#F0F0F0"></circle><path fill="#0052B4" d="M256 0c-77.591 0-147.114 34.524-194.061 89.043h388.121c-46.946-54.519-116.469-89.043-194.06-89.043Z"></path><path fill="#0052B4" d="M450.061 422.957h-388.122c46.947 54.519 116.47 89.043 194.061 89.043 77.591 0 147.114-34.524 194.061-89.043Z"></path><path fill="#D80027" d="M474.426 122.435h-436.852c-23.829 38.885-37.574 84.618-37.574 133.565 0 48.947 13.745 94.681 37.574 133.565h436.852c23.829-38.884 37.574-84.618 37.574-133.565 0-48.947-13.745-94.68-37.574-133.565Z"></path><circle cx="157.496" cy="256" r="98.504" fill="#F0F0F0"></circle><polygon fill="#D80027" points="157.496,157.496 179.597,225.517 251.235,225.517 193.258,267.559 215.532,335.783 157.496,293.541 99.548,335.704 121.734,267.559 63.809,225.517 135.394,225.517"></polygon></g></svg>