<?xml version="1.0" encoding="UTF-8"?><svg version="1.1" viewBox="0 0 20 20" xmlns="http://www.w3.org/2000/svg" xmlns:xlink="http://www.w3.org/1999/xlink"><g transform="matrix(.0390625 0 0 .0390625 0 0)"><circle cx="256" cy="256" r="256" fill="#FFDA44"></circle><path fill="#338AF3" d="M256 512c77.591 0 147.114-34.524 194.061-89.043h-388.122c46.947 54.519 116.47 89.043 194.061 89.043Z"></path><path fill="#338AF3" d="M512 256c0-141.384-114.616-256-256-256 -141.384 0-256 114.616-256 256 0 23.107 3.08 45.489 8.819 66.783h494.363c5.738-21.294 8.818-43.676 8.818-66.783Z"></path><path fill="#338AF3" d="M20.349 356.174c4.935 11.596 10.704 22.748 17.225 33.391h436.852c6.521-10.644 12.29-21.796 17.227-33.391h-471.304Z"></path><polygon fill="#F0F0F0" points="117.317,161.463 67.301,139.389 117.317,117.315 139.39,67.3 161.463,117.315 211.478,139.389 161.463,161.463 139.39,211.478"></polygon><polygon fill="#D80027" points="139.39,94.867 153.021,125.756 183.911,139.389 153.021,153.021 139.39,183.91 125.757,153.021 94.868,139.389 125.757,125.756"></polygon></g></svg>