<?xml version="1.0" encoding="UTF-8"?><svg version="1.1" viewBox="0 0 20 20" xmlns="http://www.w3.org/2000/svg" xmlns:xlink="http://www.w3.org/1999/xlink"><g transform="matrix(.0390625 0 0 .0390625 0 0)"><circle cx="256" cy="256" r="256" fill="#F0F0F0"></circle><path fill="#0052B4" d="M256 0c-141.384 0-256 114.616-256 256 0 31.314 5.633 61.311 15.923 89.043h480.155c10.29-27.732 15.922-57.729 15.922-89.043 0-141.384-114.616-256-256-256Z"></path><path fill="#D80027" d="M256 0c-110.071 0-203.906 69.472-240.077 166.957h480.155c-36.172-97.485-130.007-166.957-240.078-166.957Z"></path><path fill="#D80027" d="M66.198 144.696v127.706c0 72.644 94.901 94.903 94.901 94.903 0 0 94.9-22.259 94.9-94.903v-127.706h-189.801Z"></path><polygon fill="#FFDA44" points="105.446,166.957 216.751,166.957 216.751,122.435 194.49,133.565 161.099,100.174 127.707,133.565 105.446,122.435"></polygon><polygon fill="#FFDA44" points="233.739,290.183 161.391,217.835 89.043,290.183 112.654,313.794 161.391,265.057 210.128,313.794"></polygon><path fill="#F0F0F0" d="M233.739 222.609h-33.756c1.898-3.276 3.002-7.07 3.002-11.128 0-12.296-9.967-22.261-22.261-22.261 -8.495 0-15.872 4.758-19.625 11.753 -3.753-6.994-11.13-11.753-19.625-11.753 -12.294 0-22.261 9.965-22.261 22.261 0 4.058 1.104 7.853 3.002 11.128h-33.172c0 12.295 10.709 22.261 23.002 22.261h-.741c0 12.295 9.966 22.261 22.261 22.261 0 10.886 7.818 19.93 18.143 21.866l-17.54 39.602c8.406 3.417 17.592 5.315 27.224 5.315 9.632 0 18.818-1.898 27.224-5.315l-17.54-39.602c10.325-1.934 18.143-10.979 18.143-21.866 12.295 0 22.261-9.966 22.261-22.261h-.741c12.292-8.52651e-14 23-9.967 23-22.261Z"></path></g></svg>