<?xml version="1.0" encoding="UTF-8"?><svg version="1.1" viewBox="0 0 20 20" xmlns="http://www.w3.org/2000/svg" xmlns:xlink="http://www.w3.org/1999/xlink"><g transform="matrix(.0390625 0 0 .0390625 0 0)"><circle cx="256" cy="256" r="256" fill="#F0F0F0"></circle><path fill="#0052B4" d="M0 256c0 141.384 114.616 256 256 256 0-97.355 0-256 0-256 0 0-166.957 0-256 0Z"></path><path fill="#D80027" d="M256 0c141.384 0 256 114.616 256 256 -97.355 0-256 0-256 0 0 0 0-166.957 0-256Z"></path><polygon fill="#0052B4" points="152.389,89.043 168.966,140.061 222.609,140.061 179.211,171.591 195.787,222.609 152.389,191.078 108.991,222.609 125.567,171.591 82.169,140.061 135.812,140.061"></polygon><polygon fill="#D80027" points="359.611,289.391 376.188,340.409 429.831,340.409 386.432,371.939 403.009,422.957 359.611,391.426 316.213,422.957 332.789,371.939 289.391,340.409 343.034,340.409"></polygon></g></svg>