<?xml version="1.0" encoding="UTF-8"?><svg version="1.1" viewBox="0 0 20 20" xmlns="http://www.w3.org/2000/svg" xmlns:xlink="http://www.w3.org/1999/xlink"><g transform="matrix(.0390625 0 0 .0390625 0 0)"><path fill="#FFDA44" d="M367.304 25.402c-33.656-16.274-71.413-25.402-111.304-25.402 -39.891 0-77.648 9.128-111.304 25.402l-22.261 230.598 22.261 230.598c33.656 16.274 71.413 25.402 111.304 25.402 39.891 0 77.648-9.128 111.304-25.402l22.261-230.598 -22.261-230.598Z"></path><path fill="#0052B4" d="M144.696 25.411c-85.631 41.407-144.696 129.096-144.696 230.589 0 101.493 59.065 189.182 144.696 230.589v-461.178Z"></path><path fill="#0052B4" d="M367.304 25.411v461.178c85.63-41.407 144.696-129.096 144.696-230.589 0-101.493-59.066-189.182-144.696-230.589Z"></path><polygon fill="#D80027" points="328.348,278.261 345.043,300.522 345.043,211.478 328.348,233.739 278.261,233.739 278.261,183.652 300.522,166.957 211.478,166.957 233.739,183.652 233.739,233.739 183.652,233.739 166.957,211.478 166.957,300.522 183.652,278.261 233.739,278.261 233.739,328.348 211.478,345.043 300.522,345.043 278.261,328.348 278.261,278.261"></polygon><polygon fill="#F0F0F0" points="322.783,244.87 267.13,244.87 267.13,189.217 244.87,189.217 244.87,244.87 189.217,244.87 189.217,267.13 244.87,267.13 244.87,322.783 267.13,322.783 267.13,267.13 322.783,267.13"></polygon></g></svg>