<?xml version="1.0" encoding="UTF-8"?><svg version="1.1" viewBox="0 0 20 20" xmlns="http://www.w3.org/2000/svg" xmlns:xlink="http://www.w3.org/1999/xlink"><g transform="matrix(.0390625 0 0 .0390625 0 0)"><path fill="#000" d="M25.402 144.696c-16.274 33.656-25.402 71.413-25.402 111.304 0 39.891 9.128 77.648 25.402 111.304l230.598 22.261 230.598-22.261c16.274-33.656 25.402-71.413 25.402-111.304 0-39.891-9.128-77.648-25.402-111.304l-230.598-22.261 -230.598 22.261Z"></path><path fill="#496E2D" d="M25.411 367.304c41.406 85.631 129.095 144.696 230.589 144.696 101.493 0 189.183-59.065 230.589-144.696h-461.178Z"></path><path fill="#D80027" d="M25.411 144.696h461.178c-41.406-85.631-129.096-144.696-230.589-144.696 -101.494 0-189.183 59.065-230.589 144.696Z"></path><polygon fill="#F0F0F0" points="315.586,209.186 336.59,238.131 370.607,227.101 349.569,256.021 370.571,284.965 336.567,273.893 315.529,302.813 315.551,267.052 281.545,255.98 315.563,244.95"></polygon><path fill="#F0F0F0" d="M258.261 328.348c-39.956 0-72.348-32.392-72.348-72.348 0-39.956 32.392-72.348 72.348-72.348 12.458 0 24.181 3.15 34.415 8.696 -16.056-15.701-38.012-25.392-62.241-25.392 -49.178 0-89.043 39.866-89.043 89.043 0 49.177 39.866 89.043 89.043 89.043 24.23 0 46.186-9.691 62.241-25.392 -10.235 5.548-21.956 8.698-34.415 8.698Z"></path></g></svg>