<?xml version="1.0" encoding="UTF-8"?><svg version="1.1" viewBox="0 0 20 20" xmlns="http://www.w3.org/2000/svg" xmlns:xlink="http://www.w3.org/1999/xlink"><g transform="matrix(.0390625 0 0 .0390625 0 0)"><polygon fill="#FF9811" points=".001,44.522 0,44.522 0,467.478 .001,467.478 .001,256.001"></polygon><circle cx="255.999" cy="256" r="255.999" fill="#F0F0F0"></circle><path fill="#0052B4" d="M256.001.002c-83.752 0-158.106 40.223-204.811 102.4h409.621c-46.704-62.178-121.059-102.4-204.81-102.4Z"></path><path fill="#0052B4" d="M256.001 511.999c83.752 0 158.106-40.223 204.811-102.4h-409.622c46.704 62.178 121.059 102.4 204.811 102.4Z"></path><path fill="#0052B4" d="M.001 256.001c0 17.535 1.768 34.657 5.127 51.2h501.747c3.359-16.543 5.126-33.665 5.126-51.2 0-17.535-1.768-34.657-5.126-51.2h-501.747c-3.359 16.543-5.127 33.665-5.127 51.2Z"></path><path fill="#D80027" d="M74.981 74.982c-99.973 99.973-99.973 262.064 0 362.039 41.313-41.313 81.045-81.046 181.019-181.019l-181.019-181.02Z"></path><polygon fill="#F0F0F0" points="103.611,189.219 120.185,240.234 173.831,240.234 130.434,271.766 147.008,322.782 103.611,291.252 60.212,322.782 76.79,271.766 33.392,240.234 87.034,240.234"></polygon></g></svg>