<?xml version="1.0" encoding="UTF-8"?><svg version="1.1" viewBox="0 0 20 20" xmlns="http://www.w3.org/2000/svg" xmlns:xlink="http://www.w3.org/1999/xlink"><g transform="matrix(.0390625 0 0 .0390625 0 0)"><path fill="#338AF3" d="M233.739 233.739c0 0-158.609 203.317-158.759 203.28 46.326 46.327 110.327 74.981 181.02 74.981 141.384 0 256-114.616 256-256l-278.261-22.261Z"></path><path fill="#6DA544" d="M233.739 256c0 0-158.609-181.055-158.759-181.019 46.326-46.327 110.327-74.981 181.02-74.981 141.384 0 256 114.616 256 256h-278.261Z"></path><path fill="#D80027" d="M74.98 74.98c-99.974 99.974-99.974 262.065 0 362.04 -.007.041 437.02-181.02 437.02-181.02l-437.02-181.02Z"></path><path fill="#FFDA44" d="M133.565 150.261c-49.099 0-89.043 39.945-89.043 89.043v33.391c0 49.099 39.945 89.043 89.043 89.043 49.098 0 89.043-39.945 89.043-89.043v-33.391c.001-49.098-39.944-89.043-89.043-89.043Zm55.652 122.435c0 24.872-16.402 45.981-38.957 53.09v-36.394l23.624-23.624 -23.611-23.611 -.013-8.403v-11.144h-33.39v33.39l-23.608 23.607 23.608 23.607v22.573c-22.555-7.109-38.957-28.218-38.957-53.09v-33.391c0-30.687 24.966-55.652 55.652-55.652 30.686 0 55.652 24.966 55.652 55.652v33.39Z"></path></g></svg>