<?xml version="1.0" encoding="UTF-8"?><svg version="1.1" viewBox="0 0 20 20" xmlns="http://www.w3.org/2000/svg" xmlns:xlink="http://www.w3.org/1999/xlink"><g transform="matrix(.0390625 0 0 .0390625 0 0)"><path fill="#0052B4" d="M512 256c0 141.384-114.616 256-256 256 -141.384 0-256-114.616-256-256 0 .061 256-255.972 256-256 141.384 0 256 114.616 256 256Z"></path><path fill="#F0F0F0" d="M256 0c-.016 0-.028 0-.043 0h.043v0Z"></path><path fill="#F0F0F0" d="M255.315 256h.685c0-.23 0-.454 0-.685 -.228.229-.456.457-.685.685Z"></path><path fill="#F0F0F0" d="M256 133.565c0-45.045 0-74.56 0-133.565h-.043c-141.366.024-255.957 114.629-255.957 256h133.565v-75.211l75.211 75.211h46.54c.228-.228.456-.456.685-.685 0-17.247 0-32.636 0-46.537l-75.213-75.213h75.212Z"></path><path fill="#D80027" d="M129.515 33.391c-40.039 22.799-73.326 56.085-96.124 96.124v126.485h66.783v-155.824 -.002h155.826c0-21.063 0-41.129 0-66.783h-126.485Z"></path><path fill="#D80027" d="M256 224.519l-90.955-90.953h-31.48v.002l122.433 122.432h.002c0 0 0-21.707 0-31.481Z"></path><path fill="#496E2D" d="M445.217 256v0 0Z"></path><path fill="#496E2D" d="M289.391 256v0 0Z"></path><polygon fill="#F0F0F0" points="345.043,256 349.781,270.576 365.106,270.576 352.708,279.584 357.444,294.161 345.043,285.152 332.644,294.161 337.38,279.584 324.982,270.576 340.307,270.576"></polygon><polygon fill="#F0F0F0" points="282.081,282.081 295.736,289.038 306.574,278.201 304.176,293.339 317.832,300.297 302.694,302.693 300.297,317.833 293.338,304.176 278.201,306.574 289.04,295.737"></polygon><polygon fill="#F0F0F0" points="256,345.043 270.576,340.307 270.578,324.983 279.584,337.38 294.161,332.643 285.152,345.043 294.161,357.444 279.584,352.708 270.578,365.106 270.578,349.781"></polygon><polygon fill="#F0F0F0" points="282.081,408.006 289.038,394.35 278.201,383.514 293.339,385.911 300.297,372.255 302.694,387.393 317.832,389.789 304.176,396.748 306.574,411.887 295.736,401.047"></polygon><polygon fill="#F0F0F0" points="345.043,434.087 340.307,419.51 324.981,419.51 337.38,410.502 332.644,395.926 345.043,404.934 357.444,395.926 352.708,410.502 365.106,419.51 349.781,419.51"></polygon><polygon fill="#F0F0F0" points="408.006,408.006 394.35,401.05 383.514,411.887 385.911,396.748 372.255,389.791 387.393,387.393 389.791,372.255 396.748,385.911 411.886,383.514 401.047,394.351"></polygon><polygon fill="#F0F0F0" points="434.087,345.043 419.51,349.781 419.51,365.106 410.502,352.707 395.926,357.444 404.935,345.043 395.926,332.643 410.502,337.38 419.51,324.983 419.51,340.307"></polygon><polygon fill="#F0F0F0" points="408.006,282.082 401.05,295.737 411.886,306.574 396.748,304.176 389.791,317.833 387.393,302.693 372.255,300.296 385.911,293.339 383.514,278.202 394.351,289.038"></polygon></g></svg>