<?xml version="1.0" encoding="UTF-8"?><svg version="1.1" viewBox="0 0 20 20" xmlns="http://www.w3.org/2000/svg" xmlns:xlink="http://www.w3.org/1999/xlink"><g transform="matrix(.0390625 0 0 .0390625 0 0)"><path fill="#0052B4" d="M512 256c0 141.384-114.616 256-256 256 -141.384 0-256-114.616-256-256 0 .061 256-255.972 256-256 141.384 0 256 114.616 256 256Z"></path><path fill="#F0F0F0" d="M256 0c-.016 0-.028 0-.043 0h.043v0Z"></path><path fill="#F0F0F0" d="M255.315 256h.685c0-.23 0-.454 0-.685 -.228.229-.456.457-.685.685Z"></path><path fill="#F0F0F0" d="M256 133.565c0-45.045 0-74.56 0-133.565h-.043c-141.366.024-255.957 114.629-255.957 256h133.565v-75.211l75.211 75.211h46.54c.228-.228.456-.456.685-.685 0-17.247 0-32.636 0-46.537l-75.213-75.213h75.212Z"></path><path fill="#D80027" d="M129.515 33.391c-40.039 22.799-73.326 56.085-96.124 96.124v126.485h66.783v-155.824 -.002h155.826c0-21.063 0-41.129 0-66.783h-126.485Z"></path><path fill="#D80027" d="M256 224.519l-90.955-90.953h-31.48v.002l122.433 122.432h.002c0 0 0-21.707 0-31.481Z"></path><polygon fill="#ACABB1" points="400.696,155.826 367.304,166.957 333.913,155.826 322.783,128 333.913,100.174 400.696,100.174 389.565,128"></polygon><path fill="#338AF3" d="M289.391 155.826v122.434c0 59.64 77.913 77.914 77.913 77.914 0 0 77.913-18.274 77.913-77.914v-122.434h-155.826Z"></path><path fill="#6DA544" d="M296.415 307.266c19.152 36.769 70.89 48.908 70.89 48.908 0 0 51.738-12.139 70.89-48.908l-70.89-118.048 -70.89 118.048Z"></path><path fill="#FFDA44" d="M445.217 277.023l-77.913-121.197 -77.913 121.198v1.236c0 11.038 2.674 20.656 7.023 29.006l70.89-110.275 70.89 110.274c4.349-8.351 7.023-17.968 7.023-29.006v-1.236Z"></path></g></svg>