<?xml version="1.0" encoding="UTF-8"?><svg version="1.1" viewBox="0 0 20 20" xmlns="http://www.w3.org/2000/svg" xmlns:xlink="http://www.w3.org/1999/xlink"><defs><path d="M256 189.217h247.181c-6.419-23.814-16.175-46.255-28.755-66.783h-218.426v66.783Z" id="a"></path></defs><g transform="matrix(.0390625 0 0 .0390625 0 0)"><circle cx="256" cy="256" r="256" fill="#F0F0F0"></circle><use fill="#338AF3" xlink:href="#a"></use><path fill="#338AF3" d="M96.643 456.348h318.713c23.363-18.608 43.399-41.21 59.069-66.783h-436.851c15.671 25.572 35.707 48.175 59.069 66.783Z"></path><path fill="#338AF3" d="M256 0c0 22.261 0 55.652 0 55.652h159.357c-43.73-34.828-99.108-55.652-159.357-55.652Z"></path><use fill="#338AF3" xlink:href="#a"></use><path fill="#338AF3" d="M0 256c0 23.107 3.08 45.489 8.819 66.783h494.363c5.738-21.294 8.818-43.676 8.818-66.783h-512Z"></path><polygon fill="#FFDA44" points="222.609,149.821 191.343,164.528 207.992,194.808 174.042,188.314 169.74,222.609 146.094,197.385 122.446,222.609 118.145,188.314 84.195,194.806 100.843,164.527 69.579,149.821 100.844,135.116 84.195,104.836 118.144,111.33 122.447,77.035 146.094,102.259 169.741,77.035 174.042,111.33 207.993,104.836 191.344,135.117"></polygon></g></svg>