<?xml version="1.0" encoding="UTF-8"?><svg version="1.1" viewBox="0 0 20 20" xmlns="http://www.w3.org/2000/svg" xmlns:xlink="http://www.w3.org/1999/xlink"><g transform="matrix(.0390625 0 0 .0390625 0 0)"><path fill="#FFDA44" d="M0 256c0 44.35 11.283 86.064 31.127 122.435l224.873 22.261 224.873-22.261c19.844-36.371 31.127-78.085 31.127-122.435l-256-22.261 -256 22.261Z"></path><path fill="#338AF3" d="M480.873 133.565c-43.419-79.576-127.838-133.565-224.873-133.565 -97.035 0-181.454 53.989-224.873 133.565 -19.844 36.371-31.127 78.085-31.127 122.435h512c0-44.35-11.283-86.064-31.127-122.435Z"></path><path fill="#496E2D" d="M256 512c97.035 0 181.454-53.989 224.873-133.565h-449.746c43.419 79.576 127.838 133.565 224.873 133.565Z"></path><polygon fill="#FFDA44" points="289.391,149.821 320.657,164.528 304.008,194.808 337.958,188.314 342.26,222.609 365.906,197.385 389.554,222.609 393.855,188.314 427.805,194.806 411.157,164.527 442.421,149.821 411.156,135.116 427.805,104.836 393.856,111.33 389.553,77.035 365.906,102.259 342.259,77.035 337.958,111.33 304.007,104.836 320.656,135.117"></polygon></g></svg>