<?xml version="1.0" encoding="UTF-8"?><svg version="1.1" viewBox="0 0 20 20" xmlns="http://www.w3.org/2000/svg" xmlns:xlink="http://www.w3.org/1999/xlink"><g transform="matrix(.0390625 0 0 .0390625 0 0)"><circle cx="256" cy="256" r="256" fill="#F0F0F0"></circle><path fill="#0052B4" d="M500.87 256l8.959-33.391c-1.488-11.381-3.72-22.529-6.647-33.391h-269.443v-188.244c-11.36.978-22.505 2.707-33.391 5.121l-44.522 27.296 -22.261-2.247c-11.715 6.392-22.876 13.672-33.391 21.751v136.322h-91.355c-2.927 10.862-5.159 22.01-6.647 33.391l8.958 33.392 -8.959 33.391c1.488 11.381 3.72 22.529 6.647 33.391h91.355v136.322c10.515 8.08 21.677 15.359 33.391 21.751l33.391-2.247 33.391 27.296c10.887 2.413 22.032 4.142 33.391 5.121v-188.242h269.442c2.927-10.862 5.159-22.01 6.647-33.391l-8.956-33.392Z"></path><path fill="#D80027" d="M509.833 222.609h-309.484 -.001v-216.524c-23.658 5.246-46.087 13.749-66.783 25.042v191.481 0h-131.398c-1.423 10.931-2.167 22.075-2.167 33.392 0 11.317.744 22.461 2.167 33.391h131.397 .001v191.481c20.696 11.292 43.125 19.797 66.783 25.042v-216.52 -.002h309.485c1.423-10.931 2.167-22.075 2.167-33.392 0-11.317-.744-22.461-2.167-33.391Z"></path></g></svg>