<?xml version="1.0" encoding="UTF-8"?><svg version="1.1" viewBox="0 0 20 20" xmlns="http://www.w3.org/2000/svg" xmlns:xlink="http://www.w3.org/1999/xlink"><g transform="matrix(.0390625 0 0 .0390625 0 0)"><circle cx="256" cy="256" r="256" fill="#F0F0F0"></circle><path fill="#FFDA44" d="M256 0c-90.77 0-170.5 47.243-215.956 118.479l347.159 357.37c74.743-44.702 124.797-126.426 124.797-219.849 0-141.384-114.616-256-256-256Z"></path><path fill="#0052B4" d="M512 256c0-66.422-25.298-126.93-66.783-172.428v344.857c41.485-45.499 66.783-106.007 66.783-172.429Z"></path><path fill="#0052B4" d="M319.789 481.873l26.815-.017 8.272-25.509 8.302 25.499 13.45-.008c8.247-4.415 16.224-9.267 23.9-14.529l-355.839-355.838c-5.864 8.556-11.212 17.49-16.021 26.75l3.162 9.712 26.815-.017 -21.684 15.775 8.302 25.499 -21.704-15.748 -12.945 9.416c-6.901 23.176-10.614 47.725-10.614 73.142 0 141.384 114.616 256 256 256 29.892 0 58.583-5.132 85.25-14.552l-21.461-15.575Zm-262.69-237.003l8.27-25.508 -21.702-15.75 26.815-.017 8.271-25.509 8.302 25.499 26.815-.017 -21.685 15.775 8.302 25.499 -21.704-15.748 -21.684 15.776Zm55.225 55.652l8.27-25.508 -21.702-15.75 26.815-.017 8.271-25.509 8.302 25.499 26.815-.017 -21.684 15.775 8.302 25.499 -21.704-15.748 -21.685 15.776Zm55.224 55.652l8.27-25.508 -21.702-15.75 26.815-.017 8.271-25.509 8.302 25.499 26.815-.017 -21.684 15.775 8.302 25.499 -21.704-15.75 -21.685 15.778Zm76.909 39.877l-21.685 15.775 8.27-25.508 -21.702-15.75 26.815-.017 8.272-25.509 8.302 25.499 26.815-.017 -21.684 15.775 8.302 25.499 -21.705-15.747Zm33.54 71.427l8.27-25.508 -21.702-15.75 26.815-.017 8.271-25.509 8.302 25.499 26.815-.017 -21.684 15.775 8.302 25.499 -21.704-15.75 -21.685 15.778Z"></path></g></svg>