<?xml version="1.0" encoding="UTF-8"?><svg version="1.1" viewBox="0 0 20 20" xmlns="http://www.w3.org/2000/svg" xmlns:xlink="http://www.w3.org/1999/xlink"><g transform="matrix(.0390625 0 0 .0390625 0 0)"><circle cx="256" cy="256" r="256" fill="#F0F0F0"></circle><path fill="#0052B4" d="M480.873 133.565c-33.08-60.629-89.963-106.398-158.09-124.76l-11.13 124.76h169.22Z"></path><path fill="#0052B4" d="M31.127 133.565h169.22l-11.13-124.76c-68.127 18.362-125.009 64.132-158.09 124.76Z"></path><path fill="#6DA544" d="M311.652 256v122.435h169.22c19.845-36.371 31.128-78.085 31.128-122.435h-200.348Z"></path><path fill="#6DA544" d="M200.348 256h-200.348c0 44.35 11.283 86.064 31.127 122.435h169.22v-122.435Z"></path><path fill="#FFDA44" d="M31.127 378.435c33.081 60.629 89.963 106.398 158.09 124.76l11.13-109.109 -169.22-15.651Z"></path><path fill="#FFDA44" d="M322.783 503.195c68.127-18.362 125.01-64.131 158.09-124.76l-169.22 15.649 11.13 109.111Z"></path><polygon fill="#FFDA44" points="311.652,394.084 480.873,378.435 311.652,378.435"></polygon><polygon fill="#FFDA44" points="200.348,378.435 31.127,378.435 200.348,394.084"></polygon><path fill="#D80027" d="M256 0c-23.107 0-45.489 3.08-66.783 8.819v494.363c21.294 5.738 43.676 8.818 66.783 8.818 23.107 0 45.489-3.08 66.783-8.819v-494.362c-21.294-5.739-43.676-8.819-66.783-8.819Z"></path><polygon fill="#FFDA44" points="137.698,55.652 144.604,76.909 166.957,76.909 148.875,90.047 155.782,111.304 137.698,98.167 119.615,111.304 126.524,90.047 108.442,76.909 130.793,76.909"></polygon></g></svg>