<?xml version="1.0" encoding="UTF-8"?><svg version="1.1" viewBox="0 0 20 20" xmlns="http://www.w3.org/2000/svg" xmlns:xlink="http://www.w3.org/1999/xlink"><g transform="matrix(.0390625 0 0 .0390625 0 0)"><path fill="#6DA544" d="M0 256c0 110.07 69.472 203.905 166.955 240.076l22.262-240.077 -22.262-240.076c-97.483 36.172-166.955 130.006-166.955 240.077Z"></path><path fill="#D80027" d="M512 256c0-141.384-114.616-256-256-256 -31.314 0-61.311 5.633-89.045 15.923v480.154c27.734 10.291 57.731 15.923 89.045 15.923 141.384 0 256-114.616 256-256Z"></path><circle cx="166.957" cy="256" r="89.043" fill="#FFDA44"></circle><path fill="#D80027" d="M116.87 211.478v55.652c0 27.662 22.424 50.087 50.087 50.087 27.663 0 50.087-22.424 50.087-50.087v-55.652h-100.174Z"></path><path fill="#F0F0F0" d="M166.957 283.826c-9.206 0-16.696-7.49-16.696-16.696v-22.26h33.391v22.261c0 9.205-7.49 16.695-16.695 16.695Z"></path></g></svg>