<?xml version="1.0" encoding="UTF-8"?><svg version="1.1" viewBox="0 0 20 20" xmlns="http://www.w3.org/2000/svg" xmlns:xlink="http://www.w3.org/1999/xlink"><g transform="matrix(.0390625 0 0 .0390625 0 0)"><path fill="#0052B4" d="M256 512c141.384 0 256-114.616 256-256 0-42.963-10.6-83.446-29.302-119l-226.999 119.3 119.301-226.998c-35.554-18.702-76.037-29.302-119-29.302 -141.384 0-256 114.616-256 256 0 70.693 28.654 134.693 74.98 181.02 46.327 46.327 110.327 74.98 181.02 74.98Z"></path><path fill="#F0F0F0" d="M482.428 137.279c-11.718-22.304-26.953-43.245-45.707-61.999 -18.755-18.754-39.693-33.989-61.999-45.706l-300.041 407.745 407.747-300.04Z"></path><path fill="#FF9811" d="M74.681 437.319l407.747-300.04c-11.718-22.304-26.953-43.245-45.707-61.999l-362.04 362.039Z"></path><polygon fill="#F0F0F0" points="222.308,150.122 191.044,164.828 207.693,195.108 173.743,188.613 169.441,222.909 145.793,197.684 122.145,222.909 117.845,188.613 83.895,195.106 100.542,164.827 69.278,150.122 100.543,135.415 83.895,105.137 117.843,111.63 122.146,77.334 145.793,102.559 169.441,77.334 173.743,111.63 207.694,105.137 191.045,135.416"></polygon></g></svg>