<?xml version="1.0" encoding="UTF-8"?><svg version="1.1" viewBox="0 0 20 20" xmlns="http://www.w3.org/2000/svg" xmlns:xlink="http://www.w3.org/1999/xlink"><g transform="matrix(.0390625 0 0 .0390625 0 0)"><circle cx="256" cy="256" r="256" fill="#F0F0F0"></circle><path fill="#D80027" d="M0 256c0 97.035 53.99 181.455 133.565 224.873v-449.746c-79.575 43.418-133.565 127.838-133.565 224.873Z"></path><path fill="#D80027" d="M496.078 345.043c10.29-27.733 15.922-57.729 15.922-89.043 0-31.314-5.632-61.311-15.922-89.043h-480.154c-10.291 27.732-15.924 57.729-15.924 89.043 0 31.314 5.633 61.31 15.924 89.043l240.076 22.261 240.078-22.261Z"></path><path fill="#6DA544" d="M256 512c110.072 0 203.906-69.472 240.078-166.957h-480.154c36.17 97.485 130.006 166.957 240.076 166.957Z"></path><path fill="#D80027" d="M0 256c0 118.279 80.221 217.805 189.217 247.181v-494.362c-108.996 29.376-189.217 128.902-189.217 247.181Z"></path><polygon fill="#F0F0F0" points="156.617,112.654 133.006,89.043 117.266,104.785 101.526,89.043 77.915,112.654 93.656,128.395 77.913,144.137 101.524,167.748 117.265,152.006 133.006,167.748 156.617,144.137 140.876,128.395"></polygon></g></svg>