<?xml version="1.0" encoding="UTF-8"?><svg version="1.1" viewBox="0 0 20 20" xmlns="http://www.w3.org/2000/svg" xmlns:xlink="http://www.w3.org/1999/xlink"><g transform="matrix(.0390625 0 0 .0390625 0 0)"><circle cx="256" cy="256" r="256" fill="#F0F0F0"></circle><path fill="#D80027" d="M512 256c0-101.494-59.065-189.19-144.696-230.598v461.195c85.631-41.407 144.696-129.103 144.696-230.597Z"></path><path fill="#D80027" d="M0 256c0 101.494 59.065 189.19 144.696 230.598v-461.196c-85.631 41.408-144.696 129.104-144.696 230.598Z"></path><polygon fill="#D80027" points="300.522,289.391 345.043,267.13 322.783,256 322.783,233.739 278.261,256 300.522,211.478 278.261,211.478 256,178.087 233.739,211.478 211.478,211.478 233.739,256 189.217,233.739 189.217,256 166.957,267.13 211.478,289.391 200.348,311.652 244.87,311.652 244.87,345.043 267.13,345.043 267.13,311.652 311.652,311.652"></polygon></g></svg>