<?xml version="1.0" encoding="UTF-8"?><svg version="1.1" viewBox="0 0 20 20" xmlns="http://www.w3.org/2000/svg" xmlns:xlink="http://www.w3.org/1999/xlink"><g transform="matrix(.0390625 0 0 .0390625 0 0)"><circle cx="256" cy="256" r="256" fill="#FCFCFC"></circle><polygon fill="#A2001D" points="105.739,237.449 77.913,186.966 105.739,137.275 133.565,186.966"></polygon><polygon fill="#A2001D" points="50.087,237.449 22.261,186.966 50.087,137.275 77.913,186.966"></polygon><polygon fill="#A2001D" points="105.739,374.725 77.913,324.242 105.739,274.551 133.565,324.242"></polygon><polygon fill="#A2001D" points="50.087,374.725 22.261,324.242 50.087,274.551 77.913,324.242"></polygon><path fill="#A2001D" d="M133.565 49.692l-7.878-14.068c-14.13 8.372-27.383 18.065-39.594 28.909l19.646 35.641 27.826-50.482Z"></path><path fill="#A2001D" d="M105.739 411.826l-19.854 35.456c12.2 10.858 25.444 20.566 39.568 28.955l8.113-14.719 -27.827-49.692Z"></path><path fill="#6DA544" d="M155.826 322.783v168.863c30.769 13.097 64.622 20.354 100.174 20.354 110.071 0 203.906-69.472 240.077-166.957l-340.251-22.26Z"></path><path fill="#A2001D" d="M496.077 345.043c10.291-27.733 15.923-57.729 15.923-89.043 0-141.384-114.616-256-256-256 -35.549 0-69.405 7.253-100.174 20.348v324.696h340.251Z"></path></g></svg>