<?xml version="1.0" encoding="UTF-8"?><svg version="1.1" viewBox="0 0 20 20" xmlns="http://www.w3.org/2000/svg" xmlns:xlink="http://www.w3.org/1999/xlink"><g transform="matrix(.0390626 0 0 .0390626 0 0)"><circle cx="255.999" cy="255.999" r="255.999" fill="#FFDA44"></circle><path fill="#000" d="M74.98 437.019c10.739 10.739 22.198 20.317 34.217 28.748l356.568-356.568c-8.431-12.02-18.008-23.478-28.748-34.217 -10.739-10.739-22.197-20.314-34.216-28.747l-356.566 356.569c8.43 12.019 18.006 23.476 28.745 34.215Z"></path><path fill="#6DA544" d="M74.981 74.98c-80.763 80.763-96.268 202.056-46.544 298.397l344.94-344.939c-96.341-49.723-217.636-34.218-298.396 46.542Z"></path><path fill="#D80027" d="M437.018 437.019c80.762-80.761 96.266-202.054 46.545-298.397l-344.943 344.942c96.342 49.722 217.635 34.218 298.398-46.545Z"></path><polygon fill="#F0F0F0" points="162.77,302.008 186.668,314.185 205.634,295.22 201.438,321.709 225.335,333.887 198.844,338.082 194.648,364.573 182.472,340.675 155.982,344.871 174.947,325.906"></polygon><polygon fill="#F0F0F0" points="302.007,162.771 325.904,174.948 344.87,155.983 340.675,182.472 364.572,194.65 338.081,198.846 333.886,225.336 321.709,201.439 295.219,205.634 314.184,186.669"></polygon></g></svg>