<?xml version="1.0" encoding="UTF-8"?><svg version="1.1" viewBox="0 0 20 20" xmlns="http://www.w3.org/2000/svg" xmlns:xlink="http://www.w3.org/1999/xlink"><g transform="matrix(.0390625 0 0 .0390625 0 0)"><path fill="#D80027" d="M233.739 278.261c0 0-158.609-203.316-158.759-203.28 46.326-46.327 110.327-74.981 181.02-74.981 141.384 0 256 114.616 256 256l-278.261 22.261Z"></path><path fill="#0052B4" d="M233.739 256c0 0-158.609 181.055-158.759 181.019 46.326 46.327 110.327 74.981 181.02 74.981 141.384 0 256-114.616 256-256h-278.261Z"></path><path fill="#F0F0F0" d="M74.98 74.98c-99.974 99.974-99.974 262.065 0 362.04 41.313-41.313 81.046-81.046 181.02-181.02l-181.02-181.02Z"></path><path fill="#FFDA44" d="M28.061 256.001c-.14 1.838-.235 3.69-.235 5.564 0 39.956 32.392 72.348 72.348 72.348 39.956 0 72.348-32.392 72.348-72.348 0-1.874-.095-3.727-.235-5.564h-144.226Z"></path><circle cx="100.174" cy="200.348" r="22.261" fill="#FFDA44"></circle><path fill="#D80027" d="M50.087 194.783v72.348c0 38.34 50.087 50.087 50.087 50.087 0 0 50.087-11.747 50.087-50.087v-72.348h-100.174Z"></path><path fill="#338AF3" d="M100.198 293.92c-9.292-3.344-27.851-11.89-27.851-26.79v-50.087h55.653v50.087c0 14.949-18.557 23.474-27.802 26.79Z"></path><polygon fill="#F3F3F3" points="111.304,244.87 111.304,233.739 100.174,228.174 89.043,233.739 89.043,244.87 83.478,250.435 83.478,272.696 116.87,272.696 116.87,250.435"></polygon></g></svg>