<?xml version="1.0" encoding="UTF-8"?><svg version="1.1" viewBox="0 0 20 20" xmlns="http://www.w3.org/2000/svg" xmlns:xlink="http://www.w3.org/1999/xlink"><g transform="matrix(.0390625 0 0 .0390625 0 0)"><path fill="#6DA544" d="M496.077 345.043c10.291-27.732 15.923-57.729 15.923-89.043 0-31.314-5.632-61.311-15.923-89.043l-240.077-22.261 -240.077 22.261c-10.29 27.732-15.923 57.729-15.923 89.043 0 31.314 5.633 61.311 15.923 89.043l240.077 22.261 240.077-22.261Z"></path><path fill="#FFDA44" d="M496.077 166.957c-36.171-97.485-130.006-166.957-240.077-166.957 -110.071 0-203.906 69.472-240.077 166.957h480.154Z"></path><path fill="#D80027" d="M256 512c110.071 0 203.906-69.472 240.077-166.957h-480.154c36.171 97.485 130.006 166.957 240.077 166.957Z"></path><path fill="#F0F0F0" d="M431.549 216.586h-134.107l-41.442-127.543 -41.442 127.543h-134.107l108.495 78.826 -41.442 127.545 108.496-77.914 108.496 77.913 -41.441-127.545 108.494-78.825Z"></path></g></svg>