<?xml version="1.0" encoding="UTF-8"?><svg version="1.1" viewBox="0 0 20 20" xmlns="http://www.w3.org/2000/svg" xmlns:xlink="http://www.w3.org/1999/xlink"><g transform="matrix(.0390625 0 0 .0390625 0 0)"><circle cx="256" cy="256" r="256" fill="#F0F0F0"></circle><polygon fill="#0052B4" points="510.497,283.826 510.491,283.818 510.49,283.826"></polygon><path fill="#0052B4" d="M510.49 283.826c0-.002.001-.004.001-.008l-280.745-282.487c-12.665 1.291-25.058 3.505-37.109 6.574 -110.739 28.195-192.637 248.095-192.637 248.095 0 0 358.398 239.835 399.285 212.164 8.181-5.536 16.025-11.533 23.493-17.953l-166.383-166.385h254.095Z"></path><path fill="#D80027" d="M445.217 256l-248.972-248.971c-112.557 26.917-196.245 128.163-196.245 248.971 0 141.384 114.616 256 256 256 53.629 0 103.397-16.502 144.529-44.689l-211.312-211.311h256Z"></path><polygon fill="#F0F0F0" points="243.472,377.993 212.207,363.287 228.856,333.008 194.906,339.503 190.604,305.205 166.957,330.43 143.31,305.205 139.007,339.503 105.058,333.007 121.707,363.287 90.441,377.993 121.707,392.698 105.058,422.978 139.009,416.484 143.309,450.78 166.957,425.555 190.604,450.78 194.906,416.484 228.855,422.979 212.206,392.7"></polygon><polygon fill="#F0F0F0" points="222.609,141.983 199.869,131.288 211.978,109.265 187.285,113.989 184.156,89.043 166.957,107.39 149.758,89.043 146.628,113.989 121.935,109.265 134.045,131.288 111.304,141.983 166.957,153.115"></polygon><path fill="#F0F0F0" d="M233.739 141.983c0 36.883-29.9 66.783-66.783 66.783 -36.883 0-66.783-29.9-66.783-66.783"></path></g></svg>