<?xml version="1.0" encoding="UTF-8"?><svg version="1.1" viewBox="0 0 20 20" xmlns="http://www.w3.org/2000/svg" xmlns:xlink="http://www.w3.org/1999/xlink"><g transform="matrix(.0390625 0 0 .0390625 0 0)"><circle cx="256" cy="256" r="256" fill="#F0F0F0"></circle><path fill="#D80027" d="M0 256c0 97.035 53.99 181.455 133.565 224.873v-449.746c-79.575 43.418-133.565 127.838-133.565 224.873Z"></path><path fill="#0052B4" d="M0 256c0 118.279 80.221 217.805 189.217 247.181v-494.362c-108.996 29.376-189.217 128.902-189.217 247.181Z"></path><path fill="#D80027" d="M91.826 89.043v41.739c0 20.747 16.818 37.565 37.565 37.565 20.747 0 37.565-16.818 37.565-37.565v-41.739h-75.13Z"></path><path fill="#F0F0F0" d="M129.391 146.087c-8.439 0-15.304-6.865-15.304-15.304v-19.478h30.609v19.478c-2.84217e-14 8.439-6.866 15.304-15.305 15.304Z"></path><path fill="#FFDA44" d="M278.261 267.13h-66.783c0-12.294-9.967-22.261-22.261-22.261 -12.294 0-22.261 9.967-22.261 22.261h-66.783c0 12.295 10.709 22.261 23.002 22.261h-.741c0 12.295 9.965 22.261 22.261 22.261 0 12.295 9.965 22.261 22.261 22.261h44.522c12.294 0 22.261-9.966 22.261-22.261 12.294 0 22.261-9.966 22.261-22.261h-.741c12.293-5.68434e-14 23.002-9.966 23.002-22.261Z"></path><polygon fill="#FFDA44" points="287.409,231.507 281.565,240.864 288.654,249.312 277.95,246.647 272.105,256 271.334,244.995 260.63,242.326 270.861,238.194 270.091,227.189 277.182,235.641"></polygon><polygon fill="#FFDA44" points="253.306,202.892 251.015,213.683 260.568,219.198 249.596,220.356 247.303,231.144 242.815,221.066 231.844,222.218 240.043,214.836 235.557,204.76 245.109,210.275"></polygon><polygon fill="#FFDA44" points="211.476,187.668 213.011,198.593 223.874,200.508 213.96,205.344 215.495,216.269 207.833,208.333 197.917,213.169 203.096,203.428 195.433,195.494 206.298,197.408"></polygon><polygon fill="#FFDA44" points="166.959,187.668 172.139,197.408 183.002,195.493 175.339,203.43 180.518,213.17 170.604,208.333 162.94,216.267 164.476,205.344 154.561,200.509 165.424,198.593"></polygon><polygon fill="#FFDA44" points="125.128,202.892 133.326,210.275 142.878,204.76 138.394,214.84 146.589,222.219 135.62,221.066 131.131,231.144 128.841,220.354 117.869,219.202 127.421,213.684"></polygon><polygon fill="#FFDA44" points="91.026,231.507 101.257,235.641 108.344,227.19 107.578,238.197 117.805,242.33 107.1,244.996 106.328,256 100.487,246.647 89.783,249.314 96.874,240.864"></polygon></g></svg>