<?xml version="1.0" encoding="UTF-8"?><svg version="1.1" viewBox="0 0 20 20" xmlns="http://www.w3.org/2000/svg" xmlns:xlink="http://www.w3.org/1999/xlink"><g transform="matrix(.0390625 0 0 .0390625 0 0)"><circle cx="256" cy="256" r="256" fill="#F0F0F0"></circle><path fill="#D80027" d="M509.833 222.609h-220.44 -.001v-220.442c-10.931-1.423-22.075-2.167-33.392-2.167 -11.317 0-22.461.744-33.391 2.167v220.44 .001h-220.442c-1.423 10.931-2.167 22.075-2.167 33.392 0 11.319.744 22.461 2.167 33.391h220.44 .001v220.442c10.931 1.423 22.075 2.167 33.392 2.167 11.317 0 22.461-.743 33.391-2.167v-220.44 -.001h220.442c1.423-10.931 2.167-22.073 2.167-33.392 0-11.317-.744-22.461-2.167-33.391Z"></path><polygon fill="#D80027" points="155.826,122.435 155.826,89.043 122.435,89.043 122.435,122.435 89.043,122.435 89.043,155.826 122.435,155.826 122.435,189.217 155.826,189.217 155.826,155.826 189.217,155.826 189.217,122.435"></polygon><polygon fill="#D80027" points="389.565,122.435 389.565,89.043 356.174,89.043 356.174,122.435 322.783,122.435 322.783,155.826 356.174,155.826 356.174,189.217 389.565,189.217 389.565,155.826 422.957,155.826 422.957,122.435"></polygon><polygon fill="#D80027" points="155.826,356.174 155.826,322.783 122.435,322.783 122.435,356.174 89.043,356.174 89.043,389.565 122.435,389.565 122.435,422.957 155.826,422.957 155.826,389.565 189.217,389.565 189.217,356.174"></polygon><polygon fill="#D80027" points="389.565,356.174 389.565,322.783 356.174,322.783 356.174,356.174 322.783,356.174 322.783,389.565 356.174,389.565 356.174,422.957 389.565,422.957 389.565,389.565 422.957,389.565 422.957,356.174"></polygon></g></svg>