<?xml version="1.0" encoding="UTF-8"?><svg version="1.1" viewBox="0 0 20 20" xmlns="http://www.w3.org/2000/svg" xmlns:xlink="http://www.w3.org/1999/xlink"><g transform="matrix(.0390625 0 0 .0390625 0 0)"><circle cx="256" cy="256" r="256" fill="#F0F0F0"></circle><path fill="#D80027" d="M61.939 89.043c-8.983 10.433-17.138 21.596-24.366 33.391h436.852c-7.228-11.795-15.382-22.959-24.366-33.391h-388.12Z"></path><path fill="#D80027" d="M61.939 422.957h388.121c8.983-10.433 17.138-21.596 24.366-33.391h-436.852c7.227 11.794 15.382 22.958 24.365 33.391Z"></path><polygon fill="#D80027" points="223.24,209.186 244.244,238.131 278.261,227.101 257.224,256.021 278.226,284.965 244.221,273.893 223.184,302.813 223.205,267.052 189.2,255.98 223.218,244.95"></polygon><path fill="#D80027" d="M165.915 328.348c-39.956 0-72.348-32.392-72.348-72.348 0-39.956 32.392-72.348 72.348-72.348 12.458 0 24.181 3.15 34.415 8.696 -16.055-15.701-38.012-25.392-62.241-25.392 -49.178 0-89.043 39.866-89.043 89.043 0 49.177 39.866 89.043 89.043 89.043 24.229 0 46.186-9.691 62.241-25.392 -10.234 5.548-21.956 8.698-34.415 8.698Z"></path></g></svg>