<?xml version="1.0" encoding="UTF-8"?><svg version="1.1" viewBox="0 0 20 20" xmlns="http://www.w3.org/2000/svg" xmlns:xlink="http://www.w3.org/1999/xlink"><g transform="matrix(.0390625 0 0 .0390625 0 0)"><circle cx="256" cy="256" r="256" fill="#496E2D"></circle><path fill="#F0F0F0" d="M300.522 245.325c-6.284 0-12.25 1.253-17.79 3.247 3.035-6.764 5.07-14.29 5.07-22.327 0-31.801-31.801-55.652-31.801-55.652 0 0-31.801 23.851-31.801 55.652 0 8.036 2.035 15.563 5.07 22.327 -5.541-1.992-11.507-3.247-17.79-3.247 -31.801 0-55.652 31.801-55.652 31.801 0 0 23.851 31.802 55.652 31.802 18.645 0 34.547-10.928 44.522-19.974 9.975 9.045 25.877 19.974 44.522 19.974 31.801 0 55.652-31.802 55.652-31.802 0 0-23.853-31.801-55.654-31.801Z"></path><polygon fill="#FFDA44" points="256,100.174 262.569,120.39 283.826,120.39 266.631,132.886 273.195,153.102 256,140.606 238.805,153.102 245.369,132.886 228.174,120.39 249.431,120.39"></polygon><polygon fill="#FFDA44" points="175.167,135.533 187.805,146.911 202.532,138.409 195.616,153.944 208.253,165.324 191.341,163.546 184.425,179.081 180.887,162.448 163.976,160.67 178.702,152.166"></polygon><polygon fill="#FFDA44" points="115.994,194.707 132.628,198.242 141.131,183.515 142.909,200.426 159.541,203.964 144.007,210.881 145.785,227.791 134.404,215.156 118.87,222.072 127.373,207.344"></polygon><polygon fill="#FFDA44" points="336.833,135.533 324.196,146.911 309.469,138.409 316.384,153.944 303.748,165.324 320.66,163.546 327.576,179.081 331.114,162.448 348.025,160.67 333.299,152.166"></polygon><polygon fill="#FFDA44" points="396.007,194.707 379.373,198.242 370.871,183.515 369.092,200.426 352.46,203.964 367.994,210.881 366.216,227.791 377.597,215.156 393.131,222.072 384.628,207.344"></polygon><path fill="#F0F0F0" d="M256 397.972c25.261 0 48.545-8.428 67.223-22.609h-134.445c18.678 14.18 41.961 22.609 67.222 22.609Z"></path><path fill="#F0F0F0" d="M153.967 331.189c3.533 8.086 8.013 15.659 13.275 22.609h177.518c5.262-6.949 9.742-14.523 13.275-22.609h-204.068Z"></path></g></svg>