<?xml version="1.0" encoding="UTF-8"?><svg version="1.1" viewBox="0 0 20 20" xmlns="http://www.w3.org/2000/svg" xmlns:xlink="http://www.w3.org/1999/xlink"><g transform="matrix(.0390625 0 0 .0390625 0 0)"><circle cx="256" cy="256" r="256" fill="#F0F0F0"></circle><path fill="#D80027" d="M244.87 256h267.13c0-23.107-3.08-45.489-8.819-66.783h-258.311v66.783Z"></path><path fill="#D80027" d="M244.87 122.435h229.556c-15.671-25.572-35.706-48.175-59.069-66.783h-170.487v66.783Z"></path><path fill="#D80027" d="M256 512c60.249 0 115.626-20.824 159.357-55.652h-318.714c43.731 34.828 99.108 55.652 159.357 55.652Z"></path><path fill="#D80027" d="M37.574 389.565h436.852c12.581-20.528 22.337-42.969 28.755-66.783h-494.362c6.417 23.814 16.174 46.255 28.755 66.783Z"></path><path fill="#0052B4" d="M256 256c0-141.384 0-158.052 0-256 -141.384 0-256 114.616-256 256h256Z"></path><path fill="#FFDA44" d="M170.234 219.13c-34.962 0-63.304-28.343-63.304-63.304 0-34.961 28.343-63.304 63.304-63.304 10.901 0 21.158 2.757 30.113 7.609 -14.048-13.737-33.26-22.217-54.461-22.217 -43.029 0-77.913 34.883-77.913 77.913 0 43.03 34.884 77.913 77.913 77.913 21.201 0 40.413-8.48 54.461-22.217 -8.955 4.85-19.211 7.607-30.113 7.607Z"></path><polygon fill="#FFDA44" points="188.073,111.304 199.312,134.806 224.693,128.942 213.327,152.381 233.739,168.568 208.325,174.297 208.396,200.348 188.073,184.05 167.749,200.348 167.819,174.297 142.405,168.568 162.817,152.381 151.45,128.942 176.833,134.806"></polygon></g></svg>