<?xml version="1.0" encoding="UTF-8"?><svg version="1.1" viewBox="0 0 20 20" xmlns="http://www.w3.org/2000/svg" xmlns:xlink="http://www.w3.org/1999/xlink"><g transform="matrix(.0390625 0 0 .0390625 0 0)"><circle cx="256" cy="256" r="256" fill="#338AF3"></circle><rect width="267.13" height="33.391" x="122.435" y="278.261" fill="#818085"></rect><polygon fill="#FFDA44" points="166.957,178.087 256,189.219 345.043,178.087 345.043,124.661 309.426,142.47 256,89.043 202.574,142.47 166.957,124.661"></polygon><polygon fill="#F0F0F0" points="144.696,345.045 111.304,345.045 111.304,283.827 122.435,267.13 111.304,250.435 111.304,211.479 144.696,211.479"></polygon><polygon fill="#F0F0F0" points="400.696,345.045 367.304,345.045 367.304,211.479 400.696,211.479 400.696,250.434 389.565,267.41 400.696,283.829"></polygon><rect width="289.391" height="33.391" x="111.304" y="250.435" fill="#ACABB1"></rect><path fill="#F0F0F0" d="M256 389.565c-49.099 0-89.043-39.945-89.043-89.043v-122.434h178.087v122.434c-.001 49.098-39.945 89.043-89.044 89.043Z"></path><path fill="#0052B4" d="M256 356.174c-30.687 0-55.652-24.966-55.652-55.652v-89.042h111.304v89.042c0 30.686-24.965 55.652-55.652 55.652Z"></path><rect width="33.391" height="33.391" x="166.957" y="178.087" fill="#D80027"></rect><rect width="33.391" height="33.391" x="311.652" y="178.087" fill="#D80027"></rect><rect width="33.391" height="33.391" x="311.652" y="250.435" fill="#D80027"></rect><rect width="33.391" height="33.391" x="166.957" y="250.435" fill="#D80027"></rect><rect width="33.391" height="33.391" x="239.304" y="178.087" fill="#D80027"></rect><path fill="#D80027" d="M256 356.174c-5.816 0-11.423-.9-16.696-2.562v34.361c5.412 1.032 10.988 1.593 16.696 1.593 5.708 0 11.284-.561 16.696-1.593v-34.361c-5.273 1.661-10.88 2.562-16.696 2.562Z"></path><path fill="#D80027" d="M201.092 309.556l-26.648 26.648c4.62 10.519 11.212 19.978 19.314 27.908l23.6-23.6c-8.422-8.137-14.289-18.897-16.266-30.956Z"></path><path fill="#D80027" d="M337.556 336.206l-26.648-26.648c-1.978 12.058-7.844 22.817-16.265 30.957l23.6 23.6c8.1-7.931 14.693-17.39 19.313-27.909Z"></path></g></svg>