<?xml version="1.0" encoding="UTF-8"?><svg version="1.1" viewBox="0 0 20 20" xmlns="http://www.w3.org/2000/svg" xmlns:xlink="http://www.w3.org/1999/xlink"><g transform="matrix(.0390625 0 0 .0390625 0 0)"><circle cx="256" cy="256" r="256" fill="#D80027"></circle><polygon fill="#FFDA44" points="381.197,256 330.042,280.062 357.283,329.609 301.73,318.98 294.694,375.096 255.999,333.826 217.307,375.096 210.268,318.98 154.72,329.607 181.96,280.06 130.803,256 181.96,231.939 154.72,182.391 210.266,193.021 217.309,136.904 255.999,178.175 294.696,136.904 301.73,193.021 357.285,182.391 330.043,231.942"></polygon><circle cx="256" cy="256" r="77.913" fill="#D80027"></circle><path fill="#FFDA44" d="M217.043 256c-1.877 0-3.73.096-5.559.278 .067 10.791 3.971 20.668 10.419 28.341 3.44-9.257 8.576-17.698 15.053-24.922 -6.186-2.379-12.897-3.697-19.913-3.697Z"></path><path fill="#FFDA44" d="M241.025 297.933c4.68 1.672 9.719 2.589 14.975 2.589 5.256 0 10.295-.917 14.975-2.589 -2.551-10.012-7.818-18.95-14.975-25.974 -7.157 7.023-12.424 15.962-14.975 25.974Z"></path><path fill="#FFDA44" d="M294.555 233.746c-7.698-13.306-22.075-22.268-38.555-22.268 -16.48 0-30.857 8.961-38.555 22.268 14.034.071 27.194 3.887 38.555 10.476 11.361-6.589 24.519-10.405 38.555-10.476Z"></path><path fill="#FFDA44" d="M275.042 259.698c6.477 7.223 11.613 15.664 15.053 24.922 6.448-7.673 10.352-17.55 10.419-28.341 -1.83-.183-3.683-.278-5.559-.278 -7.014-.001-13.725 1.317-19.913 3.697Z"></path></g></svg>