<?xml version="1.0" encoding="UTF-8"?><svg version="1.1" viewBox="0 0 20 20" xmlns="http://www.w3.org/2000/svg" xmlns:xlink="http://www.w3.org/1999/xlink"><g transform="matrix(.0390625 0 0 .0390625 0 0)"><path fill="#FFDA44" d="M256 0c-31.314 0-61.311 5.633-89.043 15.923l-11.131 240.077 11.13 240.077c27.733 10.291 57.73 15.923 89.044 15.923 31.314 0 61.311-5.632 89.043-15.923l11.131-240.077 -11.13-240.077c-27.733-10.29-57.73-15.923-89.044-15.923Z"></path><path fill="#D80027" d="M512 256c0-110.071-69.472-203.906-166.957-240.077v480.155c97.485-36.172 166.957-130.007 166.957-240.078Z"></path><path fill="#0052B4" d="M166.957 496.077v-480.154c-97.485 36.171-166.957 130.006-166.957 240.077 0 110.071 69.472 203.906 166.957 240.077Z"></path></g></svg>