<?xml version="1.0" encoding="UTF-8"?><svg version="1.1" viewBox="0 0 20 20" xmlns="http://www.w3.org/2000/svg" xmlns:xlink="http://www.w3.org/1999/xlink"><g transform="matrix(.0390625 0 0 .0390625 0 0)"><circle cx="256" cy="256" r="256" fill="#F0F0F0"></circle><path fill="#0052B4" d="M256 512c141.384 0 256-114.616 256-256 0-31.314-5.632-61.311-15.923-89.043h-480.154c-10.29 27.732-15.923 57.729-15.923 89.043 0 141.384 114.616 256 256 256Z"></path><path fill="#D80027" d="M256 512c110.071 0 203.906-69.472 240.077-166.957h-480.154c36.171 97.485 130.006 166.957 240.077 166.957Z"></path><path fill="#F0F0F0" d="M66.198 144.696v127.706c0 72.644 94.901 94.903 94.901 94.903 0 0 94.9-22.259 94.9-94.903v-127.706h-189.801Z"></path><path fill="#D80027" d="M88.459 144.696v127.706c0 8.528 1.894 16.582 5.646 24.133 37.234 0 92.886 0 133.987 0 3.752-7.55 5.646-15.605 5.646-24.133v-127.706h-145.279Z"></path><polygon fill="#F0F0F0" points="205.62,233.739 172.23,233.739 172.23,211.478 194.491,211.478 194.491,189.217 172.23,189.217 172.23,166.957 149.969,166.957 149.969,189.217 127.709,189.217 127.709,211.478 149.969,211.478 149.969,233.739 116.577,233.739 116.577,256 149.969,256 149.969,278.261 172.23,278.261 172.23,256 205.62,256"></polygon><path fill="#0052B4" d="M124.471 327.61c14.345 9.015 29.083 14.249 36.628 16.577 7.545-2.327 22.283-7.562 36.628-16.577 14.466-9.092 24.607-19.49 30.365-31.075 -6.351-4.493-14.1-7.143-22.471-7.143 -3.048 0-6.009.361-8.856 1.024 -6.033-13.708-19.728-23.285-35.665-23.285 -15.937 0-29.633 9.577-35.665 23.285 -2.847-.663-5.809-1.024-8.856-1.024 -8.371 0-16.12 2.65-22.471 7.143 5.755 11.584 15.896 21.982 30.363 31.075Z"></path></g></svg>