<?xml version="1.0" encoding="UTF-8"?><svg version="1.1" viewBox="0 0 20 20" xmlns="http://www.w3.org/2000/svg" xmlns:xlink="http://www.w3.org/1999/xlink"><g transform="matrix(.0390625 0 0 .0390625 0 0)"><circle cx="256" cy="256" r="256" fill="#D80027"></circle><polygon fill="#F0F0F0" points="245.518,209.186 266.523,238.131 300.54,227.101 279.502,256.021 300.504,284.965 266.499,273.893 245.462,302.813 245.484,267.052 211.478,255.98 245.496,244.95"></polygon><path fill="#F0F0F0" d="M188.194 328.348c-39.956 0-72.348-32.392-72.348-72.348 0-39.956 32.392-72.348 72.348-72.348 12.458 0 24.18 3.151 34.414 8.696 -16.055-15.702-38.012-25.392-62.24-25.392 -49.178 0-89.043 39.866-89.043 89.043 0 49.177 39.866 89.043 89.043 89.043 24.23 0 46.186-9.691 62.24-25.392 -10.234 5.547-21.956 8.698-34.414 8.698Z"></path></g></svg>