<?xml version="1.0" encoding="UTF-8"?><svg version="1.1" viewBox="0 0 20 20" xmlns="http://www.w3.org/2000/svg" xmlns:xlink="http://www.w3.org/1999/xlink"><g transform="matrix(.0390625 0 0 .0390625 0 0)"><circle cx="256" cy="256" r="256" fill="#F0F0F0"></circle><path fill="#000" d="M492.029 156.753c-38.769-92.091-129.841-156.753-236.029-156.753 -70.694 0-134.687 28.659-181.011 74.989l64.11 81.764 352.93-2.84217e-14v0Z"></path><path fill="#496E2D" d="M139.826 354.32l-64.837 82.691c46.324 46.33 110.317 74.989 181.011 74.989 106.546 0 197.878-65.094 236.424-157.68h-352.598v0Z"></path><path fill="#A2001D" d="M55.652 188.29v134.492h447.53c5.742-21.291 8.818-43.675 8.818-66.782 0-23.442-3.158-46.142-9.061-67.71h-447.287v0Z"></path><path fill="#0052B4" d="M74.98 74.98c-99.974 99.974-99.974 262.065 0 362.04 41.313-41.313 81.046-81.046 181.02-181.02l-181.02-181.02Z"></path><polygon fill="#FFDA44" points="83.386,192.352 114.631,235.953 165.759,219.708 133.948,262.901 165.193,306.504 114.285,289.597 82.473,332.789 82.823,279.146 31.913,262.237 83.037,245.993"></polygon></g></svg>