<?xml version="1.0" encoding="UTF-8"?><svg version="1.1" viewBox="0 0 20 20" xmlns="http://www.w3.org/2000/svg" xmlns:xlink="http://www.w3.org/1999/xlink"><g transform="matrix(.0390625 0 0 .0390625 0 0)"><path fill="#D80027" d="M0 256c0-141.384 114.616-256 256-256 141.384 0 256 114.616 256 256 -11.13 0-256 33.391-256 33.391l-256-33.391Z"></path><path fill="#6DA544" d="M512 256c0 141.384-114.616 256-256 256 -141.384 0-256-114.616-256-256"></path><polygon fill="#FFDA44" points="255.999,166.957 275.336,226.475 337.923,226.475 287.291,263.261 306.629,322.783 255.999,285.998 205.368,322.783 224.709,263.261 174.076,226.475 236.66,226.475"></polygon></g></svg>