<?xml version="1.0" encoding="UTF-8"?><svg version="1.1" viewBox="0 0 20 20" xmlns="http://www.w3.org/2000/svg" xmlns:xlink="http://www.w3.org/1999/xlink"><g transform="matrix(.0390625 0 0 .0390625 0 0)"><path fill="#FFDA44" d="M486.598 367.304c16.274-33.655 25.402-71.414 25.402-111.304 0-39.89-9.128-77.649-25.402-111.304l-230.598-11.131 -230.598 11.13c-16.274 33.656-25.402 71.415-25.402 111.305 0 39.89 9.128 77.649 25.402 111.304l230.598 11.131 230.598-11.131Z"></path><path fill="#000" d="M256 0c-101.494 0-189.19 59.065-230.598 144.696h461.195c-41.407-85.631-129.104-144.696-230.597-144.696Z"></path><path fill="#0052B4" d="M256 512c-101.494 0-189.19-59.065-230.598-144.696h461.195c-41.407 85.631-129.104 144.696-230.597 144.696Z"></path><path fill="#A2001D" d="M499.911 178.087h-487.822c-7.842 24.569-12.089 50.744-12.089 77.913 0 27.169 4.247 53.344 12.089 77.913h487.821c7.843-24.569 12.09-50.744 12.09-77.913 0-27.169-4.247-53.344-12.089-77.913Z"></path><rect width="333.913" height="22.261" x="89.043" y="244.87" fill="#FFDA44"></rect><rect width="244.87" height="22.261" x="133.565" y="200.348" fill="#FFDA44"></rect><path fill="#F0F0F0" d="M380.025 256c0 0-57.243 66.783-124.025 66.783 -66.782 0-66.783-66.783-66.783-66.783 0 0 0-66.783 66.783-66.783 66.783 0 124.025 66.783 124.025 66.783Z"></path><path fill="#000" d="M256 322.783c-66.783 0-124.025-66.783-124.025-66.783 0 0 57.242-66.783 124.025-66.783"></path><rect width="22.261" height="44.522" x="211.478" y="233.739" fill="#F0F0F0"></rect><rect width="22.261" height="44.522" x="278.261" y="233.739" fill="#000"></rect><circle cx="89.043" cy="256" r="22.261" fill="#0052B4"></circle><circle cx="422.957" cy="256" r="22.261" fill="#0052B4"></circle></g></svg>