<?xml version="1.0" encoding="UTF-8"?><svg version="1.1" viewBox="0 0 20 20" xmlns="http://www.w3.org/2000/svg" xmlns:xlink="http://www.w3.org/1999/xlink"><g transform="matrix(.0390625 0 0 .0390625 0 0)"><path fill="#FFDA44" d="M496.077 345.043c10.291-27.732 15.923-57.729 15.923-89.043 0-31.314-5.632-61.309-15.923-89.043l-240.077-22.261 -240.077 22.261c-10.29 27.734-15.923 57.729-15.923 89.043 0 31.314 5.633 61.311 15.923 89.043l240.077 22.261 240.077-22.261Z"></path><path fill="#0052B4" d="M256 512c110.07 0 203.906-69.472 240.076-166.957h-480.154c36.172 97.485 130.006 166.957 240.078 166.957Z"></path><path fill="#6DA544" d="M256 0c-110.072 0-203.906 69.472-240.078 166.957h480.155c-36.171-97.485-130.007-166.957-240.077-166.957Z"></path></g></svg>