<?xml version="1.0" encoding="UTF-8"?><svg version="1.1" viewBox="0 0 20 20" xmlns="http://www.w3.org/2000/svg" xmlns:xlink="http://www.w3.org/1999/xlink"><g transform="matrix(.0390625 0 0 .0390625 0 0)"><path fill="#FFDA44" d="M512 256c0-31.314-5.632-61.311-15.923-89.043l-240.077-11.131 -240.077 11.13c-10.291 27.733-15.923 57.73-15.923 89.044 0 31.314 5.632 61.311 15.923 89.043l240.077 11.131 240.077-11.13c10.291-27.733 15.923-57.73 15.923-89.044Z"></path><path fill="#6DA544" d="M256 512c110.071 0 203.906-69.472 240.077-166.957h-480.154c36.171 97.485 130.006 166.957 240.077 166.957Z"></path><path fill="#D80027" d="M15.923 166.957h480.155c-36.172-97.485-130.007-166.957-240.078-166.957 -110.071 0-203.906 69.472-240.077 166.957Z"></path></g></svg>