<?xml version="1.0" encoding="UTF-8"?><svg version="1.1" viewBox="0 0 20 20" xmlns="http://www.w3.org/2000/svg" xmlns:xlink="http://www.w3.org/1999/xlink"><g transform="matrix(.0390625 0 0 .0390625 0 0)"><circle cx="256" cy="256" r="256" fill="#F0F0F0"></circle><path fill="#6DA544" d="M256 0c-45.261 0-87.769 11.762-124.661 32.372v447.256c36.893 20.61 79.4 32.372 124.661 32.372 141.384 0 256-114.616 256-256 0-141.384-114.616-256-256-256Z"></path><path fill="#F0F0F0" d="M132.092 31.951c-16.105 8.925-31.143 19.533-44.882 31.593 1.389-1.218 2.792-2.422 4.206-3.61l196.065 196.066 -196.066 196.066c-1.415-1.188-2.817-2.392-4.206-3.61 13.739 12.06 28.778 22.667 44.882 31.593l379.909-224.049 -379.908-224.049Z"></path><path fill="#FFDA44" d="M110.47 45.382c-7.807 5.406-15.305 11.223-22.45 17.44l167.98 193.178 -167.981 193.178c7.145 6.217 14.643 12.035 22.45 17.44l357.709-210.618 -357.708-210.618Z"></path><path fill="#000" d="M91.415 59.934c-5.691 4.782-11.183 9.795-16.435 15.046l158.759 181.02 -158.759 181.02c5.252 5.252 10.743 10.266 16.435 15.046l196.066-196.066 -196.066-196.066Z"></path><path fill="#D80027" d="M74.98 74.98c-99.974 99.974-99.974 262.065 0 362.04 41.313-41.313 81.046-81.046 181.02-181.02l-181.02-181.02Z"></path></g></svg>