<?xml version="1.0" encoding="UTF-8"?><svg version="1.1" viewBox="0 0 20 20" xmlns="http://www.w3.org/2000/svg" xmlns:xlink="http://www.w3.org/1999/xlink"><g transform="matrix(.0390625 0 0 .0390625 0 0)"><path fill="#F0F0F0" d="M25.402 144.696c-16.274 33.656-25.402 71.413-25.402 111.304 0 39.891 9.128 77.648 25.402 111.304l230.598 22.261 230.598-22.261c16.274-33.656 25.402-71.413 25.402-111.304 0-39.891-9.128-77.648-25.402-111.304l-230.598-22.261 -230.598 22.261Z"></path><path fill="#496E2D" d="M25.411 367.304c41.406 85.631 129.096 144.696 230.589 144.696 101.493 0 189.183-59.065 230.589-144.696h-461.178Z"></path><path fill="#000" d="M25.411 144.696h461.178c-41.406-85.631-129.095-144.696-230.589-144.696 -101.494 0-189.183 59.065-230.589 144.696Z"></path><path fill="#D80027" d="M74.98 74.98c-99.974 99.974-99.974 262.065 0 362.04 41.313-41.313 81.046-81.046 181.02-181.02l-181.02-181.02Z"></path><path fill="#D80027" d="M322.783 256c0-37.298 26.213-68.457 61.217-76.101 -5.38-1.175-10.962-1.812-16.696-1.812 -43.031 0-77.913 34.882-77.913 77.913 0 43.031 34.882 77.913 77.913 77.913 5.733 0 11.315-.637 16.696-1.812 -35.004-7.644-61.217-38.803-61.217-76.101Z"></path><polygon fill="#D80027" points="387.273,205.913 398.326,239.927 434.087,239.927 405.155,260.945 416.207,294.957 387.273,273.937 358.342,294.957 369.395,260.945 340.461,239.927 376.222,239.927"></polygon></g></svg>