<?xml version="1.0" encoding="UTF-8"?><svg version="1.1" viewBox="0 0 20 20" xmlns="http://www.w3.org/2000/svg" xmlns:xlink="http://www.w3.org/1999/xlink"><g transform="matrix(.0390625 0 0 .0390625 0 0)"><path fill="#FFDA44" d="M0 256c0 31.316 5.633 61.312 15.924 89.046l240.076 22.258 240.076-22.259c10.292-27.733 15.924-57.73 15.924-89.045 0-30.885-5.471-60.492-15.494-87.905l-240.506-23.399 -240.506 23.4c-10.023 27.412-15.494 57.019-15.494 87.904Z"></path><path fill="#D80027" d="M256 512c110.071 0 203.906-69.472 240.077-166.957h-480.154c36.171 97.485 130.006 166.957 240.077 166.957Z"></path><path fill="#6DA544" d="M256 0c-110.071 0-203.906 69.472-240.077 166.957h480.155c-36.172-97.485-130.007-166.957-240.078-166.957Z"></path><circle cx="256" cy="256" r="122.435" fill="#0052B4"></circle><polygon fill="#FFDA44" points="255.974,161.191 278.076,229.213 349.713,229.213 291.735,271.254 314.011,339.478 255.974,297.237 198.026,339.4 220.212,271.254 162.287,229.213 233.872,229.213"></polygon><polygon fill="#FFDA44" points="344.124,272.93 274.008,250.146 317.341,190.506 299.333,177.42 255.998,237.064 212.667,177.421 194.657,190.505 237.989,250.15 167.876,272.929 174.754,294.102 244.87,271.321 244.87,345.043 267.13,345.043 267.13,271.32 337.243,294.102"></polygon></g></svg>