<?xml version="1.0" encoding="UTF-8"?><svg version="1.1" viewBox="0 0 20 20" xmlns="http://www.w3.org/2000/svg" xmlns:xlink="http://www.w3.org/1999/xlink"><g transform="matrix(.0390625 0 0 .0390625 0 0)"><path fill="#0052B4" d="M512 256c0 141.384-114.616 256-256 256 -141.384 0-256-114.616-256-256 0 .061 256-255.972 256-256 141.384 0 256 114.616 256 256Z"></path><path fill="#F0F0F0" d="M256 0c-.016 0-.028 0-.043 0h.043v0Z"></path><path fill="#F0F0F0" d="M255.315 256h.685c0-.23 0-.454 0-.685 -.228.229-.456.457-.685.685Z"></path><path fill="#F0F0F0" d="M256 133.565c0-45.045 0-74.56 0-133.565h-.043c-141.366.024-255.957 114.629-255.957 256h133.565v-75.211l75.211 75.211h46.54c.228-.228.456-.456.685-.685 0-17.247 0-32.636 0-46.537l-75.213-75.213h75.212Z"></path><path fill="#D80027" d="M129.515 33.391c-40.039 22.799-73.326 56.085-96.124 96.124v126.485h66.783v-155.824 -.002h155.826c0-21.063 0-41.129 0-66.783h-126.485Z"></path><path fill="#D80027" d="M256 224.519l-90.955-90.953h-31.48v.002l122.433 122.432h.002c0 0 0-21.707 0-31.481Z"></path><path fill="#338AF3" d="M289.391 133.565v122.434c0 59.64 77.913 77.914 77.913 77.914 0 0 77.913-18.274 77.913-77.914v-122.434h-155.826Z"></path><path fill="#A2001D" d="M289.391 255.999c0 59.64 77.913 77.914 77.913 77.914 0 0 77.913-18.274 77.913-77.914h-155.826Z"></path><polygon fill="#000" points="400.696,189.219 378.434,189.219 378.434,166.957 356.173,166.957 356.173,189.219 333.913,189.219 333.913,211.479 356.173,211.479 356.173,278.261 378.434,278.261 378.434,211.479 400.696,211.479"></polygon></g></svg>