<?xml version="1.0" encoding="UTF-8"?><svg version="1.1" viewBox="0 0 20 20" xmlns="http://www.w3.org/2000/svg" xmlns:xlink="http://www.w3.org/1999/xlink"><g transform="matrix(.0390624 0 0 .0390624 0 0)"><path fill="#FFDA44" d="M256.001.001c141.384 0 256 114.616 256 256 0 141.384-114.616 256-256 256 -141.384 0-256-114.616-256-256"></path><path fill="#D80027" d="M250.436 113.779h218.444c-14.384-21.487-31.937-40.667-51.987-56.889h-166.457v56.889Z"></path><path fill="#D80027" d="M250.436 227.557h259.985c-2.182-19.726-6.603-38.773-13.006-56.888h-246.979v56.888Z"></path><path fill="#D80027" d="M14.588 341.335h482.825c6.403-18.115 10.825-37.164 13.007-56.89h-508.838c2.18 19.727 6.602 38.776 13.006 56.89Z"></path><path fill="#D80027" d="M95.108 455.112h321.784c20.049-16.221 37.603-35.403 51.987-56.889h-425.756c14.384 21.486 31.936 40.667 51.985 56.889Z"></path><path fill="#4A1F63" d="M256.001.001c-141.385 0-256.002 114.616-256.001 256.002 58.426-.002 114.616 0 256 0l.001-256.002Z"></path><polygon fill="#F0F0F0" points="211.479,133.566 211.479,155.827 200.349,155.827 200.349,133.566 178.088,133.566 178.088,155.827 166.958,155.827 166.958,111.305 122.436,111.305 122.436,155.827 111.305,155.827 111.305,133.566 89.045,133.566 89.045,155.827 77.914,155.827 77.914,133.566 55.652,133.566 55.652,200.348 233.74,200.348 233.74,133.566"></polygon></g></svg>