<?xml version="1.0" encoding="UTF-8"?><svg version="1.1" viewBox="0 0 20 20" xmlns="http://www.w3.org/2000/svg" xmlns:xlink="http://www.w3.org/1999/xlink"><g transform="matrix(.0390625 0 0 .0390625 0 0)"><circle cx="256" cy="256" r="256" fill="#F0F0F0"></circle><path fill="#A2001D" d="M496.076 166.957h-480.154c-10.289 27.734-15.922 57.729-15.922 89.043 0 31.314 5.633 61.311 15.922 89.043h480.155c10.291-27.732 15.923-57.729 15.923-89.043 0-31.314-5.632-61.309-15.924-89.043Z"></path><path fill="#6DA544" d="M256.741 512c87.682 0 165.058-44.092 211.196-111.304h-422.391c46.138 67.212 123.512 111.304 211.195 111.304Z"></path><path fill="#6DA544" d="M256.741.002c87.682 0 165.058 44.092 211.196 111.304h-422.391c46.138-67.212 123.512-111.304 211.195-111.304Z"></path><polygon fill="#FFDA44" points="256,166.957 278.101,234.977 349.626,234.977 291.762,277.021 313.865,345.043 256,303.004 198.135,345.043 220.239,277.021 162.374,234.977 233.899,234.977"></polygon></g></svg>