<?xml version="1.0" encoding="UTF-8"?><svg version="1.1" viewBox="0 0 20 20" xmlns="http://www.w3.org/2000/svg" xmlns:xlink="http://www.w3.org/1999/xlink"><g transform="matrix(.0390625 0 0 .0390625 0 0)"><path fill="#D80027" d="M486.598 144.696c-41.408-85.631-129.104-144.696-230.598-144.696 -101.494 0-189.19 59.065-230.598 144.696l230.598 22.261 230.598-22.261Z"></path><path fill="#D80027" d="M25.402 367.304c41.408 85.631 129.104 144.696 230.598 144.696 101.494 0 189.19-59.065 230.598-144.696l-230.598-22.261 -230.598 22.261Z"></path><path fill="#0052B4" d="M486.598 144.696h-461.196c-16.274 33.655-25.402 71.413-25.402 111.304 0 39.891 9.128 77.649 25.402 111.304h461.195c16.276-33.655 25.403-71.413 25.403-111.304 0-39.891-9.127-77.649-25.402-111.304Z"></path><circle cx="256" cy="256" r="89.043" fill="#F0F0F0"></circle></g></svg>