<?xml version="1.0" encoding="UTF-8"?><svg version="1.1" viewBox="0 0 20 20" xmlns="http://www.w3.org/2000/svg" xmlns:xlink="http://www.w3.org/1999/xlink"><g transform="matrix(.0390625 0 0 .0390625 0 0)"><path fill="#F0F0F0" d="M256 0c-.016 0-.028 0-.043 0h.043v0Z"></path><path fill="#FFDA44" d="M512 256c0 141.384-114.616 256-256 256 -141.384 0-256-114.616-256-256 0 .061 256-255.972 256-256 141.384 0 256 114.616 256 256Z"></path><polygon fill="#0052B4" points="256,122.435 256,208.778 166.957,122.435"></polygon><polygon fill="#0052B4" points="133.565,256 208.776,256 133.565,155.826 122.435,233.739"></polygon><path fill="#F0F0F0" d="M255.315 256h.685c0-.23 0-.454 0-.685 -.228.229-.456.457-.685.685Z"></path><path fill="#F0F0F0" d="M256 133.565c0-45.045 0-74.56 0-133.565h-.043c-141.366.024-255.957 114.629-255.957 256h133.565v-75.211l75.211 75.211h46.54c.228-.228.456-.456.685-.685 0-17.247 0-32.636 0-46.537l-75.213-75.213h75.212Z"></path><path fill="#D80027" d="M256 224.519l-90.955-90.953h-31.48v.002l122.433 122.432h.002c0 0 0-21.707 0-31.481Z"></path><path fill="#D80027" d="M129.515 33.391c-9.869 5.62-19.324 11.883-28.316 18.72h10.504l-27.762 20.174 10.602 32.637 -27.762-20.17 -2.954 2.147c-11.527 13.09-21.747 27.358-30.436 42.616v126.485h66.783v-155.824 -.002h155.826c0-21.063 0-41.129 0-66.783h-126.485Z"></path><path fill="#0052B4" d="M109.36 46.152c-2.761 1.933-5.483 3.92-8.164 5.959l-17.255 20.174 -17.16 12.466 -2.979 2.164c-6.286 7.14-12.181 14.632-17.651 22.445 6.235 3.026 13.234 4.727 20.63 4.727 26.126 0 47.304-21.178 47.304-47.304 .002-7.398-1.698-14.395-4.725-20.631Z"></path><path fill="#FFDA44" d="M63.803 86.915l2.979-2.164 27.762 20.171 -10.603-32.637 27.76-20.174h-10.506c-13.594 10.339-26.121 22.003-37.392 34.804Z"></path><polygon fill="#FFDA44" points="176.942,44.522 182.468,61.527 200.348,61.527 185.883,72.038 191.406,89.043 176.942,78.533 162.477,89.043 167.999,72.038 153.534,61.527 171.415,61.527"></polygon><polygon fill="#FFDA44" points="66.783,155.826 72.309,172.831 90.189,172.831 75.725,183.343 81.248,200.348 66.783,189.837 52.317,200.348 57.84,183.343 43.376,172.831 61.256,172.831"></polygon></g></svg>