<?xml version="1.0" encoding="UTF-8"?><svg version="1.1" viewBox="0 0 20 20" xmlns="http://www.w3.org/2000/svg" xmlns:xlink="http://www.w3.org/1999/xlink"><g transform="matrix(.0390625 0 0 .0390625 0 0)"><circle cx="256" cy="256" r="256" fill="#FFDA44"></circle><path fill="#D80027" d="M256 0c-62.677 0-120.083 22.537-164.585 59.934v0l275.889 196.066 -275.889 196.066v0c44.502 37.397 101.908 59.934 164.585 59.934 141.384 0 256-114.616 256-256 0-141.384-114.616-256-256-256Z"></path><path fill="#000" d="M74.98 74.98c-99.974 99.974-99.974 262.065 0 362.04 41.313-41.313 81.046-81.046 181.02-181.02l-181.02-181.02Z"></path><polygon fill="#F0F0F0" points="70.979,197.355 109.939,234.227 157.047,208.563 134.022,257.013 172.983,293.886 119.789,286.958 96.761,335.407 86.914,282.675 33.72,275.745 80.826,250.084"></polygon></g></svg>