<?xml version="1.0" encoding="UTF-8"?><svg version="1.1" viewBox="0 0 20 20" xmlns="http://www.w3.org/2000/svg" xmlns:xlink="http://www.w3.org/1999/xlink"><g transform="matrix(.0390625 0 0 .0390625 0 0)"><circle cx="256" cy="256" r="256" fill="#F0F0F0"></circle><path fill="#D80027" d="M256 0c-110.071 0-203.906 69.472-240.077 166.957h480.155c-36.172-97.485-130.007-166.957-240.078-166.957Z"></path><path fill="#000" d="M256 512c110.071 0 203.906-69.472 240.077-166.957h-480.154c36.171 97.485 130.006 166.957 240.077 166.957Z"></path><polygon fill="#6DA544" points="152.962,194.783 166.775,237.295 211.478,237.295 175.313,263.573 189.127,306.087 152.962,279.812 116.797,306.087 130.611,263.573 94.446,237.295 139.149,237.295"></polygon><polygon fill="#6DA544" points="359.038,194.783 372.851,237.295 417.555,237.295 381.389,263.573 395.203,306.087 359.038,279.812 322.873,306.087 336.687,263.573 300.522,237.295 345.225,237.295"></polygon></g></svg>