<?xml version="1.0" encoding="UTF-8"?><svg version="1.1" viewBox="0 0 20 20" xmlns="http://www.w3.org/2000/svg" xmlns:xlink="http://www.w3.org/1999/xlink"><g transform="matrix(.0390625 0 0 .0390625 0 0)"><path fill="#D80027" d="M0 256c0 31.314 5.633 61.31 15.923 89.043l240.077 11.131 240.077-11.13c10.291-27.734 15.923-57.73 15.923-89.044 0-31.314-5.632-61.31-15.923-89.043l-240.077-11.131 -240.077 11.13c-10.29 27.734-15.923 57.73-15.923 89.044Z"></path><path fill="#000" d="M256 0c-110.071 0-203.906 69.472-240.077 166.957h480.155c-36.172-97.485-130.007-166.957-240.078-166.957Z"></path><path fill="#496E2D" d="M496.077 345.043h-480.154c36.171 97.484 130.006 166.957 240.077 166.957 110.071 0 203.906-69.473 240.077-166.957Z"></path><polygon fill="#D80027" points="332.515,122.435 301.251,107.729 317.9,77.45 283.95,83.945 279.648,49.647 256,74.872 232.353,49.647 228.05,83.945 194.101,77.45 210.75,107.729 179.485,122.435"></polygon></g></svg>