<?xml version="1.0" encoding="UTF-8"?><svg version="1.1" viewBox="0 0 20 20" xmlns="http://www.w3.org/2000/svg" xmlns:xlink="http://www.w3.org/1999/xlink"><g transform="matrix(.0390625 0 0 .0390625 0 0)"><path fill="#D80027" d="M0 256c0-141.384 114.616-256 256-256 141.384 0 256 114.616 256 256 -11.13 0-256 33.391-256 33.391l-256-33.391Z"></path><path fill="#000" d="M512 256c0 141.384-114.616 256-256 256 -141.384 0-256-114.616-256-256"></path><polygon fill="#FFDA44" points="220.898,203.612 242.6,219.362 234.33,244.87 256.016,229.094 277.72,244.844 269.418,219.344 291.102,203.57 264.287,203.586 255.984,178.087 247.713,203.595"></polygon><path fill="#FFDA44" d="M320 145.149c-20.173-11.647-42.23-17.144-64-17.106v33.384c16.091-.029 32.393 4.031 47.304 12.641 45.178 26.084 60.713 84.06 34.628 129.238 -26.083 45.178-84.058 60.713-129.237 34.629 -13.162-7.599-23.787-17.917-31.619-29.824l-27.876 18.404c10.597 16.109 24.993 30.056 42.8 40.336 61.124 35.29 139.561 14.273 174.85-46.851 35.29-61.124 14.274-139.561-46.85-174.851Z"></path><path fill="#FFDA44" d="M182.19 233.739c-8.85 16.179-2.908 36.47 13.27 45.32l108.449 59.26c-7.375 13.481-3.458 29.89 10.023 37.265l29.295 16.025c13.481 7.376 30.392 2.424 37.767-11.058l16.025-29.294 -214.829-117.518Z"></path></g></svg>