<svg width="64" height="64" viewBox="0 0 64 64" fill="none" xmlns="http://www.w3.org/2000/svg">
<g clip-path="url(#clip0_17_14439)">
<mask id="mask0_17_14439" style="mask-type:luminance" maskUnits="userSpaceOnUse" x="0" y="0" width="64" height="64">
<path d="M64 0H0V64H64V0Z" fill="white"/>
</mask>
<g mask="url(#mask0_17_14439)">
<path d="M32 64C14.3269 64 0 49.6731 0 32C0 14.3269 14.3269 0 32 0C49.6731 0 64 14.3269 64 32C64 49.6731 49.6731 64 32 64ZM32 59.7334C47.3167 59.7334 59.7334 47.3167 59.7334 32C59.7334 16.6833 47.3167 4.26666 32 4.26666C16.6833 4.26666 4.26666 16.6833 4.26666 32C4.26666 47.3167 16.6833 59.7334 32 59.7334ZM34.1334 31.1159L46.3175 43.291C47.1509 44.1238 47.1513 45.4745 46.3185 46.3079C45.4857 47.1414 44.135 47.1418 43.3016 46.309L29.8666 32.8841V13.8666C29.8666 12.6885 30.8218 11.7334 32 11.7334C33.1782 11.7334 34.1334 12.6885 34.1334 13.8666V31.1159Z" fill="#0077E6"/>
</g>
</g>
<defs>
<clipPath id="clip0_17_14439">
<rect width="64" height="64" fill="white"/>
</clipPath>
</defs>
</svg>
