<svg width="64" height="64" viewBox="0 0 64 64" fill="none" xmlns="http://www.w3.org/2000/svg">
<g clip-path="url(#clip0_17_13911)">
<path d="M37.9443 22.3901C37.9443 19.0217 35.3684 16.4458 32 16.4458C28.6316 16.4458 26.0557 19.0217 26.0557 22.3901V28.1362L20.1115 59.6409V64H24.0743V60.2353V60.0371H39.9257V60.2353V64H43.8886V60.0371L37.9443 28.1362V22.3901ZM37.3498 46.1672H26.8483L27.839 40.421H36.3591L37.3498 46.1672ZM28.6316 36.4582L30.0186 28.7306V27.9381C31.2074 28.5325 32.7926 28.5325 33.9814 27.9381V28.3344L35.5666 36.4582H28.6316ZM32 20.4087C33.1889 20.4087 33.9814 21.2012 33.9814 22.3901C33.9814 23.5789 32.9907 24.3715 32 24.3715C30.8111 24.3715 30.0186 23.3808 30.0186 22.3901C30.0186 21.3994 31.0093 20.4087 32 20.4087ZM24.8669 56.0743L26.0557 50.13H37.9443L39.1331 56.0743H24.8669Z" fill="#0077E6"/>
<path d="M20.7058 11.2941C14.5634 17.4365 14.5634 27.5418 20.7058 33.6842L23.4798 30.9102C18.9225 26.353 18.9225 18.8235 23.4798 14.0681L20.7058 11.2941Z" fill="#0077E6"/>
<path d="M43.2941 33.6842C49.4366 27.5418 49.4366 17.4365 43.2941 11.2941L40.5201 14.0681C45.0774 18.6254 45.0774 26.1548 40.5201 30.9102L43.2941 33.6842Z" fill="#0077E6"/>
<path d="M17.9319 8.32197L15.1579 5.54797C5.84517 14.8607 5.84517 29.9195 15.1579 39.2322L17.9319 36.4582C10.2043 28.7306 10.2043 16.2477 17.9319 8.32197Z" fill="#0077E6"/>
<path d="M48.8421 5.54797L46.0681 8.32197C53.7957 16.0495 53.7957 28.5325 46.0681 36.2601L48.8421 39.0341C58.1548 29.9195 58.1548 14.8607 48.8421 5.54797Z" fill="#0077E6"/>
<path d="M12.3839 2.77399L9.60987 0C-2.67497 12.2848 -2.67497 32.4954 9.60987 44.7802L12.3839 42.0062C1.48602 31.1084 1.48602 13.6718 12.3839 2.77399Z" fill="#0077E6"/>
<path d="M51.616 2.77399C62.5138 13.6718 62.5138 31.1084 51.616 42.0062L54.39 44.7802C66.6748 32.4954 66.6748 12.2848 54.39 0L51.616 2.77399Z" fill="#0077E6"/>
</g>
<defs>
<clipPath id="clip0_17_13911">
<rect width="64" height="64" fill="white"/>
</clipPath>
</defs>
</svg>
