<?xml version="1.0" encoding="UTF-8"?><svg version="1.1" viewBox="0 0 20 20" xmlns="http://www.w3.org/2000/svg" xmlns:xlink="http://www.w3.org/1999/xlink"><g transform="matrix(.0390625 0 0 .0390625 0 0)"><path fill="#FFDA44" d="M0 256c0 31.314 5.633 61.31 15.923 89.043l240.077 22.261 240.077-22.261c10.29-27.733 15.923-57.729 15.923-89.043 0-31.314-5.633-61.31-15.923-89.043l-240.077-22.261 -240.077 22.261c-10.29 27.733-15.923 57.729-15.923 89.043Z"></path><path fill="#D80027" d="M496.077 166.957c-36.171-97.484-130.006-166.957-240.077-166.957 -110.071 0-203.906 69.473-240.077 166.957h480.154Z"></path><path fill="#D80027" d="M15.923 345.043c36.171 97.484 130.006 166.957 240.077 166.957 110.071 0 203.906-69.473 240.077-166.957h-480.154Z"></path></g></svg>