<svg width="589" height="498" viewBox="0 0 589 498" fill="none" xmlns="http://www.w3.org/2000/svg">
<g clip-path="url(#clip0_1_6212)">
<path d="M632.069 439.921H-52.3814V440.262H632.069V439.921Z" fill="#D7E3FF"/>
<path d="M563.489 461.997H518.148V462.339H563.489V461.997Z" fill="#D7E3FF"/>
<path d="M401.026 465.718H389.126V466.061H401.026V465.718Z" fill="#D7E3FF"/>
<path d="M516.778 449.26H490.506V449.603H516.778V449.26Z" fill="#D7E3FF"/>
<path d="M78.5568 451.565H19.4298V451.908H78.5568V451.565Z" fill="#D7E3FF"/>
<path d="M99.4147 451.565H90.7454V451.908H99.4147V451.565Z" fill="#D7E3FF"/>
<path d="M255.823 457.356H127.589V457.699H255.823V457.356Z" fill="#D7E3FF"/>
<path d="M7.73392 -8.84181C3.61352 -8.84181 0.262452 -5.48431 0.262452 -1.35597V370.923C0.262452 375.051 3.61352 378.409 7.73392 378.409H272.067C276.185 378.409 279.537 375.051 279.537 370.923V-1.35597C279.537 -5.48431 276.185 -8.84181 272.067 -8.84181H7.73392ZM272.067 378.752H7.73392C3.42598 378.752 -0.0797729 375.24 -0.0797729 370.923V-1.35597C-0.0797729 -5.67221 3.42598 -9.18469 7.73392 -9.18469H272.067C276.374 -9.18469 279.88 -5.67221 279.88 -1.35597V370.923C279.88 375.24 276.374 378.752 272.067 378.752Z" fill="#D7E3FF"/>
<path d="M303.823 -8.84181C299.704 -8.84181 296.353 -5.48431 296.353 -1.35597V370.923C296.353 375.051 299.704 378.409 303.823 378.409H568.157C572.276 378.409 575.628 375.051 575.628 370.923V-1.35597C575.628 -5.48431 572.276 -8.84181 568.157 -8.84181H303.823ZM568.157 378.752H303.823C299.517 378.752 296.011 375.24 296.011 370.923V-1.35597C296.011 -5.67221 299.517 -9.18469 303.823 -9.18469H568.157C572.465 -9.18469 575.97 -5.67221 575.97 -1.35597V370.923C575.97 375.24 572.465 378.752 568.157 378.752Z" fill="#D7E3FF"/>
<path d="M540.818 424.811V360.595H535.339V329.996H527.326V223.612H515.747V209.885L491.02 198.331V184.489H487.595V223.612H482.8V329.996H478.005V274.059H464.988V245.232H461.356V329.996H451.47V297.739H444.964V289.503H429.892V261.361H421.639V241.456H411.494V212.458H407.873V241.456H397.728V261.361H389.475V289.503H374.405V297.739H367.897V329.996H360.178V289.503H345.108V202.336H340.313V192.725H308.116V202.336H301.265V265.479H273.863V271.656H263.588V276.461H273.863V301.17H245.092V218.808H238.928V201.306H225.57V139.19H221.801V201.306H212.211V218.808H155.986V213.046H152.561V252.169H147.766V252.855H144.885V291.977H140.09V302.616H129.955V273.79H126.323V342.425H122.279V313.598H118.646V358.553H116.437V326.296H109.929V318.059H94.859V289.918H86.6045V270.014H76.4595V241.015H72.8401V270.014H62.6952V289.918H54.4408V318.059H39.3705V326.296H32.8628V357.867H31.6951V358.553H28.4727V424.811H540.818Z" fill="#C6D7FF"/>
<path d="M191.239 222.655H187.357V226.545H191.239V222.655Z" fill="#BCD1FF"/>
<path d="M191.239 229.177H187.357V233.065H191.239V229.177Z" fill="#BCD1FF"/>
<path d="M191.239 255.258H187.357V259.148H191.239V255.258Z" fill="#BCD1FF"/>
<path d="M191.239 261.778H187.357V265.668H191.239V261.778Z" fill="#BCD1FF"/>
<path d="M191.239 268.299H187.357V272.188H191.239V268.299Z" fill="#BCD1FF"/>
<path d="M191.239 287.859H187.357V291.749H191.239V287.859Z" fill="#BCD1FF"/>
<path d="M191.239 294.38H187.357V298.27H191.239V294.38Z" fill="#BCD1FF"/>
<path d="M197.405 248.738H193.523V252.627H197.405V248.738Z" fill="#BCD1FF"/>
<path d="M197.405 255.258H193.523V259.148H197.405V255.258Z" fill="#BCD1FF"/>
<path d="M197.405 261.778H193.523V265.668H197.405V261.778Z" fill="#BCD1FF"/>
<path d="M197.405 268.299H193.523V272.188H197.405V268.299Z" fill="#BCD1FF"/>
<path d="M197.405 274.818H193.523V278.707H197.405V274.818Z" fill="#BCD1FF"/>
<path d="M197.405 287.859H193.523V291.749H197.405V287.859Z" fill="#BCD1FF"/>
<path d="M197.405 294.38H193.523V298.27H197.405V294.38Z" fill="#BCD1FF"/>
<path d="M203.57 222.655H199.688V226.545H203.57V222.655Z" fill="#BCD1FF"/>
<path d="M203.57 229.177H199.688V233.065H203.57V229.177Z" fill="#BCD1FF"/>
<path d="M203.57 235.696H199.688V239.585H203.57V235.696Z" fill="#BCD1FF"/>
<path d="M203.57 242.217H199.688V246.106H203.57V242.217Z" fill="#BCD1FF"/>
<path d="M203.57 248.738H199.688V252.627H203.57V248.738Z" fill="#BCD1FF"/>
<path d="M203.57 255.258H199.688V259.148H203.57V255.258Z" fill="#BCD1FF"/>
<path d="M203.57 261.778H199.688V265.668H203.57V261.778Z" fill="#BCD1FF"/>
<path d="M203.57 268.299H199.688V272.188H203.57V268.299Z" fill="#BCD1FF"/>
<path d="M203.57 274.818H199.688V278.707H203.57V274.818Z" fill="#BCD1FF"/>
<path d="M203.57 281.339H199.688V285.228H203.57V281.339Z" fill="#BCD1FF"/>
<path d="M203.57 294.38H199.688V298.27H203.57V294.38Z" fill="#BCD1FF"/>
<path d="M209.734 222.655H205.854V226.545H209.734V222.655Z" fill="#BCD1FF"/>
<path d="M209.734 229.177H205.854V233.065H209.734V229.177Z" fill="#BCD1FF"/>
<path d="M209.734 235.696H205.854V239.585H209.734V235.696Z" fill="#BCD1FF"/>
<path d="M209.734 242.217H205.854V246.106H209.734V242.217Z" fill="#BCD1FF"/>
<path d="M209.734 248.738H205.854V252.627H209.734V248.738Z" fill="#BCD1FF"/>
<path d="M209.734 255.258H205.854V259.148H209.734V255.258Z" fill="#BCD1FF"/>
<path d="M209.734 261.778H205.854V265.668H209.734V261.778Z" fill="#BCD1FF"/>
<path d="M209.734 320.461H205.854V324.351H209.734V320.461Z" fill="#BCD1FF"/>
<path d="M215.9 222.655H212.019V226.545H215.9V222.655Z" fill="#BCD1FF"/>
<path d="M215.9 229.177H212.019V233.065H215.9V229.177Z" fill="#BCD1FF"/>
<path d="M215.9 235.696H212.019V239.585H215.9V235.696Z" fill="#BCD1FF"/>
<path d="M215.9 242.217H212.019V246.106H215.9V242.217Z" fill="#BCD1FF"/>
<path d="M215.9 248.738H212.019V252.627H215.9V248.738Z" fill="#BCD1FF"/>
<path d="M215.9 255.258H212.019V259.148H215.9V255.258Z" fill="#BCD1FF"/>
<path d="M215.9 261.778H212.019V265.668H215.9V261.778Z" fill="#BCD1FF"/>
<path d="M215.9 268.299H212.019V272.188H215.9V268.299Z" fill="#BCD1FF"/>
<path d="M215.9 307.42H212.019V311.31H215.9V307.42Z" fill="#BCD1FF"/>
<path d="M215.9 313.941H212.019V317.83H215.9V313.941Z" fill="#BCD1FF"/>
<path d="M215.9 320.461H212.019V324.351H215.9V320.461Z" fill="#BCD1FF"/>
<path d="M215.9 326.983H212.019V330.871H215.9V326.983Z" fill="#BCD1FF"/>
<path d="M215.9 353.063H212.019V356.952H215.9V353.063Z" fill="#BCD1FF"/>
<path d="M222.065 222.655H218.185V226.545H222.065V222.655Z" fill="#BCD1FF"/>
<path d="M222.065 229.177H218.185V233.065H222.065V229.177Z" fill="#BCD1FF"/>
<path d="M222.065 235.696H218.185V239.585H222.065V235.696Z" fill="#BCD1FF"/>
<path d="M222.065 242.217H218.185V246.106H222.065V242.217Z" fill="#BCD1FF"/>
<path d="M222.065 248.738H218.185V252.627H222.065V248.738Z" fill="#BCD1FF"/>
<path d="M222.065 255.258H218.185V259.148H222.065V255.258Z" fill="#BCD1FF"/>
<path d="M222.065 261.778H218.185V265.668H222.065V261.778Z" fill="#BCD1FF"/>
<path d="M222.065 268.299H218.185V272.188H222.065V268.299Z" fill="#BCD1FF"/>
<path d="M222.065 274.818H218.185V278.707H222.065V274.818Z" fill="#BCD1FF"/>
<path d="M222.065 281.339H218.185V285.228H222.065V281.339Z" fill="#BCD1FF"/>
<path d="M222.065 300.9H218.185V304.79H222.065V300.9Z" fill="#BCD1FF"/>
<path d="M222.065 307.42H218.185V311.31H222.065V307.42Z" fill="#BCD1FF"/>
<path d="M222.065 313.941H218.185V317.83H222.065V313.941Z" fill="#BCD1FF"/>
<path d="M222.065 320.461H218.185V324.351H222.065V320.461Z" fill="#BCD1FF"/>
<path d="M222.065 326.983H218.185V330.871H222.065V326.983Z" fill="#BCD1FF"/>
<path d="M222.065 353.063H218.185V356.952H222.065V353.063Z" fill="#BCD1FF"/>
<path d="M228.231 222.655H224.349V226.545H228.231V222.655Z" fill="#BCD1FF"/>
<path d="M228.231 229.177H224.349V233.065H228.231V229.177Z" fill="#BCD1FF"/>
<path d="M228.231 235.696H224.349V239.585H228.231V235.696Z" fill="#BCD1FF"/>
<path d="M228.231 242.217H224.349V246.106H228.231V242.217Z" fill="#BCD1FF"/>
<path d="M228.231 248.738H224.349V252.627H228.231V248.738Z" fill="#BCD1FF"/>
<path d="M228.231 255.258H224.349V259.148H228.231V255.258Z" fill="#BCD1FF"/>
<path d="M228.231 261.778H224.349V265.668H228.231V261.778Z" fill="#BCD1FF"/>
<path d="M228.231 268.299H224.349V272.188H228.231V268.299Z" fill="#BCD1FF"/>
<path d="M228.231 274.818H224.349V278.707H228.231V274.818Z" fill="#BCD1FF"/>
<path d="M228.231 281.339H224.349V285.228H228.231V281.339Z" fill="#BCD1FF"/>
<path d="M228.231 287.859H224.349V291.749H228.231V287.859Z" fill="#BCD1FF"/>
<path d="M228.231 294.38H224.349V298.27H228.231V294.38Z" fill="#BCD1FF"/>
<path d="M228.231 300.9H224.349V304.79H228.231V300.9Z" fill="#BCD1FF"/>
<path d="M228.231 307.42H224.349V311.31H228.231V307.42Z" fill="#BCD1FF"/>
<path d="M228.231 313.941H224.349V317.83H228.231V313.941Z" fill="#BCD1FF"/>
<path d="M228.231 320.461H224.349V324.351H228.231V320.461Z" fill="#BCD1FF"/>
<path d="M228.231 326.983H224.349V330.871H228.231V326.983Z" fill="#BCD1FF"/>
<path d="M228.231 333.503H224.349V337.393H228.231V333.503Z" fill="#BCD1FF"/>
<path d="M234.397 222.655H230.514V226.545H234.397V222.655Z" fill="#BCD1FF"/>
<path d="M234.397 229.177H230.514V233.065H234.397V229.177Z" fill="#BCD1FF"/>
<path d="M234.397 235.696H230.514V239.585H234.397V235.696Z" fill="#BCD1FF"/>
<path d="M234.397 242.217H230.514V246.106H234.397V242.217Z" fill="#BCD1FF"/>
<path d="M234.397 248.738H230.514V252.627H234.397V248.738Z" fill="#BCD1FF"/>
<path d="M234.397 255.258H230.514V259.148H234.397V255.258Z" fill="#BCD1FF"/>
<path d="M234.397 261.778H230.514V265.668H234.397V261.778Z" fill="#BCD1FF"/>
<path d="M234.397 268.299H230.514V272.188H234.397V268.299Z" fill="#BCD1FF"/>
<path d="M234.397 274.818H230.514V278.707H234.397V274.818Z" fill="#BCD1FF"/>
<path d="M234.397 281.339H230.514V285.228H234.397V281.339Z" fill="#BCD1FF"/>
<path d="M234.397 300.9H230.514V304.79H234.397V300.9Z" fill="#BCD1FF"/>
<path d="M234.397 307.42H230.514V311.31H234.397V307.42Z" fill="#BCD1FF"/>
<path d="M234.397 313.941H230.514V317.83H234.397V313.941Z" fill="#BCD1FF"/>
<path d="M234.397 320.461H230.514V324.351H234.397V320.461Z" fill="#BCD1FF"/>
<path d="M240.562 222.655H236.68V226.545H240.562V222.655Z" fill="#BCD1FF"/>
<path d="M240.562 229.177H236.68V233.065H240.562V229.177Z" fill="#BCD1FF"/>
<path d="M240.562 235.696H236.68V239.585H240.562V235.696Z" fill="#BCD1FF"/>
<path d="M240.562 242.217H236.68V246.106H240.562V242.217Z" fill="#BCD1FF"/>
<path d="M240.562 248.738H236.68V252.627H240.562V248.738Z" fill="#BCD1FF"/>
<path d="M240.562 255.258H236.68V259.148H240.562V255.258Z" fill="#BCD1FF"/>
<path d="M240.562 261.778H236.68V265.668H240.562V261.778Z" fill="#BCD1FF"/>
<path d="M240.562 268.299H236.68V272.188H240.562V268.299Z" fill="#BCD1FF"/>
<path d="M240.562 274.818H236.68V278.707H240.562V274.818Z" fill="#BCD1FF"/>
<path d="M240.562 281.339H236.68V285.228H240.562V281.339Z" fill="#BCD1FF"/>
<path d="M240.562 300.9H236.68V304.79H240.562V300.9Z" fill="#BCD1FF"/>
<path d="M240.562 307.42H236.68V311.31H240.562V307.42Z" fill="#BCD1FF"/>
<path d="M240.562 313.941H236.68V317.83H240.562V313.941Z" fill="#BCD1FF"/>
<path d="M309.979 205.725H306.097V209.615H309.979V205.725Z" fill="#BCD1FF"/>
<path d="M309.979 212.246H306.097V216.135H309.979V212.246Z" fill="#BCD1FF"/>
<path d="M309.979 218.767H306.097V222.655H309.979V218.767Z" fill="#BCD1FF"/>
<path d="M309.979 225.287H306.097V229.177H309.979V225.287Z" fill="#BCD1FF"/>
<path d="M309.979 231.807H306.097V235.696H309.979V231.807Z" fill="#BCD1FF"/>
<path d="M309.979 238.328H306.097V242.217H309.979V238.328Z" fill="#BCD1FF"/>
<path d="M309.979 244.848H306.097V248.738H309.979V244.848Z" fill="#BCD1FF"/>
<path d="M309.979 251.368H306.097V255.258H309.979V251.368Z" fill="#BCD1FF"/>
<path d="M309.979 270.929H306.097V274.818H309.979V270.929Z" fill="#BCD1FF"/>
<path d="M309.979 277.449H306.097V281.339H309.979V277.449Z" fill="#BCD1FF"/>
<path d="M316.145 205.725H312.262V209.615H316.145V205.725Z" fill="#BCD1FF"/>
<path d="M316.145 212.246H312.262V216.135H316.145V212.246Z" fill="#BCD1FF"/>
<path d="M316.145 218.767H312.262V222.655H316.145V218.767Z" fill="#BCD1FF"/>
<path d="M316.145 225.287H312.262V229.177H316.145V225.287Z" fill="#BCD1FF"/>
<path d="M316.145 231.807H312.262V235.696H316.145V231.807Z" fill="#BCD1FF"/>
<path d="M316.145 238.328H312.262V242.217H316.145V238.328Z" fill="#BCD1FF"/>
<path d="M316.145 244.848H312.262V248.738H316.145V244.848Z" fill="#BCD1FF"/>
<path d="M316.145 251.368H312.262V255.258H316.145V251.368Z" fill="#BCD1FF"/>
<path d="M316.145 277.449H312.262V281.339H316.145V277.449Z" fill="#BCD1FF"/>
<path d="M322.309 205.725H318.427V209.615H322.309V205.725Z" fill="#BCD1FF"/>
<path d="M322.309 212.246H318.427V216.135H322.309V212.246Z" fill="#BCD1FF"/>
<path d="M322.309 218.767H318.427V222.655H322.309V218.767Z" fill="#BCD1FF"/>
<path d="M322.309 225.287H318.427V229.177H322.309V225.287Z" fill="#BCD1FF"/>
<path d="M322.309 231.807H318.427V235.696H322.309V231.807Z" fill="#BCD1FF"/>
<path d="M322.309 238.328H318.427V242.217H322.309V238.328Z" fill="#BCD1FF"/>
<path d="M322.309 244.848H318.427V248.738H322.309V244.848Z" fill="#BCD1FF"/>
<path d="M322.309 251.368H318.427V255.258H322.309V251.368Z" fill="#BCD1FF"/>
<path d="M328.474 205.725H324.592V209.615H328.474V205.725Z" fill="#BCD1FF"/>
<path d="M328.474 212.246H324.592V216.135H328.474V212.246Z" fill="#BCD1FF"/>
<path d="M328.474 218.767H324.592V222.655H328.474V218.767Z" fill="#BCD1FF"/>
<path d="M328.474 225.287H324.592V229.177H328.474V225.287Z" fill="#BCD1FF"/>
<path d="M328.474 231.807H324.592V235.696H328.474V231.807Z" fill="#BCD1FF"/>
<path d="M328.474 238.328H324.592V242.217H328.474V238.328Z" fill="#BCD1FF"/>
<path d="M328.474 251.368H324.592V255.258H328.474V251.368Z" fill="#BCD1FF"/>
<path d="M328.474 257.889H324.592V261.778H328.474V257.889Z" fill="#BCD1FF"/>
<path d="M328.474 277.449H324.592V281.339H328.474V277.449Z" fill="#BCD1FF"/>
<path d="M328.474 283.97H324.592V287.86H328.474V283.97Z" fill="#BCD1FF"/>
<path d="M328.474 290.49H324.592V294.38H328.474V290.49Z" fill="#BCD1FF"/>
<path d="M328.474 297.01H324.592V300.9H328.474V297.01Z" fill="#BCD1FF"/>
<path d="M328.474 303.531H324.592V307.42H328.474V303.531Z" fill="#BCD1FF"/>
<path d="M328.474 310.052H324.592V313.941H328.474V310.052Z" fill="#BCD1FF"/>
<path d="M328.474 316.573H324.592V320.461H328.474V316.573Z" fill="#BCD1FF"/>
<path d="M334.64 205.725H330.758V209.615H334.64V205.725Z" fill="#BCD1FF"/>
<path d="M334.64 212.246H330.758V216.135H334.64V212.246Z" fill="#BCD1FF"/>
<path d="M334.64 218.767H330.758V222.655H334.64V218.767Z" fill="#BCD1FF"/>
<path d="M334.64 225.287H330.758V229.177H334.64V225.287Z" fill="#BCD1FF"/>
<path d="M334.64 231.807H330.758V235.696H334.64V231.807Z" fill="#BCD1FF"/>
<path d="M334.64 238.328H330.758V242.217H334.64V238.328Z" fill="#BCD1FF"/>
<path d="M334.64 257.889H330.758V261.778H334.64V257.889Z" fill="#BCD1FF"/>
<path d="M334.64 264.409H330.758V268.299H334.64V264.409Z" fill="#BCD1FF"/>
<path d="M334.64 270.929H330.758V274.818H334.64V270.929Z" fill="#BCD1FF"/>
<path d="M334.64 277.449H330.758V281.339H334.64V277.449Z" fill="#BCD1FF"/>
<path d="M334.64 283.97H330.758V287.86H334.64V283.97Z" fill="#BCD1FF"/>
<path d="M334.64 290.49H330.758V294.38H334.64V290.49Z" fill="#BCD1FF"/>
<path d="M334.64 297.01H330.758V300.9H334.64V297.01Z" fill="#BCD1FF"/>
<path d="M334.64 303.531H330.758V307.42H334.64V303.531Z" fill="#BCD1FF"/>
<path d="M334.64 310.052H330.758V313.941H334.64V310.052Z" fill="#BCD1FF"/>
<path d="M334.64 316.573H330.758V320.461H334.64V316.573Z" fill="#BCD1FF"/>
<path d="M334.64 323.093H330.758V326.983H334.64V323.093Z" fill="#BCD1FF"/>
<path d="M334.64 336.134H330.758V340.023H334.64V336.134Z" fill="#BCD1FF"/>
<path d="M340.805 205.725H336.923V209.615H340.805V205.725Z" fill="#BCD1FF"/>
<path d="M340.805 212.246H336.923V216.135H340.805V212.246Z" fill="#BCD1FF"/>
<path d="M340.805 218.767H336.923V222.655H340.805V218.767Z" fill="#BCD1FF"/>
<path d="M340.805 225.287H336.923V229.177H340.805V225.287Z" fill="#BCD1FF"/>
<path d="M340.805 231.807H336.923V235.696H340.805V231.807Z" fill="#BCD1FF"/>
<path d="M340.805 238.328H336.923V242.217H340.805V238.328Z" fill="#BCD1FF"/>
<path d="M340.805 257.889H336.923V261.778H340.805V257.889Z" fill="#BCD1FF"/>
<path d="M340.805 264.409H336.923V268.299H340.805V264.409Z" fill="#BCD1FF"/>
<path d="M340.805 270.929H336.923V274.818H340.805V270.929Z" fill="#BCD1FF"/>
<path d="M340.805 277.449H336.923V281.339H340.805V277.449Z" fill="#BCD1FF"/>
<path d="M340.805 297.01H336.923V300.9H340.805V297.01Z" fill="#BCD1FF"/>
<path d="M340.805 303.531H336.923V307.42H340.805V303.531Z" fill="#BCD1FF"/>
<path d="M340.805 310.052H336.923V313.941H340.805V310.052Z" fill="#BCD1FF"/>
<path d="M340.805 316.573H336.923V320.461H340.805V316.573Z" fill="#BCD1FF"/>
<path d="M340.805 323.093H336.923V326.983H340.805V323.093Z" fill="#BCD1FF"/>
<path d="M340.805 336.134H336.923V340.023H340.805V336.134Z" fill="#BCD1FF"/>
<path d="M340.805 342.653H336.923V346.542H340.805V342.653Z" fill="#BCD1FF"/>
<path d="M396.75 266.354H392.869V270.243H396.75V266.354Z" fill="#BCD1FF"/>
<path d="M396.75 272.873H392.869V276.762H396.75V272.873Z" fill="#BCD1FF"/>
<path d="M396.75 279.394H392.869V283.283H396.75V279.394Z" fill="#BCD1FF"/>
<path d="M396.75 285.915H392.869V289.804H396.75V285.915Z" fill="#BCD1FF"/>
<path d="M396.75 292.435H392.869V296.325H396.75V292.435Z" fill="#BCD1FF"/>
<path d="M396.75 298.955H392.869V302.845H396.75V298.955Z" fill="#BCD1FF"/>
<path d="M396.75 305.476H392.869V309.365H396.75V305.476Z" fill="#BCD1FF"/>
<path d="M396.75 325.038H392.869V328.928H396.75V325.038Z" fill="#BCD1FF"/>
<path d="M396.75 331.558H392.869V335.448H396.75V331.558Z" fill="#BCD1FF"/>
<path d="M396.75 338.077H392.869V341.967H396.75V338.077Z" fill="#BCD1FF"/>
<path d="M402.915 266.354H399.033V270.243H402.915V266.354Z" fill="#BCD1FF"/>
<path d="M402.915 272.873H399.033V276.762H402.915V272.873Z" fill="#BCD1FF"/>
<path d="M402.915 279.394H399.033V283.283H402.915V279.394Z" fill="#BCD1FF"/>
<path d="M402.915 285.915H399.033V289.804H402.915V285.915Z" fill="#BCD1FF"/>
<path d="M402.915 292.435H399.033V296.325H402.915V292.435Z" fill="#BCD1FF"/>
<path d="M402.915 298.955H399.033V302.845H402.915V298.955Z" fill="#BCD1FF"/>
<path d="M402.915 305.476H399.033V309.365H402.915V305.476Z" fill="#BCD1FF"/>
<path d="M409.081 266.354H405.198V270.243H409.081V266.354Z" fill="#BCD1FF"/>
<path d="M409.081 272.873H405.198V276.762H409.081V272.873Z" fill="#BCD1FF"/>
<path d="M409.081 279.394H405.198V283.283H409.081V279.394Z" fill="#BCD1FF"/>
<path d="M409.081 285.915H405.198V289.804H409.081V285.915Z" fill="#BCD1FF"/>
<path d="M409.081 292.435H405.198V296.325H409.081V292.435Z" fill="#BCD1FF"/>
<path d="M409.081 298.955H405.198V302.845H409.081V298.955Z" fill="#BCD1FF"/>
<path d="M409.081 305.476H405.198V309.365H409.081V305.476Z" fill="#BCD1FF"/>
<path d="M415.246 266.354H411.364V270.243H415.246V266.354Z" fill="#BCD1FF"/>
<path d="M415.246 272.873H411.364V276.762H415.246V272.873Z" fill="#BCD1FF"/>
<path d="M415.246 279.394H411.364V283.283H415.246V279.394Z" fill="#BCD1FF"/>
<path d="M415.246 285.915H411.364V289.804H415.246V285.915Z" fill="#BCD1FF"/>
<path d="M415.246 292.435H411.364V296.325H415.246V292.435Z" fill="#BCD1FF"/>
<path d="M415.246 298.955H411.364V302.845H415.246V298.955Z" fill="#BCD1FF"/>
<path d="M415.246 305.476H411.364V309.365H415.246V305.476Z" fill="#BCD1FF"/>
<path d="M415.246 311.996H411.364V315.886H415.246V311.996Z" fill="#BCD1FF"/>
<path d="M415.246 318.518H411.364V322.406H415.246V318.518Z" fill="#BCD1FF"/>
<path d="M415.246 325.038H411.364V328.928H415.246V325.038Z" fill="#BCD1FF"/>
<path d="M415.246 331.558H411.364V335.448H415.246V331.558Z" fill="#BCD1FF"/>
<path d="M421.412 266.354H417.53V270.243H421.412V266.354Z" fill="#BCD1FF"/>
<path d="M421.412 272.873H417.53V276.762H421.412V272.873Z" fill="#BCD1FF"/>
<path d="M421.412 279.394H417.53V283.283H421.412V279.394Z" fill="#BCD1FF"/>
<path d="M421.412 285.915H417.53V289.804H421.412V285.915Z" fill="#BCD1FF"/>
<path d="M421.412 292.435H417.53V296.325H421.412V292.435Z" fill="#BCD1FF"/>
<path d="M421.412 298.955H417.53V302.845H421.412V298.955Z" fill="#BCD1FF"/>
<path d="M421.412 305.476H417.53V309.365H421.412V305.476Z" fill="#BCD1FF"/>
<path d="M421.412 311.996H417.53V315.886H421.412V311.996Z" fill="#BCD1FF"/>
<path d="M421.412 318.518H417.53V322.406H421.412V318.518Z" fill="#BCD1FF"/>
<path d="M421.412 325.038H417.53V328.928H421.412V325.038Z" fill="#BCD1FF"/>
<path d="M421.412 331.558H417.53V335.448H421.412V331.558Z" fill="#BCD1FF"/>
<path d="M421.412 338.077H417.53V341.967H421.412V338.077Z" fill="#BCD1FF"/>
<path d="M421.412 357.638H417.53V361.528H421.412V357.638Z" fill="#BCD1FF"/>
<path d="M421.412 364.16H417.53V368.048H421.412V364.16Z" fill="#BCD1FF"/>
<path d="M427.576 266.354H423.695V270.243H427.576V266.354Z" fill="#BCD1FF"/>
<path d="M427.576 272.873H423.695V276.762H427.576V272.873Z" fill="#BCD1FF"/>
<path d="M427.576 279.394H423.695V283.283H427.576V279.394Z" fill="#BCD1FF"/>
<path d="M427.576 298.955H423.695V302.845H427.576V298.955Z" fill="#BCD1FF"/>
<path d="M427.576 305.476H423.695V309.365H427.576V305.476Z" fill="#BCD1FF"/>
<path d="M427.576 311.996H423.695V315.886H427.576V311.996Z" fill="#BCD1FF"/>
<path d="M427.576 318.518H423.695V322.406H427.576V318.518Z" fill="#BCD1FF"/>
<path d="M427.576 325.038H423.695V328.928H427.576V325.038Z" fill="#BCD1FF"/>
<path d="M427.576 331.558H423.695V335.448H427.576V331.558Z" fill="#BCD1FF"/>
<path d="M427.576 338.077H423.695V341.967H427.576V338.077Z" fill="#BCD1FF"/>
<path d="M427.576 357.638H423.695V361.528H427.576V357.638Z" fill="#BCD1FF"/>
<path d="M427.576 364.16H423.695V368.048H427.576V364.16Z" fill="#BCD1FF"/>
<path d="M427.576 370.68H423.695V374.57H427.576V370.68Z" fill="#BCD1FF"/>
<path d="M492.198 227.232H488.315V231.122H492.198V227.232Z" fill="#BCD1FF"/>
<path d="M492.198 233.752H488.315V237.641H492.198V233.752Z" fill="#BCD1FF"/>
<path d="M492.198 240.272H488.315V244.162H492.198V240.272Z" fill="#BCD1FF"/>
<path d="M492.198 246.793H488.315V250.683H492.198V246.793Z" fill="#BCD1FF"/>
<path d="M492.198 253.313H488.315V257.203H492.198V253.313Z" fill="#BCD1FF"/>
<path d="M492.198 259.833H488.315V263.723H492.198V259.833Z" fill="#BCD1FF"/>
<path d="M492.198 266.354H488.315V270.243H492.198V266.354Z" fill="#BCD1FF"/>
<path d="M492.198 272.873H488.315V276.762H492.198V272.873Z" fill="#BCD1FF"/>
<path d="M492.198 279.394H488.315V283.283H492.198V279.394Z" fill="#BCD1FF"/>
<path d="M492.198 285.915H488.315V289.804H492.198V285.915Z" fill="#BCD1FF"/>
<path d="M492.198 292.435H488.315V296.325H492.198V292.435Z" fill="#BCD1FF"/>
<path d="M492.198 298.955H488.315V302.845H492.198V298.955Z" fill="#BCD1FF"/>
<path d="M492.198 305.476H488.315V309.365H492.198V305.476Z" fill="#BCD1FF"/>
<path d="M492.198 311.996H488.315V315.886H492.198V311.996Z" fill="#BCD1FF"/>
<path d="M492.198 318.518H488.315V322.406H492.198V318.518Z" fill="#BCD1FF"/>
<path d="M492.198 325.038H488.315V328.928H492.198V325.038Z" fill="#BCD1FF"/>
<path d="M492.198 331.558H488.315V335.448H492.198V331.558Z" fill="#BCD1FF"/>
<path d="M492.198 338.077H488.315V341.967H492.198V338.077Z" fill="#BCD1FF"/>
<path d="M492.198 344.597H488.315V348.487H492.198V344.597Z" fill="#BCD1FF"/>
<path d="M492.198 351.118H488.315V355.007H492.198V351.118Z" fill="#BCD1FF"/>
<path d="M492.198 357.638H488.315V361.528H492.198V357.638Z" fill="#BCD1FF"/>
<path d="M492.198 364.16H488.315V368.048H492.198V364.16Z" fill="#BCD1FF"/>
<path d="M492.198 370.68H488.315V374.57H492.198V370.68Z" fill="#BCD1FF"/>
<path d="M498.363 227.232H494.481V231.122H498.363V227.232Z" fill="#BCD1FF"/>
<path d="M498.363 233.752H494.481V237.641H498.363V233.752Z" fill="#BCD1FF"/>
<path d="M498.363 240.272H494.481V244.162H498.363V240.272Z" fill="#BCD1FF"/>
<path d="M498.363 246.793H494.481V250.683H498.363V246.793Z" fill="#BCD1FF"/>
<path d="M498.363 253.313H494.481V257.203H498.363V253.313Z" fill="#BCD1FF"/>
<path d="M498.363 259.833H494.481V263.723H498.363V259.833Z" fill="#BCD1FF"/>
<path d="M498.363 266.354H494.481V270.243H498.363V266.354Z" fill="#BCD1FF"/>
<path d="M498.363 272.873H494.481V276.762H498.363V272.873Z" fill="#BCD1FF"/>
<path d="M498.363 279.394H494.481V283.283H498.363V279.394Z" fill="#BCD1FF"/>
<path d="M498.363 285.915H494.481V289.804H498.363V285.915Z" fill="#BCD1FF"/>
<path d="M498.363 292.435H494.481V296.325H498.363V292.435Z" fill="#BCD1FF"/>
<path d="M498.363 298.955H494.481V302.845H498.363V298.955Z" fill="#BCD1FF"/>
<path d="M498.363 305.476H494.481V309.365H498.363V305.476Z" fill="#BCD1FF"/>
<path d="M498.363 311.996H494.481V315.886H498.363V311.996Z" fill="#BCD1FF"/>
<path d="M498.363 318.518H494.481V322.406H498.363V318.518Z" fill="#BCD1FF"/>
<path d="M498.363 325.038H494.481V328.928H498.363V325.038Z" fill="#BCD1FF"/>
<path d="M498.363 331.558H494.481V335.448H498.363V331.558Z" fill="#BCD1FF"/>
<path d="M498.363 338.077H494.481V341.967H498.363V338.077Z" fill="#BCD1FF"/>
<path d="M498.363 344.597H494.481V348.487H498.363V344.597Z" fill="#BCD1FF"/>
<path d="M504.529 227.232H500.646V231.122H504.529V227.232Z" fill="#BCD1FF"/>
<path d="M504.529 233.752H500.646V237.641H504.529V233.752Z" fill="#BCD1FF"/>
<path d="M504.529 240.272H500.646V244.162H504.529V240.272Z" fill="#BCD1FF"/>
<path d="M504.529 246.793H500.646V250.683H504.529V246.793Z" fill="#BCD1FF"/>
<path d="M504.529 253.313H500.646V257.203H504.529V253.313Z" fill="#BCD1FF"/>
<path d="M504.529 259.833H500.646V263.723H504.529V259.833Z" fill="#BCD1FF"/>
<path d="M504.529 266.354H500.646V270.243H504.529V266.354Z" fill="#BCD1FF"/>
<path d="M504.529 272.873H500.646V276.762H504.529V272.873Z" fill="#BCD1FF"/>
<path d="M504.529 279.394H500.646V283.283H504.529V279.394Z" fill="#BCD1FF"/>
<path d="M504.529 285.915H500.646V289.804H504.529V285.915Z" fill="#BCD1FF"/>
<path d="M504.529 292.435H500.646V296.325H504.529V292.435Z" fill="#BCD1FF"/>
<path d="M504.529 298.955H500.646V302.845H504.529V298.955Z" fill="#BCD1FF"/>
<path d="M504.529 305.476H500.646V309.365H504.529V305.476Z" fill="#BCD1FF"/>
<path d="M504.529 311.996H500.646V315.886H504.529V311.996Z" fill="#BCD1FF"/>
<path d="M504.529 318.518H500.646V322.406H504.529V318.518Z" fill="#BCD1FF"/>
<path d="M504.529 325.038H500.646V328.928H504.529V325.038Z" fill="#BCD1FF"/>
<path d="M504.529 331.558H500.646V335.448H504.529V331.558Z" fill="#BCD1FF"/>
<path d="M504.529 338.077H500.646V341.967H504.529V338.077Z" fill="#BCD1FF"/>
<path d="M504.529 344.597H500.646V348.487H504.529V344.597Z" fill="#BCD1FF"/>
<path d="M510.694 227.232H506.812V231.122H510.694V227.232Z" fill="#BCD1FF"/>
<path d="M510.694 233.752H506.812V237.641H510.694V233.752Z" fill="#BCD1FF"/>
<path d="M510.694 240.272H506.812V244.162H510.694V240.272Z" fill="#BCD1FF"/>
<path d="M510.694 246.793H506.812V250.683H510.694V246.793Z" fill="#BCD1FF"/>
<path d="M510.694 253.313H506.812V257.203H510.694V253.313Z" fill="#BCD1FF"/>
<path d="M510.694 259.833H506.812V263.723H510.694V259.833Z" fill="#BCD1FF"/>
<path d="M510.694 266.354H506.812V270.243H510.694V266.354Z" fill="#BCD1FF"/>
<path d="M510.694 272.873H506.812V276.762H510.694V272.873Z" fill="#BCD1FF"/>
<path d="M510.694 279.394H506.812V283.283H510.694V279.394Z" fill="#BCD1FF"/>
<path d="M510.694 285.915H506.812V289.804H510.694V285.915Z" fill="#BCD1FF"/>
<path d="M510.694 292.435H506.812V296.325H510.694V292.435Z" fill="#BCD1FF"/>
<path d="M510.694 298.955H506.812V302.845H510.694V298.955Z" fill="#BCD1FF"/>
<path d="M510.694 305.476H506.812V309.365H510.694V305.476Z" fill="#BCD1FF"/>
<path d="M510.694 311.996H506.812V315.886H510.694V311.996Z" fill="#BCD1FF"/>
<path d="M510.694 318.518H506.812V322.406H510.694V318.518Z" fill="#BCD1FF"/>
<path d="M516.86 227.232H512.978V231.122H516.86V227.232Z" fill="#BCD1FF"/>
<path d="M516.86 233.752H512.978V237.641H516.86V233.752Z" fill="#BCD1FF"/>
<path d="M516.86 240.272H512.978V244.162H516.86V240.272Z" fill="#BCD1FF"/>
<path d="M516.86 246.793H512.978V250.683H516.86V246.793Z" fill="#BCD1FF"/>
<path d="M516.86 253.313H512.978V257.203H516.86V253.313Z" fill="#BCD1FF"/>
<path d="M516.86 259.833H512.978V263.723H516.86V259.833Z" fill="#BCD1FF"/>
<path d="M516.86 266.354H512.978V270.243H516.86V266.354Z" fill="#BCD1FF"/>
<path d="M516.86 272.873H512.978V276.762H516.86V272.873Z" fill="#BCD1FF"/>
<path d="M516.86 279.394H512.978V283.283H516.86V279.394Z" fill="#BCD1FF"/>
<path d="M516.86 285.915H512.978V289.804H516.86V285.915Z" fill="#BCD1FF"/>
<path d="M516.86 292.435H512.978V296.325H516.86V292.435Z" fill="#BCD1FF"/>
<path d="M516.86 298.955H512.978V302.845H516.86V298.955Z" fill="#BCD1FF"/>
<path d="M516.86 305.476H512.978V309.365H516.86V305.476Z" fill="#BCD1FF"/>
<path d="M523.024 227.232H519.142V231.122H523.024V227.232Z" fill="#BCD1FF"/>
<path d="M523.024 233.752H519.142V237.641H523.024V233.752Z" fill="#BCD1FF"/>
<path d="M523.024 240.272H519.142V244.162H523.024V240.272Z" fill="#BCD1FF"/>
<path d="M523.024 246.793H519.142V250.683H523.024V246.793Z" fill="#BCD1FF"/>
<path d="M523.024 253.313H519.142V257.203H523.024V253.313Z" fill="#BCD1FF"/>
<path d="M523.024 259.833H519.142V263.723H523.024V259.833Z" fill="#BCD1FF"/>
<path d="M523.024 266.354H519.142V270.243H523.024V266.354Z" fill="#BCD1FF"/>
<path d="M523.024 272.873H519.142V276.762H523.024V272.873Z" fill="#BCD1FF"/>
<path d="M523.024 279.394H519.142V283.283H523.024V279.394Z" fill="#BCD1FF"/>
<path d="M523.024 285.915H519.142V289.804H523.024V285.915Z" fill="#BCD1FF"/>
<path d="M523.024 292.435H519.142V296.325H523.024V292.435Z" fill="#BCD1FF"/>
<path d="M523.024 298.955H519.142V302.845H523.024V298.955Z" fill="#BCD1FF"/>
<path d="M69.9874 274.818H66.1066V278.707H69.9874V274.818Z" fill="#BCD1FF"/>
<path d="M69.9874 281.339H66.1066V285.228H69.9874V281.339Z" fill="#BCD1FF"/>
<path d="M69.9874 287.859H66.1066V291.749H69.9874V287.859Z" fill="#BCD1FF"/>
<path d="M69.9874 294.38H66.1066V298.27H69.9874V294.38Z" fill="#BCD1FF"/>
<path d="M69.9874 300.9H66.1066V304.79H69.9874V300.9Z" fill="#BCD1FF"/>
<path d="M69.9874 307.42H66.1066V311.31H69.9874V307.42Z" fill="#BCD1FF"/>
<path d="M69.9874 313.941H66.1066V317.83H69.9874V313.941Z" fill="#BCD1FF"/>
<path d="M69.9874 320.461H66.1066V324.351H69.9874V320.461Z" fill="#BCD1FF"/>
<path d="M69.9874 326.983H66.1066V330.871H69.9874V326.983Z" fill="#BCD1FF"/>
<path d="M69.9874 333.503H66.1066V337.393H69.9874V333.503Z" fill="#BCD1FF"/>
<path d="M69.9874 340.022H66.1066V343.912H69.9874V340.022Z" fill="#BCD1FF"/>
<path d="M69.9874 346.542H66.1066V350.432H69.9874V346.542Z" fill="#BCD1FF"/>
<path d="M69.9874 353.063H66.1066V356.952H69.9874V353.063Z" fill="#BCD1FF"/>
<path d="M69.9874 359.583H66.1066V363.473H69.9874V359.583Z" fill="#BCD1FF"/>
<path d="M69.9874 366.103H66.1066V369.993H69.9874V366.103Z" fill="#BCD1FF"/>
<path d="M69.9874 372.625H66.1066V376.515H69.9874V372.625Z" fill="#BCD1FF"/>
<path d="M69.9874 379.145H66.1066V383.035H69.9874V379.145Z" fill="#BCD1FF"/>
<path d="M69.9874 385.666H66.1066V389.555H69.9874V385.666Z" fill="#BCD1FF"/>
<path d="M69.9874 392.186H66.1066V396.075H69.9874V392.186Z" fill="#BCD1FF"/>
<path d="M69.9874 398.706H66.1066V402.596H69.9874V398.706Z" fill="#BCD1FF"/>
<path d="M76.1529 274.818H72.2721V278.707H76.1529V274.818Z" fill="#BCD1FF"/>
<path d="M76.1529 281.339H72.2721V285.228H76.1529V281.339Z" fill="#BCD1FF"/>
<path d="M76.1529 287.859H72.2721V291.749H76.1529V287.859Z" fill="#BCD1FF"/>
<path d="M76.1529 294.38H72.2721V298.27H76.1529V294.38Z" fill="#BCD1FF"/>
<path d="M76.1529 300.9H72.2721V304.79H76.1529V300.9Z" fill="#BCD1FF"/>
<path d="M76.1529 307.42H72.2721V311.31H76.1529V307.42Z" fill="#BCD1FF"/>
<path d="M76.1529 313.941H72.2721V317.83H76.1529V313.941Z" fill="#BCD1FF"/>
<path d="M76.1529 320.461H72.2721V324.351H76.1529V320.461Z" fill="#BCD1FF"/>
<path d="M76.1529 326.983H72.2721V330.871H76.1529V326.983Z" fill="#BCD1FF"/>
<path d="M76.1529 333.503H72.2721V337.393H76.1529V333.503Z" fill="#BCD1FF"/>
<path d="M76.1529 340.022H72.2721V343.912H76.1529V340.022Z" fill="#BCD1FF"/>
<path d="M76.1529 346.542H72.2721V350.432H76.1529V346.542Z" fill="#BCD1FF"/>
<path d="M76.1529 353.063H72.2721V356.952H76.1529V353.063Z" fill="#BCD1FF"/>
<path d="M76.1529 359.583H72.2721V363.473H76.1529V359.583Z" fill="#BCD1FF"/>
<path d="M76.1529 366.103H72.2721V369.993H76.1529V366.103Z" fill="#BCD1FF"/>
<path d="M76.1529 372.625H72.2721V376.515H76.1529V372.625Z" fill="#BCD1FF"/>
<path d="M76.1529 379.145H72.2721V383.035H76.1529V379.145Z" fill="#BCD1FF"/>
<path d="M76.1529 385.666H72.2721V389.555H76.1529V385.666Z" fill="#BCD1FF"/>
<path d="M82.3185 274.818H78.4363V278.707H82.3185V274.818Z" fill="#BCD1FF"/>
<path d="M82.3185 281.339H78.4363V285.228H82.3185V281.339Z" fill="#BCD1FF"/>
<path d="M82.3185 287.859H78.4363V291.749H82.3185V287.859Z" fill="#BCD1FF"/>
<path d="M82.3185 294.38H78.4363V298.27H82.3185V294.38Z" fill="#BCD1FF"/>
<path d="M82.3185 300.9H78.4363V304.79H82.3185V300.9Z" fill="#BCD1FF"/>
<path d="M82.3185 307.42H78.4363V311.31H82.3185V307.42Z" fill="#BCD1FF"/>
<path d="M82.3185 313.941H78.4363V317.83H82.3185V313.941Z" fill="#BCD1FF"/>
<path d="M82.3185 320.461H78.4363V324.351H82.3185V320.461Z" fill="#BCD1FF"/>
<path d="M82.3185 326.983H78.4363V330.871H82.3185V326.983Z" fill="#BCD1FF"/>
<path d="M82.3185 333.503H78.4363V337.393H82.3185V333.503Z" fill="#BCD1FF"/>
<path d="M82.3185 340.022H78.4363V343.912H82.3185V340.022Z" fill="#BCD1FF"/>
<path d="M82.3185 346.542H78.4363V350.432H82.3185V346.542Z" fill="#BCD1FF"/>
<path d="M82.3185 353.063H78.4363V356.952H82.3185V353.063Z" fill="#BCD1FF"/>
<path d="M82.3185 359.583H78.4363V363.473H82.3185V359.583Z" fill="#BCD1FF"/>
<path d="M82.3185 366.103H78.4363V369.993H82.3185V366.103Z" fill="#BCD1FF"/>
<path d="M82.3185 372.625H78.4363V376.515H82.3185V372.625Z" fill="#BCD1FF"/>
<path d="M82.3185 379.145H78.4363V383.035H82.3185V379.145Z" fill="#BCD1FF"/>
<path d="M82.3185 385.666H78.4363V389.555H82.3185V385.666Z" fill="#BCD1FF"/>
<path d="M46.9255 322.406H43.0433V326.296H46.9255V322.406Z" fill="#BCD1FF"/>
<path d="M46.9255 328.928H43.0433V332.816H46.9255V328.928Z" fill="#BCD1FF"/>
<path d="M46.9255 335.448H43.0433V339.336H46.9255V335.448Z" fill="#BCD1FF"/>
<path d="M46.9255 341.967H43.0433V345.856H46.9255V341.967Z" fill="#BCD1FF"/>
<path d="M46.9255 348.487H43.0433V352.377H46.9255V348.487Z" fill="#BCD1FF"/>
<path d="M46.9255 355.007H43.0433V358.897H46.9255V355.007Z" fill="#BCD1FF"/>
<path d="M46.9255 361.528H43.0433V365.417H46.9255V361.528Z" fill="#BCD1FF"/>
<path d="M46.9255 368.048H43.0433V371.938H46.9255V368.048Z" fill="#BCD1FF"/>
<path d="M46.9255 374.57H43.0433V378.458H46.9255V374.57Z" fill="#BCD1FF"/>
<path d="M46.9255 381.09H43.0433V384.98H46.9255V381.09Z" fill="#BCD1FF"/>
<path d="M46.9255 387.61H43.0433V391.5H46.9255V387.61Z" fill="#BCD1FF"/>
<path d="M46.9255 394.131H43.0433V398.02H46.9255V394.131Z" fill="#BCD1FF"/>
<path d="M46.9255 400.651H43.0433V404.541H46.9255V400.651Z" fill="#BCD1FF"/>
<path d="M53.0911 322.406H49.2089V326.296H53.0911V322.406Z" fill="#BCD1FF"/>
<path d="M53.0911 328.928H49.2089V332.816H53.0911V328.928Z" fill="#BCD1FF"/>
<path d="M53.0911 335.448H49.2089V339.336H53.0911V335.448Z" fill="#BCD1FF"/>
<path d="M53.0911 341.967H49.2089V345.856H53.0911V341.967Z" fill="#BCD1FF"/>
<path d="M53.0911 348.487H49.2089V352.377H53.0911V348.487Z" fill="#BCD1FF"/>
<path d="M53.0911 355.007H49.2089V358.897H53.0911V355.007Z" fill="#BCD1FF"/>
<path d="M53.0911 361.528H49.2089V365.417H53.0911V361.528Z" fill="#BCD1FF"/>
<path d="M53.0911 368.048H49.2089V371.938H53.0911V368.048Z" fill="#BCD1FF"/>
<path d="M53.0911 374.57H49.2089V378.458H53.0911V374.57Z" fill="#BCD1FF"/>
<path d="M53.0911 381.09H49.2089V384.98H53.0911V381.09Z" fill="#BCD1FF"/>
<path d="M53.0911 387.61H49.2089V391.5H53.0911V387.61Z" fill="#BCD1FF"/>
<path d="M53.0911 394.131H49.2089V398.02H53.0911V394.131Z" fill="#BCD1FF"/>
<path d="M53.0911 400.651H49.2089V404.541H53.0911V400.651Z" fill="#BCD1FF"/>
<path d="M59.2566 322.406H55.3744V326.296H59.2566V322.406Z" fill="#BCD1FF"/>
<path d="M59.2566 328.928H55.3744V332.816H59.2566V328.928Z" fill="#BCD1FF"/>
<path d="M59.2566 335.448H55.3744V339.336H59.2566V335.448Z" fill="#BCD1FF"/>
<path d="M59.2566 341.967H55.3744V345.856H59.2566V341.967Z" fill="#BCD1FF"/>
<path d="M59.2566 348.487H55.3744V352.377H59.2566V348.487Z" fill="#BCD1FF"/>
<path d="M59.2566 355.007H55.3744V358.897H59.2566V355.007Z" fill="#BCD1FF"/>
<path d="M59.2566 361.528H55.3744V365.417H59.2566V361.528Z" fill="#BCD1FF"/>
<path d="M59.2566 368.048H55.3744V371.938H59.2566V368.048Z" fill="#BCD1FF"/>
<path d="M59.2566 374.57H55.3744V378.458H59.2566V374.57Z" fill="#BCD1FF"/>
<path d="M59.2566 381.09H55.3744V384.98H59.2566V381.09Z" fill="#BCD1FF"/>
<path d="M59.2566 387.61H55.3744V391.5H59.2566V387.61Z" fill="#BCD1FF"/>
<path d="M59.2566 394.131H55.3744V398.02H59.2566V394.131Z" fill="#BCD1FF"/>
<path d="M59.2566 400.651H55.3744V404.541H59.2566V400.651Z" fill="#BCD1FF"/>
<path d="M59.2566 407.17H55.3744V411.06H59.2566V407.17Z" fill="#BCD1FF"/>
<path d="M93.5079 324.351H89.6257V328.24H93.5079V324.351Z" fill="#BCD1FF"/>
<path d="M93.5079 330.871H89.6257V334.761H93.5079V330.871Z" fill="#BCD1FF"/>
<path d="M93.5079 337.391H89.6257V341.28H93.5079V337.391Z" fill="#BCD1FF"/>
<path d="M93.5079 343.912H89.6257V347.801H93.5079V343.912Z" fill="#BCD1FF"/>
<path d="M93.5079 350.432H89.6257V354.322H93.5079V350.432Z" fill="#BCD1FF"/>
<path d="M93.5079 356.952H89.6257V360.842H93.5079V356.952Z" fill="#BCD1FF"/>
<path d="M93.5079 363.473H89.6257V367.362H93.5079V363.473Z" fill="#BCD1FF"/>
<path d="M93.5079 369.993H89.6257V373.883H93.5079V369.993Z" fill="#BCD1FF"/>
<path d="M93.5079 376.515H89.6257V380.403H93.5079V376.515Z" fill="#BCD1FF"/>
<path d="M93.5079 383.035H89.6257V386.923H93.5079V383.035Z" fill="#BCD1FF"/>
<path d="M93.5079 402.596H89.6257V406.486H93.5079V402.596Z" fill="#BCD1FF"/>
<path d="M99.6734 324.351H95.7912V328.24H99.6734V324.351Z" fill="#BCD1FF"/>
<path d="M99.6734 330.871H95.7912V334.761H99.6734V330.871Z" fill="#BCD1FF"/>
<path d="M99.6734 337.391H95.7912V341.28H99.6734V337.391Z" fill="#BCD1FF"/>
<path d="M99.6734 343.912H95.7912V347.801H99.6734V343.912Z" fill="#BCD1FF"/>
<path d="M99.6734 350.432H95.7912V354.322H99.6734V350.432Z" fill="#BCD1FF"/>
<path d="M99.6734 356.952H95.7912V360.842H99.6734V356.952Z" fill="#BCD1FF"/>
<path d="M99.6734 363.473H95.7912V367.362H99.6734V363.473Z" fill="#BCD1FF"/>
<path d="M99.6734 369.993H95.7912V373.883H99.6734V369.993Z" fill="#BCD1FF"/>
<path d="M99.6734 376.515H95.7912V380.403H99.6734V376.515Z" fill="#BCD1FF"/>
<path d="M99.6734 396.075H95.7912V399.965H99.6734V396.075Z" fill="#BCD1FF"/>
<path d="M99.6734 402.596H95.7912V406.486H99.6734V402.596Z" fill="#BCD1FF"/>
<path d="M105.839 324.351H101.957V328.24H105.839V324.351Z" fill="#BCD1FF"/>
<path d="M105.839 330.871H101.957V334.761H105.839V330.871Z" fill="#BCD1FF"/>
<path d="M105.839 337.391H101.957V341.28H105.839V337.391Z" fill="#BCD1FF"/>
<path d="M105.839 343.912H101.957V347.801H105.839V343.912Z" fill="#BCD1FF"/>
<path d="M105.839 350.432H101.957V354.322H105.839V350.432Z" fill="#BCD1FF"/>
<path d="M105.839 356.952H101.957V360.842H105.839V356.952Z" fill="#BCD1FF"/>
<path d="M105.839 363.473H101.957V367.362H105.839V363.473Z" fill="#BCD1FF"/>
<path d="M105.839 369.993H101.957V373.883H105.839V369.993Z" fill="#BCD1FF"/>
<path d="M105.839 389.555H101.957V393.445H105.839V389.555Z" fill="#BCD1FF"/>
<path d="M105.839 396.075H101.957V399.965H105.839V396.075Z" fill="#BCD1FF"/>
<path d="M105.839 402.596H101.957V406.486H105.839V402.596Z" fill="#BCD1FF"/>
<path d="M163.152 225.287H159.271V229.177H163.152V225.287Z" fill="#BCD1FF"/>
<path d="M163.152 231.807H159.271V235.696H163.152V231.807Z" fill="#BCD1FF"/>
<path d="M163.152 238.328H159.271V242.217H163.152V238.328Z" fill="#BCD1FF"/>
<path d="M163.152 244.848H159.271V248.738H163.152V244.848Z" fill="#BCD1FF"/>
<path d="M163.152 251.368H159.271V255.258H163.152V251.368Z" fill="#BCD1FF"/>
<path d="M163.152 257.889H159.271V261.778H163.152V257.889Z" fill="#BCD1FF"/>
<path d="M163.152 264.409H159.271V268.299H163.152V264.409Z" fill="#BCD1FF"/>
<path d="M163.152 270.929H159.271V274.818H163.152V270.929Z" fill="#BCD1FF"/>
<path d="M163.152 277.449H159.271V281.339H163.152V277.449Z" fill="#BCD1FF"/>
<path d="M163.152 283.97H159.271V287.86H163.152V283.97Z" fill="#BCD1FF"/>
<path d="M163.152 290.49H159.271V294.38H163.152V290.49Z" fill="#BCD1FF"/>
<path d="M163.152 297.01H159.271V300.9H163.152V297.01Z" fill="#BCD1FF"/>
<path d="M163.152 303.531H159.271V307.42H163.152V303.531Z" fill="#BCD1FF"/>
<path d="M163.152 310.052H159.271V313.941H163.152V310.052Z" fill="#BCD1FF"/>
<path d="M163.152 316.573H159.271V320.461H163.152V316.573Z" fill="#BCD1FF"/>
<path d="M163.152 323.093H159.271V326.983H163.152V323.093Z" fill="#BCD1FF"/>
<path d="M163.152 329.613H159.271V333.503H163.152V329.613Z" fill="#BCD1FF"/>
<path d="M163.152 342.653H159.271V346.542H163.152V342.653Z" fill="#BCD1FF"/>
<path d="M163.152 349.173H159.271V353.063H163.152V349.173Z" fill="#BCD1FF"/>
<path d="M163.152 355.695H159.271V359.583H163.152V355.695Z" fill="#BCD1FF"/>
<path d="M163.152 362.215H159.271V366.103H163.152V362.215Z" fill="#BCD1FF"/>
<path d="M163.152 368.735H159.271V372.625H163.152V368.735Z" fill="#BCD1FF"/>
<path d="M169.318 225.287H165.437V229.177H169.318V225.287Z" fill="#BCD1FF"/>
<path d="M169.318 231.807H165.437V235.696H169.318V231.807Z" fill="#BCD1FF"/>
<path d="M169.318 238.328H165.437V242.217H169.318V238.328Z" fill="#BCD1FF"/>
<path d="M169.318 244.848H165.437V248.738H169.318V244.848Z" fill="#BCD1FF"/>
<path d="M169.318 251.368H165.437V255.258H169.318V251.368Z" fill="#BCD1FF"/>
<path d="M169.318 257.889H165.437V261.778H169.318V257.889Z" fill="#BCD1FF"/>
<path d="M169.318 264.409H165.437V268.299H169.318V264.409Z" fill="#BCD1FF"/>
<path d="M169.318 270.929H165.437V274.818H169.318V270.929Z" fill="#BCD1FF"/>
<path d="M169.318 277.449H165.437V281.339H169.318V277.449Z" fill="#BCD1FF"/>
<path d="M169.318 283.97H165.437V287.86H169.318V283.97Z" fill="#BCD1FF"/>
<path d="M169.318 290.49H165.437V294.38H169.318V290.49Z" fill="#BCD1FF"/>
<path d="M169.318 297.01H165.437V300.9H169.318V297.01Z" fill="#BCD1FF"/>
<path d="M169.318 303.531H165.437V307.42H169.318V303.531Z" fill="#BCD1FF"/>
<path d="M169.318 310.052H165.437V313.941H169.318V310.052Z" fill="#BCD1FF"/>
<path d="M169.318 316.573H165.437V320.461H169.318V316.573Z" fill="#BCD1FF"/>
<path d="M169.318 323.093H165.437V326.983H169.318V323.093Z" fill="#BCD1FF"/>
<path d="M169.318 362.215H165.437V366.103H169.318V362.215Z" fill="#BCD1FF"/>
<path d="M169.318 368.735H165.437V372.625H169.318V368.735Z" fill="#BCD1FF"/>
<path d="M175.485 225.287H171.602V229.177H175.485V225.287Z" fill="#BCD1FF"/>
<path d="M175.485 231.807H171.602V235.696H175.485V231.807Z" fill="#BCD1FF"/>
<path d="M175.485 238.328H171.602V242.217H175.485V238.328Z" fill="#BCD1FF"/>
<path d="M175.485 244.848H171.602V248.738H175.485V244.848Z" fill="#BCD1FF"/>
<path d="M175.485 251.368H171.602V255.258H175.485V251.368Z" fill="#BCD1FF"/>
<path d="M175.485 257.889H171.602V261.778H175.485V257.889Z" fill="#BCD1FF"/>
<path d="M175.485 264.409H171.602V268.299H175.485V264.409Z" fill="#BCD1FF"/>
<path d="M175.485 270.929H171.602V274.818H175.485V270.929Z" fill="#BCD1FF"/>
<path d="M175.485 277.449H171.602V281.339H175.485V277.449Z" fill="#BCD1FF"/>
<path d="M175.485 283.97H171.602V287.86H175.485V283.97Z" fill="#BCD1FF"/>
<path d="M175.485 290.49H171.602V294.38H175.485V290.49Z" fill="#BCD1FF"/>
<path d="M175.485 297.01H171.602V300.9H175.485V297.01Z" fill="#BCD1FF"/>
<path d="M175.485 303.531H171.602V307.42H175.485V303.531Z" fill="#BCD1FF"/>
<path d="M175.485 310.052H171.602V313.941H175.485V310.052Z" fill="#BCD1FF"/>
<path d="M175.485 316.573H171.602V320.461H175.485V316.573Z" fill="#BCD1FF"/>
<path d="M175.485 323.093H171.602V326.983H175.485V323.093Z" fill="#BCD1FF"/>
<path d="M175.485 336.134H171.602V340.023H175.485V336.134Z" fill="#BCD1FF"/>
<path d="M175.485 342.653H171.602V346.542H175.485V342.653Z" fill="#BCD1FF"/>
<path d="M175.485 349.173H171.602V353.063H175.485V349.173Z" fill="#BCD1FF"/>
<path d="M175.485 355.695H171.602V359.583H175.485V355.695Z" fill="#BCD1FF"/>
<path d="M175.485 368.735H171.602V372.625H175.485V368.735Z" fill="#BCD1FF"/>
<path d="M140.776 307.42H136.894V311.31H140.776V307.42Z" fill="#BCD1FF"/>
<path d="M140.776 313.941H136.894V317.83H140.776V313.941Z" fill="#BCD1FF"/>
<path d="M140.776 320.461H136.894V324.351H140.776V320.461Z" fill="#BCD1FF"/>
<path d="M140.776 326.983H136.894V330.871H140.776V326.983Z" fill="#BCD1FF"/>
<path d="M140.776 333.503H136.894V337.393H140.776V333.503Z" fill="#BCD1FF"/>
<path d="M140.776 340.022H136.894V343.912H140.776V340.022Z" fill="#BCD1FF"/>
<path d="M140.776 346.542H136.894V350.432H140.776V346.542Z" fill="#BCD1FF"/>
<path d="M140.776 359.583H136.894V363.473H140.776V359.583Z" fill="#BCD1FF"/>
<path d="M140.776 366.103H136.894V369.993H140.776V366.103Z" fill="#BCD1FF"/>
<path d="M140.776 372.625H136.894V376.515H140.776V372.625Z" fill="#BCD1FF"/>
<path d="M140.776 379.145H136.894V383.035H140.776V379.145Z" fill="#BCD1FF"/>
<path d="M140.776 385.666H136.894V389.555H140.776V385.666Z" fill="#BCD1FF"/>
<path d="M140.776 392.186H136.894V396.075H140.776V392.186Z" fill="#BCD1FF"/>
<path d="M140.776 398.706H136.894V402.596H140.776V398.706Z" fill="#BCD1FF"/>
<path d="M140.776 405.225H136.894V409.115H140.776V405.225Z" fill="#BCD1FF"/>
<path d="M146.94 307.42H143.058V311.31H146.94V307.42Z" fill="#BCD1FF"/>
<path d="M146.94 313.941H143.058V317.83H146.94V313.941Z" fill="#BCD1FF"/>
<path d="M146.94 320.461H143.058V324.351H146.94V320.461Z" fill="#BCD1FF"/>
<path d="M146.94 326.983H143.058V330.871H146.94V326.983Z" fill="#BCD1FF"/>
<path d="M146.94 333.503H143.058V337.393H146.94V333.503Z" fill="#BCD1FF"/>
<path d="M146.94 340.022H143.058V343.912H146.94V340.022Z" fill="#BCD1FF"/>
<path d="M146.94 359.583H143.058V363.473H146.94V359.583Z" fill="#BCD1FF"/>
<path d="M146.94 366.103H143.058V369.993H146.94V366.103Z" fill="#BCD1FF"/>
<path d="M146.94 372.625H143.058V376.515H146.94V372.625Z" fill="#BCD1FF"/>
<path d="M146.94 379.145H143.058V383.035H146.94V379.145Z" fill="#BCD1FF"/>
<path d="M146.94 385.666H143.058V389.555H146.94V385.666Z" fill="#BCD1FF"/>
<path d="M146.94 392.186H143.058V396.075H146.94V392.186Z" fill="#BCD1FF"/>
<path d="M146.94 398.706H143.058V402.596H146.94V398.706Z" fill="#BCD1FF"/>
<path d="M146.94 405.225H143.058V409.115H146.94V405.225Z" fill="#BCD1FF"/>
<path d="M153.106 307.42H149.224V311.31H153.106V307.42Z" fill="#BCD1FF"/>
<path d="M153.106 313.941H149.224V317.83H153.106V313.941Z" fill="#BCD1FF"/>
<path d="M153.106 320.461H149.224V324.351H153.106V320.461Z" fill="#BCD1FF"/>
<path d="M153.106 326.983H149.224V330.871H153.106V326.983Z" fill="#BCD1FF"/>
<path d="M153.106 333.503H149.224V337.393H153.106V333.503Z" fill="#BCD1FF"/>
<path d="M153.106 340.022H149.224V343.912H153.106V340.022Z" fill="#BCD1FF"/>
<path d="M153.106 353.063H149.224V356.952H153.106V353.063Z" fill="#BCD1FF"/>
<path d="M153.106 359.583H149.224V363.473H153.106V359.583Z" fill="#BCD1FF"/>
<path d="M153.106 366.103H149.224V369.993H153.106V366.103Z" fill="#BCD1FF"/>
<path d="M153.106 372.625H149.224V376.515H153.106V372.625Z" fill="#BCD1FF"/>
<path d="M153.106 379.145H149.224V383.035H153.106V379.145Z" fill="#BCD1FF"/>
<path d="M153.106 385.666H149.224V389.555H153.106V385.666Z" fill="#BCD1FF"/>
<path d="M153.106 392.186H149.224V396.075H153.106V392.186Z" fill="#BCD1FF"/>
<path d="M153.106 398.706H149.224V402.596H153.106V398.706Z" fill="#BCD1FF"/>
<path d="M153.106 405.225H149.224V409.115H153.106V405.225Z" fill="#BCD1FF"/>
<path d="M283.034 270.929H279.153V274.818H283.034V270.929Z" fill="#BCD1FF"/>
<path d="M283.034 277.449H279.153V281.339H283.034V277.449Z" fill="#BCD1FF"/>
<path d="M283.034 283.97H279.153V287.86H283.034V283.97Z" fill="#BCD1FF"/>
<path d="M283.034 290.49H279.153V294.38H283.034V290.49Z" fill="#BCD1FF"/>
<path d="M283.034 297.01H279.153V300.9H283.034V297.01Z" fill="#BCD1FF"/>
<path d="M283.034 303.531H279.153V307.42H283.034V303.531Z" fill="#BCD1FF"/>
<path d="M283.034 310.052H279.153V313.941H283.034V310.052Z" fill="#BCD1FF"/>
<path d="M283.034 316.573H279.153V320.461H283.034V316.573Z" fill="#BCD1FF"/>
<path d="M283.034 323.093H279.153V326.983H283.034V323.093Z" fill="#BCD1FF"/>
<path d="M283.034 329.613H279.153V333.503H283.034V329.613Z" fill="#BCD1FF"/>
<path d="M283.034 336.134H279.153V340.023H283.034V336.134Z" fill="#BCD1FF"/>
<path d="M283.034 342.653H279.153V346.542H283.034V342.653Z" fill="#BCD1FF"/>
<path d="M283.034 349.173H279.153V353.063H283.034V349.173Z" fill="#BCD1FF"/>
<path d="M283.034 362.215H279.153V366.103H283.034V362.215Z" fill="#BCD1FF"/>
<path d="M283.034 368.735H279.153V372.625H283.034V368.735Z" fill="#BCD1FF"/>
<path d="M283.034 375.255H279.153V379.145H283.034V375.255Z" fill="#BCD1FF"/>
<path d="M283.034 381.776H279.153V385.666H283.034V381.776Z" fill="#BCD1FF"/>
<path d="M283.034 394.816H279.153V398.706H283.034V394.816Z" fill="#BCD1FF"/>
<path d="M283.034 401.338H279.153V405.226H283.034V401.338Z" fill="#BCD1FF"/>
<path d="M283.034 407.857H279.153V411.747H283.034V407.857Z" fill="#BCD1FF"/>
<path d="M289.199 270.929H285.317V274.818H289.199V270.929Z" fill="#BCD1FF"/>
<path d="M289.199 277.449H285.317V281.339H289.199V277.449Z" fill="#BCD1FF"/>
<path d="M289.199 283.97H285.317V287.86H289.199V283.97Z" fill="#BCD1FF"/>
<path d="M289.199 290.49H285.317V294.38H289.199V290.49Z" fill="#BCD1FF"/>
<path d="M289.199 297.01H285.317V300.9H289.199V297.01Z" fill="#BCD1FF"/>
<path d="M289.199 303.531H285.317V307.42H289.199V303.531Z" fill="#BCD1FF"/>
<path d="M289.199 310.052H285.317V313.941H289.199V310.052Z" fill="#BCD1FF"/>
<path d="M289.199 316.573H285.317V320.461H289.199V316.573Z" fill="#BCD1FF"/>
<path d="M289.199 323.093H285.317V326.983H289.199V323.093Z" fill="#BCD1FF"/>
<path d="M289.199 329.613H285.317V333.503H289.199V329.613Z" fill="#BCD1FF"/>
<path d="M289.199 336.134H285.317V340.023H289.199V336.134Z" fill="#BCD1FF"/>
<path d="M289.199 342.653H285.317V346.542H289.199V342.653Z" fill="#BCD1FF"/>
<path d="M289.199 349.173H285.317V353.063H289.199V349.173Z" fill="#BCD1FF"/>
<path d="M289.199 368.735H285.317V372.625H289.199V368.735Z" fill="#BCD1FF"/>
<path d="M289.199 375.255H285.317V379.145H289.199V375.255Z" fill="#BCD1FF"/>
<path d="M289.199 388.296H285.317V392.186H289.199V388.296Z" fill="#BCD1FF"/>
<path d="M289.199 394.816H285.317V398.706H289.199V394.816Z" fill="#BCD1FF"/>
<path d="M289.199 401.338H285.317V405.226H289.199V401.338Z" fill="#BCD1FF"/>
<path d="M289.199 407.857H285.317V411.747H289.199V407.857Z" fill="#BCD1FF"/>
<path d="M295.365 270.929H291.482V274.818H295.365V270.929Z" fill="#BCD1FF"/>
<path d="M295.365 277.449H291.482V281.339H295.365V277.449Z" fill="#BCD1FF"/>
<path d="M295.365 283.97H291.482V287.86H295.365V283.97Z" fill="#BCD1FF"/>
<path d="M295.365 290.49H291.482V294.38H295.365V290.49Z" fill="#BCD1FF"/>
<path d="M295.365 297.01H291.482V300.9H295.365V297.01Z" fill="#BCD1FF"/>
<path d="M295.365 303.531H291.482V307.42H295.365V303.531Z" fill="#BCD1FF"/>
<path d="M295.365 310.052H291.482V313.941H295.365V310.052Z" fill="#BCD1FF"/>
<path d="M295.365 316.573H291.482V320.461H295.365V316.573Z" fill="#BCD1FF"/>
<path d="M295.365 323.093H291.482V326.983H295.365V323.093Z" fill="#BCD1FF"/>
<path d="M295.365 329.613H291.482V333.503H295.365V329.613Z" fill="#BCD1FF"/>
<path d="M295.365 336.134H291.482V340.023H295.365V336.134Z" fill="#BCD1FF"/>
<path d="M295.365 342.653H291.482V346.542H295.365V342.653Z" fill="#BCD1FF"/>
<path d="M295.365 349.173H291.482V353.063H295.365V349.173Z" fill="#BCD1FF"/>
<path d="M295.365 355.695H291.482V359.583H295.365V355.695Z" fill="#BCD1FF"/>
<path d="M295.365 368.735H291.482V372.625H295.365V368.735Z" fill="#BCD1FF"/>
<path d="M295.365 381.776H291.482V385.666H295.365V381.776Z" fill="#BCD1FF"/>
<path d="M295.365 388.296H291.482V392.186H295.365V388.296Z" fill="#BCD1FF"/>
<path d="M295.365 394.816H291.482V398.706H295.365V394.816Z" fill="#BCD1FF"/>
<path d="M295.365 401.338H291.482V405.226H295.365V401.338Z" fill="#BCD1FF"/>
<path d="M295.365 407.857H291.482V411.747H295.365V407.857Z" fill="#BCD1FF"/>
<path d="M257.916 308.108H254.035V311.996H257.916V308.108Z" fill="#BCD1FF"/>
<path d="M257.916 314.628H254.035V318.518H257.916V314.628Z" fill="#BCD1FF"/>
<path d="M257.916 321.148H254.035V325.038H257.916V321.148Z" fill="#BCD1FF"/>
<path d="M257.916 327.668H254.035V331.558H257.916V327.668Z" fill="#BCD1FF"/>
<path d="M257.916 334.189H254.035V338.079H257.916V334.189Z" fill="#BCD1FF"/>
<path d="M257.916 340.708H254.035V344.597H257.916V340.708Z" fill="#BCD1FF"/>
<path d="M257.916 360.27H254.035V364.16H257.916V360.27Z" fill="#BCD1FF"/>
<path d="M257.916 366.79H254.035V370.68H257.916V366.79Z" fill="#BCD1FF"/>
<path d="M257.916 373.311H254.035V377.2H257.916V373.311Z" fill="#BCD1FF"/>
<path d="M257.916 379.831H254.035V383.721H257.916V379.831Z" fill="#BCD1FF"/>
<path d="M257.916 386.351H254.035V390.241H257.916V386.351Z" fill="#BCD1FF"/>
<path d="M257.916 392.873H254.035V396.761H257.916V392.873Z" fill="#BCD1FF"/>
<path d="M257.916 399.393H254.035V403.283H257.916V399.393Z" fill="#BCD1FF"/>
<path d="M264.081 308.108H260.199V311.996H264.081V308.108Z" fill="#BCD1FF"/>
<path d="M264.081 314.628H260.199V318.518H264.081V314.628Z" fill="#BCD1FF"/>
<path d="M264.081 321.148H260.199V325.038H264.081V321.148Z" fill="#BCD1FF"/>
<path d="M264.081 327.668H260.199V331.558H264.081V327.668Z" fill="#BCD1FF"/>
<path d="M264.081 334.189H260.199V338.079H264.081V334.189Z" fill="#BCD1FF"/>
<path d="M264.081 340.708H260.199V344.597H264.081V340.708Z" fill="#BCD1FF"/>
<path d="M264.081 360.27H260.199V364.16H264.081V360.27Z" fill="#BCD1FF"/>
<path d="M264.081 366.79H260.199V370.68H264.081V366.79Z" fill="#BCD1FF"/>
<path d="M264.081 373.311H260.199V377.2H264.081V373.311Z" fill="#BCD1FF"/>
<path d="M264.081 379.831H260.199V383.721H264.081V379.831Z" fill="#BCD1FF"/>
<path d="M264.081 386.351H260.199V390.241H264.081V386.351Z" fill="#BCD1FF"/>
<path d="M264.081 392.873H260.199V396.761H264.081V392.873Z" fill="#BCD1FF"/>
<path d="M264.081 405.912H260.199V409.802H264.081V405.912Z" fill="#BCD1FF"/>
<path d="M468.907 279.394H465.025V283.283H468.907V279.394Z" fill="#BCD1FF"/>
<path d="M468.907 285.915H465.025V289.804H468.907V285.915Z" fill="#BCD1FF"/>
<path d="M468.907 292.435H465.025V296.325H468.907V292.435Z" fill="#BCD1FF"/>
<path d="M468.907 298.955H465.025V302.845H468.907V298.955Z" fill="#BCD1FF"/>
<path d="M468.907 305.476H465.025V309.365H468.907V305.476Z" fill="#BCD1FF"/>
<path d="M468.907 311.996H465.025V315.886H468.907V311.996Z" fill="#BCD1FF"/>
<path d="M468.907 318.518H465.025V322.406H468.907V318.518Z" fill="#BCD1FF"/>
<path d="M468.907 325.038H465.025V328.928H468.907V325.038Z" fill="#BCD1FF"/>
<path d="M468.907 331.558H465.025V335.448H468.907V331.558Z" fill="#BCD1FF"/>
<path d="M468.907 338.077H465.025V341.967H468.907V338.077Z" fill="#BCD1FF"/>
<path d="M468.907 344.597H465.025V348.487H468.907V344.597Z" fill="#BCD1FF"/>
<path d="M468.907 357.638H465.025V361.528H468.907V357.638Z" fill="#BCD1FF"/>
<path d="M468.907 364.16H465.025V368.048H468.907V364.16Z" fill="#BCD1FF"/>
<path d="M468.907 370.68H465.025V374.57H468.907V370.68Z" fill="#BCD1FF"/>
<path d="M468.907 377.2H465.025V381.09H468.907V377.2Z" fill="#BCD1FF"/>
<path d="M468.907 383.721H465.025V387.61H468.907V383.721Z" fill="#BCD1FF"/>
<path d="M468.907 390.241H465.025V394.131H468.907V390.241Z" fill="#BCD1FF"/>
<path d="M468.907 396.761H465.025V400.651H468.907V396.761Z" fill="#BCD1FF"/>
<path d="M468.907 403.283H465.025V407.171H468.907V403.283Z" fill="#BCD1FF"/>
<path d="M475.073 279.394H471.19V283.283H475.073V279.394Z" fill="#BCD1FF"/>
<path d="M475.073 285.915H471.19V289.804H475.073V285.915Z" fill="#BCD1FF"/>
<path d="M475.073 292.435H471.19V296.325H475.073V292.435Z" fill="#BCD1FF"/>
<path d="M475.073 298.955H471.19V302.845H475.073V298.955Z" fill="#BCD1FF"/>
<path d="M475.073 305.476H471.19V309.365H475.073V305.476Z" fill="#BCD1FF"/>
<path d="M475.073 311.996H471.19V315.886H475.073V311.996Z" fill="#BCD1FF"/>
<path d="M475.073 318.518H471.19V322.406H475.073V318.518Z" fill="#BCD1FF"/>
<path d="M475.073 325.038H471.19V328.928H475.073V325.038Z" fill="#BCD1FF"/>
<path d="M475.073 331.558H471.19V335.448H475.073V331.558Z" fill="#BCD1FF"/>
<path d="M475.073 338.077H471.19V341.967H475.073V338.077Z" fill="#BCD1FF"/>
<path d="M475.073 344.597H471.19V348.487H475.073V344.597Z" fill="#BCD1FF"/>
<path d="M475.073 351.118H471.19V355.007H475.073V351.118Z" fill="#BCD1FF"/>
<path d="M475.073 357.638H471.19V361.528H475.073V357.638Z" fill="#BCD1FF"/>
<path d="M475.073 364.16H471.19V368.048H475.073V364.16Z" fill="#BCD1FF"/>
<path d="M475.073 370.68H471.19V374.57H475.073V370.68Z" fill="#BCD1FF"/>
<path d="M475.073 377.2H471.19V381.09H475.073V377.2Z" fill="#BCD1FF"/>
<path d="M475.073 383.721H471.19V387.61H475.073V383.721Z" fill="#BCD1FF"/>
<path d="M475.073 390.241H471.19V394.131H475.073V390.241Z" fill="#BCD1FF"/>
<path d="M475.073 396.761H471.19V400.651H475.073V396.761Z" fill="#BCD1FF"/>
<path d="M475.073 403.283H471.19V407.171H475.073V403.283Z" fill="#BCD1FF"/>
<path d="M438.537 304.79H434.656V308.68H438.537V304.79Z" fill="#BCD1FF"/>
<path d="M438.537 311.31H434.656V315.2H438.537V311.31Z" fill="#BCD1FF"/>
<path d="M438.537 317.83H434.656V321.72H438.537V317.83Z" fill="#BCD1FF"/>
<path d="M438.537 324.351H434.656V328.24H438.537V324.351Z" fill="#BCD1FF"/>
<path d="M438.537 330.871H434.656V334.761H438.537V330.871Z" fill="#BCD1FF"/>
<path d="M438.537 337.391H434.656V341.28H438.537V337.391Z" fill="#BCD1FF"/>
<path d="M438.537 343.912H434.656V347.801H438.537V343.912Z" fill="#BCD1FF"/>
<path d="M438.537 350.432H434.656V354.322H438.537V350.432Z" fill="#BCD1FF"/>
<path d="M438.537 356.952H434.656V360.842H438.537V356.952Z" fill="#BCD1FF"/>
<path d="M438.537 363.473H434.656V367.362H438.537V363.473Z" fill="#BCD1FF"/>
<path d="M444.702 304.79H440.821V308.68H444.702V304.79Z" fill="#BCD1FF"/>
<path d="M444.702 311.31H440.821V315.2H444.702V311.31Z" fill="#BCD1FF"/>
<path d="M444.702 317.83H440.821V321.72H444.702V317.83Z" fill="#BCD1FF"/>
<path d="M444.702 324.351H440.821V328.24H444.702V324.351Z" fill="#BCD1FF"/>
<path d="M444.702 330.871H440.821V334.761H444.702V330.871Z" fill="#BCD1FF"/>
<path d="M444.702 337.391H440.821V341.28H444.702V337.391Z" fill="#BCD1FF"/>
<path d="M444.702 343.912H440.821V347.801H444.702V343.912Z" fill="#BCD1FF"/>
<path d="M444.702 350.432H440.821V354.322H444.702V350.432Z" fill="#BCD1FF"/>
<path d="M444.702 356.952H440.821V360.842H444.702V356.952Z" fill="#BCD1FF"/>
<path d="M134.278 143.446C134.278 136.766 128.875 131.353 122.208 131.353C121.004 131.353 119.841 131.535 118.742 131.865C118.919 130.652 119.015 129.414 119.015 128.152C119.015 114.01 107.571 102.544 93.4545 102.544C91.846 102.544 90.2732 102.7 88.7468 102.985C84.8181 96.5432 77.7559 92.2297 69.6712 92.2297C57.4332 92.2297 47.506 102.082 47.3239 114.301C47.1993 114.298 47.0775 114.28 46.9516 114.28C35.5815 114.28 26.3633 123.517 26.3633 134.909C26.3633 146.303 35.5815 155.539 46.9516 155.539H122.563L122.548 155.521C129.056 155.34 134.278 150.01 134.278 143.446Z" fill="#BCD1FF"/>
<path d="M452.74 116.846C452.74 112.582 456.191 109.126 460.446 109.126C461.215 109.126 461.957 109.242 462.659 109.452C462.547 108.677 462.487 107.887 462.487 107.082C462.487 98.052 469.793 90.7308 478.806 90.7308C479.832 90.7308 480.836 90.8309 481.81 91.0133C484.318 86.9001 488.827 84.146 493.991 84.146C501.805 84.146 508.143 90.4373 508.259 98.2372C508.338 98.2358 508.416 98.2249 508.496 98.2249C515.756 98.2249 521.641 104.122 521.641 111.396C521.641 118.67 515.756 124.567 508.496 124.567H460.22L460.23 124.557C456.075 124.44 452.74 121.038 452.74 116.846Z" fill="#BCD1FF"/>
<path d="M299.265 33.5362C299.265 30.9235 301.378 28.8072 303.985 28.8072C304.457 28.8072 304.911 28.8785 305.341 29.006C305.273 28.5329 305.234 28.0487 305.234 27.5549C305.234 22.0222 309.711 17.5386 315.232 17.5386C315.861 17.5386 316.476 17.5989 317.073 17.7114C318.609 15.1919 321.371 13.5049 324.533 13.5049C329.32 13.5049 333.202 17.3575 333.274 22.136C333.323 22.136 333.371 22.1291 333.42 22.1291C337.868 22.1291 341.472 25.7418 341.472 30.1979C341.472 34.6527 337.868 38.2653 333.42 38.2653H303.846L303.853 38.2585C301.307 38.1885 299.265 36.1038 299.265 33.5362Z" fill="#BCD1FF"/>
<path d="M555.259 486.332C555.259 494.91 436.429 501.862 289.844 501.862C143.259 501.862 24.429 494.91 24.429 486.332C24.429 477.755 143.259 470.802 289.844 470.802C436.429 470.802 555.259 477.755 555.259 486.332Z" fill="#C6D7FF" fill-opacity="0.38"/>
<path d="M526.62 418.469C526.62 418.469 533.048 396.892 520.044 392.593C507.039 388.295 499.325 378.206 499.759 366.792C500.195 355.378 486.506 344.271 476.239 354.968C465.972 365.664 467.341 346.744 453.652 342.146C439.963 337.548 428.36 348.704 432.108 358.898C435.856 369.093 422.348 375.463 406.173 366.792C389.998 358.121 372.202 373.894 375.625 386.237C379.047 398.581 376.245 399.953 366.011 395.838C355.776 391.724 337.469 403.382 343.885 418.469C350.3 433.556 526.62 418.469 526.62 418.469Z" fill="#007CFF"/>
<g opacity="0.3">
<path d="M526.62 418.469C526.62 418.469 533.048 396.892 520.044 392.593C507.039 388.295 499.325 378.206 499.759 366.792C500.195 355.378 486.506 344.271 476.239 354.968C465.972 365.664 467.341 346.744 453.652 342.146C439.963 337.548 428.36 348.704 432.108 358.898C435.856 369.093 422.348 375.463 406.173 366.792C389.998 358.121 372.202 373.894 375.625 386.237C379.047 398.581 376.245 399.953 366.011 395.838C355.776 391.724 337.469 403.382 343.885 418.469C350.3 433.556 526.62 418.469 526.62 418.469Z" fill="white"/>
</g>
<path d="M182.61 420.526C189.454 413.668 183.294 402.01 176.45 400.639C169.605 399.267 162.726 387.2 162.401 379.52C162.076 371.836 149.756 348.207 130.591 362.799C111.427 377.391 117.251 364.95 103.387 360.849C89.5244 356.749 80.7784 368.545 86.8632 377.391C86.8632 377.391 72.936 373.894 67.1989 386.923C61.4619 399.953 67.1989 408.045 67.1989 408.045C67.1989 408.045 41.0064 407.27 43.3636 423.499C45.7195 439.728 182.61 420.526 182.61 420.526Z" fill="#007CFF"/>
<g opacity="0.3">
<path d="M182.61 420.526C189.454 413.668 183.294 402.01 176.45 400.639C169.605 399.267 162.726 387.2 162.401 379.52C162.076 371.836 149.756 348.207 130.591 362.799C111.427 377.391 117.251 364.95 103.387 360.849C89.5244 356.749 80.7784 368.545 86.8632 377.391C86.8632 377.391 72.936 373.894 67.1989 386.923C61.4619 399.953 67.1989 408.045 67.1989 408.045C67.1989 408.045 41.0064 407.27 43.3636 423.499C45.7195 439.728 182.61 420.526 182.61 420.526Z" fill="white"/>
</g>
<path d="M550.16 420.939V439.728H21.7637V420.939C21.7637 417.675 24.0361 415.04 27.2941 415.04H544.629C547.887 415.04 550.16 417.675 550.16 420.939Z" fill="#1A2E35"/>
<path d="M51.8796 415.04H84.7332V439.728H51.8796V415.04Z" fill="#007CFF"/>
<path d="M114.849 415.04H146.334V439.728H114.849V415.04Z" fill="#007CFF"/>
<path d="M176.45 415.04H209.303V439.728H176.45V415.04Z" fill="#007CFF"/>
<path d="M239.419 415.04H270.904V439.728H239.419V415.04Z" fill="#007CFF"/>
<path d="M301.02 415.04H332.504V439.728H301.02V415.04Z" fill="#007CFF"/>
<path d="M362.62 415.04H395.474V439.728H362.62V415.04Z" fill="#007CFF"/>
<path d="M425.59 415.04H457.074V439.728H425.59V415.04Z" fill="#007CFF"/>
<path d="M487.19 415.04H520.044V439.728H487.19V415.04Z" fill="#007CFF"/>
<g opacity="0.6">
<path d="M51.8796 415.04H84.7332V439.728H51.8796V415.04Z" fill="white"/>
<path d="M114.849 415.04H146.334V439.728H114.849V415.04Z" fill="white"/>
<path d="M176.45 415.04H209.303V439.728H176.45V415.04Z" fill="white"/>
<path d="M239.419 415.04H270.904V439.728H239.419V415.04Z" fill="white"/>
<path d="M301.02 415.04H332.504V439.728H301.02V415.04Z" fill="white"/>
<path d="M362.62 415.04H395.474V439.728H362.62V415.04Z" fill="white"/>
<path d="M425.59 415.04H457.074V439.728H425.59V415.04Z" fill="white"/>
<path d="M487.19 415.04H520.044V439.728H487.19V415.04Z" fill="white"/>
</g>
<g opacity="0.1">
<path d="M550.16 420.939V439.728H21.7637V420.939C21.7637 417.675 24.0361 415.04 27.2941 415.04H544.629C547.887 415.04 550.16 417.675 550.16 420.939Z" fill="white"/>
</g>
<path d="M219.19 408.666V123.317L314.507 111.81L356.394 119.806L370.083 122.412L399.475 128.022L419.064 124.154L432.753 121.452L497.228 108.738V394.087L432.753 406.813L419.064 409.517L399.475 413.383L314.507 397.173L308.977 397.845L292.481 399.834L219.19 408.666Z" fill="#007CFF"/>
<g opacity="0.2">
<path d="M219.19 408.666V123.317L314.507 111.81L356.394 119.806L370.083 122.412L399.475 128.022L419.064 124.154L432.753 121.452L497.228 108.738V394.087L432.753 406.813L419.064 409.517L399.475 413.383L314.507 397.173L308.977 397.845L292.481 399.834L219.19 408.666Z" fill="black"/>
</g>
<path d="M419.063 268.563V247.346C419.063 245.22 417.133 243.616 415.052 244.027L219.189 281.771V267.795L296.902 252.832C298.832 252.448 300.037 250.514 299.517 248.607L284.582 194.171C284.116 192.47 282.419 191.414 280.694 191.757L219.189 203.635V189.659L290.537 175.875C292.261 175.545 293.959 176.602 294.424 178.302L313.137 246.524C313.603 248.223 315.3 249.28 317.025 248.95L353.657 241.887C355.244 241.585 356.394 240.188 356.394 238.568V158.429C356.394 156.796 355.231 155.398 353.629 155.11L309.523 146.963C309.14 146.894 308.757 146.894 308.387 146.949L219.189 161.007V147.127L308.565 133.041C308.948 132.973 309.332 132.987 309.701 133.055L352.411 140.928C354.492 141.312 356.394 139.721 356.394 137.609V119.806L370.083 122.412V234.618C370.083 236.744 372.014 238.35 374.108 237.952L416.325 229.804C417.926 229.502 419.063 228.103 419.063 226.484V124.154L432.752 121.452V222.548C432.752 224.674 434.696 226.265 436.776 225.867L465.236 220.381C466.824 220.079 467.973 218.68 467.973 217.062V147.072C467.973 145.468 469.096 144.082 470.67 143.767L497.227 138.267V152.27L484.359 154.931C482.785 155.26 481.663 156.646 481.663 158.25V213.126C481.663 215.252 483.593 216.843 485.673 216.445L497.227 214.223V228.185L435.489 240.076C433.902 240.392 432.752 241.779 432.752 243.409V339.088C432.752 341.173 434.627 342.765 436.694 342.422L497.227 332.34V346.249L435.585 356.507C433.956 356.781 432.752 358.195 432.752 359.855V406.815L419.063 409.518V289.342C419.063 287.244 417.187 285.653 415.12 286.011L364.348 294.774C363.307 294.952 362.418 295.612 361.925 296.543L308.976 397.846L292.48 399.834L312.713 361.115C313.999 358.66 311.946 355.795 309.208 356.205L219.189 369.934V356.068L321.994 340.391C323.062 340.226 323.979 339.569 324.485 338.608L352.945 284.172C353.424 283.239 354.327 282.594 355.354 282.417L416.27 271.898C417.885 271.61 419.063 270.209 419.063 268.563Z" fill="#007CFF"/>
<path d="M399.474 413.384L419.063 409.518L432.752 406.815L497.227 394.088V108.738L432.752 121.452L419.063 124.155L399.474 128.022L370.083 122.413L356.394 119.806L314.506 111.811L219.189 123.317V408.668L292.48 399.834L308.976 397.846L314.506 397.174L399.474 413.384ZM399.452 406.399L315.786 390.437L314.74 390.237L313.682 390.366L308.157 391.036L291.663 393.025L226.034 400.935V129.399L314.269 118.746L355.117 126.543L368.802 129.149L398.192 134.759L399.496 135.007L400.797 134.75L420.385 130.883L434.074 128.181L490.382 117.077V388.448L431.428 400.087L417.739 402.788L399.452 406.399Z" fill="#1A2E35"/>
<g opacity="0.1">
<path d="M399.474 413.384L419.063 409.518L432.752 406.815L497.227 394.088V108.738L432.752 121.452L419.063 124.155L399.474 128.022L370.083 122.413L356.394 119.806L314.506 111.811L219.189 123.317V408.668L292.48 399.834L308.976 397.846L314.506 397.174L399.474 413.384ZM399.452 406.399L315.786 390.437L314.74 390.237L313.682 390.366L308.157 391.036L291.663 393.025L226.034 400.935V129.399L314.269 118.746L355.117 126.543L368.802 129.149L398.192 134.759L399.496 135.007L400.797 134.75L420.385 130.883L434.074 128.181L490.382 117.077V388.448L431.428 400.087L417.739 402.788L399.452 406.399Z" fill="white"/>
</g>
<g opacity="0.1">
<path d="M399.474 413.384V128.02L314.506 111.811V397.174L399.474 413.384Z" fill="black"/>
</g>
<g opacity="0.5">
<path d="M462.906 226.988C463.556 226.988 464.132 227.454 464.251 228.117C464.386 228.863 463.89 229.576 463.147 229.709L427.283 236.155V277.166C427.283 277.832 426.804 278.403 426.147 278.517L359.106 290.113L326.009 353.013C325.657 353.683 324.829 353.939 324.159 353.587C323.49 353.233 323.234 352.403 323.587 351.734L356.998 288.237C357.197 287.861 357.558 287.598 357.977 287.526L424.545 276.011V235.007C424.545 234.342 425.02 233.774 425.672 233.656L462.662 227.01C462.744 226.995 462.825 226.988 462.906 226.988Z" fill="white"/>
<path d="M322.22 352.373C322.22 350.948 323.374 349.79 324.797 349.79C326.221 349.79 327.375 350.948 327.375 352.373C327.375 353.799 326.221 354.955 324.797 354.955C323.374 354.955 322.22 353.799 322.22 352.373Z" fill="white"/>
<path d="M460.327 228.359C460.327 226.933 461.481 225.778 462.903 225.778C464.327 225.778 465.481 226.933 465.481 228.359C465.481 229.786 464.327 230.942 462.903 230.942C461.481 230.942 460.327 229.786 460.327 228.359Z" fill="white"/>
</g>
<path d="M310.778 327.304C308.328 324.849 308.328 320.868 310.778 318.413C313.229 315.958 317.201 315.96 319.65 318.413C322.101 320.868 322.101 324.849 319.65 327.304C317.201 329.757 313.229 329.757 310.778 327.304ZM326.125 311.926C320.101 305.888 310.329 305.888 304.304 311.926C298.278 317.963 298.278 327.752 304.304 333.79L315.215 344.722L326.127 333.79C332.153 327.752 332.153 317.963 326.125 311.926Z" fill="white"/>
<g opacity="0.2">
<path d="M326.127 311.926C323.089 308.881 319.099 307.376 315.117 307.401V316.582C316.755 316.555 318.402 317.16 319.652 318.412C322.102 320.868 322.102 324.849 319.652 327.304C318.402 328.556 316.755 329.159 315.117 329.135V344.625L315.215 344.722L326.127 333.79C332.152 327.752 332.152 317.963 326.127 311.926Z" fill="black"/>
</g>
<path d="M458.468 200.721C456.018 198.266 456.018 194.286 458.468 191.832C460.918 189.377 464.891 189.377 467.34 191.832C469.79 194.286 469.79 198.266 467.341 200.721C464.891 203.176 460.918 203.176 458.468 200.721ZM473.816 185.344C467.79 179.306 458.019 179.306 451.993 185.344C445.967 191.381 445.967 201.171 451.993 207.209L462.904 218.141L473.816 207.209C479.842 201.171 479.842 191.381 473.816 185.344Z" fill="white"/>
<g opacity="0.2">
<path d="M473.816 185.344C470.778 182.3 466.788 180.796 462.806 180.82V190C464.444 189.974 466.09 190.579 467.341 191.831C469.791 194.286 469.791 198.266 467.341 200.721C466.09 201.974 464.444 202.578 462.806 202.552V218.043L462.904 218.141L473.816 207.209C479.842 201.171 479.842 191.381 473.816 185.344Z" fill="black"/>
</g>
<path d="M73.6052 457.193L81.1769 464.852L99.5145 447.91L91.9341 440.242L73.6052 457.193Z" fill="#FDC2BC"/>
<path d="M83.1117 465.037L73.9127 455.729C73.6006 455.417 73.1146 455.362 72.7423 455.598L64.4413 460.843C63.7034 461.318 63.4912 462.303 63.9649 463.042C64.0292 463.14 64.1031 463.233 64.1866 463.315C67.2119 466.278 69.5637 468.287 73.3008 472.069C75.6033 474.397 82.3054 481.665 85.484 484.882C88.6626 488.096 92.2478 485.37 91.2389 483.764C86.6859 476.585 84.074 470.376 83.8975 466.806C83.8714 466.137 83.5908 465.503 83.1117 465.037Z" fill="#1A2E35"/>
<g opacity="0.2">
<path d="M91.924 440.252L99.5047 447.921L90.044 456.652L82.4633 448.983L91.924 440.252Z" fill="black"/>
</g>
<path d="M83.345 466.891C83.9268 468.083 84.9397 469.01 86.1786 469.485C86.5236 469.504 86.8562 469.354 87.0711 469.081C87.2066 468.926 87.2176 468.802 87.1683 468.751C87.1368 468.641 87.0739 468.544 86.9862 468.47C85.8843 467.715 84.6482 467.179 83.345 466.891ZM82.5715 466.615C82.5182 466.522 82.5264 466.407 82.5921 466.325C82.6523 466.241 82.7577 466.207 82.8549 466.238C83.2984 466.338 87.2628 467.308 87.6639 468.589C87.7638 468.876 87.6858 469.195 87.4654 469.402C87.1478 469.819 86.6372 470.041 86.117 469.988C85.3983 469.847 84.7467 469.464 84.2745 468.903C83.6242 468.205 83.0534 467.438 82.5715 466.615Z" fill="#007CFF"/>
<path d="M86.6743 464.879C85.4546 465.021 84.3074 465.534 83.3862 466.346C84.7592 466.548 86.996 466.259 87.3957 465.669C87.4354 465.61 87.5517 465.456 87.3204 465.222L87.2342 465.135C87.0849 464.984 86.8851 464.894 86.6743 464.879ZM82.4841 466.604C82.4649 466.512 82.495 466.418 82.5635 466.352C82.6798 466.257 85.0603 464.26 86.6565 464.433C87.0507 464.461 87.4135 464.657 87.6503 464.971C87.9323 465.253 87.9747 465.698 87.753 466.03C87.1 466.986 83.905 467.125 82.6962 466.761L82.61 466.674C82.5621 466.665 82.5169 466.64 82.4841 466.604Z" fill="#007CFF"/>
<path d="M197.614 183.182C197.614 183.182 214.72 210.565 217.968 214.062C221.218 217.56 242.654 181.619 244.279 176.832C245.902 172.042 267.343 171.915 268.808 172.521C270.273 173.127 269.286 183.467 265.176 185.623C261.067 187.778 246.956 187.208 246.956 187.208C246.956 187.208 234.531 227.321 219.909 229.362C205.287 231.403 189.354 195.139 189.354 195.139L197.614 183.182Z" fill="#FDC2BC"/>
<path d="M185.088 169.557C195.819 171.472 209.894 200.492 209.894 200.492L197.479 216.773L182.05 202.132L185.088 169.557Z" fill="#007CFF"/>
<g opacity="0.4">
<path d="M209.886 200.506L197.483 216.773L197.073 216.375L182.055 202.125L182.248 200.04L185.082 169.55C195.814 171.471 209.886 200.506 209.886 200.506Z" fill="white"/>
</g>
<g opacity="0.2">
<path d="M197.074 216.375L182.057 202.125L182.248 200.039L187.464 189.466C187.464 189.466 197.005 198.765 197.074 216.375Z" fill="black"/>
</g>
<path d="M182.059 264.471C182.059 264.471 156.669 359.479 139.28 396.916C121.891 434.355 97.3736 453.887 97.3736 453.887L86.0309 439.873C86.0309 439.873 117.922 394.421 124.832 366.369C131.743 338.317 134.045 280.261 134.045 280.261L182.059 264.471Z" fill="#1A2E35"/>
<g opacity="0.2">
<path d="M182.059 264.471C182.059 264.471 156.669 359.479 139.28 396.916C121.891 434.355 97.3736 453.887 97.3736 453.887L86.0309 439.873C86.0309 439.873 117.922 394.421 124.832 366.369C131.743 338.317 134.045 280.261 134.045 280.261L182.059 264.471Z" fill="black"/>
</g>
<path d="M189.54 478.277L199.753 474.86L192.713 450.891L182.487 454.313L189.54 478.277Z" fill="#FDC2BC"/>
<path d="M200.774 473.207L188.373 477.353C187.955 477.496 187.691 477.908 187.738 478.347L188.759 488.128C188.857 489 189.644 489.627 190.516 489.527C190.633 489.514 190.748 489.488 190.859 489.45C194.849 488.041 197.688 486.818 202.726 485.132C205.829 484.096 215.3 481.291 219.585 479.857C223.87 478.424 223.015 473.995 221.133 474.193C212.691 475.106 205.977 474.706 202.704 473.285C202.095 473.011 201.403 472.983 200.774 473.207Z" fill="#1A2E35"/>
<g opacity="0.2">
<path d="M182.49 454.325L192.713 450.903L196.336 463.263L186.113 466.687L182.49 454.325Z" fill="black"/>
</g>
<path d="M202.535 473.817C203.86 473.823 205.139 473.323 206.111 472.418C206.282 472.118 206.294 471.752 206.145 471.44C206.067 471.248 205.958 471.184 205.893 471.206C205.781 471.185 205.666 471.199 205.561 471.244C204.397 471.901 203.37 472.773 202.535 473.817ZM201.947 474.39C201.841 474.397 201.741 474.338 201.696 474.244C201.648 474.153 201.663 474.042 201.735 473.969C202.021 473.614 204.642 470.48 205.967 470.689C206.268 470.726 206.519 470.936 206.608 471.226C206.841 471.695 206.813 472.252 206.535 472.698C206.09 473.281 205.459 473.696 204.747 473.873C203.836 474.148 202.897 474.322 201.947 474.39Z" fill="#007CFF"/>
<path d="M202.21 469.936C201.797 471.095 201.748 472.352 202.069 473.54C202.856 472.395 203.587 470.255 203.236 469.635C203.201 469.575 203.114 469.401 202.802 469.506L202.686 469.545C202.485 469.613 202.316 469.752 202.21 469.936ZM201.899 474.465C201.81 474.44 201.737 474.371 201.709 474.282C201.674 474.135 200.942 471.111 201.803 469.753C202.001 469.412 202.337 469.173 202.724 469.099C203.102 468.971 203.518 469.128 203.717 469.475C204.283 470.486 202.994 473.418 202.133 474.342L202.017 474.381C201.986 474.421 201.947 474.449 201.899 474.465Z" fill="#007CFF"/>
<path d="M124.832 258.23C124.832 258.23 118.1 284.043 125.947 312.273C131.848 333.502 182.232 461.996 182.232 461.996L199.752 456.942L162.703 304.071C162.703 304.071 176.559 284.424 182.059 264.471L124.832 258.23Z" fill="#1A2E35"/>
<path d="M202.617 458.978L180.593 466.348L175.1 458.789L201.111 451.68L202.617 458.978Z" fill="#007CFF"/>
<g opacity="0.3">
<path d="M202.617 458.978L180.593 466.348L175.1 458.79L201.111 451.68L202.617 458.978Z" fill="white"/>
</g>
<path d="M96.6565 460.399L80.3203 443.87L84.6585 435.586L102.525 455.811L96.6565 460.399Z" fill="#007CFF"/>
<g opacity="0.3">
<path d="M96.6565 460.399L80.3203 443.87L84.6585 435.586L102.525 455.811L96.6565 460.399Z" fill="white"/>
</g>
<path d="M131.591 164.616C132.642 176.633 132.798 188.711 132.06 200.752C131.595 209.154 130.78 217.104 129.88 224.3C127.76 241.141 119.183 272.393 119.183 272.393L163.413 284.043L167.419 264.469L171.539 284.043L180.324 278.63C194.003 235.109 194.359 191.211 192.7 178.593C192.143 174.347 189.171 170.814 185.089 169.544C183.074 168.915 180.734 168.23 178.255 167.63C177.286 167.455 176.333 167.186 175.352 166.995C167.297 165.642 159.171 164.754 151.015 164.339C149.474 164.243 147.897 164.195 146.372 164.171C138.578 163.965 131.591 164.616 131.591 164.616Z" fill="#007CFF"/>
<g opacity="0.4">
<path d="M180.318 278.629L171.543 284.047L167.423 264.476L163.412 284.047L119.183 272.389C119.183 272.389 127.766 241.145 129.874 224.302C130.093 222.588 130.298 220.832 130.504 219.036C131.147 213.289 131.708 207.158 132.064 200.753C132.283 197.242 132.42 193.717 132.475 190.206C132.626 181.661 132.338 173.116 131.585 164.613C131.585 164.613 138.58 163.968 146.369 164.174C147.902 164.201 149.477 164.243 151.01 164.339C159.169 164.75 167.3 165.641 175.349 166.999C176.335 167.191 177.279 167.452 178.251 167.63C180.729 168.234 183.07 168.919 185.082 169.55C189.175 170.812 192.145 174.351 192.693 178.589C194.363 191.207 194.007 235.111 180.318 278.629Z" fill="white"/>
</g>
<path d="M156.407 137.078C157.082 145.101 157.062 159.631 151.014 164.27C155.336 169.897 161.883 173.369 168.958 173.787C175.709 174.377 176.563 169.694 175.349 166.927C166.84 163.887 167.764 157.422 169.955 151.489L156.407 137.078Z" fill="#FDC2BC"/>
<g opacity="0.2">
<path d="M161.93 142.964L169.943 151.473C169.422 152.854 169.012 154.278 168.722 155.726C165.438 154.883 161.275 150.719 161.284 147.181C161.239 145.748 161.458 144.317 161.93 142.964Z" fill="black"/>
</g>
<path d="M156.748 125.182C156.223 135.86 155.41 142.096 160.188 148.098C167.349 157.179 180.957 153.735 184.674 143.41C187.984 134.113 188.24 118.189 178.325 112.836C171.264 108.958 162.403 111.552 158.535 118.626C157.433 120.641 156.821 122.886 156.748 125.182Z" fill="#FDC2BC"/>
<path d="M172.507 129.903C172.354 130.753 172.79 131.515 173.361 131.576C173.935 131.638 174.456 130.979 174.555 130.119C174.654 129.259 174.261 128.505 173.701 128.447C173.14 128.388 172.608 129.03 172.507 129.903Z" fill="#1A2E35"/>
<path d="M182.261 130.964C182.11 131.814 182.556 132.576 183.116 132.635C183.676 132.696 184.21 132.039 184.309 131.179C184.409 130.32 184.015 129.565 183.456 129.508C182.895 129.449 182.352 130.143 182.261 130.964Z" fill="#1A2E35"/>
<path d="M179.116 131.053C179.857 133.808 180.975 136.448 182.437 138.896C181.144 139.626 179.595 139.744 178.206 139.222L179.116 131.053Z" fill="#EC837E"/>
<path d="M169.824 126.41C170.009 126.457 170.203 126.402 170.337 126.266C171.203 125.299 172.473 124.8 173.764 124.918C174.039 124.969 174.302 124.785 174.352 124.509C174.403 124.233 174.221 123.97 173.946 123.919H173.943C172.315 123.729 170.697 124.34 169.601 125.561C169.402 125.76 169.402 126.081 169.601 126.278L169.609 126.288C169.675 126.339 169.746 126.381 169.824 126.41Z" fill="#1A2E35"/>
<path d="M173.753 142.724C171.253 142.225 169.152 140.537 168.125 138.198C168.076 138.058 168.147 137.905 168.285 137.851C168.418 137.796 168.57 137.86 168.625 137.993C168.628 137.999 168.629 138.005 168.632 138.01C169.626 140.154 171.569 141.701 173.876 142.19C174.018 142.214 174.113 142.349 174.088 142.491C174.087 142.499 174.084 142.509 174.081 142.519C174.057 142.661 173.923 142.756 173.782 142.731C173.772 142.729 173.762 142.727 173.753 142.724Z" fill="#1A2E35"/>
<path d="M186.818 128.05C186.908 128.098 187.013 128.118 187.115 128.104C187.379 128.013 187.521 127.725 187.431 127.459C187.429 127.455 187.428 127.452 187.427 127.45C186.908 125.886 185.662 124.674 184.087 124.199C183.816 124.135 183.542 124.303 183.477 124.576C183.42 124.849 183.586 125.118 183.854 125.189C185.086 125.599 186.052 126.569 186.459 127.803C186.537 127.935 186.668 128.024 186.818 128.05Z" fill="#1A2E35"/>
<path d="M158.553 134.214C158.553 134.214 165.304 125.477 163.581 117.432C163.581 117.432 168.852 116.416 174.075 119.888C174.075 119.888 174.183 117.046 173.839 116.176C173.839 116.176 183.358 116.844 188.088 122.933C188.088 122.933 188.169 117.207 184.636 113.158C184.636 113.158 186.815 112.686 188.813 113.646C188.813 113.646 181.165 105.572 167.159 107.69C153.154 109.808 147.855 117.443 149.325 129.894C150.795 142.345 156.944 145.856 156.944 145.856C156.944 145.856 155.478 136.328 156.347 134.355C157.215 132.383 158.553 134.214 158.553 134.214Z" fill="#1A2E35"/>
<path d="M150.693 136.369C151.873 138.787 153.962 140.636 156.502 141.512C159.873 142.649 161.743 139.67 160.969 136.381C160.255 133.466 157.657 129.262 154.192 129.585C150.727 129.909 149.282 133.383 150.693 136.369Z" fill="#FDC2BC"/>
<path d="M178.336 107.907C174.658 108.526 171.435 109.392 168.592 110.412C166.11 111.298 163.924 112.29 162.017 113.361C162.004 113.361 162.004 113.375 161.991 113.376C151.681 119.064 149.048 126.421 149.048 126.421C149.048 126.421 148.729 125.479 148.279 124.022C147.831 122.594 147.256 120.68 146.72 118.707V118.694C145.703 114.993 144.853 111.117 145.344 110.013C149.734 100.1 163.671 97.3127 165.545 97.8668C166.677 98.207 171.03 101.735 174.348 104.519C176.028 105.91 177.435 107.126 178.032 107.651C178.235 107.817 178.336 107.907 178.336 107.907Z" fill="#007CFF"/>
<g opacity="0.6">
<path d="M178.032 107.651C175.938 107.923 172.912 108.679 168.592 110.412C166.666 111.18 164.492 112.158 162.017 113.361C162.004 113.361 162.005 113.375 161.991 113.376C154.168 117.188 150.242 121.012 148.279 124.023C147.831 122.596 147.258 120.68 146.72 118.707V118.694C150.575 114.82 160.866 105.834 174.35 104.519C176.028 105.91 177.435 107.126 178.032 107.651Z" fill="white"/>
</g>
<path d="M149.322 129.896C149.322 129.896 139.938 136.501 139.343 132.984C137.824 123.977 162.74 104.204 187.062 104.647C207.025 105.013 185.543 111.129 185.543 111.129C177.6 108.38 148.705 120.97 149.322 129.896Z" fill="#007CFF"/>
<g opacity="0.3">
<path d="M149.322 129.896C149.322 129.896 139.938 136.501 139.343 132.984C137.824 123.977 162.74 104.204 187.062 104.647C207.025 105.013 185.543 111.129 185.543 111.129C177.6 108.38 148.705 120.97 149.322 129.896Z" fill="black"/>
</g>
<path d="M152.216 158.991C152.216 158.991 156.926 163.897 168.109 169.176C168.109 169.176 170.76 167.13 171.101 160.891L178.254 167.63L176.663 178.919L171.906 173.662L169.452 206.468C169.452 206.468 170.997 184.508 165.611 174.727L162.014 180.286C162.014 180.286 149.017 175.783 145.2 164.132L152.216 158.991Z" fill="#007CFF"/>
<g opacity="0.6">
<path d="M178.251 167.63L176.663 178.918L171.913 173.665L169.449 206.472C169.449 206.472 170.996 184.514 165.616 174.721L162.016 180.29C162.016 180.29 149.011 175.777 145.206 164.133L152.215 158.99C152.215 158.99 156.924 163.9 168.107 169.18L168.135 169.153C168.436 168.906 170.791 166.753 171.105 160.896L178.251 167.63Z" fill="white"/>
</g>
<g opacity="0.2">
<path d="M169.942 186.256C169.545 177.985 168.107 169.18 168.107 169.18L168.135 169.153C168.436 168.906 170.791 166.752 171.105 160.896C171.869 162.551 171.802 165.773 170.294 168.035L169.942 186.256Z" fill="black"/>
</g>
<path d="M110.518 280.622C110.518 280.622 112.154 283.154 112.329 287.676C112.504 292.196 111.591 301.04 110.518 302.144C109.887 302.794 99.3558 299.839 98.3332 297.216C97.8664 296.02 99.687 283.877 101.853 280.622C104.02 277.366 110.518 280.622 110.518 280.622Z" fill="#FDC2BC"/>
<g opacity="0.2">
<path d="M144.869 193.302C144.869 193.302 139.905 212.502 130.496 219.034C131.142 213.288 131.706 207.159 132.065 200.754C132.285 197.243 132.424 193.718 132.481 190.208L144.869 193.302Z" fill="black"/>
</g>
<path d="M119.183 189.462C119.183 189.462 106.462 211.894 104.158 219.491C101.854 227.087 101.854 280.622 101.854 280.622H110.518C110.518 280.622 115.933 227.449 119.183 220.576C122.433 213.703 134.045 197.855 134.045 197.855L119.183 189.462Z" fill="#FDC2BC"/>
<path d="M133.761 164.478C127.935 163.544 112.327 197.71 112.327 197.71L128.81 208.051C128.81 208.051 139.54 198.034 144.875 193.301C150.209 188.567 143.237 165.999 133.761 164.478Z" fill="#007CFF"/>
<g opacity="0.4">
<path d="M133.761 164.478C127.935 163.544 112.327 197.71 112.327 197.71L128.81 208.051C128.81 208.051 139.54 198.034 144.875 193.301C150.209 188.567 143.237 165.999 133.761 164.478Z" fill="white"/>
</g>
<path d="M112.328 195.345L131.566 208.059L127.306 211.894L110.247 200.769L112.328 195.345Z" fill="#007CFF"/>
<g opacity="0.6">
<path d="M112.328 195.345L131.566 208.059L127.306 211.894L110.247 200.769L112.328 195.345Z" fill="white"/>
</g>
<path d="M194.259 215.61L208.959 197.835L212.306 202.495L199.417 218.275L194.259 215.61Z" fill="#007CFF"/>
<g opacity="0.6">
<path d="M194.259 215.61L208.959 197.835L212.306 202.495L199.417 218.275L194.259 215.61Z" fill="white"/>
</g>
<path d="M250.534 173.5L265.041 153.343C265.232 153.075 265.562 152.941 265.885 152.999L275.362 154.662C275.991 154.773 276.285 155.506 275.907 156.022L261.072 176.228C260.877 176.495 260.545 176.625 260.222 176.564L251.074 174.85C250.454 174.733 250.165 174.012 250.534 173.5Z" fill="#1A2E35"/>
<path d="M249.494 172.919L264 152.761C264.193 152.494 264.522 152.361 264.846 152.417L274.323 154.082C274.952 154.192 275.245 154.926 274.867 155.44L260.032 175.647C259.836 175.914 259.506 176.045 259.182 175.983L250.033 174.269C249.413 174.153 249.126 173.432 249.494 172.919Z" fill="#1A2E35"/>
<path d="M264.583 153.434L273.657 155.065L259.174 174.588L250.371 172.958L264.583 153.434Z" fill="white"/>
<path d="M303.051 76.9399C303.051 56.5629 286.564 40.0441 266.226 40.0441C245.888 40.0441 229.401 56.5629 229.401 76.9399C229.401 95.6875 243.361 111.16 261.434 113.515L263.223 132.889L266.609 113.826C286.769 113.619 303.051 97.188 303.051 76.9399Z" fill="#007CFF"/>
<g opacity="0.8">
<path d="M303.051 76.9399C303.051 56.5629 286.564 40.0441 266.226 40.0441C245.888 40.0441 229.401 56.5629 229.401 76.9399C229.401 95.6875 243.361 111.16 261.434 113.515L263.223 132.889L266.609 113.826C286.769 113.619 303.051 97.188 303.051 76.9399Z" fill="white"/>
</g>
<path d="M284.187 76.9537L248.254 61.8995L254.16 76.9387L248.269 91.973L284.187 76.9537Z" fill="#007CFF"/>
<g opacity="0.3">
<path d="M254.162 76.9399H284.188L248.265 91.9816L254.162 76.9399Z" fill="black"/>
</g>
</g>
<defs>
<clipPath id="clip0_1_6212">
<rect width="589" height="498" fill="white"/>
</clipPath>
</defs>
</svg>
