<?xml version="1.0" encoding="UTF-8"?><svg version="1.1" viewBox="0 0 20 20" xmlns="http://www.w3.org/2000/svg" xmlns:xlink="http://www.w3.org/1999/xlink"><g transform="matrix(.0390625 0 0 .0390625 0 0)"><circle cx="256" cy="256" r="256" fill="#F0F0F0"></circle><path fill="#D80027" d="M496.077 166.957h-480.154c-10.29 27.733-15.923 57.729-15.923 89.043 0 31.314 5.633 61.31 15.923 89.043h480.155c10.29-27.733 15.922-57.729 15.922-89.043 0-31.314-5.632-61.31-15.923-89.043Z"></path><path fill="#0052B4" d="M256 0c-77.591 0-147.114 34.524-194.061 89.043h388.121c-46.946-54.519-116.469-89.043-194.06-89.043Z"></path><path fill="#0052B4" d="M450.061 422.957h-388.122c46.947 54.519 116.47 89.043 194.061 89.043 77.591 0 147.114-34.524 194.061-89.043Z"></path></g></svg>