<?xml version="1.0" encoding="UTF-8"?><svg version="1.1" viewBox="0 0 20 20" xmlns="http://www.w3.org/2000/svg" xmlns:xlink="http://www.w3.org/1999/xlink"><g transform="matrix(.0390625 0 0 .0390625 0 0)"><circle cx="256" cy="256" r="256" fill="#F0F0F0"></circle><path fill="#D80027" d="M256 0c-83.752 0-158.107 40.223-204.811 102.4h409.622c-46.704-62.177-121.059-102.4-204.811-102.4Z"></path><path fill="#D80027" d="M256 512c83.752 0 158.107-40.223 204.811-102.4h-409.622c46.704 62.177 121.059 102.4 204.811 102.4Z"></path><path fill="#D80027" d="M0 256c0 17.535 1.768 34.657 5.127 51.2h501.748c3.359-16.543 5.125-33.665 5.125-51.2 0-17.535-1.768-34.657-5.126-51.2h-501.747c-3.359 16.543-5.127 33.665-5.127 51.2Z"></path><path fill="#0052B4" d="M74.98 74.98c-99.974 99.974-99.974 262.065 0 362.04 41.313-41.313 81.046-81.046 181.02-181.02l-181.02-181.02Z"></path><polygon fill="#F0F0F0" points="103.61,189.217 120.185,240.233 173.831,240.233 130.433,271.765 147.007,322.783 103.61,291.252 60.211,322.783 76.789,271.765 33.391,240.233 87.033,240.233"></polygon></g></svg>