<?xml version="1.0" encoding="UTF-8"?><svg version="1.1" viewBox="0 0 20 20" xmlns="http://www.w3.org/2000/svg" xmlns:xlink="http://www.w3.org/1999/xlink"><g transform="matrix(.0390625 0 0 .0390625 0 0)"><path fill="#F0F0F0" d="M496.077 345.043c10.29-27.733 15.923-57.729 15.923-89.043 0-31.314-5.633-61.31-15.923-89.043l-240.077-22.261 -240.077 22.261c-10.29 27.733-15.923 57.729-15.923 89.043 0 31.314 5.633 61.31 15.923 89.043l240.077 22.261 240.077-22.261Z"></path><path fill="#D80027" d="M256 512c110.07 0 203.906-69.472 240.076-166.957h-480.154c36.172 97.485 130.006 166.957 240.078 166.957Z"></path><path fill="#496E2D" d="M256 0c-110.072 0-203.906 69.472-240.078 166.957h480.155c-36.171-97.485-130.007-166.957-240.077-166.957Z"></path><polygon fill="#000" points="256,200.348 269.813,242.861 314.516,242.861 278.351,269.138 292.166,311.652 256,285.379 219.834,311.652 233.649,269.138 197.484,242.861 242.187,242.861"></polygon><path fill="#F0F0F0" d="M332.058 50.087v51.941c0 8.185-6.657 14.841-14.84 14.841v22.261c20.458 0 37.101-16.643 37.101-37.102v-51.941h-22.261Z"></path><path fill="#F0F0F0" d="M172.522 102.028c0 8.185-6.657 14.841-14.841 14.841v22.261c20.459 0 37.102-16.643 37.102-37.102v-51.941h-22.261v51.941Z"></path><rect width="22.261" height="51.941" x="298.663" y="50.087" fill="#F0F0F0"></rect><path fill="#F0F0F0" d="M265.275 79.767c0 2.046-1.665 3.711-3.71 3.711 -2.046 0-3.711-1.665-3.711-3.711v-29.68h-22.261v29.68c0 2.046-1.664 3.711-3.71 3.711 -2.046 0-3.71-1.665-3.71-3.711v-29.68h-22.261v29.68c0 14.322 11.65 25.972 25.971 25.972 5.515 0 10.631-1.733 14.84-4.676 4.211 2.943 9.326 4.676 14.841 4.676 1.111 0 2.203-.078 3.277-.215 -1.578 6.499-7.431 11.345-14.407 11.345v22.261c20.458 0 37.101-16.643 37.101-37.102v-22.261 -29.68h-22.261l.001 29.68v0Z"></path><rect width="33.391" height="22.261" x="205.913" y="116.87" fill="#F0F0F0"></rect></g></svg>