<?xml version="1.0" encoding="UTF-8"?><svg version="1.1" viewBox="0 0 20 20" xmlns="http://www.w3.org/2000/svg" xmlns:xlink="http://www.w3.org/1999/xlink"><g transform="matrix(.0390625 0 0 .0390625 0 0)"><circle cx="256" cy="256" r="256" fill="#FFDA44"></circle><path fill="#6DA544" d="M411.856 52.92c-43.167-33.181-97.202-52.92-155.856-52.92 -58.654 0-112.69 19.74-155.857 52.92l155.857 155.856 155.856-155.856Z"></path><path fill="#000" d="M52.919 100.144c-33.179 43.167-52.919 97.202-52.919 155.856 0 58.654 19.74 112.69 52.92 155.858l155.857-155.858 -155.858-155.856Z"></path><path fill="#6DA544" d="M100.143 459.08c43.168 33.181 97.203 52.92 155.857 52.92 58.654 0 112.689-19.74 155.857-52.92l-155.857-155.856 -155.857 155.856Z"></path><path fill="#000" d="M459.08 411.856c33.181-43.167 52.92-97.202 52.92-155.856 0-58.654-19.739-112.689-52.92-155.856l-155.856 155.856 155.856 155.856Z"></path></g></svg>