<?xml version="1.0" encoding="UTF-8"?><svg version="1.1" viewBox="0 0 20 20" xmlns="http://www.w3.org/2000/svg" xmlns:xlink="http://www.w3.org/1999/xlink"><g transform="matrix(.0390625 0 0 .0390625 0 0)"><circle cx="256" cy="256" r="256" fill="#F0F0F0"></circle><path fill="#0052B4" d="M352.393 200.348h-64.263l-32.13-55.652 -32.129 55.652h-64.264l32.134 55.652 -32.134 55.652h64.264l32.129 55.652 32.13-55.652h64.263l-32.134-55.652 32.134-55.652Zm-56.918 55.652l-19.736 34.188h-39.475l-19.739-34.188 19.738-34.188h39.475l19.737 34.188Zm-39.475-68.377l7.346 12.724h-14.69l7.344-12.724Zm-59.214 34.189h14.692l-7.346 12.724 -7.346-12.724Zm0 68.376l7.347-12.724 7.346 12.724h-14.693Zm59.214 34.188l-7.345-12.724h14.691l-7.346 12.724Zm59.214-34.188h-14.692l7.347-12.724 7.345 12.724Zm-14.692-68.376h14.692l-7.346 12.724 -7.346-12.724Z"></path><path fill="#0052B4" d="M415.357 55.652h-318.714c-23.363 18.608-43.399 41.21-59.069 66.783h436.852c-15.671-25.572-35.707-48.175-59.069-66.783Z"></path><path fill="#0052B4" d="M96.643 456.348h318.713c23.363-18.608 43.399-41.21 59.069-66.783h-436.851c15.671 25.572 35.707 48.175 59.069 66.783Z"></path></g></svg>