<?xml version="1.0" encoding="UTF-8"?><svg version="1.1" viewBox="0 0 20 20" xmlns="http://www.w3.org/2000/svg" xmlns:xlink="http://www.w3.org/1999/xlink"><g transform="matrix(.0390625 0 0 .0390625 0 0)"><circle cx="256" cy="256" r="256" fill="#F0F0F0"></circle><path fill="#0052B4" d="M469.33 286.637c-21.333 0-21.333-19.506-42.667-19.506 -21.333 0-21.333 19.506-42.665 19.506 -21.332 0-21.333-19.506-42.665-19.506 -21.333 0-21.333 19.506-42.667 19.506 -21.334 0-21.335-19.506-42.67-19.506 -21.333 0-21.333 19.506-42.665 19.506 -21.33 0-21.33-19.506-42.663-19.506 -21.335 0-21.335 19.506-42.67 19.506 -21.335 0-21.335-19.506-42.67-19.506 -21.33 0-21.33 19.506-42.663 19.506 -21.218 0-21.341-19.291-42.332-19.497 .591 11.709 1.989 23.206 4.103 34.449 17.004 2.497 18.493 19.18 38.231 19.18 21.333 0 21.333-19.504 42.663-19.504 21.335 0 21.335 19.504 42.67 19.504 21.335 0 21.335-19.504 42.67-19.504 21.333 0 21.333 19.504 42.663 19.504 21.333 0 21.333-19.504 42.665-19.504 21.335 0 21.335 19.504 42.67 19.504 21.335 0 21.335-19.504 42.667-19.504 21.333 0 21.333 19.504 42.665 19.504 21.333 0 21.333-19.504 42.665-19.504 21.335 0 21.335 19.504 42.667 19.504 19.739 0 21.228-16.682 38.233-19.18 2.115-11.244 3.511-22.739 4.105-34.449 -20.996.207-21.121 19.497-42.34 19.497Z"></path><path fill="#0052B4" d="M426.663 333.913c-21.333 0-21.333 19.506-42.665 19.506 -21.332 0-21.333-19.506-42.665-19.506 -21.333 0-21.333 19.506-42.667 19.506 -21.335 0-21.335-19.506-42.67-19.506 -21.333 0-21.333 19.506-42.665 19.506 -21.33 0-21.33-19.506-42.663-19.506 -21.335 0-21.335 19.506-42.67 19.506 -21.335 0-21.335-19.506-42.67-19.506 -21.33 0-21.33 19.506-42.663 19.506 -15.715 0-19.864-10.578-29.487-16.15 5.828 17.419 13.483 33.998 22.728 49.522 2.002.483 4.228.761 6.758.761 21.333 0 21.333-19.504 42.663-19.504 21.335 0 21.335 19.504 42.67 19.504 21.335 0 21.335-19.504 42.67-19.504 21.333 0 21.333 19.504 42.663 19.504 21.333 0 21.333-19.504 42.665-19.504 21.335 0 21.335 19.504 42.67 19.504 21.335 0 21.335-19.504 42.667-19.504 21.333 0 21.333 19.504 42.665 19.504 21.332 0 21.333-19.504 42.665-19.504 21.335 0 21.335 19.504 42.667 19.504 2.532 0 4.76-.278 6.763-.762 9.246-15.523 16.9-32.102 22.727-49.52 -9.623 5.572-13.773 16.15-29.49 16.15 -21.331-.001-21.331-19.507-42.666-19.507Z"></path><path fill="#0052B4" d="M506.044 200.941c-15.594 3.237-17.582 18.913-36.714 18.913 -21.333 0-21.333-19.506-42.667-19.506 -21.333 0-21.333 19.506-42.665 19.506 -21.332 0-21.333-19.506-42.665-19.506 -21.333 0-21.333 19.506-42.667 19.506 -21.334 0-21.335-19.506-42.67-19.506 -11.527 0-16.827 5.694-22.628 10.93v34.133c5.801-5.235 11.1-10.928 22.628-10.928 21.335 0 21.335 19.504 42.67 19.504 21.335 0 21.335-19.504 42.667-19.504 21.333 0 21.333 19.504 42.665 19.504 21.332 0 21.333-19.504 42.665-19.504 21.335 0 21.335 19.504 42.667 19.504 19.739 0 21.228-16.682 38.233-19.18 1.09 0 2.308-.011 3.555-.026 -.945-11.513-2.655-22.809-5.074-33.84Z"></path><path fill="#0052B4" d="M487.344 146.274c-4.421 3.713-9.531 6.797-18.013 6.797 -21.333 0-21.333-19.506-42.667-19.506 -21.333 0-21.333 19.506-42.665 19.506 -21.332 0-21.333-19.506-42.665-19.506 -21.333 0-21.333 19.506-42.667 19.506 -21.334 0-21.335-19.506-42.67-19.506 -11.527 0-16.827 5.694-22.628 10.93v34.133c5.801-5.235 11.1-10.928 22.628-10.928 21.335 0 21.335 19.504 42.67 19.504 21.333 0 21.333-19.504 42.666-19.504 21.333 0 21.333 19.504 42.665 19.504 21.332 0 21.332-19.504 42.665-19.504 21.335 0 21.335 19.504 42.667 19.504 15.137 0 19.546-9.805 28.446-15.507 -3.033-8.697-6.516-17.182-10.432-25.423Z"></path><path fill="#0052B4" d="M428.485 66.835c-.592-.032-1.195-.052-1.822-.052 -21.333 0-21.333 19.506-42.665 19.506 -21.333 0-21.333-19.506-42.665-19.506 -21.333 1.42109e-14-21.333 19.506-42.668 19.506 -21.335 0-21.335-19.506-42.67-19.506 -11.527 0-16.827 5.694-22.628 10.93v34.133c5.801-5.235 11.1-10.928 22.628-10.928 21.335 0 21.335 19.504 42.67 19.504 21.335 0 21.335-19.504 42.667-19.504 21.333 0 21.333 19.504 42.665 19.504 21.332 0 21.333-19.504 42.665-19.504 21.335 0 21.335 19.504 42.667 19.504 1.314 0 2.541-.078 3.703-.217 -12.391-19.764-27.395-37.721-44.547-53.37Z"></path><polygon fill="#0052B4" points="255.996,0 255.992,0 255.997,0"></polygon><path fill="#0052B4" d="M321.432 8.454c-5.856 5.268-11.148 11.054-22.767 11.054 -21.335 0-21.335-19.504-42.669-19.506h-.004c-11.032.001-16.358 5.218-21.882 10.257v34.134c5.523-5.039 10.851-10.257 21.886-10.257 21.335 0 21.335 19.504 42.67 19.504 21.334 0 21.334-19.504 42.667-19.504 21.333 0 21.333 19.504 42.665 19.504 8.951 0 14.143-3.436 18.735-7.422 -24.336-17.055-51.774-29.981-81.301-37.764Z"></path><path fill="#0052B4" d="M298.665 486.984c-21.335 0-21.335-19.506-42.67-19.506 -21.333 0-21.333 19.506-42.665 19.506 -21.33 0-21.33-19.506-42.663-19.506 -16.341 0-20.174 11.434-30.654 16.792 28.9 14.714 60.967 24.093 94.907 26.86 5.249-4.796 10.581-9.518 21.075-9.518 10.497 0 15.829 4.722 21.079 9.519 33.941-2.766 66.01-12.146 94.911-26.86 -10.482-5.357-14.314-16.794-30.653-16.794 -21.332.001-21.332 19.507-42.667 19.507Z"></path><path fill="#0052B4" d="M383.998 420.202c-21.333 0-21.333-19.506-42.665-19.506 -21.333 0-21.333 19.506-42.667 19.506 -21.335 0-21.335-19.506-42.67-19.506 -21.333 0-21.333 19.506-42.665 19.506 -21.33 0-21.33-19.506-42.663-19.506 -21.335 0-21.335 19.506-42.67 19.506 -21.335 0-21.335-19.506-42.67-19.506 -15.341 0-19.649 10.09-28.794 15.755 5.732 7.118 11.826 13.932 18.275 20.392 2.889-1.234 6.279-2.013 10.518-2.013 21.335 0 21.335 19.504 42.67 19.504 21.335 0 21.335-19.504 42.67-19.504 21.333 0 21.333 19.504 42.663 19.504 21.333 0 21.333-19.504 42.665-19.504 21.335 0 21.335 19.504 42.67 19.504 21.335 0 21.335-19.504 42.667-19.504 21.332 0 21.333 19.504 42.665 19.504 21.332 0 21.333-19.504 42.665-19.504 4.244 0 7.634.779 10.525 2.015 6.45-6.461 12.544-13.275 18.276-20.393 -9.146-5.664-13.454-15.755-28.8-15.755 -21.333-.001-21.333 19.505-42.665 19.505Z"></path><path fill="#F0F0F0" d="M256 0c-.016 0-.028 0-.043 0h.043v0Z"></path><path fill="#F0F0F0" d="M255.315 256h.685c0-.23 0-.454 0-.685 -.228.229-.456.457-.685.685Z"></path><polygon fill="#496E2D" points="289.391,256 289.391,256 289.391,255.999"></polygon><polygon fill="#0052B4" points="256,133.565 256,208.778 166.957,122.435"></polygon><polygon fill="#0052B4" points="133.566,256 208.776,256 133.565,155.826 122.435,233.739"></polygon><path fill="#F0F0F0" d="M256 133.565c0-45.045 0-74.56 0-133.565h-.043c-141.365.024-255.957 114.629-255.957 256h133.566v-75.211l75.21 75.211h46.54c.228-.228.456-.456.685-.685 0-17.247 0-32.636 0-46.537l-75.213-75.213h75.212Z"></path><path fill="#D80027" d="M129.515 33.391c-40.039 22.799-73.325 56.085-96.124 96.124v126.485h66.783v-155.824 -.002h155.826c0-21.063 0-41.129 0-66.783h-126.485Z"></path><path fill="#D80027" d="M256 224.519l-90.955-90.953h-31.48v.002l122.433 122.432h.002c0 0 0-21.707 0-31.481Z"></path><polygon fill="#6DA544" points="333.913,133.565 434.087,133.565 384,183.652"></polygon><rect width="22.261" height="61.217" x="372.87" y="172.522" fill="#A2001D"></rect><rect width="22.261" height="61.217" x="372.87" y="333.913" fill="#A2001D"></rect><path fill="#FFDA44" d="M450.783 300.522c0-18.441-14.95-33.391-33.391-33.391 -8.554 0-16.352 3.22-22.261 8.509v-19.64h11.13v-22.261h-11.13v-11.13h-22.261v11.13h-11.13v22.261h11.13v19.64c-5.909-5.289-13.707-8.509-22.261-8.509 -18.441 0-33.391 14.95-33.391 33.391 0 9.887 4.301 18.767 11.13 24.882v19.64h111.304v-19.64c6.83-6.115 11.131-14.995 11.131-24.882Z"></path><path fill="#D80027" d="M417.391 289.391c-3.511 0-5.969 1.542-7.414 2.834l-14.847 13.291h-22.26l-14.847-13.291c-1.445-1.292-3.903-2.834-7.414-2.834 -6.137 0-11.13 4.993-11.13 11.13 0 4.323 2.331 7.054 3.72 8.299l7.411 6.636v7.326h66.783v-7.326l7.411-6.636c1.389-1.244 3.72-3.976 3.72-8.299 -.002-6.137-4.995-11.13-11.133-11.13Z"></path></g></svg>