<?xml version="1.0" encoding="UTF-8"?><svg version="1.1" viewBox="0 0 20 20" xmlns="http://www.w3.org/2000/svg" xmlns:xlink="http://www.w3.org/1999/xlink"><g transform="matrix(.0390625 0 0 .0390625 0 0)"><circle cx="256" cy="256" r="256" fill="#F0F0F0"></circle><path fill="#FF9811" d="M256 0c-101.494 0-189.19 59.065-230.598 144.696h461.195c-41.407-85.631-129.104-144.696-230.597-144.696Z"></path><path fill="#6DA544" d="M256 512c101.493 0 189.19-59.065 230.598-144.696h-461.196c41.408 85.631 129.104 144.696 230.598 144.696Z"></path><circle cx="256" cy="256" r="89.043" fill="#0052B4"></circle><circle cx="256" cy="256" r="55.652" fill="#F0F0F0"></circle><polygon fill="#0052B4" points="256,187.326 273.169,226.264 315.473,221.663 290.337,256 315.473,290.337 273.169,285.736 256,324.674 238.831,285.736 196.527,290.336 221.663,256 196.527,221.663 238.831,226.264"></polygon></g></svg>