<?xml version="1.0" encoding="UTF-8"?><svg version="1.1" viewBox="0 0 20 20" xmlns="http://www.w3.org/2000/svg" xmlns:xlink="http://www.w3.org/1999/xlink"><g transform="matrix(.0390625 0 0 .0390625 0 0)"><path fill="#FFDA44" d="M483.574 138.616c-11.829-22.919-27.334-44.431-46.546-63.643 -19.213-19.213-40.726-34.718-63.644-46.546l-180.349 164.606 -164.607 180.349c11.829 22.919 27.334 44.432 46.546 63.644 19.212 19.212 40.725 34.717 63.643 46.546l180.349-164.607 164.608-180.349Z"></path><path fill="#D80027" d="M74.974 437.027c10.739 10.739 22.198 20.317 34.217 28.75l356.584-356.586c-8.431-12.019-18.009-23.478-28.748-34.217 -10.74-10.739-22.198-20.316-34.217-28.748l-356.584 356.584c8.431 12.017 18.008 23.478 28.748 34.217Z"></path><path fill="#338AF3" d="M74.974 74.972c-80.767 80.767-96.272 202.065-46.546 298.41l344.956-344.955c-96.346-49.725-217.644-34.218-298.41 46.545Z"></path><path fill="#338AF3" d="M437.027 437.027c80.766-80.766 96.27-202.064 46.547-298.409l-344.956 344.955c96.345 49.725 217.644 34.221 298.409-46.546Z"></path><polygon fill="#FFDA44" points="136.426,77.905 150.24,120.422 194.944,120.422 158.778,146.698 172.592,189.214 136.426,162.937 100.258,189.214 114.074,146.698 77.906,120.422 122.61,120.422"></polygon></g></svg>