<?xml version="1.0" encoding="UTF-8"?><svg version="1.1" viewBox="0 0 20 20" xmlns="http://www.w3.org/2000/svg" xmlns:xlink="http://www.w3.org/1999/xlink"><g transform="matrix(.0390625 0 0 .0390625 0 0)"><path fill="#A2001D" d="M512 256c0 141.384-114.616 256-256 256 -141.384 0-256-114.616-256-256 0-141.384 256-256 256-256 0 0 256 114.616 256 256Z"></path><path fill="#0052B4" d="M0 256c0-141.384 114.616-256 256-256 141.384 0 256 114.616 256 256"></path><polygon fill="#F0F0F0" points="345.043,322.783 256,311.652 166.957,322.783 166.957,189.217 345.043,189.217"></polygon><circle cx="256" cy="267.13" r="44.522" fill="#0052B4"></circle><circle cx="256" cy="267.13" r="22.261" fill="#A2001D"></circle><polygon fill="#6DA544" points="222.609,211.478 289.391,211.478 256,244.87"></polygon><rect width="22.261" height="66.783" x="244.87" y="233.739" fill="#FFDA44"></rect><polygon fill="#6DA544" points="291.617,293.843 220.381,293.843 166.957,322.783 345.043,322.783"></polygon></g></svg>