<?xml version="1.0" encoding="UTF-8"?><svg version="1.1" viewBox="0 0 20 20" xmlns="http://www.w3.org/2000/svg" xmlns:xlink="http://www.w3.org/1999/xlink"><g transform="matrix(.0390625 0 0 .0390625 0 0)"><path fill="#F0F0F0" d="M0 256c0 39.89 9.127 77.648 25.402 111.304l230.598 11.131 230.598-11.13c16.275-33.657 25.402-71.415 25.402-111.305 0-39.89-9.127-77.648-25.402-111.304l-230.598-11.131 -230.598 11.13c-16.275 33.657-25.402 71.415-25.402 111.305Z"></path><path fill="#6DA544" d="M256 512c101.493 0 189.19-59.065 230.598-144.696h-461.196c41.408 85.631 129.104 144.696 230.598 144.696Z"></path><path fill="#0052B4" d="M256 0c-101.494 0-189.19 59.065-230.598 144.696h461.195c-41.407-85.631-129.104-144.696-230.597-144.696Z"></path><path fill="#000" d="M272.696 250.435v-61.217h-33.391v61.217l-40.33 40.331c11.729 19.2 32.88 32.017 57.026 32.017 24.146 0 45.296-12.817 57.026-32.017l-40.331-40.331Z"></path></g></svg>