<?xml version="1.0" encoding="UTF-8"?><svg version="1.1" viewBox="0 0 20 20" xmlns="http://www.w3.org/2000/svg" xmlns:xlink="http://www.w3.org/1999/xlink"><g transform="matrix(.0390625 0 0 .0390625 0 0)"><circle cx="256" cy="256" r="256" fill="#496E2D"></circle><path fill="#FFDA44" d="M256 295.751c-42.626 0-78.236-29.958-86.973-69.963 -1.342 6.15-2.07 12.527-2.07 19.081 0 49.179 39.865 89.043 89.043 89.043 49.178 0 89.043-39.865 89.043-89.043 0-6.554-.728-12.931-2.07-19.082 -8.737 40.007-44.347 69.964-86.973 69.964Z"></path><polygon fill="#FFDA44" points="255.999,178.087 264.287,203.596 291.11,203.596 269.411,219.361 277.699,244.87 255.999,229.104 234.3,244.87 242.589,219.361 220.89,203.596 247.711,203.596"></polygon></g></svg>