<?xml version="1.0" encoding="UTF-8"?><svg version="1.1" viewBox="0 0 20 20" xmlns="http://www.w3.org/2000/svg" xmlns:xlink="http://www.w3.org/1999/xlink"><g transform="matrix(.0390625 0 0 .0390625 0 0)"><path fill="#FFDA44" d="M367.304 25.402c-33.656-16.274-71.414-25.402-111.304-25.402 -39.89 0-77.648 9.128-111.304 25.402l-22.261 230.598 22.261 230.598c33.656 16.274 71.414 25.402 111.304 25.402 39.89 0 77.648-9.128 111.304-25.402l22.261-230.598 -22.261-230.598Z"></path><path fill="#0052B4" d="M144.696 25.411c-85.63 41.407-144.696 129.096-144.696 230.589 0 101.493 59.066 189.182 144.696 230.589v-461.178Z"></path><path fill="#D80027" d="M367.304 25.411v461.178c85.63-41.407 144.696-129.096 144.696-230.589 0-101.493-59.066-189.182-144.696-230.589Z"></path><path fill="#FF9811" d="M345.043 201.419h-61.217c0-15.368-12.458-27.826-27.826-27.826 -15.368 0-27.826 12.458-27.826 27.826h-61.217c0 15.131 13.181 27.396 28.31 27.396h-.912c0 15.132 12.266 27.399 27.398 27.399 0 13.397 9.622 24.529 22.33 26.909l-21.59 48.742c10.345 4.205 21.651 6.542 33.507 6.542 11.855 0 23.162-2.337 33.506-6.542l-21.589-48.742c12.708-2.38 22.33-13.512 22.33-26.909 15.132 0 27.398-12.267 27.398-27.399h-.913c15.131 0 28.311-12.266 28.311-27.396Z"></path><polygon fill="#0052B4" points="256,239.304 219.826,256 219.826,289.391 256,311.652 292.174,289.391 292.174,256"></polygon><rect width="72.348" height="33.391" x="219.826" y="222.609" fill="#D80027"></rect></g></svg>