<?xml version="1.0" encoding="UTF-8"?><svg version="1.1" viewBox="0 0 20 20" xmlns="http://www.w3.org/2000/svg" xmlns:xlink="http://www.w3.org/1999/xlink"><g transform="matrix(.0390625 0 0 .0390625 0 0)"><circle cx="256" cy="256" r="256" fill="#F0F0F0"></circle><path fill="#D80027" d="M256 0c-.239-.18-256.068 255.933-256 256 0-141.384 114.616-256 256-256Z"></path><path fill="#D80027" d="M256 0c.239-.18 256.068 255.932 256 256 0-141.384-114.616-256-256-256Z"></path><path fill="#0052B4" d="M256 512c-.239.18-256.068-255.932-256-256 0 141.384 114.616 256 256 256Z"></path><path fill="#0052B4" d="M256 512c.239.18 256.068-255.932 256-256 0 141.384-114.616 256-256 256Z"></path><polygon fill="#FFDA44" points="256,133.565 283.628,218.594 373.033,218.594 300.702,271.144 328.33,356.174 256,303.623 183.67,356.174 211.298,271.144 138.968,218.594 228.372,218.594"></polygon></g></svg>