<?xml version="1.0" encoding="UTF-8"?><svg version="1.1" viewBox="0 0 20 20" xmlns="http://www.w3.org/2000/svg" xmlns:xlink="http://www.w3.org/1999/xlink"><g transform="matrix(.0390625 0 0 .0390625 0 0)"><circle cx="256" cy="256" r="256" fill="#FCFCFC"></circle><path fill="#FFDA44" d="M299.479 178.846c0-24.012-19.466-43.478-43.479-43.478 -24.013 0-43.479 19.466-43.479 43.478h-95.651c0 23.641 20.594 42.808 44.235 42.808h-1.424c0 23.643 19.164 42.811 42.809 42.811 0 20.933 15.034 38.327 34.889 42.045l-.111.25h37.465l-.111-.25c19.856-3.72 34.889-21.113 34.889-42.045 23.644 0 42.809-19.168 42.809-42.811h-1.426c23.641 0 44.236-19.167 44.236-42.808h-95.651Z"></path><path fill="#FFDA44" d="M236.887 302.324l-26.958 60.863c14.224 5.782 29.771 8.996 46.072 8.996 16.301 0 31.848-3.213 46.071-8.996l-26.957-60.863h-38.228Z"></path><path fill="#F0F0F0" d="M200.348 200.227v74.891c0 42.598 55.652 55.652 55.652 55.652 0 0 55.652-13.054 55.652-55.652v-74.891l-111.304 2.84217e-14v0Z"></path><path fill="#338AF3" d="M62.079 257.802l30.099 84.184 29.786-84.184h22.732l-43.426 111.304h-18.185l-43.737-111.304h22.731v0Z"></path><path fill="#338AF3" d="M411.826 369.106v-111.304h21.633v111.304h-21.633Z"></path><path fill="#D80027" d="M222.609 224.411v90.754c7.651 5.631 15.883 9.504 22.261 11.984v-102.738h-22.261Z"></path><path fill="#D80027" d="M289.391 224.411v90.754c-7.651 5.631-15.883 9.504-22.261 11.984v-102.738h22.261Z"></path><rect width="111.304" height="35.316" x="200.348" y="200.225" fill="#0052B4"></rect></g></svg>