<?xml version="1.0" encoding="UTF-8"?><svg version="1.1" viewBox="0 0 20 20" xmlns="http://www.w3.org/2000/svg" xmlns:xlink="http://www.w3.org/1999/xlink"><g transform="matrix(.0390625 0 0 .0390625 0 0)"><circle cx="256" cy="256" r="256" fill="#F0F0F0"></circle><path fill="#FFDA44" d="M138.371 356.174l-63.382 80.837c46.324 46.33 110.317 74.989 181.011 74.989 105.83 0 196.644-64.229 235.631-155.826h-353.26Z"></path><path fill="#496E2D" d="M492.029 156.753c-38.769-92.091-129.841-156.753-236.029-156.753 -70.694 0-134.687 28.659-181.011 74.989l64.11 81.764 352.93-2.84217e-14v0Z"></path><path fill="#000" d="M55.652 188.29v134.492h447.53c5.742-21.291 8.818-43.675 8.818-66.782 0-23.442-3.158-46.142-9.061-67.71h-447.287v0Z"></path><path fill="#A2001D" d="M74.98 74.98c-99.974 99.974-99.974 262.065 0 362.04 41.313-41.313 81.046-81.046 181.02-181.02l-181.02-181.02Z"></path><polygon fill="#FFDA44" points="103.61,189.217 120.185,240.233 173.831,240.233 130.433,271.765 147.007,322.783 103.61,291.252 60.211,322.783 76.789,271.765 33.391,240.233 87.033,240.233"></polygon><rect width="97.024" height="44.522" x="55.107" y="256" fill="#F0F0F0"></rect><polygon fill="#000" points="170.5,204.959 154.759,189.217 103.611,240.365 52.463,189.217 36.722,204.959 87.915,256.061 36.722,307.255 52.463,322.783 103.611,271.727 154.759,322.783 170.5,307.255 119.307,256.061"></polygon></g></svg>