<?xml version="1.0" encoding="UTF-8"?><svg version="1.1" viewBox="0 0 20 20" xmlns="http://www.w3.org/2000/svg" xmlns:xlink="http://www.w3.org/1999/xlink"><g transform="matrix(.0390625 0 0 .0390625 0 0)"><circle cx="256" cy="256" r="256" fill="#F0F0F0"></circle><path fill="#0052B4" d="M496.077 166.957h-273.468v-66.783h-133.566v66.783h-73.12c-10.29 27.732-15.923 57.729-15.923 89.043 0 31.314 5.633 61.31 15.923 89.043l240.077 22.261 240.077-22.261c10.29-27.733 15.923-57.729 15.923-89.043 0-31.314-5.633-61.311-15.923-89.043Z"></path><path fill="#D80027" d="M256 512c110.071 0 203.906-69.472 240.077-166.957h-480.154c36.171 97.485 130.006 166.957 240.077 166.957Z"></path><path fill="#F0F0F0" d="M89.043 166.957v22.26c0 51.121 66.783 66.784 66.783 66.784 0 0 66.783-15.663 66.783-66.784v-22.26l-22.261 22.261 -44.522-33.391 -44.522 33.391 -22.261-22.261Z"></path></g></svg>