<?xml version="1.0" encoding="UTF-8"?><svg version="1.1" viewBox="0 0 20 20" xmlns="http://www.w3.org/2000/svg" xmlns:xlink="http://www.w3.org/1999/xlink"><g transform="matrix(.0390625 0 0 .0390625 0 0)"><circle cx="256" cy="256" r="256" fill="#6DA544"></circle><path fill="#F0F0F0" d="M144.696 306.087c0 18.441 14.95 33.391 33.391 33.391h100.174c0 15.368 12.458 27.826 27.826 27.826h33.391c15.368 0 27.826-12.458 27.826-27.826v-33.391h-222.608Z"></path><path fill="#F0F0F0" d="M370.087 144.696v77.913c0 12.275-9.986 22.261-22.261 22.261v33.391c30.687 0 55.652-24.966 55.652-55.652v-77.913h-33.391Z"></path><path fill="#F0F0F0" d="M130.783 222.609c0 12.275-9.986 22.261-22.261 22.261v33.391c30.687 0 55.652-24.966 55.652-55.652v-77.913h-33.391v77.913Z"></path><rect width="33.391" height="77.913" x="320" y="144.696" fill="#F0F0F0"></rect><path fill="#F0F0F0" d="M269.913 189.217c0 3.069-2.497 5.565-5.565 5.565 -3.068 0-5.565-2.497-5.565-5.565v-44.522h-33.391v44.522c0 3.069-2.497 5.565-5.565 5.565 -3.068 0-5.565-2.497-5.565-5.565v-44.522h-33.392v44.522c0 21.481 17.476 38.957 38.957 38.957 8.273 0 15.945-2.6 22.261-7.016 6.315 4.415 13.988 7.016 22.261 7.016 1.666 0 3.304-.117 4.915-.322 -2.366 9.749-11.146 17.017-21.611 17.017v33.391c30.687 0 55.652-24.966 55.652-55.652v-33.391 -44.522h-33.391v44.522Z"></path><rect width="50.087" height="33.391" x="180.87" y="244.87" fill="#F0F0F0"></rect></g></svg>