<?xml version="1.0" encoding="UTF-8"?><svg version="1.1" viewBox="0 0 20 20" xmlns="http://www.w3.org/2000/svg" xmlns:xlink="http://www.w3.org/1999/xlink"><g transform="matrix(.0390625 0 0 .0390625 0 0)"><path fill="#F0F0F0" d="M512 256c0-31.314-5.633-61.311-15.923-89.043l-240.077-11.131 -240.077 11.13c-10.29 27.733-15.923 57.73-15.923 89.044 0 31.314 5.633 61.311 15.923 89.043l240.077 11.131 240.077-11.13c10.29-27.733 15.923-57.73 15.923-89.044Z"></path><path fill="#0052B4" d="M256 512c110.071 0 203.906-69.472 240.077-166.957h-480.154c36.171 97.485 130.006 166.957 240.077 166.957Z"></path><path fill="#D80027" d="M15.923 166.957h480.155c-36.172-97.485-130.007-166.957-240.078-166.957 -110.071 0-203.906 69.472-240.077 166.957Z"></path><polygon fill="#338AF3" points="322.783,178.088 278.261,178.088 285.682,122.435 315.362,100.174 345.043,122.435 345.043,166.957"></polygon><polygon fill="#338AF3" points="189.217,178.088 233.739,178.088 226.318,122.435 196.637,100.174 166.957,122.435 166.957,166.957"></polygon><polygon fill="#0052B4" points="285.682,178.088 226.318,178.088 226.318,122.435 256,100.174 285.682,122.435"></polygon><path fill="#F0F0F0" d="M166.957 166.958v122.434c0 29.153 14.082 55.079 35.802 71.332l15.583-3.899 19.664 19.782c5.815 1.198 11.832 1.829 17.995 1.829 6.13 0 12.117-.623 17.901-1.809l22.447-18.69 12.892 2.751c21.711-16.252 35.803-42.151 35.803-71.296v-122.434h-178.087Z"></path><rect width="35.617" height="35.617" x="166.957" y="166.957" fill="#D80027"></rect><rect width="35.617" height="35.617" x="238.191" y="166.957" fill="#D80027"></rect><rect width="35.617" height="35.617" x="309.426" y="166.957" fill="#D80027"></rect><rect width="35.617" height="35.617" x="202.574" y="202.574" fill="#D80027"></rect><rect width="35.617" height="35.617" x="273.809" y="202.574" fill="#D80027"></rect><rect width="35.617" height="35.617" x="166.957" y="238.18" fill="#D80027"></rect><rect width="35.617" height="35.617" x="202.574" y="273.798" fill="#D80027"></rect><rect width="35.617" height="35.617" x="238.191" y="238.18" fill="#D80027"></rect><rect width="35.617" height="35.617" x="309.426" y="238.18" fill="#D80027"></rect><rect width="35.617" height="35.617" x="273.809" y="273.798" fill="#D80027"></rect><rect width="35.617" height="35.617" x="238.191" y="309.415" fill="#D80027"></rect><path fill="#D80027" d="M202.574 309.418h-33.319c3.056 13.24 9.064 25.355 17.302 35.617h16.017v-35.617Z"></path><path fill="#D80027" d="M309.426 345.036h16.016c8.24-10.262 14.246-22.378 17.302-35.617h-33.318v35.617Z"></path><path fill="#D80027" d="M202.574 345.036v15.541c10.359 7.795 22.465 13.384 35.617 16.066v-31.607h-35.617Z"></path><path fill="#D80027" d="M273.809 345.036v31.607c13.153-2.68 25.258-8.271 35.617-16.066v-15.541h-35.617Z"></path></g></svg>