<?xml version="1.0" encoding="UTF-8"?><svg version="1.1" viewBox="0 0 20 20" xmlns="http://www.w3.org/2000/svg" xmlns:xlink="http://www.w3.org/1999/xlink"><g transform="matrix(.0390625 0 0 .0390625 0 0)"><path fill="#0052B4" d="M256 512c31.314 0 61.311-5.632 89.043-15.923l11.131-240.077 -11.13-240.077c-27.733-10.29-57.73-15.923-89.044-15.923 -31.314 0-61.311 5.633-89.043 15.923l-11.131 240.077 11.13 240.077c27.733 10.291 57.73 15.923 89.044 15.923Z"></path><path fill="#A2001D" d="M0 256c0 110.071 69.472 203.906 166.957 240.077v-480.154c-97.485 36.171-166.957 130.006-166.957 240.077Z"></path><path fill="#A2001D" d="M345.043 15.923v480.155c97.485-36.172 166.957-130.007 166.957-240.078 0-110.071-69.472-203.906-166.957-240.077Z"></path><rect width="22.261" height="89.043" x="122.435" y="256" fill="#FFDA44"></rect><rect width="22.261" height="89.043" x="33.391" y="256" fill="#FFDA44"></rect><circle cx="89.043" cy="289.391" r="22.261" fill="#FFDA44"></circle><circle cx="89.043" cy="211.478" r="11.13" fill="#FFDA44"></circle><rect width="44.522" height="22.261" x="66.783" y="322.783" fill="#FFDA44"></rect><rect width="44.522" height="22.261" x="66.783" y="233.739" fill="#FFDA44"></rect><polygon fill="#FFDA44" points="89.043,133.565 96.927,157.825 122.435,157.825 101.8,172.819 109.678,197.079 89.043,182.085 68.409,197.079 76.287,172.819 55.652,157.825 81.16,157.825"></polygon></g></svg>