<?xml version="1.0" encoding="UTF-8"?><svg version="1.1" viewBox="0 0 20 20" xmlns="http://www.w3.org/2000/svg" xmlns:xlink="http://www.w3.org/1999/xlink"><g transform="matrix(.0390625 0 0 .0390625 0 0)"><path fill="#0052B4" d="M512 256c0 141.384-114.616 256-256 256 -141.384 0-256-114.616-256-256 0 .061 256-255.972 256-256 141.384 0 256 114.616 256 256Z"></path><path fill="#F0F0F0" d="M256 0c-.014 0-.029 0-.043 0h.043v0Z"></path><path fill="#F0F0F0" d="M255.315 256h.685c0-.23 0-.454 0-.685 -.228.229-.456.457-.685.685Z"></path><path fill="#F0F0F0" d="M256 133.565c0-45.045 0-74.56 0-133.565h-.043c-141.365.024-255.957 114.629-255.957 256h133.565v-75.211l75.212 75.211h46.539c.228-.228.457-.456.685-.685 0-17.247 0-32.636 0-46.537l-75.213-75.213h75.212Z"></path><path fill="#D80027" d="M129.515 33.391c-40.039 22.799-73.325 56.085-96.124 96.124v126.485h66.783v-155.824 -.002h155.826c0-21.063 0-41.129 0-66.783h-126.485Z"></path><path fill="#D80027" d="M256 224.519l-90.953-90.953c0 0-31.481.002-31.481 0v.002l122.433 122.432h.001c0 0 0-21.707 0-31.481Z"></path><polygon fill="#D80027" points="443.33,189.959 448.855,206.965 466.736,206.965 452.27,217.475 457.796,234.48 443.33,223.971 428.863,234.48 434.389,217.475 419.922,206.965 437.803,206.965"></polygon><polygon fill="#D80027" points="379.411,312.393 387.7,337.903 414.521,337.903 392.821,353.667 401.111,379.176 379.411,363.411 357.711,379.176 366.001,353.667 344.301,337.903 371.122,337.903"></polygon><polygon fill="#D80027" points="381.825,112.046 388.733,133.305 411.084,133.305 393,146.44 399.908,167.698 381.825,154.559 363.743,167.698 370.65,146.44 352.568,133.305 374.918,133.305"></polygon><polygon fill="#D80027" points="320.322,189.217 328.61,214.727 355.432,214.727 333.732,230.491 342.022,256 320.322,240.235 298.622,256 306.912,230.491 285.212,214.727 312.033,214.727"></polygon></g></svg>