<?xml version="1.0" encoding="UTF-8"?><svg version="1.1" viewBox="0 0 20 20" xmlns="http://www.w3.org/2000/svg" xmlns:xlink="http://www.w3.org/1999/xlink"><g transform="matrix(.0390625 0 0 .0390625 0 0)"><path fill="#0052B4" d="M0 256c0 17.535 1.768 34.657 5.127 51.2l250.873 15.583 250.874-15.583c3.36-16.543 5.126-33.665 5.126-51.2 0-17.535-1.768-34.657-5.126-51.2l-250.874-15.583 -250.873 15.583c-3.359 16.543-5.127 33.665-5.127 51.2Z"></path><path fill="#F0F0F0" d="M506.874 307.2h-501.747c23.719 116.85 127.024 204.8 250.873 204.8 123.849 0 227.154-87.95 250.874-204.8Z"></path><path fill="#000" d="M5.127 204.8h501.748c-23.721-116.85-127.024-204.8-250.875-204.8 -123.851 0-227.154 87.95-250.873 204.8Z"></path><polygon fill="#FFDA44" points="367.304,204.8 144.696,204.8 190.176,183.406 165.957,139.361 215.342,148.806 221.602,98.917 256,135.611 290.4,98.917 296.656,148.806 346.043,139.361 321.826,183.408"></polygon><path fill="#A2001D" d="M0 256c0 141.384 114.616 256 256 256l-204.804-409.609c-32.144 42.789-51.196 95.972-51.196 153.609Z"></path><path fill="#A2001D" d="M256 512c141.384 0 256-114.616 256-256 0-57.637-19.052-110.82-51.196-153.609l-204.804 409.609Z"></path></g></svg>