<?xml version="1.0" encoding="UTF-8"?><svg version="1.1" viewBox="0 0 20 20" xmlns="http://www.w3.org/2000/svg" xmlns:xlink="http://www.w3.org/1999/xlink"><g transform="matrix(.0390625 0 0 .0390625 0 0)"><circle cx="256" cy="256" r="256" fill="#F0F0F0"></circle><path fill="#000" d="M256 0c-70.693 0-134.693 28.654-181.02 74.98l181.02 181.02v-256Z"></path><path fill="#000" d="M0 256c0 70.693 28.654 134.693 74.98 181.02l181.02-181.02h-256Z"></path><path fill="#000" d="M256 512c70.693 0 134.693-28.654 181.02-74.98l-181.02-181.02v256Z"></path><path fill="#000" d="M512 256c0-70.693-28.654-134.693-74.98-181.02l-181.02 181.02h256Z"></path><polygon fill="#FFDA44" points="166.957,178.087 256,189.22 345.043,178.087 345.043,124.661 309.426,142.47 256,89.043 202.574,142.47 166.957,124.661"></polygon><path fill="#D80027" d="M256 389.565c-49.099 0-89.043-39.945-89.043-89.043v-89.039l33.391-33.394h111.304l33.391 33.394v89.039c0 49.098-39.944 89.043-89.043 89.043Z"></path><path fill="#F0F0F0" d="M256 356.174c-30.687 0-55.652-24.966-55.652-55.652v-89.042h111.304v89.041c0 30.687-24.965 55.653-55.652 55.653Z"></path><rect width="33.391" height="33.391" x="166.957" y="178.087" fill="#FFDA44"></rect><rect width="33.391" height="33.391" x="311.652" y="178.087" fill="#FFDA44"></rect><rect width="33.391" height="33.391" x="311.652" y="250.435" fill="#FFDA44"></rect><rect width="33.391" height="33.391" x="166.957" y="250.435" fill="#FFDA44"></rect><path fill="#FFDA44" d="M256 356.174c-5.816 0-11.423-.9-16.696-2.562v34.361c5.412 1.032 10.988 1.593 16.696 1.593 5.708 0 11.284-.561 16.696-1.593v-34.361c-5.273 1.661-10.88 2.562-16.696 2.562Z"></path><path fill="#FFDA44" d="M201.092 309.556l-26.648 26.648c4.62 10.519 11.212 19.978 19.314 27.908l23.6-23.6c-8.422-8.137-14.289-18.897-16.266-30.956Z"></path><path fill="#FFDA44" d="M337.556 336.206l-26.648-26.648c-1.978 12.058-7.844 22.817-16.265 30.957l23.6 23.6c8.1-7.931 14.693-17.39 19.313-27.909Z"></path><path fill="#0052B4" d="M244.87 230.03v18.55c0 6.146 4.983 11.13 11.13 11.13 6.147 0 11.13-4.984 11.13-11.13v-18.55h-22.26Z"></path><path fill="#0052B4" d="M244.87 304.233v18.55c0 6.146 4.983 11.13 11.13 11.13 6.147 0 11.13-4.984 11.13-11.13v-18.55h-22.26v0Z"></path><path fill="#0052B4" d="M278.261 267.13v18.552c0 6.146 4.983 11.13 11.13 11.13 6.147 0 11.13-4.984 11.13-11.13v-18.552h-22.26Z"></path><path fill="#0052B4" d="M244.87 267.13v18.552c0 6.146 4.983 11.13 11.13 11.13 6.147 0 11.13-4.984 11.13-11.13v-18.552h-22.26Z"></path><path fill="#0052B4" d="M211.478 267.13v18.552c0 6.146 4.983 11.13 11.13 11.13 6.147 0 11.13-4.984 11.13-11.13v-18.552h-22.26Z"></path></g></svg>