<?xml version="1.0" encoding="UTF-8"?><svg version="1.1" viewBox="0 0 20 20" xmlns="http://www.w3.org/2000/svg" xmlns:xlink="http://www.w3.org/1999/xlink"><g transform="matrix(.0390625 0 0 .0390625 0 0)"><path fill="#D80027" d="M0 256c0-141.384 114.616-256 256-256 141.384 0 256 114.616 256 256"></path><polygon fill="#FFDA44" points="345.043,238.078 308.658,255.191 328.034,290.43 288.525,282.871 283.519,322.783 256,293.428 228.48,322.783 223.475,282.871 183.966,290.428 203.341,255.191 166.957,238.078 203.341,220.962 183.966,185.727 223.474,193.283 228.481,153.373 256,182.726 283.52,153.373 288.525,193.283 328.035,185.727 308.661,220.965"></polygon><path fill="#FFDA44" d="M322.783 83.478h-50.087c0-9.219-7.476-16.696-16.696-16.696 -9.22 0-16.696 7.476-16.696 16.696h-50.087c0 9.22 8.032 16.696 17.252 16.696h-.557c0 9.22 7.474 16.696 16.696 16.696 0 9.22 7.474 16.696 16.696 16.696h33.391c9.219 0 16.696-7.475 16.696-16.696 9.219 0 16.696-7.475 16.696-16.696h-.557c9.221-1.42109e-14 17.253-7.475 17.253-16.696Z"></path><path fill="#F0F0F0" d="M512 256c0 141.384-114.616 256-256 256 -141.384 0-256-114.616-256-256 11.13 0 512 0 512 0Z"></path><path fill="#0052B4" d="M256 512c80.022 0 151.456-36.724 198.402-94.228 -8.444-5.757-13.003-15.063-27.739-15.063 -21.333 0-21.333 19.506-42.665 19.506 -21.332 0-21.333-19.506-42.665-19.506 -21.333 0-21.333 19.506-42.667 19.506 -21.334 0-21.335-19.506-42.67-19.506 -21.333 0-21.333 19.506-42.665 19.506 -21.33 0-21.33-19.506-42.663-19.506 -21.335 0-21.335 19.506-42.67 19.506 -21.335 0-21.335-19.506-42.67-19.506 -14.734 0-19.293 9.304-27.733 15.061 46.944 57.506 118.382 94.23 198.405 94.23Z"></path><path fill="#0052B4" d="M469.33 288.65c-21.333 0-21.333-19.506-42.667-19.506 -21.333 0-21.333 19.506-42.665 19.506 -21.332 0-21.333-19.506-42.665-19.506 -21.333 0-21.333 19.506-42.667 19.506 -21.334 0-21.335-19.506-42.67-19.506 -21.333 0-21.333 19.506-42.665 19.506 -21.33 0-21.33-19.506-42.663-19.506 -21.335 0-21.335 19.506-42.67 19.506 -21.335 0-21.335-19.506-42.67-19.506 -21.33 0-21.33 19.506-42.663 19.506 -21.218 0-21.341-19.291-42.332-19.497 .591 11.71 1.989 23.206 4.103 34.448 17.004 2.499 18.493 19.182 38.23 19.182 21.333 0 21.333-19.504 42.663-19.504 21.335 0 21.335 19.504 42.67 19.504 21.335 0 21.335-19.504 42.67-19.504 21.333 0 21.333 19.504 42.663 19.504 21.333 0 21.333-19.504 42.665-19.504 21.335 0 21.335 19.504 42.67 19.504 21.335 0 21.335-19.504 42.667-19.504 21.333 0 21.333 19.504 42.665 19.504 21.332 0 21.333-19.504 42.665-19.504 21.335 0 21.335 19.504 42.667 19.504 19.739 0 21.228-16.682 38.233-19.181 2.115-11.243 3.511-22.738 4.105-34.448 -20.995.207-21.12 19.496-42.339 19.496Z"></path><path fill="#0052B4" d="M426.663 335.927c-21.333 0-21.333 19.506-42.665 19.506 -21.332 0-21.333-19.506-42.665-19.506 -21.333 0-21.333 19.506-42.667 19.506 -21.335 0-21.335-19.506-42.67-19.506 -21.333 0-21.333 19.506-42.665 19.506 -21.33 0-21.33-19.506-42.663-19.506 -21.335 0-21.335 19.506-42.67 19.506 -21.335 0-21.335-19.506-42.67-19.506 -21.33 0-21.33 19.506-42.663 19.506 -15.243 0-19.597-9.956-28.622-15.644 6.008 17.359 13.824 33.872 23.237 49.308 1.637.302 3.419.469 5.385.469 21.333 0 21.333-19.504 42.663-19.504 21.335 0 21.335 19.504 42.67 19.504 21.335 0 21.335-19.504 42.67-19.504 21.333 0 21.333 19.504 42.663 19.504 21.333 0 21.333-19.504 42.665-19.504 21.335 0 21.335 19.504 42.67 19.504 21.335 0 21.335-19.504 42.667-19.504 21.333 0 21.333 19.504 42.665 19.504 21.332 0 21.333-19.504 42.665-19.504 21.335 0 21.335 19.504 42.667 19.504 1.968 0 3.75-.167 5.387-.47 9.413-15.435 17.228-31.948 23.239-49.306 -9.026 5.685-13.381 15.643-28.626 15.643 -21.332 0-21.332-19.506-42.667-19.506Z"></path><path fill="#F0F0F0" d="M511.206 235.775c-20.53.485-20.813 19.484-41.876 19.484 -21.333 0-21.333-19.506-42.667-19.506 -21.333 0-21.333 19.506-42.665 19.506 -21.332 0-21.333-19.506-42.665-19.506 -21.333 0-21.333 19.506-42.667 19.506 -21.334 0-21.335-19.506-42.67-19.506 -21.333 0-21.333 19.506-42.665 19.506 -21.33 0-21.33-19.506-42.663-19.506 -21.335 0-21.335 19.506-42.67 19.506 -21.335 0-21.335-19.506-42.67-19.506 -21.33 0-21.33 19.506-42.663 19.506 -21.059 0-21.344-18.997-41.872-19.484 -.521 6.674-.793 13.418-.793 20.225 0 4.663.132 9.296.381 13.897 20.943.235 21.082 19.494 42.285 19.494 21.333 0 21.333-19.504 42.663-19.504 21.335 0 21.335 19.504 42.67 19.504 21.335 0 21.335-19.504 42.67-19.504 21.333 0 21.333 19.504 42.663 19.504 21.333 0 21.333-19.504 42.665-19.504 21.335 0 21.335 19.504 42.67 19.504 21.335 0 21.335-19.504 42.667-19.504 21.333 0 21.333 19.504 42.665 19.504 21.332 0 21.333-19.504 42.665-19.504 21.335 0 21.335 19.504 42.667 19.504 21.205 0 21.344-19.259 42.291-19.494 .246-4.602.378-9.234.378-13.897 0-6.807-.272-13.551-.794-20.225Z"></path></g></svg>