<?xml version="1.0" encoding="UTF-8"?><svg version="1.1" viewBox="0 0 20 20" xmlns="http://www.w3.org/2000/svg" xmlns:xlink="http://www.w3.org/1999/xlink"><g transform="matrix(.0390625 0 0 .0390625 0 0)"><circle cx="256" cy="256" r="256" fill="#0052B4"></circle><path fill="#F0F0F0" d="M365.865 273.86c.942-5.817 1.439-11.782 1.439-17.86 0 6.078-.497 12.043-1.439 17.86l45.961-17.86 -45.961-17.859 -25.245-9.809 -41.015-15.937 -15.937-41.015c26.874 8.809 48.141 30.076 56.951 56.951l25.245 9.809c-7.629-47.096-44.91-84.378-92.005-92.006l-17.859-45.96 -17.86 45.961c-47.096 7.63-84.376 44.91-92.005 92.006l-45.961 17.859 45.962 17.86c7.629 47.096 44.909 84.376 92.005 92.005l17.859 45.961 17.86-45.961c47.095-7.629 84.376-44.91 92.005-92.005Zm-83.457-44.267l-26.408 26.407h94.365l-67.958 26.408 -26.407-26.408v94.366l-26.408-67.959 26.408-26.407h-94.365l67.957-26.407 26.408 26.407v-94.365l26.408 67.958Zm-54.077-58.212l-15.938 41.015 -41.013 15.937c8.809-26.877 30.076-48.142 56.951-56.952Zm-56.95 112.288l41.012 15.937 15.938 41.013c-26.875-8.81-48.14-30.075-56.95-56.95Zm112.288 56.95l15.937-41.013 41.013-15.937c-8.81 26.875-30.075 48.14-56.95 56.95Z"></path><polygon fill="#0052B4" points="350.365,256 256,256 282.408,282.408"></polygon><polygon fill="#0052B4" points="161.635,256 256,256 229.592,229.593"></polygon><polygon fill="#0052B4" points="256,350.366 256,256 229.592,282.408"></polygon><polygon fill="#0052B4" points="256,256 282.408,229.593 256,161.635"></polygon><rect width="22.261" height="44.522" x="244.87" y="33.391" fill="#F0F0F0"></rect><rect width="44.522" height="22.261" x="33.391" y="244.87" fill="#F0F0F0"></rect><rect width="22.261" height="44.522" x="244.87" y="434.087" fill="#F0F0F0"></rect><rect width="44.522" height="22.261" x="434.087" y="244.87" fill="#F0F0F0"></rect></g></svg>