<?xml version="1.0" encoding="UTF-8"?><svg version="1.1" viewBox="0 0 20 20" xmlns="http://www.w3.org/2000/svg" xmlns:xlink="http://www.w3.org/1999/xlink"><g transform="matrix(.0390625 0 0 .0390625 0 0)"><circle cx="256" cy="256" r="256" fill="#F0F0F0"></circle><path fill="#D80027" d="M411.876 52.902c-91.652-70.526-220.1-70.526-311.752-.001l155.876 155.876 155.876-155.875Z"></path><path fill="#D80027" d="M255.998 303.224l-155.874 155.874c91.652 70.526 220.1 70.526 311.752 0l-155.876-155.876 -.002.002Z"></path><path fill="#6DA544" d="M208.777 256l-155.875-155.876c-70.526 91.652-70.526 220.1 1.42109e-14 311.752l155.875-155.876v0Z"></path><path fill="#6DA544" d="M303.224 256l155.874 155.876c70.526-91.652 70.526-220.1 0-311.752l-155.874 155.876v0Z"></path><circle cx="256" cy="256" r="111.304" fill="#F0F0F0"></circle><polygon fill="#D80027" points="256,178.087 265.639,194.783 284.918,194.783 275.278,211.478 284.918,228.174 265.639,228.174 256,244.87 246.361,228.174 227.083,228.174 236.722,211.478 227.083,194.783 246.361,194.783"></polygon><polygon fill="#D80027" points="207.005,256 216.644,272.696 235.922,272.696 226.283,289.391 235.922,306.087 216.644,306.087 207.005,322.783 197.365,306.087 178.087,306.087 187.726,289.391 178.087,272.696 197.365,272.696"></polygon><polygon fill="#D80027" points="304.996,256 314.635,272.696 333.913,272.696 324.274,289.391 333.913,306.087 314.635,306.087 304.996,322.783 295.356,306.087 276.078,306.087 285.717,289.391 276.078,272.696 295.356,272.696"></polygon></g></svg>