<?xml version="1.0" encoding="UTF-8"?><svg version="1.1" viewBox="0 0 20 20" xmlns="http://www.w3.org/2000/svg" xmlns:xlink="http://www.w3.org/1999/xlink"><g transform="matrix(.0390625 0 0 .0390625 0 0)"><circle cx="256" cy="256" r="256" fill="#FFDA44"></circle><path fill="#6DA544" d="M155.826 166.957h340.25c-36.17-97.485-130.006-166.957-240.076-166.957 -70.694 0-134.687 28.659-181.011 74.989l80.837 91.968Z"></path><path fill="#6DA544" d="M155.826 345.043h340.25c-36.17 97.485-130.006 166.957-240.076 166.957 -70.694 0-134.687-28.659-181.011-74.989l80.837-91.968Z"></path><path fill="#D80027" d="M74.98 74.98c-99.974 99.974-99.974 262.065 0 362.04 41.313-41.313 81.046-81.046 181.02-181.02l-181.02-181.02Z"></path><polygon fill="#000" points="325.074,211.478 336.125,245.49 371.887,245.49 342.955,266.51 354.006,300.522 325.074,279.501 296.142,300.522 307.192,266.51 278.261,245.49 314.023,245.49"></polygon><polygon fill="#000" points="436.379,211.478 447.429,245.49 483.191,245.49 454.26,266.51 465.31,300.522 436.379,279.501 407.446,300.522 418.497,266.51 389.565,245.49 425.327,245.49"></polygon></g></svg>