<?xml version="1.0" encoding="UTF-8"?><svg version="1.1" viewBox="0 0 20 20" xmlns="http://www.w3.org/2000/svg" xmlns:xlink="http://www.w3.org/1999/xlink"><g transform="matrix(.0390625 0 0 .0390625 0 0)"><circle cx="256" cy="256" r="256" fill="#496E2D"></circle><path fill="#D80027" d="M356.174 256h-100.174v256c29.924 0 58.641-5.151 85.333-14.586l14.841-241.414Z"></path><path fill="#FF9811" d="M426.666 446.793c52.368-46.874 85.334-114.98 85.334-190.793h-100.174l14.84 190.793Z"></path><path fill="#000" d="M341.333 256v241.414c31.797-11.241 60.711-28.58 85.334-50.62v-190.794h-85.334Z"></path><path fill="#FF9811" d="M473.043 166.957h-66.783c0-12.294-9.967-22.261-22.261-22.261 -12.294 0-22.261 9.967-22.261 22.261h-66.783c0 12.295 10.709 22.261 23.002 22.261h-.741c0 12.295 9.965 22.261 22.261 22.261 0 12.295 9.965 22.261 22.261 22.261h44.522c12.294 0 22.261-9.966 22.261-22.261 12.294 0 22.261-9.966 22.261-22.261h-.741c12.294-.001 23.002-9.967 23.002-22.261Z"></path></g></svg>