<?xml version="1.0" encoding="UTF-8"?><svg version="1.1" viewBox="0 0 20 20" xmlns="http://www.w3.org/2000/svg" xmlns:xlink="http://www.w3.org/1999/xlink"><g transform="matrix(.0390625 0 0 .0390625 0 0)"><path fill="#FFDA44" d="M367.304 25.402c-33.656-16.274-71.414-25.402-111.304-25.402 -39.89 0-77.648 9.128-111.304 25.402l-22.261 230.598 22.261 230.598c33.656 16.274 71.414 25.402 111.304 25.402 39.89 0 77.648-9.128 111.304-25.402l22.261-230.598 -22.261-230.598Z"></path><polygon fill="#496E2D" points="255.998,166.957 278.098,234.977 349.626,234.977 291.762,277.02 313.863,345.043 255.998,303.003 198.133,345.043 220.238,277.02 162.374,234.977 233.897,234.977"></polygon><path fill="#496E2D" d="M144.696 25.411c-85.63 41.407-144.696 129.096-144.696 230.589 0 101.493 59.066 189.182 144.696 230.589v-461.178Z"></path><path fill="#D80027" d="M367.304 25.411v461.178c85.63-41.407 144.696-129.096 144.696-230.589 0-101.493-59.066-189.182-144.696-230.589Z"></path></g></svg>