<?xml version="1.0" encoding="UTF-8"?><svg version="1.1" viewBox="0 0 20 20" xmlns="http://www.w3.org/2000/svg" xmlns:xlink="http://www.w3.org/1999/xlink"><g transform="matrix(.0390625 0 0 .0390625 0 0)"><path fill="#D80027" d="M512 256c0 141.384-114.616 256-256 256 -141.384 0-256-114.616-256-256 87.93-87.93 162.504-162.504 256-256 141.384 0 256 114.616 256 256Z"></path><path fill="#0052B4" d="M256 256c0-141.384 0-158.052 0-256 -141.384 0-256 114.616-256 256h256Z"></path><polygon fill="#F0F0F0" points="222.609,149.821 191.344,164.529 207.992,194.808 174.043,188.312 169.74,222.609 146.094,197.385 122.446,222.609 118.145,188.312 84.195,194.806 100.843,164.527 69.579,149.821 100.844,135.116 84.195,104.836 118.144,111.331 122.447,77.035 146.094,102.259 169.741,77.035 174.043,111.331 207.993,104.836 191.344,135.117"></polygon><circle cx="146.098" cy="149.816" r="47.653" fill="#0052B4"></circle><path fill="#F0F0F0" d="M146.094 175.213c-14.001 0-25.391-11.391-25.391-25.392 0-14.001 11.391-25.392 25.391-25.392 14.001 0 25.392 11.391 25.392 25.392 -.001 14.001-11.393 25.392-25.392 25.392Z"></path></g></svg>