<?xml version="1.0" encoding="UTF-8"?><svg version="1.1" viewBox="0 0 20 20" xmlns="http://www.w3.org/2000/svg" xmlns:xlink="http://www.w3.org/1999/xlink"><g transform="matrix(.0390625 0 0 .0390625 0 0)"><circle cx="256" cy="256" r="256" fill="#FFDA44"></circle><path fill="#A2001D" d="M512 256c0-87.861-44.269-165.375-111.713-211.478h-288.574c-67.443 46.103-111.713 123.617-111.713 211.478 0 87.863 44.27 165.375 111.713 211.478h288.574c67.444-46.103 111.713-123.615 111.713-211.478Z"></path><polygon fill="#FFDA44" points="200.348,189.217 311.652,189.217 311.652,144.696 289.391,155.826 256,122.435 222.609,155.826 200.348,144.696"></polygon><path fill="#FFDA44" d="M356.174 256h-55.631c2.182-3.774 3.45-8.141 3.45-12.813 0-14.187-11.501-25.686-25.686-25.686 -9.801 0-18.313 5.492-22.644 13.562 -4.331-8.071-12.843-13.562-22.644-13.562 -14.185 0-25.686 11.499-25.686 25.686 0 4.673 1.27 9.04 3.45 12.813h-54.959c0 17.023 14.827 30.822 31.849 30.822h-1.026c0 13.963 9.287 25.753 22.02 29.54l-25.017 25.019 23.611 23.611 33.493-33.493c1.312.481 2.669.865 4.072 1.129l-20.238 45.695c9.698 3.944 20.297 6.133 31.412 6.133 11.114 0 21.713-2.189 31.412-6.133l-20.238-45.695c1.402-.263 2.759-.648 4.07-1.129l33.493 33.493 23.61-23.611 -25.018-25.018c12.732-3.789 22.02-15.577 22.02-29.54h-1.027c17.024-.001 31.852-13.8 31.852-30.823Z"></path><polygon fill="#6DA544" points="256,272.696 219.826,289.391 219.826,322.783 256,345.043 292.174,322.783 292.174,289.391"></polygon><rect width="72.348" height="44.522" x="219.826" y="256" fill="#0052B4"></rect></g></svg>