<?xml version="1.0" encoding="UTF-8"?><svg version="1.1" viewBox="0 0 20 20" xmlns="http://www.w3.org/2000/svg" xmlns:xlink="http://www.w3.org/1999/xlink"><g transform="matrix(.0390633 0 0 .0390633 0 0)"><circle cx="255.997" cy="255.996" r="255.957" fill="#F0F0F0"></circle><path fill="#000" d="M34.33 128.016c-11.553 20.008-20.075 40.926-25.75 62.233l428.058 247.141c15.615-15.569 29.471-33.41 41.021-53.417l-443.329-255.957Z"></path><path fill="#FFDA44" d="M383.974 34.329c-102.416-59.129-228.696-39.422-308.623 40.27l428.058 247.139c29.053-109.062-17.021-228.279-119.435-287.409Z"></path><path fill="#FFDA44" d="M128.017 477.66c102.414 59.129 228.697 39.422 308.622-40.269l-428.059-247.142c-29.051 109.065 17.021 228.282 119.437 287.411Z"></path><path fill="#D80027" d="M328.331 228.173c0 39.949-32.386 72.336-72.336 72.336 -39.95 0-72.336-32.386-72.336-72.336 0-12.456 3.149-24.177 8.695-34.41 -15.697 16.053-25.388 38.005-25.388 62.231 0 49.169 39.859 89.029 89.029 89.029 49.17 0 89.029-39.859 89.029-89.029 0-24.226-9.69-46.178-25.388-62.231 5.546 10.235 8.695 21.954 8.695 34.41Z"></path><rect width="33.386" height="166.929" x="239.304" y="144.71" fill="#D80027"></rect><path fill="#D80027" d="M311.638 178.095h-111.285c0 7.683 6.693 13.911 14.375 13.911h-.464c0 7.683 6.229 13.911 13.911 13.911 0 7.683 6.229 13.911 13.911 13.911h27.821c7.683 0 13.911-6.228 13.911-13.911 7.683 0 13.911-6.228 13.911-13.911h-.463c7.68-.001 14.372-6.227 14.372-13.911Z"></path><rect width="155.8" height="33.386" x="178.097" y="322.767" fill="#D80027"></rect><rect width="66.771" height="33.386" x="289.382" y="333.896" fill="#D80027"></rect><rect width="66.771" height="33.386" x="155.84" y="333.896" fill="#D80027"></rect></g></svg>