<?xml version="1.0" encoding="UTF-8"?><svg version="1.1" viewBox="0 0 20 20" xmlns="http://www.w3.org/2000/svg" xmlns:xlink="http://www.w3.org/1999/xlink"><g transform="matrix(.0390625 0 0 .0390625 0 0)"><circle cx="256" cy="256" r="256" fill="#F0F0F0"></circle><path fill="#D80027" d="M345.043 256c0 22.261-39.866 77.913-89.043 77.913 -49.177 0-89.043-55.652-89.043-77.913 0-49.178 39.866-89.043 89.043-89.043 49.177 0 89.043 39.865 89.043 89.043Z"></path><path fill="#0052B4" d="M345.043 256c0 49.178-39.866 89.043-89.043 89.043 -49.177 0-89.043-39.865-89.043-89.043"></path><rect width="33.391" height="22.261" x="353.427" y="319.639" fill="#000" transform="matrix(.7071 -.7071 .7071 .7071 -125.483 358.596)"></rect><rect width="33.391" height="22.261" x="314.07" y="358.994" fill="#000" transform="matrix(.7071 -.7071 .7071 .7071 -164.839 342.293)"></rect><rect width="33.391" height="22.261" x="400.656" y="366.851" fill="#000" transform="matrix(.7071 -.7071 .7071 .7071 -145.034 405.821)"></rect><rect width="33.391" height="22.261" x="361.299" y="406.213" fill="#000" transform="matrix(.7071 -.7071 .7071 .7071 -184.394 389.52)"></rect><rect width="33.391" height="22.261" x="377.04" y="343.247" fill="#000" transform="matrix(.7071 -.7071 .7071 .7071 -135.26 382.208)"></rect><rect width="33.391" height="22.261" x="337.694" y="382.602" fill="#000" transform="matrix(.7071 -.7071 .7071 .7071 -174.613 365.913)"></rect><rect width="89.043" height="22.261" x="329.544" y="126.805" fill="#000" transform="matrix(-.7071 -.7071 .7071 -.7071 541.034 499.974)"></rect><rect width="33.391" height="22.26" x="314.081" y="130.749" fill="#000" transform="matrix(-.7071 -.7071 .7071 -.7071 464.348 476.097)"></rect><rect width="33.391" height="22.26" x="353.427" y="170.098" fill="#000" transform="matrix(-.7071 -.7071 .7071 -.7071 503.692 571.091)"></rect><rect width="33.391" height="22.261" x="361.282" y="83.526" fill="#000" transform="matrix(-.7071 -.7071 .7071 -.7071 578.316 428.859)"></rect><rect width="33.391" height="22.261" x="400.651" y="122.879" fill="#000" transform="matrix(-.7071 -.7071 .7071 -.7071 617.695 523.876)"></rect><rect width="89.043" height="22.261" x="69.81" y="386.542" fill="#000" transform="matrix(.7071 .7071 -.7071 .7071 314.684 35.6313)"></rect><rect width="33.391" height="22.26" x="140.919" y="382.6" fill="#000" transform="matrix(.7071 .7071 -.7071 .7071 324.573 3.8704)"></rect><rect width="33.391" height="22.261" x="101.569" y="343.252" fill="#000" transform="matrix(.7071 .7071 -.7071 .7071 285.225 20.1705)"></rect><rect width="89.043" height="22.261" x="117.031" y="339.316" fill="#000" transform="matrix(.7071 .7071 -.7071 .7071 295.12 -11.5916)"></rect><rect width="89.043" height="22.261" x="69.81" y="103.201" fill="#000" transform="matrix(-.7071 .7071 -.7071 -.7071 276.02 114.331)"></rect><rect width="89.043" height="22.261" x="93.412" y="126.806" fill="#000" transform="matrix(-.7071 .7071 -.7071 -.7071 333.003 137.938)"></rect><rect width="89.043" height="22.26" x="117.038" y="150.428" fill="#000" transform="matrix(-.7071 .7071 -.7071 -.7071 390.037 161.557)"></rect></g></svg>