<?xml version="1.0" encoding="UTF-8"?><svg version="1.1" viewBox="0 0 20 20" xmlns="http://www.w3.org/2000/svg" xmlns:xlink="http://www.w3.org/1999/xlink"><g transform="matrix(.0390625 0 0 .0390625 0 0)"><path fill="#FFDA44" d="M378.435 31.127c-36.371-19.844-78.085-31.127-122.435-31.127 -44.35 0-86.064 11.283-122.435 31.127l-22.261 224.873 22.261 224.873c36.371 19.844 78.085 31.127 122.435 31.127 44.35 0 86.064-11.283 122.435-31.127l22.261-224.873 -22.261-224.873Z"></path><path fill="#338AF3" d="M133.565 480.871v-449.745c-79.576 43.42-133.565 127.839-133.565 224.874 0 97.035 53.989 181.454 133.565 224.871Z"></path><path fill="#6DA544" d="M512 256c0-97.035-53.989-181.454-133.565-224.874v449.745c79.576-43.417 133.565-127.836 133.565-224.871Z"></path><polygon fill="#6DA544" points="200.348,322.783 155.825,256 200.347,189.217 244.871,256"></polygon><polygon fill="#6DA544" points="311.652,322.783 267.13,256 311.652,189.217 356.174,256"></polygon><polygon fill="#6DA544" points="256,411.826 211.478,345.043 256,278.261 300.522,345.043"></polygon></g></svg>