<?xml version="1.0" encoding="UTF-8"?><svg version="1.1" viewBox="0 0 20 20" xmlns="http://www.w3.org/2000/svg" xmlns:xlink="http://www.w3.org/1999/xlink"><g transform="matrix(.0390625 0 0 .0390625 0 0)"><path fill="#D80027" d="M31.127 133.565l224.873 22.261 224.873-22.261c-43.419-79.576-127.838-133.565-224.873-133.565 -97.035 0-181.454 53.989-224.873 133.565Z"></path><path fill="#FFDA44" d="M31.127 378.435l224.873 22.261 224.873-22.261c19.844-36.371 31.127-78.085 31.127-122.435l-256-22.261 -256 22.261c0 44.35 11.283 86.064 31.127 122.435Z"></path><path fill="#0052B4" d="M31.127 133.565c-19.844 36.371-31.127 78.085-31.127 122.435h512c0-44.35-11.283-86.064-31.127-122.435h-224.873 -224.873Z"></path><path fill="#6DA544" d="M256 512c97.035 0 181.454-53.989 224.873-133.565h-449.746c43.419 79.576 127.838 133.565 224.873 133.565Z"></path></g></svg>