<?xml version="1.0" encoding="UTF-8"?><svg version="1.1" viewBox="0 0 20 20" xmlns="http://www.w3.org/2000/svg" xmlns:xlink="http://www.w3.org/1999/xlink"><g transform="matrix(.0390625 0 0 .0390625 0 0)"><circle cx="256" cy="256" r="256" fill="#F0F0F0"></circle><path fill="#496E2D" d="M306.087 507.087c101.203-20.076 180.924-99.798 201-201h-201v201Z"></path><path fill="#496E2D" d="M4.913 306.087c20.075 101.202 99.797 180.924 201 201v-201h-201Z"></path><path fill="#496E2D" d="M507.087 205.913c-20.076-101.202-99.797-180.924-201-201v201h201Z"></path><path fill="#496E2D" d="M205.913 4.913c-101.203 20.076-180.925 99.798-201 201h201v-201Z"></path><path fill="#FFDA44" d="M239.304 306.087h-33.391v201c10.897 2.161 22.044 3.625 33.391 4.356v-205.356Z"></path><path fill="#FFDA44" d="M239.304 205.913v-205.356c-11.347.73-22.495 2.195-33.391 4.356v201h33.391Z"></path><path fill="#000" d="M272.696.557c-5.522-.357-11.085-.557-16.696-.557 -5.611 0-11.174.2-16.696.557v205.357h33.391v-205.357Z"></path><path fill="#000" d="M239.304 511.443c5.522.357 11.085.557 16.696.557 5.611 0 11.174-.2 16.696-.557v-205.356h-33.391v205.356Z"></path><path fill="#FFDA44" d="M205.913 239.304v-33.391h-201c-2.162 10.898-3.626 22.044-4.356 33.391h205.356Z"></path><path fill="#FFDA44" d="M306.087 239.304h205.357c-.73-11.347-2.195-22.493-4.356-33.391h-201v33.391Z"></path><path fill="#000" d="M306.087 272.696h205.357c.356-5.521.556-11.085.556-16.696 0-5.611-.2-11.175-.557-16.696h-205.356v33.392Z"></path><path fill="#000" d="M.557 239.304c-.356 5.521-.557 11.085-.557 16.696 0 5.611.201 11.175.557 16.696h205.357v-33.391h-205.357Z"></path><circle cx="256" cy="256" r="122.435" fill="#D80027"></circle><path fill="#496E2D" d="M283.894 269.66c-9.107-18.213-20.944-36.673-20.944-36.673 0 0 .294-8.405.294-13.413 0-7.544-6.116-13.66-13.66-13.66 -7.147 0-13.003 5.491-13.6 12.482 -5.62.367-10.067 5.029-10.067 10.741 0 4.153 2.353 7.752 5.797 9.551 1.712-4.004 5.064-7.13 9.21-8.555 .676.553 1.402 1.047 2.177 1.466l1.75.838c0 0-6.489 18.291-6.489 28.117 0 27.624 18.214 36.143 18.214 36.143v.285l-9.107 9.106h18.213v-18.214l9.107 9.107c.08-.171 17.25-11.03 9.105-27.321Z"></path><polygon fill="#496E2D" points="256,155.826 260.144,168.58 273.554,168.58 262.705,176.463 266.85,189.217 256,181.335 245.15,189.217 249.295,176.463 238.446,168.58 251.856,168.58"></polygon><polygon fill="#496E2D" points="197.12,174.958 207.968,182.841 218.818,174.957 214.674,187.713 225.524,195.594 212.113,195.595 207.969,208.349 203.824,195.595 190.414,195.594 201.263,187.711"></polygon><polygon fill="#496E2D" points="160.729,225.045 174.138,225.045 178.283,212.291 182.427,225.045 195.838,225.044 184.989,232.928 189.134,245.682 178.283,237.799 167.434,245.681 171.577,232.927"></polygon><polygon fill="#496E2D" points="160.729,286.955 171.577,279.074 167.433,266.319 178.283,274.202 189.133,266.319 184.989,279.073 195.839,286.956 182.427,286.957 178.283,299.71 174.138,286.955"></polygon><polygon fill="#496E2D" points="197.12,337.042 201.263,324.29 190.413,316.407 203.824,316.407 207.969,303.652 212.113,316.406 225.524,316.406 214.674,324.29 218.818,337.043 207.968,329.16"></polygon><polygon fill="#496E2D" points="256,356.174 251.856,343.422 238.446,343.422 249.295,335.538 245.15,322.784 256,330.665 266.849,322.783 262.705,335.538 273.554,343.421 260.144,343.422"></polygon><polygon fill="#496E2D" points="314.88,337.042 304.032,329.16 293.183,337.044 297.326,324.29 286.476,316.407 299.887,316.406 304.03,303.652 308.176,316.407 321.586,316.407 310.737,324.29"></polygon><polygon fill="#496E2D" points="351.271,286.955 337.862,286.955 333.717,299.71 329.573,286.957 316.161,286.957 327.011,279.073 322.866,266.32 333.717,274.202 344.565,266.32 340.423,279.074"></polygon><polygon fill="#496E2D" points="351.271,225.045 340.423,232.927 344.566,245.681 333.717,237.799 322.867,245.683 327.011,232.928 316.161,225.046 329.573,225.044 333.716,212.292 337.862,225.045"></polygon><polygon fill="#496E2D" points="314.88,174.958 310.737,187.711 321.586,195.594 308.176,195.594 304.032,208.349 299.887,195.595 286.476,195.596 297.326,187.711 293.182,174.959 304.032,182.84"></polygon></g></svg>