<?xml version="1.0" encoding="UTF-8"?><svg version="1.1" viewBox="0 0 20 20" xmlns="http://www.w3.org/2000/svg" xmlns:xlink="http://www.w3.org/1999/xlink"><g transform="matrix(.0390625 0 0 .0390625 0 0)"><circle cx="256" cy="256" r="256" fill="#F0F0F0"></circle><path fill="#D80027" d="M8.819 322.783c23.638 87.703 92.695 156.761 180.399 180.399v-180.399h-180.399Z"></path><path fill="#0052B4" d="M189.217 8.819c-87.703 23.637-156.761 92.695-180.398 180.398h180.399v-180.398Z"></path><path fill="#D80027" d="M503.181 189.217c-23.637-87.703-92.695-156.761-180.398-180.398v180.399h180.398Z"></path><path fill="#0052B4" d="M322.783 503.181c87.703-23.638 156.761-92.695 180.399-180.399h-180.399v180.399Z"></path><path fill="#496E2D" d="M322.783 256c0 36.884-29.899 66.783-66.783 66.783 -36.883 0-66.783-29.899-66.783-66.783 0-36.884 66.783-66.783 66.783-66.783 0 0 66.783 29.899 66.783 66.783Z"></path><path fill="#0052B4" d="M189.217 256c0-36.884 29.9-66.783 66.783-66.783 36.884 0 66.783 29.899 66.783 66.783"></path><path fill="#D80027" d="M218.435 222.609v41.739c0 20.747 16.818 37.565 37.565 37.565 20.747 0 37.565-16.818 37.565-37.565v-41.739h-75.13Z"></path></g></svg>