<?xml version="1.0" encoding="UTF-8"?><svg version="1.1" viewBox="0 0 20 20" xmlns="http://www.w3.org/2000/svg" xmlns:xlink="http://www.w3.org/1999/xlink"><g transform="matrix(.0390625 0 0 .0390625 0 0)"><path fill="#FFDA44" d="M503.181 322.783c5.739-21.294 8.819-43.676 8.819-66.783 0-23.107-3.08-45.489-8.819-66.783l-269.442-188.243c-50.021 4.31-95.924 23-133.565 51.921l-91.355 136.322c-5.739 21.294-8.819 43.676-8.819 66.783 0 22.972 3.043 45.231 8.718 66.413l91.455 136.692c37.641 28.921 83.544 47.612 133.565 51.921l269.443-188.243Z"></path><path fill="#D80027" d="M8.819 322.783c14.812 54.959 47.458 102.593 91.355 136.322v-136.322h-91.355Z"></path><path fill="#D80027" d="M233.739 511.026c7.338.632 14.759.974 22.261.974 118.279 0 217.805-80.221 247.181-189.217h-269.442v188.243Z"></path><path fill="#D80027" d="M503.181 189.217c-29.376-108.996-128.902-189.217-247.181-189.217 -7.502 0-14.923.342-22.261.974v188.243h269.442Z"></path><path fill="#D80027" d="M100.174 52.895c-43.897 33.73-76.543 81.363-91.355 136.322h91.355v-136.322Z"></path><path fill="#0052B4" d="M509.833 222.609h-309.484 -.001v-216.524c-23.658 5.246-46.087 13.749-66.783 25.042v191.481 0h-131.398c-1.423 10.931-2.167 22.075-2.167 33.392 0 11.317.744 22.461 2.167 33.391h131.397 .001v191.481c20.696 11.292 43.125 19.797 66.783 25.042v-216.52 -.002h309.485c1.423-10.931 2.167-22.075 2.167-33.392 0-11.317-.744-22.461-2.167-33.391Z"></path></g></svg>