<?xml version="1.0" encoding="UTF-8"?><svg version="1.1" viewBox="0 0 20 20" xmlns="http://www.w3.org/2000/svg" xmlns:xlink="http://www.w3.org/1999/xlink"><g transform="matrix(.0390625 0 0 .0390625 0 0)"><circle cx="256" cy="256" r="256" fill="#F0F0F0"></circle><path fill="#338AF3" d="M256 0c-101.494 0-189.19 59.065-230.598 144.696h461.195c-41.407-85.631-129.104-144.696-230.597-144.696Z"></path><path fill="#338AF3" d="M256 512c101.493 0 189.19-59.065 230.598-144.696h-461.196c41.408 85.631 129.104 144.696 230.598 144.696Z"></path><polygon fill="#FFDA44" points="332.515,256 301.25,270.707 317.899,300.986 283.949,294.491 279.647,328.787 256,303.563 232.352,328.787 228.051,294.491 194.101,300.985 210.749,270.706 179.485,256 210.75,241.293 194.101,211.015 228.05,217.509 232.353,183.213 256,208.437 279.648,183.213 283.949,217.509 317.9,211.015 301.251,241.294"></polygon></g></svg>