<?xml version="1.0" encoding="UTF-8"?><svg version="1.1" viewBox="0 0 20 20" xmlns="http://www.w3.org/2000/svg" xmlns:xlink="http://www.w3.org/1999/xlink"><g transform="matrix(.0390625 0 0 .0390625 0 0)"><circle cx="256" cy="256" r="256" fill="#FFDA44"></circle><path fill="#496E2D" d="M256 0c-.186.002-11.13 102.4-11.13 102.4h215.942c-46.705-62.177-121.06-102.4-204.812-102.4Z"></path><path fill="#496E2D" d="M256 512c83.752 0 158.107-40.223 204.811-102.4h-409.622c46.704 62.177 121.059 102.4 204.811 102.4Z"></path><path fill="#496E2D" d="M506.874 204.8h-262.004l11.13 102.4h250.874c3.36-16.543 5.126-33.665 5.126-51.2 0-17.535-1.768-34.657-5.126-51.2Z"></path><path fill="#D80027" d="M256 307.2c0-53.426 0-247.096 0-307.2 -141.384 0-256 114.616-256 256 0 17.535 1.768 34.657 5.126 51.2h250.874Z"></path><polygon fill="#F0F0F0" points="141.257,122.435 157.833,173.45 211.478,173.45 168.081,204.983 184.655,256 141.257,224.47 97.859,256 114.436,204.983 71.039,173.45 124.682,173.45"></polygon></g></svg>