<?xml version="1.0" encoding="UTF-8"?><svg version="1.1" viewBox="0 0 20 20" xmlns="http://www.w3.org/2000/svg" xmlns:xlink="http://www.w3.org/1999/xlink"><g transform="matrix(.0390625 0 0 .0390625 0 0)"><path fill="#FFDA44" d="M256 0c-23.106 0-45.49 3.08-66.783 8.819l-22.26 247.181 22.261 247.181c21.292 5.739 43.676 8.819 66.782 8.819 141.384 0 256-114.616 256-256 0-141.384-114.616-256-256-256Z"></path><path fill="#6DA544" d="M166.957 256l22.261 247.181c21.292 5.739 43.676 8.819 66.782 8.819 141.384 0 256-114.616 256-256h-345.043Z"></path><path fill="#D80027" d="M0 256c0 97.035 53.99 181.455 133.565 224.873v-449.746c-79.575 43.418-133.565 127.838-133.565 224.873Z"></path><path fill="#D80027" d="M0 256c0 118.279 80.221 217.805 189.217 247.181v-494.362c-108.996 29.376-189.217 128.902-189.217 247.181Z"></path><polygon fill="#000" points="96.736,189.217 113.311,240.233 166.957,240.233 123.559,271.765 140.133,322.783 96.736,291.252 53.337,322.783 69.915,271.765 26.517,240.233 80.16,240.233"></polygon></g></svg>