<?xml version="1.0" encoding="UTF-8"?><svg version="1.1" viewBox="0 0 20 20" xmlns="http://www.w3.org/2000/svg" xmlns:xlink="http://www.w3.org/1999/xlink"><g transform="matrix(.0390625 0 0 .0390625 0 0)"><circle cx="256" cy="256" r="256" fill="#F0F0F0"></circle><path fill="#D80027" d="M509.833 222.609h-220.44 -.001v-220.442c-10.931-1.423-22.075-2.167-33.392-2.167 -11.317 0-22.461.744-33.391 2.167v220.442 0h-220.442c-1.423 10.93-2.167 22.074-2.167 33.391 0 11.317.744 22.461 2.167 33.391h220.44 .001v220.442c10.931 1.423 22.075 2.167 33.392 2.167 11.317 0 22.461-.743 33.391-2.167v-220.439 -.002h220.442c1.423-10.931 2.167-22.075 2.167-33.392 0-11.317-.744-22.461-2.167-33.391Z"></path><polygon fill="#FFDA44" points="328.348,267.13 345.043,278.261 345.043,233.739 328.348,244.87 267.13,244.87 267.13,183.652 278.261,166.957 233.739,166.957 244.87,183.652 244.87,244.87 183.652,244.87 166.957,233.739 166.957,278.261 183.652,267.13 244.87,267.13 244.87,328.348 233.739,345.043 278.261,345.043 267.13,328.348 267.13,267.13"></polygon></g></svg>