<?xml version="1.0" encoding="UTF-8"?><svg version="1.1" viewBox="0 0 20 20" xmlns="http://www.w3.org/2000/svg" xmlns:xlink="http://www.w3.org/1999/xlink"><g transform="matrix(.0390625 0 0 .0390625 0 0)"><circle cx="256" cy="256" r="256" fill="#F0F0F0"></circle><path fill="#D80027" d="M200.349 222.609h309.484c-16.363-125.607-123.766-222.609-253.833-222.609 -19.115 0-37.732 2.113-55.652 6.085v216.524h.001Z"></path><path fill="#D80027" d="M133.565 222.608v-191.481c-70.293 38.354-120.615 108.705-131.398 191.482h131.398v-.001Z"></path><path fill="#D80027" d="M133.564 289.391h-131.397c10.783 82.777 61.105 153.128 131.398 191.481l-.001-191.481v0Z"></path><path fill="#D80027" d="M200.348 289.392v216.523c17.92 3.972 36.537 6.085 55.652 6.085 130.067 0 237.47-97.002 253.833-222.609h-309.485v.001Z"></path></g></svg>