<?xml version="1.0" encoding="UTF-8"?><svg version="1.1" viewBox="0 0 20 20" xmlns="http://www.w3.org/2000/svg" xmlns:xlink="http://www.w3.org/1999/xlink"><g transform="matrix(.0390625 0 0 .0390625 0 0)"><circle cx="256" cy="256" r="256" fill="#D80027"></circle><rect width="333.913" height="244.87" x="89.043" y="133.565" fill="#6DA544"></rect><path fill="#F0F0F0" d="M297.227 328.348c-39.956 0-72.348-32.392-72.348-72.348 0-39.956 32.392-72.348 72.348-72.348 12.458 0 24.181 3.15 34.415 8.696 -16.055-15.701-38.01-25.392-62.241-25.392 -49.176 0-89.043 39.866-89.043 89.043 0 49.177 39.867 89.043 89.043 89.043 24.231 0 46.187-9.691 62.241-25.392 -10.234 5.548-21.957 8.698-34.415 8.698Z"></path></g></svg>