<?xml version="1.0" encoding="UTF-8"?><svg version="1.1" viewBox="0 0 20 20" xmlns="http://www.w3.org/2000/svg" xmlns:xlink="http://www.w3.org/1999/xlink"><g transform="matrix(.0390625 0 0 .0390625 0 0)"><circle cx="256" cy="256" r="256" fill="#F0F0F0"></circle><path fill="#D80027" d="M512 256c0-101.494-59.065-189.19-144.696-230.598v461.195c85.631-41.407 144.696-129.103 144.696-230.597Z"></path><path fill="#6DA544" d="M0 256c0 101.494 59.065 189.19 144.696 230.598v-461.196c-85.631 41.408-144.696 129.104-144.696 230.598Z"></path><path fill="#6DA544" d="M189.217 256c0 36.883 29.9 66.783 66.783 66.783 36.883 0 66.783-29.9 66.783-66.783v-22.261h-133.566v22.261Z"></path><path fill="#FF9811" d="M345.043 211.478h-66.783c0-12.294-9.967-22.261-22.261-22.261 -12.294 0-22.261 9.967-22.261 22.261h-66.783c0 12.295 10.709 22.261 23.002 22.261h-.741c0 12.295 9.966 22.261 22.261 22.261 0 12.295 9.966 22.261 22.261 22.261h44.522c12.295 0 22.261-9.966 22.261-22.261 12.295 0 22.261-9.966 22.261-22.261h-.742c12.295-2.84217e-14 23.003-9.966 23.003-22.261Z"></path></g></svg>