<?xml version="1.0" encoding="UTF-8"?><svg version="1.1" viewBox="0 0 20 20" xmlns="http://www.w3.org/2000/svg" xmlns:xlink="http://www.w3.org/1999/xlink"><g transform="matrix(.0390625 0 0 .0390625 0 0)"><circle cx="256" cy="256" r="256" fill="#FFDA44"></circle><path fill="#A2001D" d="M111.713 44.522c41.085-28.086 90.763-44.522 144.287-44.522 53.524 0 103.202 16.436 144.287 44.522l-144.287 11.13 -144.287-11.13Z"></path><polygon fill="#0052B4" points="256,256 239.662,239.662 235.324,247.433"></polygon><path fill="#496E2D" d="M74.98 74.98c-99.974 99.974-99.974 262.065 0 362.04 41.313-41.313 81.046-81.046 181.02-181.02l-181.02-181.02Z"></path><path fill="#496E2D" d="M437.02 74.98c99.974 99.974 99.974 262.065 0 362.04 -41.313-41.313-81.046-81.046-181.02-181.02l181.02-181.02Z"></path><circle cx="256" cy="256" r="89.043" fill="#A2001D"></circle><polygon fill="#FFDA44" points="255.999,166.957 275.958,228.386 340.556,228.386 288.298,266.359 308.257,327.791 255.999,289.825 203.739,327.791 223.702,266.359 171.444,228.386 236.038,228.386"></polygon><path fill="#FFDA44" d="M256 0c-.029 0-.057.002-.086.002h.171c-.028 0-.056-.002-.085-.002Z"></path><path fill="#A2001D" d="M256.086 0h-.171c-70.653.023-134.614 28.666-180.921 74.968h362.013c-46.308-46.302-110.269-74.945-180.921-74.968Z"></path><path fill="#A2001D" d="M74.995 437.033c46.326 46.319 110.32 74.967 181.005 74.967 70.685 0 134.679-28.648 181.005-74.967h-362.01Z"></path><polygon fill="#FFDA44" points="256,27.826 260.145,40.58 273.555,40.58 262.706,48.463 266.851,61.217 256,53.335 245.151,61.217 249.296,48.463 238.445,40.58 251.855,40.58"></polygon><polygon fill="#FFDA44" points="193.923,27.826 198.068,40.58 211.478,40.58 200.629,48.463 204.774,61.217 193.923,53.335 183.075,61.217 187.219,48.463 176.368,40.58 189.778,40.58"></polygon><polygon fill="#FFDA44" points="318.077,27.826 322.222,40.58 335.632,40.58 324.783,48.463 328.928,61.217 318.077,53.335 307.228,61.217 311.373,48.463 300.522,40.58 313.932,40.58"></polygon><polygon fill="#FFDA44" points="256,450.783 260.145,463.537 273.555,463.537 262.706,471.42 266.851,484.174 256,476.291 245.151,484.174 249.296,471.42 238.445,463.537 251.855,463.537"></polygon><polygon fill="#FFDA44" points="193.923,450.783 198.068,463.537 211.478,463.537 200.629,471.42 204.774,484.174 193.923,476.291 183.075,484.174 187.219,471.42 176.368,463.537 189.778,463.537"></polygon><polygon fill="#FFDA44" points="318.077,450.783 322.222,463.537 335.632,463.537 324.783,471.42 328.928,484.174 318.077,476.291 307.228,484.174 311.373,471.42 300.522,463.537 313.932,463.537"></polygon><path fill="#FFDA44" d="M78.003 251.772c6.575 10.389 3.485 24.14-6.904 30.716 -10.388 6.576-24.14 3.486-30.716-6.903 -11.905-18.808-5.002-49.525-5.002-49.525 0 0 30.716 6.903 42.622 25.712Z"></path><circle cx="65.146" cy="273.085" r="11.13" fill="#A2001D"></circle></g></svg>