<?xml version="1.0" encoding="UTF-8"?><svg version="1.1" viewBox="0 0 20 20" xmlns="http://www.w3.org/2000/svg" xmlns:xlink="http://www.w3.org/1999/xlink"><g transform="matrix(.0390625 0 0 .0390625 0 0)"><path fill="#FFDA44" d="M345.043 15.923c-27.733-10.29-57.729-15.923-89.043-15.923 -31.314 0-61.31 5.633-89.043 15.923l-22.261 240.077 22.261 240.077c27.733 10.291 57.729 15.923 89.043 15.923 31.314 0 61.31-5.632 89.043-15.923l22.261-240.077 -22.261-240.077Z"></path><path fill="#D80027" d="M512 256c0-110.07-69.472-203.906-166.957-240.076v480.155c97.485-36.173 166.957-130.007 166.957-240.079Z"></path><path fill="#000" d="M0 256c0 110.072 69.472 203.906 166.957 240.078v-480.154c-97.485 36.17-166.957 130.006-166.957 240.076Z"></path></g></svg>