<?xml version="1.0" encoding="UTF-8"?><svg version="1.1" viewBox="0 0 20 20" xmlns="http://www.w3.org/2000/svg" xmlns:xlink="http://www.w3.org/1999/xlink"><g transform="matrix(.0390625 0 0 .0390625 0 0)"><circle cx="256" cy="256" r="256" fill="#F0F0F0"></circle><path fill="#6DA544" d="M155.826 166.957h340.25c-36.17-97.485-130.006-166.957-240.076-166.957 -70.694 0-134.687 28.659-181.011 74.989l80.837 91.968Z"></path><path fill="#D80027" d="M155.826 345.043h340.25c-36.17 97.485-130.006 166.957-240.076 166.957 -70.694 0-134.687-28.659-181.011-74.989l80.837-91.968Z"></path><path fill="#0052B4" d="M74.98 74.98c-99.974 99.974-99.974 262.065 0 362.04 41.313-41.313 81.046-81.046 181.02-181.02l-181.02-181.02Z"></path><path fill="#DEDDE0" d="M300.522 211.478v55.652c0 34.08 44.522 44.523 44.522 44.523 0 0 44.522-10.443 44.522-44.523v-55.652h-89.044Z"></path><rect width="22.261" height="32.278" x="333.913" y="257.113" fill="#786145"></rect><path fill="#6DA544" d="M367.304 244.87c0-12.295-9.966-22.261-22.261-22.261 -12.295 0-22.261 9.966-22.261 22.261 -6.147 0-11.13 4.983-11.13 11.13 0 6.147 4.983 11.13 11.13 11.13 3.65 0 40.872 0 44.522 0 6.147 0 11.13-4.983 11.13-11.13 0-6.147-4.982-11.13-11.13-11.13Z"></path></g></svg>