<?xml version="1.0" encoding="UTF-8"?><svg version="1.1" viewBox="0 0 20 20" xmlns="http://www.w3.org/2000/svg" xmlns:xlink="http://www.w3.org/1999/xlink"><g transform="matrix(.0390625 0 0 .0390625 0 0)"><circle cx="256" cy="256" r="256" fill="#F0F0F0"></circle><path fill="#338AF3" d="M256 0c-101.494 0-189.19 59.065-230.598 144.696h461.195c-41.407-85.631-129.104-144.696-230.597-144.696Z"></path><path fill="#338AF3" d="M256 512c101.493 0 189.19-59.065 230.598-144.696h-461.196c41.408 85.631 129.104 144.696 230.598 144.696Z"></path><path fill="#FFDA44" d="M256 178.087c-43.03 0-77.913 34.883-77.913 77.913 0 43.03 34.883 77.913 77.913 77.913 43.03 0 77.913-34.883 77.913-77.913 0-43.03-34.883-77.913-77.913-77.913Zm0 122.435c-24.588 0-44.522-19.932-44.522-44.522 0-24.59 19.933-44.522 44.522-44.522 24.589 0 44.522 19.932 44.522 44.522 0 24.59-19.934 44.522-44.522 44.522Z"></path><polygon fill="#0052B4" points="294.558,267.13 256,256 217.442,267.13 204.59,289.391 307.409,289.391"></polygon><polygon fill="#338AF3" points="256,200.348 230.295,244.87 256,256 281.705,244.87"></polygon><polygon fill="#6DA544" points="217.442,267.13 294.558,267.13 281.705,244.87 230.295,244.87"></polygon></g></svg>