<?xml version="1.0" encoding="UTF-8"?><svg version="1.1" viewBox="0 0 20 20" xmlns="http://www.w3.org/2000/svg" xmlns:xlink="http://www.w3.org/1999/xlink"><g transform="matrix(.0390625 0 0 .0390625 0 0)"><path fill="#0052B4" d="M512 256c0 141.384-114.616 256-256 256 -141.384 0-256-114.616-256-256 0 .06 256-255.971 256-256 141.384 0 256 114.616 256 256Z"></path><path fill="#F0F0F0" d="M256 0c-.014 0-.029.001-.043.001l.043-.001v0Z"></path><path fill="#F0F0F0" d="M255.315 256h.685c0-.232 0-.454 0-.685 -.228.229-.456.457-.685.685Z"></path><path fill="#F0F0F0" d="M256 133.566c0-45.045 0-74.562 0-133.565h-.043c-141.365.023-255.957 114.628-255.957 255.999h133.565v-75.212l75.212 75.212h46.539c.229-.228.457-.456.685-.685 0-17.247 0-32.636 0-46.536l-75.213-75.213h75.212Z"></path><path fill="#D80027" d="M129.515 33.391c-40.039 22.799-73.325 56.085-96.124 96.124v126.485h66.783v-155.825 -.001h155.826c0-21.063 0-41.129 0-66.783h-126.485Z"></path><path fill="#D80027" d="M256 224.519l-90.953-90.952h-31.481c0-.001 0 0 0 0l122.433 122.433h.001c0 0 0-21.705 0-31.481Z"></path><polygon fill="#F0F0F0" points="154.395,300.522 168.445,329.9 200.172,322.567 185.964,351.869 211.478,372.102 179.711,379.262 179.8,411.826 154.395,391.453 128.991,411.826 129.08,379.262 97.312,372.102 122.827,351.869 108.617,322.567 140.346,329.9"></polygon><polygon fill="#F0F0F0" points="383.284,356.174 390.309,370.863 406.173,367.196 399.068,381.847 411.826,391.964 395.942,395.544 395.986,411.826 383.284,401.639 370.582,411.826 370.626,395.544 354.743,391.964 367.5,381.847 360.396,367.196 376.259,370.863"></polygon><polygon fill="#F0F0F0" points="317.933,200.348 324.957,215.038 340.821,211.37 333.717,226.021 346.474,236.138 330.591,239.718 330.634,256 317.933,245.813 305.231,256 305.274,239.718 289.391,236.138 302.148,226.021 295.044,211.37 310.908,215.038"></polygon><polygon fill="#F0F0F0" points="383.284,111.304 390.309,125.994 406.173,122.327 399.069,136.978 411.825,147.094 395.942,150.675 395.986,166.957 383.284,156.77 370.582,166.957 370.626,150.675 354.743,147.094 367.499,136.978 360.396,122.327 376.259,125.994"></polygon><polygon fill="#F0F0F0" points="440.368,178.087 447.392,192.777 463.256,189.109 456.152,203.76 468.909,213.877 453.025,217.458 453.069,233.739 440.368,223.553 427.666,233.739 427.709,217.458 411.826,213.877 424.583,203.76 417.479,189.109 433.342,192.777"></polygon><polygon fill="#F0F0F0" points="399.55,256 405.075,273.006 422.957,273.006 408.49,283.517 414.017,300.522 399.55,290.012 385.084,300.522 390.609,283.517 376.143,273.006 394.024,273.006"></polygon></g></svg>