<?xml version="1.0" encoding="UTF-8"?><svg version="1.1" viewBox="0 0 20 20" xmlns="http://www.w3.org/2000/svg" xmlns:xlink="http://www.w3.org/1999/xlink"><g transform="matrix(.0390625 0 0 .0390625 0 0)"><circle cx="256" cy="256" r="256" fill="#F9F9F9"></circle><path fill="#D80027" d="M256 512c110.07 0 203.906-69.472 240.076-166.957h-480.154c36.172 97.485 130.006 166.957 240.078 166.957Z"></path><polygon fill="#D80027" points="356.174,211.478 356.174,178.087 367.304,178.087 367.304,155.826 345.043,155.826 345.043,166.957 322.783,166.957 322.783,155.826 300.522,155.826 300.522,178.087 311.652,178.087 311.652,211.478 289.391,211.478 289.391,133.567 300.522,133.567 300.522,111.307 278.261,111.307 278.261,122.435 267.13,122.435 267.13,111.307 244.87,111.307 244.87,122.435 233.739,122.435 233.739,111.307 211.478,111.307 211.478,133.567 222.609,133.567 222.609,211.478 200.348,211.478 200.348,178.087 211.478,178.087 211.478,155.826 189.217,155.826 189.217,166.957 166.957,166.957 166.957,155.826 144.696,155.826 144.696,178.087 155.826,178.087 155.826,211.478 133.565,211.478 133.565,300.522 378.435,300.522 378.435,211.478"></polygon><path fill="#FFDA44" d="M256 289.391c-18.441 0-33.391 14.95-33.391 33.391 0 14.536 9.294 26.9 22.261 31.484v46.43h-33.391v44.522h55.652v-90.951c12.967-4.584 22.261-16.947 22.261-31.484 -.001-18.441-14.951-33.392-33.392-33.392Zm0 44.522c-6.147 0-11.13-4.984-11.13-11.13 0-6.147 4.983-11.13 11.13-11.13 6.147 0 11.13 4.983 11.13 11.13 0 6.146-4.983 11.13-11.13 11.13Z"></path></g></svg>