<?xml version="1.0" encoding="UTF-8"?><svg version="1.1" viewBox="0 0 20 20" xmlns="http://www.w3.org/2000/svg" xmlns:xlink="http://www.w3.org/1999/xlink"><g transform="matrix(.0390625 0 0 .0390625 0 0)"><circle cx="256" cy="256" r="256" fill="#0052B4"></circle><circle cx="256" cy="256" r="256" fill="#FFDA44"></circle><path fill="#0052B4" d="M256 0c-133.884 0-243.742 102.781-255.025 233.739h510.051c-11.284-130.958-121.142-233.739-255.026-233.739Z"></path><path fill="#0052B4" d="M256 512c133.884 0 243.742-102.781 255.026-233.739h-510.051c11.283 130.958 121.141 233.739 255.025 233.739Z"></path><polygon fill="#F0F0F0" points="211.479,345.043 182.793,358.537 198.068,386.318 166.919,380.359 162.972,411.826 141.275,388.683 119.579,411.826 115.632,380.359 84.482,386.317 99.758,358.536 71.072,345.043 99.759,331.55 84.482,303.77 115.631,309.728 119.58,278.261 141.275,301.404 162.973,278.261 166.919,309.728 198.069,303.77 182.794,331.551"></polygon></g></svg>