<?xml version="1.0" encoding="UTF-8"?><svg version="1.1" viewBox="0 0 20 20" xmlns="http://www.w3.org/2000/svg" xmlns:xlink="http://www.w3.org/1999/xlink"><g transform="matrix(.0390625 0 0 .0390625 0 0)"><circle cx="256" cy="256" r="256" fill="#F0F0F0"></circle><path fill="#D80027" d="M256 0c-101.494 0-189.19 59.065-230.598 144.696h461.195c-41.407-85.631-129.104-144.696-230.597-144.696Z"></path><path fill="#0052B4" d="M256 512c101.493 0 189.19-59.065 230.598-144.696h-461.196c41.408 85.631 129.104 144.696 230.598 144.696Z"></path><path fill="#6DA544" d="M318.963 181.907l-23.611 23.611c10.071 10.071 16.301 23.984 16.301 39.352 0 30.736-24.917 55.652-55.652 55.652 -30.735 0-55.652-24.917-55.652-55.652 0-15.368 6.23-29.281 16.301-39.352l-23.611-23.611c-16.115 16.112-26.081 38.373-26.081 62.963 0 49.178 39.866 89.043 89.043 89.043 49.177 0 89.043-39.866 89.043-89.043 -.001-24.59-9.967-46.851-26.081-62.963Z"></path><polygon fill="#FFDA44" points="256,211.478 264.289,236.988 291.11,236.988 269.411,252.752 277.7,278.261 256,262.496 234.3,278.261 242.589,252.752 220.89,236.988 247.711,236.988"></polygon></g></svg>