<?xml version="1.0" encoding="UTF-8"?><svg version="1.1" viewBox="0 0 20 20" xmlns="http://www.w3.org/2000/svg" xmlns:xlink="http://www.w3.org/1999/xlink"><g transform="matrix(.0390625 0 0 .0390625 0 0)"><path fill="#0052B4" d="M512 256c0 141.384-114.616 256-256 256 -141.384 0-256-114.616-256-256 0 .061 256-255.972 256-256 141.384 0 256 114.616 256 256Z"></path><path fill="#F0F0F0" d="M256 0c-.016 0-.028 0-.043 0h.043v0Z"></path><path fill="#F0F0F0" d="M255.315 256h.685c0-.23 0-.454 0-.685 -.228.229-.456.457-.685.685Z"></path><path fill="#F0F0F0" d="M256 133.565c0-45.045 0-74.56 0-133.565h-.043c-141.365.024-255.957 114.629-255.957 256h133.565v-75.211l75.212 75.211h46.539c.228-.228.456-.456.685-.685 0-17.247 0-32.636 0-46.537l-75.213-75.213h75.212Z"></path><path fill="#D80027" d="M129.515 33.391c-40.039 22.799-73.325 56.085-96.124 96.124v126.485h66.783v-155.824 -.002h155.826c0-21.063 0-41.129 0-66.783h-126.485Z"></path><path fill="#D80027" d="M256 224.519l-90.953-90.953h-31.481v.002l122.432 122.432h.002c0 0 0-21.707 0-31.481Z"></path><polygon fill="#FFDA44" points="411.826,300.522 411.826,311.652 322.783,311.652 322.783,300.522 289.391,300.522 289.391,345.043 311.652,345.043 311.652,356.174 422.957,356.174 422.957,345.043 445.217,345.043 445.217,300.522"></polygon><path fill="#338AF3" d="M289.391 133.565v122.435c0 59.639 77.913 77.913 77.913 77.913 0 0 77.913-18.274 77.913-77.913v-122.435h-155.826Z"></path><path fill="#F3F3F3" d="M367.3 224.889c-19.477 0-19.477 17.809-38.954 17.809 -19.477 0-19.477-17.809-38.954-17.809v31.165c19.477 0 19.477 17.809 38.954 17.809 19.477 0 19.477-17.809 38.954-17.809 19.479 0 19.479 17.809 38.959 17.809 19.48 0 19.479-17.809 38.959-17.809v-31.165c-19.479 0-19.479 17.809-38.959 17.809 -19.48-2.84217e-14-19.48-17.809-38.959-17.809Z"></path><path fill="#F3F3F3" d="M367.3 162.504c-19.477 0-19.477 17.809-38.954 17.809 -19.477 0-19.477-17.809-38.954-17.809v31.165c19.477 0 19.477 17.809 38.954 17.809 19.477 0 19.477-17.809 38.954-17.809 19.479 0 19.479 17.809 38.959 17.809 19.48 0 19.479-17.809 38.959-17.809v-31.165c-19.479 0-19.479 17.809-38.959 17.809 -19.48 0-19.48-17.809-38.959-17.809Z"></path></g></svg>