<?xml version="1.0" encoding="UTF-8"?><svg version="1.1" viewBox="0 0 20 20" xmlns="http://www.w3.org/2000/svg" xmlns:xlink="http://www.w3.org/1999/xlink"><g transform="matrix(.0390625 0 0 .0390625 0 0)"><circle cx="256" cy="256" r="256" fill="#D80027"></circle><path fill="#FFDA44" d="M407.288 210.09h-115.574l-35.714-109.916 -35.714 109.916h-115.574l93.501 67.932 -35.715 109.919 93.502-67.933 93.502 67.934 -35.715-109.919 93.501-67.933Zm-182.906 59.429l12.077-37.169h39.081l12.078 37.169v0 .001l-31.618 22.971 -31.617-22.971 -.001-.001v0Zm43.926-59.429h-24.615l12.307-37.88 12.308 37.88Zm38.245 45.672l-7.607-23.411h39.829l-32.222 23.411Zm-93.5-23.411l-7.607 23.411 -32.223-23.411h39.83Zm-8.212 97.31l12.308-37.879 19.915 14.468 -32.223 23.411Zm70.095-23.41l19.915-14.468 12.308 37.879 -32.223-23.411Z"></path></g></svg>