<?xml version="1.0" encoding="UTF-8"?><svg version="1.1" viewBox="0 0 20 20" xmlns="http://www.w3.org/2000/svg" xmlns:xlink="http://www.w3.org/1999/xlink"><g transform="matrix(.0390624 0 0 .0390624 0 0)"><path fill="#496E2D" d="M437.027 437.027c96.011-96.011 99.802-249.296 11.413-349.855l-192.44 168.827 -168.828 192.441c100.559 88.389 253.843 84.598 349.855-11.413Z"></path><path fill="#0052B4" d="M74.974 74.974c96.011-96.011 249.296-99.802 349.855-11.413l-168.829 192.442 -192.438 168.826c-88.39-100.559-84.598-253.844 11.412-349.855Z"></path><path fill="#FFDA44" d="M424.827 63.56l-361.267 361.268c3.652 4.155 7.444 8.231 11.413 12.198 3.968 3.968 8.045 7.76 12.201 11.414l361.265-361.268c-3.652-4.156-7.445-8.232-11.414-12.201 -3.966-3.966-8.043-7.759-12.198-11.411Z"></path><polygon fill="#F0F0F0" points="107.861,89.036 113.388,106.043 131.269,106.043 116.803,116.552 122.328,133.559 107.861,123.048 93.394,133.559 98.921,116.552 84.454,106.043 102.336,106.043"></polygon><polygon fill="#F0F0F0" points="199.2,89.036 204.727,106.043 222.607,106.043 208.141,116.552 213.667,133.559 199.2,123.048 184.733,133.559 190.26,116.552 175.793,106.043 193.674,106.043"></polygon><polygon fill="#F0F0F0" points="107.861,178.083 113.388,195.09 131.269,195.09 116.803,205.6 122.328,222.607 107.861,212.096 93.394,222.607 98.921,205.6 84.454,195.09 102.336,195.09"></polygon><polygon fill="#F0F0F0" points="199.2,178.083 204.727,195.09 222.607,195.09 208.141,205.6 213.667,222.607 199.2,212.096 184.733,222.607 190.26,205.6 175.793,195.09 193.674,195.09"></polygon><polygon fill="#F0F0F0" points="153.531,133.559 159.058,150.566 176.938,150.566 162.472,161.076 167.998,178.083 153.531,167.572 139.064,178.083 144.59,161.076 130.123,150.566 148.005,150.566"></polygon></g></svg>