<?xml version="1.0" encoding="UTF-8"?><svg version="1.1" viewBox="0 0 20 20" xmlns="http://www.w3.org/2000/svg" xmlns:xlink="http://www.w3.org/1999/xlink"><g transform="matrix(.0390625 0 0 .0390625 0 0)"><path fill="#338AF3" d="M233.739 278.261c0 0-158.609-203.316-158.759-203.28 46.326-46.327 110.327-74.981 181.02-74.981 141.384 0 256 114.616 256 256l-278.261 22.261Z"></path><path fill="#6DA544" d="M233.739 256c0 0-158.609 181.055-158.759 181.019 46.326 46.327 110.327 74.981 181.02 74.981 141.384 0 256-114.616 256-256h-278.261Z"></path><path fill="#F0F0F0" d="M74.98 74.98c-99.974 99.974-99.974 262.065 0 362.04 41.313-41.313 81.046-81.046 181.02-181.02l-181.02-181.02Z"></path><polygon fill="#D80027" points="103.61,189.217 120.185,240.233 173.831,240.233 130.433,271.765 147.007,322.783 103.61,291.252 60.211,322.783 76.789,271.765 33.391,240.233 87.033,240.233"></polygon></g></svg>