<?xml version="1.0" encoding="UTF-8"?><svg version="1.1" viewBox="0 0 20 20" xmlns="http://www.w3.org/2000/svg" xmlns:xlink="http://www.w3.org/1999/xlink"><g transform="matrix(.0390625 0 0 .0390625 0 0)"><circle cx="256" cy="256" r="256" fill="#F0F0F0"></circle><path fill="#0052B4" d="M509.806 222.608c-7.062-53.986-31.312-106.152-72.787-147.627 -41.475-41.475-93.642-65.726-147.628-72.788l.001 220.415h220.414v0Z"></path><path fill="#0052B4" d="M222.608 2.193c-53.986 7.062-106.153 31.312-147.628 72.787 -41.474 41.476-65.725 93.643-72.787 147.63l220.416-.001 -.001-220.416Z"></path><path fill="#0052B4" d="M2.193 289.392c7.062 53.986 31.313 106.154 72.787 147.628 41.475 41.474 93.641 65.724 147.629 72.789l-.001-220.415 -220.415-.002Z"></path><path fill="#0052B4" d="M289.392 509.806c53.986-7.062 106.152-31.312 147.627-72.787 41.475-41.475 65.725-93.641 72.787-147.627h-220.414v220.414Z"></path><path fill="#F0F0F0" d="M343.389 162.438c0-3.404 2.767-6.171 6.172-6.171h13.224c20.904 0 37.911-17.006 37.911-37.909 0-20.903-17.006-37.91-37.911-37.91h-12.558c-4.099-3.079-9.598-4.978-15.664-4.978 -12.653 0-22.91 8.205-22.91 18.327 0 10.024 10.061 18.156 22.545 18.314l-.006.073h28.593c3.405 0 6.172 2.768 6.172 6.172 0 3.404-2.767 6.171-6.172 6.171h-13.224c-20.904 0-37.909 17.006-37.909 37.909 0 20.903 17.004 37.91 37.909 37.91h51.134v-31.738h-51.134c-3.405.001-6.172-2.766-6.172-6.17Z"></path><path fill="#F0F0F0" d="M143.042 162.438c0-3.404 2.767-6.171 6.172-6.171h13.224c20.904 0 37.911-17.006 37.911-37.909 0-20.903-17.006-37.91-37.911-37.91h-12.558c-4.099-3.079-9.598-4.978-15.664-4.978 -12.653 0-22.91 8.205-22.91 18.327 0 10.024 10.061 18.156 22.545 18.314l-.006.073h28.594c3.405 0 6.172 2.768 6.172 6.172 0 3.404-2.767 6.171-6.172 6.171h-13.224c-20.904 0-37.909 17.006-37.909 37.909 0 20.903 17.004 37.91 37.909 37.91h51.133v-31.738h-51.134c-3.405.001-6.172-2.766-6.172-6.17Z"></path><path fill="#F0F0F0" d="M343.389 398.62c0-3.404 2.767-6.171 6.172-6.171h13.224c20.904 0 37.911-17.006 37.911-37.909 0-20.903-17.006-37.91-37.911-37.91h-12.558c-4.099-3.079-9.598-4.978-15.664-4.978 -12.654 0-22.911 8.206-22.911 18.327 0 10.024 10.061 18.156 22.545 18.314l-.006.073h28.593c3.405 0 6.172 2.768 6.172 6.172 0 3.404-2.767 6.171-6.172 6.171h-13.224c-20.904 0-37.909 17.006-37.909 37.909 0 20.903 17.004 37.91 37.909 37.91h51.135v-31.737h-51.134c-3.405.001-6.172-2.768-6.172-6.171Z"></path><path fill="#F0F0F0" d="M143.042 398.62c0-3.404 2.767-6.171 6.172-6.171h13.224c20.904 0 37.911-17.006 37.911-37.909 0-20.903-17.006-37.91-37.911-37.91h-12.558c-4.099-3.079-9.598-4.978-15.664-4.978 -12.654 0-22.911 8.206-22.911 18.327 0 10.024 10.061 18.156 22.545 18.314l-.006.073h28.594c3.405 0 6.172 2.768 6.172 6.172 0 3.404-2.767 6.171-6.172 6.171h-13.224c-20.904 0-37.909 17.006-37.909 37.909 0 20.903 17.004 37.91 37.909 37.91h51.134v-31.737h-51.134c-3.405.001-6.172-2.768-6.172-6.171Z"></path></g></svg>