<?xml version="1.0" encoding="UTF-8"?><svg version="1.1" viewBox="0 0 20 20" xmlns="http://www.w3.org/2000/svg" xmlns:xlink="http://www.w3.org/1999/xlink"><g transform="matrix(.0390625 0 0 .0390625 0 0)"><circle cx="256" cy="256" r="256" fill="#F0F0F0"></circle><polygon fill="#D80027" points="166.957,133.565 166.957,100.174 133.565,100.174 133.565,133.565 100.174,133.565 100.174,166.957 133.565,166.957 133.565,200.348 166.957,200.348 166.957,166.957 200.348,166.957 200.348,133.565"></polygon><path fill="#D80027" d="M256 0v256c-141.384.001-197.575 0-256 .001 0 141.383 114.616 255.999 256 255.999 141.384 0 256-114.616 256-256 0-141.384-114.616-256-256-256Z"></path></g></svg>