<?xml version="1.0" encoding="UTF-8"?><svg version="1.1" viewBox="0 0 20 20" xmlns="http://www.w3.org/2000/svg" xmlns:xlink="http://www.w3.org/1999/xlink"><g transform="matrix(.0390625 0 0 .0390625 0 0)"><circle cx="256" cy="256" r="256" fill="#FFDA44"></circle><path fill="#0052B4" d="M256 512c84 0 158.549-40.458 205.229-102.949h-410.458c46.68 62.491 121.229 102.949 205.229 102.949Z"></path><path fill="#0052B4" d="M512 256c0-141.384-114.616-256-256-256 -141.384 0-256 114.616-256 256 0 30.273 5.269 59.312 14.916 86.269h482.167c9.648-26.957 14.917-55.996 14.917-86.269Z"></path><polygon fill="#F0F0F0" points="175.222,164.182 189.035,206.694 233.739,206.694 197.574,232.972 211.387,275.486 175.222,249.21 139.057,275.486 152.872,232.972 116.707,206.694 161.409,206.694"></polygon><polygon fill="#F0F0F0" points="98.454,119.66 106.742,145.168 133.565,145.168 111.866,160.934 120.154,186.443 98.454,170.677 76.755,186.443 85.044,160.934 63.346,145.168 90.168,145.168"></polygon></g></svg>