<?xml version="1.0" encoding="UTF-8"?><svg version="1.1" viewBox="0 0 20 20" xmlns="http://www.w3.org/2000/svg" xmlns:xlink="http://www.w3.org/1999/xlink"><g transform="matrix(.0390625 0 0 .0390625 0 0)"><circle cx="256" cy="256" r="256" fill="#F0F0F0"></circle><path fill="#FFDA44" d="M74.98 74.98c-54.865 54.865-79.612 128.439-74.259 200.185l274.443-274.443c-71.746-5.354-145.319 19.393-200.184 74.258Z"></path><path fill="#0052B4" d="M91.41 452.071c100.581 84.622 250.94 79.617 345.61-15.052 94.67-94.669 99.675-245.029 15.052-345.609l-360.662 360.661Z"></path><path fill="#000" d="M255.087 245.689l22.061-11.95 -22.061-11.95c-5.151-33.461-31.589-59.9-65.05-65.05l-11.951-22.062 -11.95 22.061c-33.46 5.15-59.898 31.589-65.05 65.05l-22.062 11.951 22.061 11.95c5.151 33.461 31.589 59.9 65.05 65.05l11.951 22.062 11.95-22.061c33.462-5.151 59.9-31.59 65.051-65.051Zm-77 32.572c-24.589 0-44.522-19.932-44.522-44.522 0-24.59 19.932-44.522 44.522-44.522 24.59 0 44.522 19.932 44.522 44.522 0 24.59-19.933 44.522-44.522 44.522Z"></path><polygon fill="#D80027" points="178.087,200.348 187.726,217.043 207.005,217.043 197.365,233.739 207.005,250.435 187.726,250.435 178.087,267.13 168.448,250.435 149.17,250.435 158.809,233.739 149.17,217.043 168.448,217.043"></polygon></g></svg>