<?xml version="1.0" encoding="UTF-8"?><svg version="1.1" viewBox="0 0 20 20" xmlns="http://www.w3.org/2000/svg" xmlns:xlink="http://www.w3.org/1999/xlink"><g transform="matrix(.0390625 0 0 .0390625 0 0)"><circle cx="256" cy="256" r="256" fill="#F0F0F0"></circle><path fill="#D80027" d="M31.127 133.565h449.745c-43.418-79.576-127.837-133.565-224.872-133.565 -97.035 0-181.454 53.989-224.873 133.565Z"></path><path fill="#D80027" d="M256 512c97.035 0 181.454-53.989 224.873-133.565h-449.746c43.419 79.576 127.838 133.565 224.873 133.565Z"></path><path fill="#FFDA44" d="M345.043 256c0 49.178-39.866 77.913-89.043 77.913 -49.177 0-89.043-28.735-89.043-77.913 0-49.178 39.866-89.043 89.043-89.043 49.177 0 89.043 39.865 89.043 89.043Z"></path><path fill="#0052B4" d="M345.043 256c0 49.178-39.866 89.043-89.043 89.043 -49.177 0-89.043-39.865-89.043-89.043"></path><rect width="22.261" height="44.522" x="200.348" y="233.739" fill="#D80027"></rect><rect width="22.261" height="44.522" x="289.391" y="233.739" fill="#D80027"></rect><rect width="22.261" height="77.913" x="244.87" y="200.348" fill="#D80027"></rect></g></svg>