<?xml version="1.0" encoding="UTF-8"?><svg version="1.1" viewBox="0 0 20 20" xmlns="http://www.w3.org/2000/svg" xmlns:xlink="http://www.w3.org/1999/xlink"><g transform="matrix(.0390625 0 0 .0390625 0 0)"><path fill="#D80027" d="M111.713 467.478c41.084 28.085 90.764 44.522 144.287 44.522 53.523 0 103.202-16.437 144.287-44.522l-144.287-22.261 -144.287 22.261Z"></path><path fill="#D80027" d="M400.287 44.522c-41.085-28.085-90.764-44.522-144.287-44.522 -53.523 0-103.203 16.437-144.287 44.522l144.287 22.261 144.287-22.261Z"></path><path fill="#0052B4" d="M512 256c0-84.71-50.716-169.78-111.713-211.478h-288.574c-67.443 46.104-111.713 123.618-111.713 211.478 0 87.863 44.27 165.374 111.713 211.478h288.574c67.444-46.104 111.713-123.615 111.713-211.478Z"></path><path fill="#D80027" d="M241.513 417.597c-3.498-3-85.687-74.448-85.687-161.597 0-87.149 82.188-158.598 85.687-161.597l14.487-12.418 14.487 12.417c3.498 3 85.687 74.448 85.687 161.598 0 87.15-82.188 158.599-85.687 161.597l-14.487 12.418 -14.487-12.418Z"></path><path fill="#338AF3" d="M333.913 256c0-77.913-77.913-144.696-77.913-144.696 0 0-77.913 66.785-77.913 144.696 0 23.835 7.297 46.624 17.419 66.783h120.988c10.122-20.159 17.419-42.948 17.419-66.783Z"></path><path fill="#0052B4" d="M333.913 256c0 23.835-7.297 46.624-17.419 66.783l-60.494 11.13 -60.494-11.13c-10.122-20.158-17.419-42.948-17.419-66.783h155.826Z"></path><path fill="#FFDA44" d="M256 400.696c0 0 37.528-32.177 60.494-77.913h-120.988c22.966 45.736 60.494 77.913 60.494 77.913Z"></path><polygon fill="#6DA544" points="205.913,211.478 306.087,211.478 256,261.565"></polygon><rect width="33.391" height="100.174" x="239.304" y="244.87" fill="#A2001D"></rect></g></svg>