<?xml version="1.0" encoding="UTF-8"?><svg version="1.1" viewBox="0 0 20 20" xmlns="http://www.w3.org/2000/svg" xmlns:xlink="http://www.w3.org/1999/xlink"><g transform="matrix(.0390625 0 0 .0390625 0 0)"><circle cx="256" cy="256" r="256" fill="#F0F0F0"></circle><path fill="#D80027" d="M511.991 255.259h-277.51c-55.097 55.098-88.415 97.635-122.435 131.655l144.696 13.04 224.534-22.261c19.595-36.195 30.724-77.644 30.724-121.693 0-.248-.009-.493-.009-.741Z"></path><path fill="#FFDA44" d="M112.047 132.824h368.412c-43.538-79.168-127.728-132.824-224.459-132.824 -70.505 0-134.341 28.511-180.636 74.624l36.683 58.2Z"></path><path fill="#0052B4" d="M123.177 377.693c-23.014 23.014-31.908 42.296-48.559 58.946 46.355 46.547 110.5 75.361 181.382 75.361 97.336 0 181.98-54.325 225.277-134.307h-358.1v0Z"></path><path fill="#6DA544" d="M74.98 74.239c-99.974 99.974-99.974 262.065 0 362.04 41.313-41.313 81.046-81.046 181.02-181.02l-181.02-181.02Z"></path><path fill="#F0F0F0" d="M67.525 255.259c0-37.298 26.213-68.457 61.217-76.101 -5.38-1.175-10.962-1.812-16.696-1.812 -43.031 0-77.913 34.882-77.913 77.913 0 43.031 34.882 77.913 77.913 77.913 5.733 0 11.315-.637 16.696-1.812 -35.004-7.645-61.217-38.803-61.217-76.101Z"></path><polygon fill="#F0F0F0" points="127.883,188.476 132.028,201.23 145.438,201.23 134.588,209.113 138.733,221.867 127.883,213.985 117.033,221.867 121.178,209.113 110.328,201.23 123.738,201.23"></polygon><polygon fill="#F0F0F0" points="127.883,221.867 132.028,234.622 145.438,234.622 134.588,242.504 138.733,255.259 127.883,247.376 117.033,255.259 121.178,242.504 110.328,234.622 123.738,234.622"></polygon><polygon fill="#F0F0F0" points="127.883,255.259 132.028,268.013 145.438,268.013 134.588,275.896 138.733,288.65 127.883,280.767 117.033,288.65 121.178,275.896 110.328,268.013 123.738,268.013"></polygon><polygon fill="#F0F0F0" points="127.883,288.65 132.028,301.404 145.438,301.404 134.588,309.287 138.733,322.041 127.883,314.159 117.033,322.041 121.178,309.287 110.328,301.404 123.738,301.404"></polygon></g></svg>