<?xml version="1.0" encoding="UTF-8"?><svg version="1.1" viewBox="0 0 20 20" xmlns="http://www.w3.org/2000/svg" xmlns:xlink="http://www.w3.org/1999/xlink"><g transform="matrix(.0390625 0 0 .0390625 0 0)"><circle cx="256" cy="256" r="256" fill="#F0F0F0"></circle><path fill="#FFDA44" d="M111.713 44.522c41.085-28.086 90.763-44.522 144.287-44.522 53.524 0 103.202 16.436 144.287 44.522l-144.287 11.13 -144.287-11.13Z"></path><path fill="#D80027" d="M74.994 437.006l118.042-118.04 62.964-107.488 62.957 107.481 118.049 118.047c46.33-46.324 74.994-110.313 74.994-181.006 0-87.861-44.269-165.375-111.713-211.478h-288.574c-67.444 46.103-111.713 123.617-111.713 211.478 0 70.693 28.664 134.682 74.994 181.006Z"></path><path fill="#0052B4" d="M492.552 354.021l-187.17-77.558 13.566 42.484 118.058 118.058c23.572-23.569 42.57-51.711 55.546-82.984Z"></path><path fill="#0052B4" d="M512 256c0-34.725-6.921-67.83-19.448-98.021l-236.552 98.021h256Z"></path><path fill="#0052B4" d="M437.006 74.994c-11.252-11.25-23.541-21.463-36.719-30.472h-56.655l-87.632 211.478 181.006-181.006Z"></path><polygon fill="#0052B4" points="256,44.522 168.369,44.522 256,256"></polygon><path fill="#0052B4" d="M74.994 74.994c-23.572 23.57-42.569 51.711-55.545 82.984l236.551 98.022 -181.006-181.006Z"></path><path fill="#0052B4" d="M0 256c0 34.725 6.921 67.83 19.448 98.021l236.552-98.021h-256Z"></path><path fill="#FFDA44" d="M111.713 467.478c41.084 28.086 90.763 44.522 144.287 44.522 53.524 0 103.202-16.436 144.287-44.522h-288.574Z"></path><path fill="#FFDA44" d="M256 256l62.963 62.963c16.115-16.114 26.081-38.374 26.081-62.963 0-49.178-39.866-89.043-89.043-89.043 -49.177 0-89.044 39.865-89.044 89.043 0 24.588 9.966 46.849 26.081 62.963l62.962-62.963Z"></path><path fill="#FFDA44" d="M294.957 384c0 21.515-17.443 27.826-38.957 27.826 -21.514 0-38.957-6.311-38.957-27.826 0-21.515 17.443-38.957 38.957-38.957 21.514 0 38.957 17.442 38.957 38.957Z"></path><path fill="#0052B4" d="M294.957 384c0 21.515-17.443 38.957-38.957 38.957 -21.514 0-38.957-17.442-38.957-38.957"></path></g></svg>