<?xml version="1.0" encoding="UTF-8"?><svg version="1.1" viewBox="0 0 20 20" xmlns="http://www.w3.org/2000/svg" xmlns:xlink="http://www.w3.org/1999/xlink"><g transform="matrix(.0390624 0 0 .0390624 0 0)"><path fill="#FFDA44" d="M138.771 483.645l188.065-156.808 156.808-188.065c-24.38-47.248-63.038-85.927-110.267-110.338l-188.214 156.731 -156.729 188.212c24.409 47.231 63.088 85.888 110.337 110.268Z"></path><path fill="#D80027" d="M437.027 437.028c80.766-80.767 96.271-202.064 46.546-298.41l-344.956 344.956c96.346 49.724 217.644 34.219 298.41-46.546Z"></path><path fill="#6DA544" d="M74.973 74.973c-80.766 80.766-96.27 202.064-46.547 298.41l344.957-344.956c-96.346-49.725-217.644-34.219-298.41 46.546Z"></path></g></svg>