<?xml version="1.0" encoding="UTF-8"?><svg version="1.1" viewBox="0 0 20 20" xmlns="http://www.w3.org/2000/svg" xmlns:xlink="http://www.w3.org/1999/xlink"><g transform="matrix(.0390625 0 0 .0390625 0 0)"><path fill="#F0F0F0" d="M25.402 144.696c-16.274 33.656-25.402 71.414-25.402 111.304 0 39.89 9.128 77.648 25.402 111.304l230.598 22.261 230.598-22.261c16.274-33.656 25.402-71.414 25.402-111.304 0-39.89-9.128-77.648-25.402-111.304l-230.598-22.261 -230.598 22.261Z"></path><path fill="#6DA544" d="M25.411 367.304c41.407 85.63 129.096 144.696 230.589 144.696 101.493 0 189.183-59.066 230.589-144.696h-461.178Z"></path><path fill="#D80027" d="M25.411 144.696h461.178c-41.406-85.63-129.096-144.696-230.589-144.696 -101.493 0-189.182 59.066-230.589 144.696Z"></path><polygon fill="#FFDA44" points="211.478,322.783 300.522,322.783 300.522,284.939 282.713,293.843 256,267.13 229.287,293.843 211.478,284.939"></polygon><polygon fill="#FFDA44" points="160.532,278.261 164.677,291.015 178.087,291.015 167.237,298.898 171.382,311.652 160.532,303.77 149.682,311.652 153.827,298.898 142.977,291.015 156.387,291.015"></polygon><polygon fill="#FFDA44" points="173.381,233.739 177.526,246.493 190.936,246.493 180.086,254.376 184.23,267.13 173.381,259.248 162.531,267.13 166.676,254.376 155.826,246.493 169.236,246.493"></polygon><polygon fill="#FFDA44" points="210.113,200.348 214.258,213.102 227.667,213.102 216.819,220.985 220.962,233.739 210.113,225.857 199.264,233.739 203.408,220.985 192.558,213.102 205.969,213.102"></polygon><polygon fill="#FFDA44" points="351.468,278.261 347.323,291.015 333.913,291.015 344.763,298.898 340.618,311.652 351.468,303.77 362.317,311.652 358.173,298.898 369.023,291.015 355.613,291.015"></polygon><polygon fill="#FFDA44" points="338.619,233.739 334.474,246.493 321.064,246.493 331.914,254.376 327.769,267.13 338.619,259.248 349.469,267.13 345.324,254.376 356.174,246.493 342.764,246.493"></polygon><polygon fill="#FFDA44" points="301.887,200.348 297.742,213.102 284.333,213.102 295.181,220.985 291.037,233.739 301.887,225.857 312.736,233.739 308.592,220.985 319.441,213.102 306.031,213.102"></polygon><polygon fill="#FFDA44" points="256,183.651 260.145,196.405 273.555,196.405 262.705,204.288 266.85,217.042 256,209.16 245.15,217.042 249.295,204.288 238.445,196.405 251.855,196.405"></polygon></g></svg>