<?xml version="1.0" encoding="UTF-8"?><svg version="1.1" viewBox="0 0 20 20" xmlns="http://www.w3.org/2000/svg" xmlns:xlink="http://www.w3.org/1999/xlink"><g transform="matrix(.0390625 0 0 .0390625 0 0)"><circle cx="256" cy="256" r="256" fill="#F0F0F0"></circle><path fill="#000" d="M256 0c-101.494 0-189.19 59.065-230.598 144.696h461.195c-41.407-85.631-129.104-144.696-230.597-144.696Z"></path><path fill="#496E2D" d="M256 512c-101.494 0-189.19-59.065-230.598-144.696h461.195c-41.407 85.631-129.104 144.696-230.597 144.696Z"></path><path fill="#A2001D" d="M499.911 178.087h-487.822c-7.842 24.569-12.089 50.744-12.089 77.913 0 27.169 4.247 53.344 12.089 77.913h487.821c7.843-24.569 12.09-50.744 12.09-77.913 0-27.169-4.247-53.344-12.089-77.913Z"></path><polygon fill="#F0F0F0" points="335.715,118.301 305.398,104.308 256,216.159 206.602,104.308 176.285,118.301 237.613,256 176.285,393.699 206.602,407.692 256,295.841 305.398,407.692 335.715,393.699 274.387,256"></polygon><path fill="#F0F0F0" d="M276.591 131.489c-11.736-12.817-20.591-20.185-20.591-20.185 0 0-8.855 7.367-20.591 20.185v249.02c11.736 12.819 20.591 20.187 20.591 20.187 0 0 8.855-7.367 20.591-20.186v-249.021Z"></path><path fill="#A2001D" d="M200.348 179.243v153.512c12.402 21.975 27.581 39.987 38.957 51.929v-257.369c-11.376 11.941-26.556 29.954-38.957 51.928Z"></path><path fill="#A2001D" d="M311.652 179.243c-12.403-21.975-27.581-39.987-38.957-51.928v257.369c11.375-11.942 26.554-29.954 38.957-51.929v-153.512Z"></path><path fill="#000" d="M311.652 179.243v153.512c12.555-22.249 22.261-48.558 22.261-76.755 0-28.197-9.706-54.507-22.261-76.757Z"></path><path fill="#000" d="M200.348 179.243v153.512c-12.555-22.249-22.261-48.558-22.261-76.755 0-28.197 9.706-54.507 22.261-76.757Z"></path></g></svg>