<?xml version="1.0" encoding="UTF-8"?><svg version="1.1" viewBox="0 0 20 20" xmlns="http://www.w3.org/2000/svg" xmlns:xlink="http://www.w3.org/1999/xlink"><g transform="matrix(.0390625 0 0 .0390625 0 0)"><path fill="#FFDA44" d="M0 256c0 31.314 5.633 61.31 15.923 89.043l240.077 11.131 240.077-11.13c10.291-27.734 15.923-57.73 15.923-89.044 0-31.314-5.632-61.31-15.923-89.043l-240.077-11.131 -240.077 11.13c-10.29 27.734-15.923 57.73-15.923 89.044Z"></path><path fill="#D80027" d="M256 0c-110.071 0-203.906 69.472-240.077 166.957h480.155c-36.172-97.485-130.007-166.957-240.078-166.957Z"></path><path fill="#496E2D" d="M496.077 345.043h-480.154c36.171 97.484 130.006 166.957 240.077 166.957 110.071 0 203.906-69.473 240.077-166.957Z"></path><polygon fill="#000" points="255.998,166.957 278.098,234.977 349.626,234.977 291.763,277.02 313.863,345.043 255.998,303.003 198.133,345.043 220.237,277.02 162.374,234.977 233.898,234.977"></polygon></g></svg>