<?xml version="1.0" encoding="UTF-8"?><svg version="1.1" viewBox="0 0 20 20" xmlns="http://www.w3.org/2000/svg" xmlns:xlink="http://www.w3.org/1999/xlink"><g transform="matrix(.0390625 0 0 .0390625 0 0)"><circle cx="256" cy="256" r="256" fill="#F0F0F0"></circle><path fill="#000" d="M155.826 166.957h340.25c-36.17-97.485-130.006-166.957-240.076-166.957 -70.694 0-134.687 28.659-181.011 74.989l80.837 91.968Z"></path><path fill="#6DA544" d="M155.826 345.043h340.25c-36.17 97.485-130.006 166.957-240.076 166.957 -70.694 0-134.687-28.659-181.011-74.989l80.837-91.968Z"></path><path fill="#D80027" d="M74.98 74.98c-99.974 99.974-99.974 262.065 0 362.04 41.313-41.313 81.046-81.046 181.02-181.02l-181.02-181.02Z"></path><polygon fill="#F0F0F0" points="101.605,200.348 115.654,229.727 147.383,222.394 133.173,251.695 158.688,271.929 126.921,279.088 127.009,311.652 101.605,291.279 76.2,311.652 76.289,279.088 44.522,271.929 70.036,251.695 55.828,222.394 87.555,229.727"></polygon></g></svg>