<?xml version="1.0" encoding="UTF-8"?><svg version="1.1" viewBox="0 0 20 20" xmlns="http://www.w3.org/2000/svg" xmlns:xlink="http://www.w3.org/1999/xlink"><g transform="matrix(.0390625 0 0 .0390625 0 0)"><circle cx="256" cy="256" r="256" fill="#F0F0F0"></circle><path fill="#D80027" d="M459.098 411.875l-155.875-155.874h-.001l155.876-155.877c-6.723-8.736-14.077-17.141-22.078-25.144 -8.003-8.002-16.407-15.357-25.144-22.078l-155.875 155.875 -.001.001 -155.875-155.876c-8.735 6.722-17.141 14.075-25.144 22.078 -8.003 8.003-15.357 16.408-22.078 25.144l155.875 155.874 .001.001 -155.877 155.877c6.723 8.736 14.077 17.141 22.078 25.144 8.003 8.002 16.407 15.357 25.144 22.078l155.876-155.875 .001-.001 155.875 155.875c8.735-6.722 17.141-14.076 25.144-22.078 8.003-8.003 15.356-16.408 22.078-25.144Z"></path><polygon fill="#FFDA44" points="211.478,77.913 256,89.043 300.522,77.913 300.522,40.07 282.713,48.974 256,22.261 229.287,48.974 211.478,40.07"></polygon><path fill="#D80027" d="M211.478 77.913v27.828c0 34.08 44.522 44.522 44.522 44.522 0 0 44.522-10.443 44.522-44.522v-27.828h-89.044Z"></path></g></svg>