<?xml version="1.0" encoding="UTF-8"?><svg version="1.1" viewBox="0 0 20 20" xmlns="http://www.w3.org/2000/svg" xmlns:xlink="http://www.w3.org/1999/xlink"><g transform="matrix(.0390625 0 0 .0390625 0 0)"><circle cx="256" cy="256" r="256" fill="#F0F0F0"></circle><path fill="#F0F0F0" d="M58.516 93.092h394.968c-14.588-17.665-31.508-33.33-50.277-46.545h-294.414c-18.769 13.213-35.688 28.879-50.277 46.545Z"></path><path fill="#F0F0F0" d="M0 256c0 7.847.373 15.605 1.064 23.273h509.872c.691-7.668 1.064-15.426 1.064-23.273 0-7.847-.373-15.605-1.064-23.272h-509.872c-.691 7.667-1.064 15.425-1.064 23.272Z"></path><path fill="#F0F0F0" d="M27.916 372.363h456.168c7.538-14.746 13.686-30.317 18.276-46.544h-492.72c4.589 16.227 10.739 31.799 18.276 46.544Z"></path><path fill="#F0F0F0" d="M108.793 465.455h294.413c18.769-13.215 35.689-28.88 50.277-46.545h-394.967c14.589 17.663 31.508 33.33 50.277 46.545Z"></path><path fill="#F0F0F0" d="M9.639 186.182h492.722c-4.59-16.228-10.739-31.8-18.277-46.545h-456.168c-7.537 14.745-13.687 30.317-18.277 46.545Z"></path><path fill="#D80027" d="M122.435 46.545h280.772c-41.64-29.318-92.41-46.545-147.207-46.545 -33.391 0-91.925 17.227-133.565 46.545Z"></path><path fill="#D80027" d="M244.87 139.637h239.214c-8.513-16.653-18.795-32.252-30.6-46.545h-208.614v46.545Z"></path><path fill="#D80027" d="M244.87 232.728h266.066c-1.44-15.982-4.334-31.546-8.575-46.545h-257.491v46.545Z"></path><path fill="#D80027" d="M9.64 325.819h492.72c4.242-14.998 7.136-30.563 8.576-46.545h-509.872c1.44 15.982 4.334 31.546 8.576 46.545Z"></path><path fill="#D80027" d="M58.516 418.908h394.968c11.805-14.295 22.087-29.893 30.6-46.545h-456.168c8.513 16.653 18.795 32.252 30.6 46.545Z"></path><path fill="#D80027" d="M256 512c54.797 0 105.567-17.227 147.207-46.545h-294.414c41.64 29.318 92.41 46.545 147.207 46.545Z"></path><path fill="#0052B4" d="M9.639 186.182c-4.242 15-7.135 30.563-8.575 46.545h254.936v-232.727c-117.18 0-215.969 78.732-246.361 186.182Z"></path><polygon fill="#F0F0F0" points="152.388,66.783 168.963,117.798 222.609,117.798 179.211,149.33 195.785,200.348 152.388,168.818 108.989,200.348 125.567,149.33 82.169,117.798 135.812,117.798"></polygon></g></svg>