<?xml version="1.0" encoding="UTF-8"?><svg version="1.1" viewBox="0 0 20 20" xmlns="http://www.w3.org/2000/svg" xmlns:xlink="http://www.w3.org/1999/xlink"><g transform="matrix(.0390625 0 0 .0390625 0 0)"><circle cx="256" cy="256" r="256" fill="#F0F0F0"></circle><path fill="#751A46" d="M512 256c0-141.384-114.616-256-256-256 -50.08 0-96.794 14.395-136.252 39.251l56.113 23.841 -75.687 32.158 75.687 32.157 -75.687 32.156 75.687 32.155 -75.687 32.151 75.687 32.149 -75.687 32.156 75.687 32.154 -75.687 32.151 75.687 32.154 -75.687 32.156 75.687 32.151 -56.088 23.828c39.453 24.844 86.157 39.232 136.227 39.232 141.384 0 256-114.616 256-256Z"></path></g></svg>