<?xml version="1.0" encoding="UTF-8"?><svg version="1.1" viewBox="0 0 20 20" xmlns="http://www.w3.org/2000/svg" xmlns:xlink="http://www.w3.org/1999/xlink"><g transform="matrix(.0390625 0 0 .0390625 0 0)"><path fill="#FFDA44" d="M345.046 15.924c-27.734-10.291-57.731-15.924-89.046-15.924 -31.313 0-61.309 5.633-89.041 15.922l-11.131 240.078 11.13 240.078c27.733 10.29 57.729 15.922 89.042 15.922 31.316 0 61.312-5.632 89.046-15.924l11.13-240.076 -11.13-240.076Z"></path><path fill="#D80027" d="M0 256c0 110.07 69.472 203.906 166.957 240.076v-480.154c-97.485 36.172-166.957 130.006-166.957 240.078Z"></path><path fill="#6DA544" d="M512 256c0-110.072-69.472-203.906-166.957-240.078v480.155c97.485-36.171 166.957-130.007 166.957-240.077Z"></path></g></svg>