<?xml version="1.0" encoding="UTF-8"?><svg version="1.1" viewBox="0 0 20 20" xmlns="http://www.w3.org/2000/svg" xmlns:xlink="http://www.w3.org/1999/xlink"><g transform="matrix(.0390625 0 0 .0390625 0 0)"><circle cx="256" cy="256" r="256" fill="#F0F0F0"></circle><path fill="#338AF3" d="M512 256c0-101.494-59.065-189.19-144.696-230.598v461.195c85.631-41.407 144.696-129.104 144.696-230.597Z"></path><path fill="#338AF3" d="M0 256c0 101.493 59.065 189.19 144.696 230.598v-461.196c-85.631 41.408-144.696 129.104-144.696 230.598Z"></path><polygon fill="#ACABB1" points="322.898,299.288 279.612,256.002 320.815,214.797 318.948,193.035 307.152,181.237 256,232.389 204.848,181.237 193.052,193.035 191.185,214.797 232.388,256.002 189.101,299.288 212.713,322.898 256,279.613 299.287,322.898"></polygon><path fill="#6DA544" d="M318.963 193.037l-23.611 23.611c10.071 10.071 16.301 23.984 16.301 39.352 0 30.736-24.917 55.652-55.652 55.652 -30.735 0-55.653-24.916-55.653-55.652 0-15.368 6.23-29.281 16.301-39.352l-23.611-23.611c-16.115 16.112-26.081 38.373-26.081 62.963 0 49.178 39.866 89.043 89.043 89.043 49.177 0 89.043-39.866 89.043-89.043 0-24.589-9.966-46.85-26.08-62.963Z"></path></g></svg>