<?xml version="1.0" encoding="UTF-8"?><svg version="1.1" viewBox="0 0 20 20" xmlns="http://www.w3.org/2000/svg" xmlns:xlink="http://www.w3.org/1999/xlink"><g transform="matrix(.0390625 0 0 .0390625 0 0)"><path fill="#F0F0F0" d="M256 0c141.384 0 256 114.616 256 256 0 141.384-114.616 256-256 256 0-11.13-33.391-256-33.391-256l33.391-256Z"></path><path fill="#496E2D" d="M256 512c-141.384 0-256-114.616-256-256 0-141.384 114.616-256 256-256"></path><polygon fill="#D80027" points="311.003,206.896 289.999,235.841 255.982,224.809 277.02,253.729 256.018,282.674 290.022,271.603 311.06,300.522 311.038,264.761 345.043,253.689 311.027,242.659"></polygon><path fill="#D80027" d="M277.237 328.348c-39.956 0-72.348-32.392-72.348-72.348 0-39.956 32.392-72.348 72.348-72.348 12.458 0 24.181 3.15 34.415 8.696 -16.056-15.701-38.012-25.392-62.241-25.392 -49.178 0-89.043 39.866-89.043 89.043 0 49.177 39.866 89.043 89.043 89.043 24.23 0 46.186-9.691 62.241-25.392 -10.234 5.548-21.957 8.698-34.415 8.698Z"></path></g></svg>