<?xml version="1.0" encoding="UTF-8"?><svg version="1.1" viewBox="0 0 20 20" xmlns="http://www.w3.org/2000/svg" xmlns:xlink="http://www.w3.org/1999/xlink"><g transform="matrix(.0390625 0 0 .0390625 0 0)"><path fill="#F0F0F0" d="M367.304 25.402c-33.656-16.274-71.413-25.402-111.304-25.402 -39.891 0-77.648 9.128-111.304 25.402l-22.261 230.598 22.261 230.598c33.656 16.274 71.413 25.402 111.304 25.402 39.891 0 77.648-9.128 111.304-25.402l22.261-230.598 -22.261-230.598Z"></path><path fill="#6DA544" d="M144.696 25.411c-85.631 41.406-144.696 129.095-144.696 230.589 0 101.494 59.065 189.183 144.696 230.589v-461.178Z"></path><path fill="#6DA544" d="M367.304 25.411v461.178c85.631-41.406 144.696-129.096 144.696-230.589 0-101.493-59.065-189.183-144.696-230.589Z"></path><polygon fill="#6DA544" points="322.783,333.913 256,122.435 189.217,333.913 239.304,333.913 239.304,389.565 272.696,389.565 272.696,333.913"></polygon></g></svg>