<?xml version="1.0" encoding="UTF-8"?><svg version="1.1" viewBox="0 0 20 20" xmlns="http://www.w3.org/2000/svg" xmlns:xlink="http://www.w3.org/1999/xlink"><g transform="matrix(.0390625 0 0 .0390625 0 0)"><circle cx="256" cy="256" r="256" fill="#FFDA44"></circle><path fill="#0052B4" d="M411.826 122.435c-2.296 11.035-3.339 22.788-3.339 34.504 0 67.534 40.259 125.985 97.954 152.298 3.633-17.176 5.559-34.981 5.559-53.237 0-141.384-114.616-256-256-256 -141.384 0-256 114.616-256 256 0 141.384 114.616 256 256 256 87.682 0 165.058-44.092 211.196-111.304h-322.5v-33.391h341.902c3.499-7.236 6.66-14.665 9.48-22.261h-351.382l267.13-222.609Z"></path><polygon fill="#F0F0F0" points="188.072,133.565 193.598,150.571 211.478,150.571 197.013,161.082 202.539,178.087 188.072,167.578 173.607,178.087 179.132,161.082 164.665,150.571 182.546,150.571"></polygon><polygon fill="#F0F0F0" points="115.438,256 122.346,277.259 144.696,277.259 126.613,290.394 133.521,311.652 115.438,298.514 97.356,311.652 104.263,290.394 86.181,277.259 108.531,277.259"></polygon><polygon fill="#F0F0F0" points="115.438,77.913 122.346,99.172 144.696,99.172 126.613,112.307 133.521,133.565 115.438,120.427 97.356,133.565 104.263,112.307 86.181,99.172 108.531,99.172"></polygon><polygon fill="#F0F0F0" points="59.786,178.087 66.694,199.346 89.043,199.346 70.961,212.481 77.869,233.739 59.786,220.601 41.704,233.739 48.611,212.481 30.529,199.346 52.878,199.346"></polygon></g></svg>