<?xml version="1.0" encoding="UTF-8"?><svg version="1.1" viewBox="0 0 20 20" xmlns="http://www.w3.org/2000/svg" xmlns:xlink="http://www.w3.org/1999/xlink"><g transform="matrix(.0390625 0 0 .0390625 0 0)"><path fill="#FFDA44" d="M15.923 345.043c36.171 97.484 130.006 166.957 240.077 166.957 110.071 0 203.906-69.473 240.077-166.957l-240.077-22.26 -240.077 22.26Z"></path><path fill="#000" d="M256 0c-110.071 0-203.906 69.472-240.077 166.957l240.077 22.26 240.077-22.261c-36.171-97.484-130.006-166.956-240.077-166.956Z"></path><path fill="#D80027" d="M15.923 166.957c-10.29 27.733-15.923 57.729-15.923 89.043 0 31.314 5.633 61.31 15.923 89.043h480.155c10.29-27.733 15.922-57.729 15.922-89.043 0-31.314-5.632-61.31-15.923-89.043h-480.154Z"></path></g></svg>