<?xml version="1.0" encoding="UTF-8"?><svg version="1.1" viewBox="0 0 20 20" xmlns="http://www.w3.org/2000/svg" xmlns:xlink="http://www.w3.org/1999/xlink"><g transform="matrix(.0390625 0 0 .0390625 0 0)"><circle cx="256" cy="256" r="256" fill="#F0F0F0"></circle><path fill="#A2001D" d="M74.981 437.02c10.739 10.739 22.197 20.316 34.216 28.748l356.569-356.57c-8.431-12.019-18.008-23.477-28.748-34.216 -10.739-10.739-22.197-20.315-34.216-28.747l-356.568 356.57c8.431 12.017 18.008 23.476 28.747 34.215Z"></path><path fill="#0052B4" d="M74.981 74.98c-80.764 80.764-96.268 202.056-46.545 298.398l344.942-344.941c-96.342-49.723-217.635-34.217-298.397 46.543Z"></path><path fill="#496E2D" d="M437.019 437.02c80.762-80.762 96.266-202.055 46.545-298.398l-344.942 344.942c96.341 49.723 217.634 34.219 298.397-46.544Z"></path><polygon fill="#FFDA44" points="211.478,144.696 182.792,158.189 198.068,185.971 166.919,180.013 162.971,211.478 141.275,188.335 119.578,211.478 115.632,180.013 84.482,185.97 99.757,158.188 71.072,144.696 99.758,131.202 84.482,103.422 115.631,109.38 119.579,77.913 141.275,101.057 162.972,77.913 166.919,109.38 198.068,103.422 182.794,131.203"></polygon></g></svg>