<?xml version="1.0" encoding="UTF-8"?><svg version="1.1" viewBox="0 0 20 20" xmlns="http://www.w3.org/2000/svg" xmlns:xlink="http://www.w3.org/1999/xlink"><g transform="matrix(.0390625 0 0 .0390625 0 0)"><path fill="#FFDA44" d="M0 256c0-141.384 114.616-256 256-256 141.384 0 256 114.616 256 256l-256 22.261 -256-22.261Z"></path><path fill="#D80027" d="M34.256 384c44.265 76.516 126.989 128 221.744 128 94.755 0 177.479-51.484 221.744-128l-221.744-16.696 -221.744 16.696Z"></path><path fill="#0052B4" d="M477.744 384c21.782-37.654 34.256-81.369 34.256-128h-512c0 46.631 12.474 90.346 34.256 128h443.488Z"></path><circle cx="256" cy="256" r="89.043" fill="#FFDA44"></circle><path fill="#338AF3" d="M256 311.652c-30.687 0-55.652-24.966-55.652-55.652v-33.391c0-30.687 24.966-55.652 55.652-55.652 30.686 0 55.652 24.966 55.652 55.652v33.391c5.68434e-14 30.687-24.965 55.652-55.652 55.652Z"></path><path fill="#000" d="M345.043 122.435h-66.783c0-12.294-9.967-22.261-22.261-22.261 -12.294 0-22.261 9.967-22.261 22.261h-66.783c0 12.295 10.709 22.261 23.002 22.261h-.741c0 12.295 9.966 22.261 22.261 22.261 0 12.295 9.966 22.261 22.261 22.261h44.522c12.295 0 22.261-9.966 22.261-22.261 12.295 0 22.261-9.966 22.261-22.261h-.741c12.294 0 23.002-9.967 23.002-22.261Z"></path></g></svg>