<?xml version="1.0" encoding="UTF-8"?><svg version="1.1" viewBox="0 0 20 20" xmlns="http://www.w3.org/2000/svg" xmlns:xlink="http://www.w3.org/1999/xlink"><g transform="matrix(.0390625 0 0 .0390625 0 0)"><path fill="#D80027" d="M512 256c0 141.384-114.616 256-256 256 -141.384 0-256-114.616-256-256 87.93-87.93 162.504-162.504 256-256 141.384 0 256 114.616 256 256Z"></path><path fill="#0052B4" d="M256 256c0-141.384 0-158.052 0-256 -141.384 0-256 114.616-256 256h256Z"></path><polygon fill="#F0F0F0" points="205.054,166.957 209.199,179.712 222.609,179.712 211.759,187.593 215.904,200.348 205.054,192.465 194.204,200.348 198.349,187.593 187.499,179.712 200.909,179.712"></polygon><polygon fill="#F0F0F0" points="137.698,66.783 144.605,88.042 166.957,88.042 148.873,101.177 155.782,122.435 137.698,109.296 119.615,122.435 126.523,101.177 108.44,88.042 130.79,88.042"></polygon><polygon fill="#F0F0F0" points="204.481,89.043 211.388,110.303 233.739,110.303 215.656,123.438 222.563,144.696 204.481,131.557 186.398,144.696 193.306,123.438 175.223,110.303 197.573,110.303"></polygon><polygon fill="#F0F0F0" points="151.693,178.087 158.601,199.346 180.951,199.346 162.868,212.481 169.776,233.739 151.693,220.601 133.61,233.739 140.518,212.481 122.435,199.346 144.786,199.346"></polygon><polygon fill="#F0F0F0" points="93.176,122.435 100.084,143.694 122.435,143.694 104.351,156.829 111.259,178.087 93.176,164.949 75.094,178.087 82.001,156.829 63.919,143.694 86.269,143.694"></polygon></g></svg>