<svg width="64" height="64" viewBox="0 0 64 64" fill="none" xmlns="http://www.w3.org/2000/svg">
<g clip-path="url(#clip0_17_13919)">
<path d="M32 0C14.4 0 0 14.4 0 32C0 49.6 14.4 64 32 64C49.6 64 64 49.6 64 32C64 14.4 49.6 0 32 0ZM32 60C27.2 60 23 55 20.4 47.6C28 45.8 36 45.8 43.6 47.6C41 55 36.8 60 32 60ZM32 42.2C27.8 42.2 23.4 42.6 19.4 43.6C18.6 40.6 18.2 37.2 18 34H46C45.8 37.2 45.4 40.6 44.8 43.6C40.6 42.8 36.2 42.2 32 42.2ZM32 4C36.8 4 41 9.2 43.6 16.6C39.8 17.6 36 18 32 18C28 18 24.2 17.6 20.4 16.6C23 9.2 27.2 4 32 4ZM32 22C36.2 22 40.6 21.6 44.8 20.6C45.6 23.8 46 26.8 46 30H18C18.2 26.8 18.6 23.6 19.2 20.6C23.4 21.4 27.8 22 32 22ZM14 30H4C4.4 25.2 6 20.4 8.6 16.4C10.8 17.6 13 18.6 15.2 19.4C14.6 22.8 14.2 26.4 14 30ZM14 34C14.2 37.6 14.6 41.2 15.4 44.8C13.2 45.6 11 46.6 8.8 47.8C6 43.8 4.4 39 4 34H14ZM50 34H60C59.6 39 58 43.6 55.2 47.8C53.2 46.6 50.8 45.6 48.6 44.8C49.4 41.2 49.8 37.6 50 34ZM50 30C49.8 26.4 49.4 22.8 48.6 19.4C51 18.6 53.2 17.6 55.2 16.4C58 20.4 59.6 25.2 59.8 30H50ZM52.8 13.2C51.2 14.2 49.4 14.8 47.6 15.6C46.6 12.2 45 9 42.8 6.2C46.6 7.8 50 10.2 52.8 13.2ZM21.4 6.2C19.2 9 17.6 12.2 16.6 15.6C14.6 15 13 14.2 11.2 13.2C14 10.2 17.4 7.8 21.4 6.2ZM11.4 51C13 50 14.8 49.4 16.6 48.8C17.6 52.2 19.2 55.2 21.4 58C17.6 56.2 14.2 54 11.4 51ZM42.6 57.8C44.6 55 46.2 51.8 47.4 48.6C49.2 49.2 51 50 52.6 50.8C49.8 54 46.4 56.2 42.6 57.8Z" fill="#0077E6"/>
</g>
<defs>
<clipPath id="clip0_17_13919">
<rect width="64" height="64" fill="white"/>
</clipPath>
</defs>
</svg>
