<svg width="40" height="40" viewBox="0 0 40 40" fill="none" xmlns="http://www.w3.org/2000/svg">
<g clip-path="url(#clip0_1_112)">
<path d="M20 26.6666C23.6819 26.6666 26.6667 23.6819 26.6667 20C26.6667 16.3181 23.6819 13.3333 20 13.3333C16.3181 13.3333 13.3333 16.3181 13.3333 20C13.3333 23.6819 16.3181 26.6666 20 26.6666Z" fill="#22C55E"/>
<path d="M37.9167 17.9167H35.6833C35.2236 14.4713 33.6428 11.2729 31.185 8.81503C28.7271 6.35717 25.5287 4.77642 22.0833 4.31667V2.08333C22.0833 1.5308 21.8638 1.00089 21.4731 0.610194C21.0824 0.219493 20.5525 0 20 0C19.4475 0 18.9176 0.219493 18.5269 0.610194C18.1362 1.00089 17.9167 1.5308 17.9167 2.08333V4.31667C14.4713 4.77642 11.2729 6.35717 8.81503 8.81503C6.35717 11.2729 4.77642 14.4713 4.31667 17.9167H2.08333C1.5308 17.9167 1.00089 18.1362 0.610194 18.5269C0.219493 18.9176 0 19.4475 0 20C0 20.5525 0.219493 21.0824 0.610194 21.4731C1.00089 21.8638 1.5308 22.0833 2.08333 22.0833H4.31667C4.77642 25.5287 6.35717 28.7271 8.81503 31.185C11.2729 33.6428 14.4713 35.2236 17.9167 35.6833V37.9167C17.9167 38.4692 18.1362 38.9991 18.5269 39.3898C18.9176 39.7805 19.4475 40 20 40C20.5525 40 21.0824 39.7805 21.4731 39.3898C21.8638 38.9991 22.0833 38.4692 22.0833 37.9167V35.6833C25.5287 35.2236 28.7271 33.6428 31.185 31.185C33.6428 28.7271 35.2236 25.5287 35.6833 22.0833H37.9167C38.4692 22.0833 38.9991 21.8638 39.3898 21.4731C39.7805 21.0824 40 20.5525 40 20C40 19.4475 39.7805 18.9176 39.3898 18.5269C38.9991 18.1362 38.4692 17.9167 37.9167 17.9167ZM20 31.6667C17.6926 31.6667 15.4369 30.9824 13.5183 29.7005C11.5998 28.4185 10.1044 26.5964 9.2214 24.4646C8.33838 22.3328 8.10734 19.9871 8.5575 17.7239C9.00767 15.4608 10.1188 13.382 11.7504 11.7504C13.382 10.1188 15.4608 9.00767 17.7239 8.5575C19.9871 8.10734 22.3328 8.33838 24.4646 9.2214C26.5964 10.1044 28.4185 11.5998 29.7005 13.5183C30.9824 15.4369 31.6667 17.6926 31.6667 20C31.6667 23.0942 30.4375 26.0617 28.2496 28.2496C26.0617 30.4375 23.0942 31.6667 20 31.6667Z" fill="#0077E6"/>
</g>
<defs>
<clipPath id="clip0_1_112">
<rect width="40" height="40" fill="white"/>
</clipPath>
</defs>
</svg>
